%TF.GenerationSoftware,KiCad,Pcbnew,10.0.5*%
%TF.CreationDate,2026-09-26T10:13:51+03:00*%
%TF.ProjectId,nielo,6e69656c-6f2e-46b6-9963-61645f706362,rev?*%
%TF.SameCoordinates,Original*%
%TF.FileFunction,Legend,Top*%
%TF.FilePolarity,Positive*%
%FSLAX46Y46*%
G04 Gerber Fmt 4.6, Leading zero omitted, Abs format (unit mm)*
G04 Created by KiCad (PCBNEW 10.0.5) date 2026-09-26 10:13:51*
%MOMM*%
%LPD*%
G01*
G04 APERTURE LIST*
%ADD10C,0.150000*%
%ADD11C,0.152400*%
%ADD12C,0.100000*%
%ADD13C,0.000000*%
%ADD14C,0.127000*%
%ADD15C,0.200000*%
%ADD16C,0.508000*%
%ADD17C,0.175000*%
%ADD18C,0.120000*%
G04 APERTURE END LIST*
D10*
X124749523Y-56142295D02*
X125206666Y-56142295D01*
X124978094Y-56942295D02*
X124978094Y-56142295D01*
X125473333Y-56942295D02*
X125473333Y-56142295D01*
X125473333Y-56142295D02*
X125778095Y-56142295D01*
X125778095Y-56142295D02*
X125854285Y-56180390D01*
X125854285Y-56180390D02*
X125892380Y-56218485D01*
X125892380Y-56218485D02*
X125930476Y-56294676D01*
X125930476Y-56294676D02*
X125930476Y-56408961D01*
X125930476Y-56408961D02*
X125892380Y-56485152D01*
X125892380Y-56485152D02*
X125854285Y-56523247D01*
X125854285Y-56523247D02*
X125778095Y-56561342D01*
X125778095Y-56561342D02*
X125473333Y-56561342D01*
X126692380Y-56942295D02*
X126235237Y-56942295D01*
X126463809Y-56942295D02*
X126463809Y-56142295D01*
X126463809Y-56142295D02*
X126387618Y-56256580D01*
X126387618Y-56256580D02*
X126311428Y-56332771D01*
X126311428Y-56332771D02*
X126235237Y-56370866D01*
X127187619Y-56142295D02*
X127263809Y-56142295D01*
X127263809Y-56142295D02*
X127340000Y-56180390D01*
X127340000Y-56180390D02*
X127378095Y-56218485D01*
X127378095Y-56218485D02*
X127416190Y-56294676D01*
X127416190Y-56294676D02*
X127454285Y-56447057D01*
X127454285Y-56447057D02*
X127454285Y-56637533D01*
X127454285Y-56637533D02*
X127416190Y-56789914D01*
X127416190Y-56789914D02*
X127378095Y-56866104D01*
X127378095Y-56866104D02*
X127340000Y-56904200D01*
X127340000Y-56904200D02*
X127263809Y-56942295D01*
X127263809Y-56942295D02*
X127187619Y-56942295D01*
X127187619Y-56942295D02*
X127111428Y-56904200D01*
X127111428Y-56904200D02*
X127073333Y-56866104D01*
X127073333Y-56866104D02*
X127035238Y-56789914D01*
X127035238Y-56789914D02*
X126997142Y-56637533D01*
X126997142Y-56637533D02*
X126997142Y-56447057D01*
X126997142Y-56447057D02*
X127035238Y-56294676D01*
X127035238Y-56294676D02*
X127073333Y-56218485D01*
X127073333Y-56218485D02*
X127111428Y-56180390D01*
X127111428Y-56180390D02*
X127187619Y-56142295D01*
X135280476Y-71612295D02*
X135737619Y-71612295D01*
X135509047Y-72412295D02*
X135509047Y-71612295D01*
X136004286Y-72412295D02*
X136004286Y-71612295D01*
X136004286Y-71612295D02*
X136309048Y-71612295D01*
X136309048Y-71612295D02*
X136385238Y-71650390D01*
X136385238Y-71650390D02*
X136423333Y-71688485D01*
X136423333Y-71688485D02*
X136461429Y-71764676D01*
X136461429Y-71764676D02*
X136461429Y-71878961D01*
X136461429Y-71878961D02*
X136423333Y-71955152D01*
X136423333Y-71955152D02*
X136385238Y-71993247D01*
X136385238Y-71993247D02*
X136309048Y-72031342D01*
X136309048Y-72031342D02*
X136004286Y-72031342D01*
X137223333Y-72412295D02*
X136766190Y-72412295D01*
X136994762Y-72412295D02*
X136994762Y-71612295D01*
X136994762Y-71612295D02*
X136918571Y-71726580D01*
X136918571Y-71726580D02*
X136842381Y-71802771D01*
X136842381Y-71802771D02*
X136766190Y-71840866D01*
X188059523Y-49342295D02*
X188516666Y-49342295D01*
X188288094Y-50142295D02*
X188288094Y-49342295D01*
X188783333Y-50142295D02*
X188783333Y-49342295D01*
X188783333Y-49342295D02*
X189088095Y-49342295D01*
X189088095Y-49342295D02*
X189164285Y-49380390D01*
X189164285Y-49380390D02*
X189202380Y-49418485D01*
X189202380Y-49418485D02*
X189240476Y-49494676D01*
X189240476Y-49494676D02*
X189240476Y-49608961D01*
X189240476Y-49608961D02*
X189202380Y-49685152D01*
X189202380Y-49685152D02*
X189164285Y-49723247D01*
X189164285Y-49723247D02*
X189088095Y-49761342D01*
X189088095Y-49761342D02*
X188783333Y-49761342D01*
X190002380Y-50142295D02*
X189545237Y-50142295D01*
X189773809Y-50142295D02*
X189773809Y-49342295D01*
X189773809Y-49342295D02*
X189697618Y-49456580D01*
X189697618Y-49456580D02*
X189621428Y-49532771D01*
X189621428Y-49532771D02*
X189545237Y-49570866D01*
X190307142Y-49418485D02*
X190345238Y-49380390D01*
X190345238Y-49380390D02*
X190421428Y-49342295D01*
X190421428Y-49342295D02*
X190611904Y-49342295D01*
X190611904Y-49342295D02*
X190688095Y-49380390D01*
X190688095Y-49380390D02*
X190726190Y-49418485D01*
X190726190Y-49418485D02*
X190764285Y-49494676D01*
X190764285Y-49494676D02*
X190764285Y-49570866D01*
X190764285Y-49570866D02*
X190726190Y-49685152D01*
X190726190Y-49685152D02*
X190269047Y-50142295D01*
X190269047Y-50142295D02*
X190764285Y-50142295D01*
X189920476Y-104492295D02*
X190377619Y-104492295D01*
X190149047Y-105292295D02*
X190149047Y-104492295D01*
X190644286Y-105292295D02*
X190644286Y-104492295D01*
X190644286Y-104492295D02*
X190949048Y-104492295D01*
X190949048Y-104492295D02*
X191025238Y-104530390D01*
X191025238Y-104530390D02*
X191063333Y-104568485D01*
X191063333Y-104568485D02*
X191101429Y-104644676D01*
X191101429Y-104644676D02*
X191101429Y-104758961D01*
X191101429Y-104758961D02*
X191063333Y-104835152D01*
X191063333Y-104835152D02*
X191025238Y-104873247D01*
X191025238Y-104873247D02*
X190949048Y-104911342D01*
X190949048Y-104911342D02*
X190644286Y-104911342D01*
X191406190Y-104568485D02*
X191444286Y-104530390D01*
X191444286Y-104530390D02*
X191520476Y-104492295D01*
X191520476Y-104492295D02*
X191710952Y-104492295D01*
X191710952Y-104492295D02*
X191787143Y-104530390D01*
X191787143Y-104530390D02*
X191825238Y-104568485D01*
X191825238Y-104568485D02*
X191863333Y-104644676D01*
X191863333Y-104644676D02*
X191863333Y-104720866D01*
X191863333Y-104720866D02*
X191825238Y-104835152D01*
X191825238Y-104835152D02*
X191368095Y-105292295D01*
X191368095Y-105292295D02*
X191863333Y-105292295D01*
X183460476Y-110822295D02*
X183917619Y-110822295D01*
X183689047Y-111622295D02*
X183689047Y-110822295D01*
X184184286Y-111622295D02*
X184184286Y-110822295D01*
X184184286Y-110822295D02*
X184489048Y-110822295D01*
X184489048Y-110822295D02*
X184565238Y-110860390D01*
X184565238Y-110860390D02*
X184603333Y-110898485D01*
X184603333Y-110898485D02*
X184641429Y-110974676D01*
X184641429Y-110974676D02*
X184641429Y-111088961D01*
X184641429Y-111088961D02*
X184603333Y-111165152D01*
X184603333Y-111165152D02*
X184565238Y-111203247D01*
X184565238Y-111203247D02*
X184489048Y-111241342D01*
X184489048Y-111241342D02*
X184184286Y-111241342D01*
X185365238Y-110822295D02*
X184984286Y-110822295D01*
X184984286Y-110822295D02*
X184946190Y-111203247D01*
X184946190Y-111203247D02*
X184984286Y-111165152D01*
X184984286Y-111165152D02*
X185060476Y-111127057D01*
X185060476Y-111127057D02*
X185250952Y-111127057D01*
X185250952Y-111127057D02*
X185327143Y-111165152D01*
X185327143Y-111165152D02*
X185365238Y-111203247D01*
X185365238Y-111203247D02*
X185403333Y-111279438D01*
X185403333Y-111279438D02*
X185403333Y-111469914D01*
X185403333Y-111469914D02*
X185365238Y-111546104D01*
X185365238Y-111546104D02*
X185327143Y-111584200D01*
X185327143Y-111584200D02*
X185250952Y-111622295D01*
X185250952Y-111622295D02*
X185060476Y-111622295D01*
X185060476Y-111622295D02*
X184984286Y-111584200D01*
X184984286Y-111584200D02*
X184946190Y-111546104D01*
X128839523Y-53692295D02*
X129296666Y-53692295D01*
X129068094Y-54492295D02*
X129068094Y-53692295D01*
X129563333Y-54492295D02*
X129563333Y-53692295D01*
X129563333Y-53692295D02*
X129868095Y-53692295D01*
X129868095Y-53692295D02*
X129944285Y-53730390D01*
X129944285Y-53730390D02*
X129982380Y-53768485D01*
X129982380Y-53768485D02*
X130020476Y-53844676D01*
X130020476Y-53844676D02*
X130020476Y-53958961D01*
X130020476Y-53958961D02*
X129982380Y-54035152D01*
X129982380Y-54035152D02*
X129944285Y-54073247D01*
X129944285Y-54073247D02*
X129868095Y-54111342D01*
X129868095Y-54111342D02*
X129563333Y-54111342D01*
X130782380Y-54492295D02*
X130325237Y-54492295D01*
X130553809Y-54492295D02*
X130553809Y-53692295D01*
X130553809Y-53692295D02*
X130477618Y-53806580D01*
X130477618Y-53806580D02*
X130401428Y-53882771D01*
X130401428Y-53882771D02*
X130325237Y-53920866D01*
X131544285Y-54492295D02*
X131087142Y-54492295D01*
X131315714Y-54492295D02*
X131315714Y-53692295D01*
X131315714Y-53692295D02*
X131239523Y-53806580D01*
X131239523Y-53806580D02*
X131163333Y-53882771D01*
X131163333Y-53882771D02*
X131087142Y-53920866D01*
X135660476Y-102612295D02*
X136117619Y-102612295D01*
X135889047Y-103412295D02*
X135889047Y-102612295D01*
X136384286Y-103412295D02*
X136384286Y-102612295D01*
X136384286Y-102612295D02*
X136689048Y-102612295D01*
X136689048Y-102612295D02*
X136765238Y-102650390D01*
X136765238Y-102650390D02*
X136803333Y-102688485D01*
X136803333Y-102688485D02*
X136841429Y-102764676D01*
X136841429Y-102764676D02*
X136841429Y-102878961D01*
X136841429Y-102878961D02*
X136803333Y-102955152D01*
X136803333Y-102955152D02*
X136765238Y-102993247D01*
X136765238Y-102993247D02*
X136689048Y-103031342D01*
X136689048Y-103031342D02*
X136384286Y-103031342D01*
X137108095Y-102612295D02*
X137641429Y-102612295D01*
X137641429Y-102612295D02*
X137298571Y-103412295D01*
X189799523Y-54492295D02*
X190256666Y-54492295D01*
X190028094Y-55292295D02*
X190028094Y-54492295D01*
X190523333Y-55292295D02*
X190523333Y-54492295D01*
X190523333Y-54492295D02*
X190828095Y-54492295D01*
X190828095Y-54492295D02*
X190904285Y-54530390D01*
X190904285Y-54530390D02*
X190942380Y-54568485D01*
X190942380Y-54568485D02*
X190980476Y-54644676D01*
X190980476Y-54644676D02*
X190980476Y-54758961D01*
X190980476Y-54758961D02*
X190942380Y-54835152D01*
X190942380Y-54835152D02*
X190904285Y-54873247D01*
X190904285Y-54873247D02*
X190828095Y-54911342D01*
X190828095Y-54911342D02*
X190523333Y-54911342D01*
X191742380Y-55292295D02*
X191285237Y-55292295D01*
X191513809Y-55292295D02*
X191513809Y-54492295D01*
X191513809Y-54492295D02*
X191437618Y-54606580D01*
X191437618Y-54606580D02*
X191361428Y-54682771D01*
X191361428Y-54682771D02*
X191285237Y-54720866D01*
X192009047Y-54492295D02*
X192504285Y-54492295D01*
X192504285Y-54492295D02*
X192237619Y-54797057D01*
X192237619Y-54797057D02*
X192351904Y-54797057D01*
X192351904Y-54797057D02*
X192428095Y-54835152D01*
X192428095Y-54835152D02*
X192466190Y-54873247D01*
X192466190Y-54873247D02*
X192504285Y-54949438D01*
X192504285Y-54949438D02*
X192504285Y-55139914D01*
X192504285Y-55139914D02*
X192466190Y-55216104D01*
X192466190Y-55216104D02*
X192428095Y-55254200D01*
X192428095Y-55254200D02*
X192351904Y-55292295D01*
X192351904Y-55292295D02*
X192123333Y-55292295D01*
X192123333Y-55292295D02*
X192047142Y-55254200D01*
X192047142Y-55254200D02*
X192009047Y-55216104D01*
X126410476Y-97122295D02*
X126867619Y-97122295D01*
X126639047Y-97922295D02*
X126639047Y-97122295D01*
X127134286Y-97922295D02*
X127134286Y-97122295D01*
X127134286Y-97122295D02*
X127439048Y-97122295D01*
X127439048Y-97122295D02*
X127515238Y-97160390D01*
X127515238Y-97160390D02*
X127553333Y-97198485D01*
X127553333Y-97198485D02*
X127591429Y-97274676D01*
X127591429Y-97274676D02*
X127591429Y-97388961D01*
X127591429Y-97388961D02*
X127553333Y-97465152D01*
X127553333Y-97465152D02*
X127515238Y-97503247D01*
X127515238Y-97503247D02*
X127439048Y-97541342D01*
X127439048Y-97541342D02*
X127134286Y-97541342D01*
X128277143Y-97122295D02*
X128124762Y-97122295D01*
X128124762Y-97122295D02*
X128048571Y-97160390D01*
X128048571Y-97160390D02*
X128010476Y-97198485D01*
X128010476Y-97198485D02*
X127934286Y-97312771D01*
X127934286Y-97312771D02*
X127896190Y-97465152D01*
X127896190Y-97465152D02*
X127896190Y-97769914D01*
X127896190Y-97769914D02*
X127934286Y-97846104D01*
X127934286Y-97846104D02*
X127972381Y-97884200D01*
X127972381Y-97884200D02*
X128048571Y-97922295D01*
X128048571Y-97922295D02*
X128200952Y-97922295D01*
X128200952Y-97922295D02*
X128277143Y-97884200D01*
X128277143Y-97884200D02*
X128315238Y-97846104D01*
X128315238Y-97846104D02*
X128353333Y-97769914D01*
X128353333Y-97769914D02*
X128353333Y-97579438D01*
X128353333Y-97579438D02*
X128315238Y-97503247D01*
X128315238Y-97503247D02*
X128277143Y-97465152D01*
X128277143Y-97465152D02*
X128200952Y-97427057D01*
X128200952Y-97427057D02*
X128048571Y-97427057D01*
X128048571Y-97427057D02*
X127972381Y-97465152D01*
X127972381Y-97465152D02*
X127934286Y-97503247D01*
X127934286Y-97503247D02*
X127896190Y-97579438D01*
%TO.C,C1*%
D11*
X126159920Y-73459920D02*
X126159920Y-74109920D01*
X126159920Y-73459920D02*
X126859920Y-73459920D01*
X126159920Y-74609920D02*
X126159921Y-75259920D01*
X126159921Y-75259920D02*
X126859920Y-75259920D01*
X126859920Y-73459920D02*
X126859920Y-74109920D01*
X126859920Y-74609920D02*
X126859920Y-75259920D01*
%TO.C,U1*%
X125539000Y-87023500D02*
X125539000Y-85016900D01*
X128841000Y-87023500D02*
X128841000Y-85016900D01*
X126377200Y-88306200D02*
G75*
G02*
X126224800Y-88306200I-76200J0D01*
G01*
X126224800Y-88306200D02*
G75*
G02*
X126377200Y-88306200I76200J0D01*
G01*
%TO.C,B1*%
D12*
X125522000Y-73380000D02*
G75*
G02*
X125522000Y-73480000I0J-50000D01*
G01*
X125522000Y-73480000D02*
G75*
G02*
X125522000Y-73380000I0J50000D01*
G01*
D13*
%TO.C,kibuzzard-6AB23C12*%
G36*
X139404491Y-115375622D02*
G01*
X139474766Y-115384103D01*
X139474766Y-115645816D01*
X139394798Y-115651874D01*
X139300291Y-115653086D01*
X139150048Y-115620372D01*
X139091890Y-115510113D01*
X139111276Y-115439838D01*
X139163376Y-115398643D01*
X139239709Y-115378045D01*
X139329370Y-115371987D01*
X139404491Y-115375622D01*
G37*
G36*
X141739709Y-116660355D02*
G01*
X140972342Y-116660355D01*
X139278481Y-116660355D01*
X137817254Y-116660355D01*
X137567658Y-116660355D01*
X136800291Y-116660355D01*
X136800291Y-114727399D01*
X137567658Y-114727399D01*
X137567658Y-114974572D01*
X137817254Y-114974572D01*
X137817254Y-115866333D01*
X138117738Y-115866333D01*
X138117738Y-115517383D01*
X138798675Y-115517383D01*
X138832601Y-115693069D01*
X138929532Y-115809386D01*
X139080985Y-115873603D01*
X139278481Y-115892989D01*
X139430541Y-115888142D01*
X139566850Y-115873603D01*
X139760711Y-115839677D01*
X139760711Y-115161163D01*
X139736478Y-114968514D01*
X139656511Y-114823118D01*
X139560425Y-114763748D01*
X140056349Y-114763748D01*
X140056349Y-115866333D01*
X140354410Y-115866333D01*
X140354410Y-114972149D01*
X140423473Y-114964879D01*
X140490113Y-114962456D01*
X140637932Y-115032730D01*
X140665194Y-115125420D01*
X140674281Y-115262940D01*
X140674281Y-115866333D01*
X140972342Y-115866333D01*
X140972342Y-115224168D01*
X140966890Y-115113001D01*
X140950533Y-115012132D01*
X140876624Y-114847351D01*
X140734863Y-114740727D01*
X140633691Y-114712557D01*
X140509499Y-114703166D01*
X140376523Y-114708013D01*
X140253845Y-114722553D01*
X140145707Y-114742544D01*
X140056349Y-114763748D01*
X139560425Y-114763748D01*
X139507480Y-114731034D01*
X139402371Y-114706498D01*
X139273635Y-114698320D01*
X139166405Y-114702258D01*
X139062811Y-114714071D01*
X138905299Y-114749208D01*
X138946494Y-114989111D01*
X139073716Y-114960032D01*
X139237286Y-114947916D01*
X139348756Y-114962153D01*
X139421454Y-115004863D01*
X139474766Y-115146624D01*
X139474766Y-115182973D01*
X139378441Y-115168433D01*
X139268788Y-115163586D01*
X139091890Y-115181761D01*
X138941648Y-115241131D01*
X138837447Y-115350178D01*
X138798675Y-115517383D01*
X138117738Y-115517383D01*
X138117738Y-114974572D01*
X138585428Y-114974572D01*
X138585428Y-114727399D01*
X138117738Y-114727399D01*
X138117738Y-114666817D01*
X138134701Y-114549289D01*
X138179532Y-114480226D01*
X138244960Y-114448724D01*
X138323716Y-114441454D01*
X138482439Y-114462052D01*
X138621777Y-114502036D01*
X138672666Y-114259709D01*
X138493344Y-114203974D01*
X138299483Y-114187011D01*
X138120162Y-114210032D01*
X137965073Y-114287577D01*
X137857237Y-114432973D01*
X137827250Y-114535658D01*
X137817254Y-114661971D01*
X137817254Y-114727399D01*
X137567658Y-114727399D01*
X136800291Y-114727399D01*
X136800291Y-113419645D01*
X137567658Y-113419645D01*
X140972342Y-113419645D01*
X141739709Y-113419645D01*
X141739709Y-116660355D01*
G37*
%TO.C,R9*%
D11*
X140985000Y-61785000D02*
X141610000Y-61785000D01*
X140985000Y-62535000D02*
X140985000Y-61785000D01*
X140985000Y-62535000D02*
X141610000Y-62535000D01*
X142110000Y-61785000D02*
X142735000Y-61785000D01*
X142110000Y-62535000D02*
X142735000Y-62535000D01*
X142735000Y-62535000D02*
X142735000Y-61785000D01*
D13*
%TO.C,kibuzzard-6AB23B9E*%
G36*
X130710856Y-64719790D02*
G01*
X130745913Y-64753716D01*
X130766753Y-64808966D01*
X130773700Y-64884249D01*
X130764653Y-64970355D01*
X130737512Y-65027060D01*
X130694863Y-65058562D01*
X130639289Y-65069063D01*
X130605040Y-65067771D01*
X130566914Y-65062601D01*
X130566914Y-64733037D01*
X130610210Y-64715590D01*
X130661260Y-64708481D01*
X130710856Y-64719790D01*
G37*
G36*
X132637997Y-64720275D02*
G01*
X132678708Y-64759532D01*
X132702940Y-64819144D01*
X132711018Y-64893296D01*
X132704233Y-64967771D01*
X132683877Y-65023183D01*
X132649305Y-65057593D01*
X132599871Y-65069063D01*
X132548174Y-65062601D01*
X132506817Y-65045800D01*
X132506817Y-64712359D01*
X132541712Y-64709128D01*
X132580485Y-64707189D01*
X132637997Y-64720275D01*
G37*
G36*
X134561314Y-65814351D02*
G01*
X134152052Y-65814351D01*
X133834120Y-65814351D01*
X133328788Y-65814351D01*
X132506817Y-65814351D01*
X132190178Y-65814351D01*
X131390178Y-65814351D01*
X130643166Y-65814351D01*
X130407948Y-65814351D01*
X129998686Y-65814351D01*
X129998686Y-64322052D01*
X130407948Y-64322052D01*
X130407948Y-65173748D01*
X130457060Y-65186672D01*
X130516511Y-65197011D01*
X130580485Y-65203796D01*
X130643166Y-65206058D01*
X130709079Y-65200404D01*
X130767237Y-65183441D01*
X130817318Y-65156139D01*
X130858998Y-65119467D01*
X130891955Y-65073748D01*
X130915864Y-65019305D01*
X130930404Y-64957108D01*
X130935250Y-64888126D01*
X130931373Y-64820275D01*
X130919742Y-64758885D01*
X130900517Y-64704766D01*
X130873861Y-64658724D01*
X130798255Y-64594103D01*
X130770375Y-64584410D01*
X131020549Y-64584410D01*
X131020549Y-64716236D01*
X131158837Y-64716236D01*
X131158837Y-64965670D01*
X131162714Y-65034653D01*
X131174346Y-65089095D01*
X131219580Y-65162116D01*
X131291955Y-65197011D01*
X131390178Y-65206058D01*
X131489047Y-65198304D01*
X131584039Y-65172456D01*
X131562068Y-65035460D01*
X131521357Y-65052262D01*
X131485170Y-65061955D01*
X131448982Y-65066478D01*
X131408271Y-65067771D01*
X131370792Y-65063893D01*
X131342359Y-65048384D01*
X131324265Y-65016074D01*
X131317803Y-64961793D01*
X131317803Y-64716236D01*
X131572407Y-64716236D01*
X131572407Y-64603796D01*
X131701648Y-64603796D01*
X131701648Y-65191842D01*
X131860614Y-65191842D01*
X131860614Y-64714943D01*
X131897447Y-64711066D01*
X131932989Y-64709774D01*
X132011826Y-64747254D01*
X132026365Y-64796688D01*
X132031212Y-64870032D01*
X132031212Y-65191842D01*
X132190178Y-65191842D01*
X132190178Y-64849354D01*
X132187270Y-64790065D01*
X132178546Y-64736268D01*
X132139128Y-64648384D01*
X132079845Y-64603796D01*
X132347851Y-64603796D01*
X132347851Y-65405089D01*
X132506817Y-65405089D01*
X132506817Y-65176333D01*
X132570468Y-65198627D01*
X132632181Y-65206058D01*
X132688078Y-65200242D01*
X132736866Y-65182795D01*
X132811826Y-65117528D01*
X132837997Y-65071325D01*
X132857060Y-65016721D01*
X132868691Y-64955170D01*
X132872569Y-64888126D01*
X132864240Y-64797514D01*
X132839253Y-64720400D01*
X132797609Y-64656785D01*
X132740312Y-64609397D01*
X132677087Y-64584410D01*
X132926850Y-64584410D01*
X132934927Y-64671325D01*
X132943651Y-64756300D01*
X132953344Y-64838853D01*
X132964330Y-64918498D01*
X132976446Y-64994426D01*
X132989532Y-65065832D01*
X133003586Y-65131906D01*
X133018611Y-65191842D01*
X133138805Y-65191842D01*
X133167237Y-65116882D01*
X133189855Y-65050969D01*
X133211179Y-64985703D01*
X133234443Y-64911389D01*
X133257060Y-64986995D01*
X133279031Y-65052908D01*
X133302294Y-65118174D01*
X133328788Y-65191842D01*
X133448982Y-65191842D01*
X133469015Y-65109128D01*
X133487754Y-65017798D01*
X133505202Y-64917851D01*
X133517116Y-64838368D01*
X133527658Y-64756300D01*
X133536826Y-64671648D01*
X133541041Y-64624475D01*
X133673861Y-64624475D01*
X133673861Y-65191842D01*
X133834120Y-65191842D01*
X133834120Y-64740792D01*
X133900032Y-64728514D01*
X133965945Y-64725283D01*
X134000840Y-64726575D01*
X134043489Y-64731099D01*
X134086785Y-64738207D01*
X134123619Y-64745961D01*
X134152052Y-64598627D01*
X134102294Y-64586349D01*
X134047367Y-64578595D01*
X133996317Y-64574071D01*
X133959483Y-64572779D01*
X133875961Y-64576333D01*
X133803748Y-64586995D01*
X133737997Y-64603473D01*
X133673861Y-64624475D01*
X133541041Y-64624475D01*
X133544620Y-64584410D01*
X133408918Y-64584410D01*
X133406494Y-64641438D01*
X133404394Y-64696204D01*
X133399225Y-64803473D01*
X133395509Y-64857270D01*
X133390824Y-64911389D01*
X133385008Y-64966963D01*
X133377900Y-65025121D01*
X133351405Y-64934006D01*
X133330727Y-64853877D01*
X133312633Y-64780210D01*
X133296478Y-64707189D01*
X133181454Y-64707189D01*
X133164006Y-64780210D01*
X133145913Y-64853877D01*
X133123942Y-64934006D01*
X133094863Y-65025121D01*
X133085600Y-64950018D01*
X133078492Y-64876351D01*
X133073538Y-64804120D01*
X133069733Y-64732032D01*
X133066071Y-64658796D01*
X133062553Y-64584410D01*
X132926850Y-64584410D01*
X132677087Y-64584410D01*
X132668368Y-64580964D01*
X132581777Y-64571486D01*
X132519257Y-64573748D01*
X132455767Y-64580533D01*
X132396801Y-64590872D01*
X132347851Y-64603796D01*
X132079845Y-64603796D01*
X132063522Y-64591519D01*
X132009564Y-64576494D01*
X131943328Y-64571486D01*
X131872407Y-64574071D01*
X131806979Y-64581826D01*
X131749305Y-64592488D01*
X131701648Y-64603796D01*
X131572407Y-64603796D01*
X131572407Y-64584410D01*
X131317803Y-64584410D01*
X131317803Y-64406058D01*
X131158837Y-64431906D01*
X131158837Y-64584410D01*
X131020549Y-64584410D01*
X130770375Y-64584410D01*
X130749467Y-64577141D01*
X130693570Y-64571486D01*
X130631535Y-64577302D01*
X130566914Y-64598627D01*
X130566914Y-64294911D01*
X130407948Y-64322052D01*
X129998686Y-64322052D01*
X129998686Y-63885649D01*
X130407948Y-63885649D01*
X134152052Y-63885649D01*
X134561314Y-63885649D01*
X134561314Y-65814351D01*
G37*
%TO.C,J1*%
D14*
X119370000Y-74170000D02*
X121050000Y-74170000D01*
X119370000Y-83110000D02*
X121050000Y-83110000D01*
D15*
X124300000Y-75440000D02*
G75*
G02*
X124100000Y-75440000I-100000J0D01*
G01*
X124100000Y-75440000D02*
G75*
G02*
X124300000Y-75440000I100000J0D01*
G01*
%TO.C,R4*%
D11*
X126335000Y-79015000D02*
X126960000Y-79015000D01*
X126335000Y-79765000D02*
X126335000Y-79015000D01*
X126335000Y-79765000D02*
X126960000Y-79765000D01*
X127460000Y-79015000D02*
X128085000Y-79015000D01*
X127460000Y-79765000D02*
X128085000Y-79765000D01*
X128085000Y-79765000D02*
X128085000Y-79015000D01*
%TO.C,C2*%
X130239920Y-73469920D02*
X130239920Y-74119920D01*
X130239920Y-73469920D02*
X130939920Y-73469920D01*
X130239920Y-74619920D02*
X130239921Y-75269920D01*
X130239921Y-75269920D02*
X130939920Y-75269920D01*
X130939920Y-73469920D02*
X130939920Y-74119920D01*
X130939920Y-74619920D02*
X130939920Y-75269920D01*
%TO.C,J3*%
X155943000Y-121090000D02*
X155943000Y-126170000D01*
X155943000Y-126170000D02*
X173977000Y-126170000D01*
X173977000Y-121090000D02*
X155943000Y-121090000D01*
X173977000Y-126170000D02*
X173977000Y-121090000D01*
D16*
X174970000Y-124980000D02*
G75*
G02*
X174670000Y-124980000I-150000J0D01*
G01*
X174670000Y-124980000D02*
G75*
G02*
X174970000Y-124980000I150000J0D01*
G01*
%TO.C,B5*%
D12*
X147758000Y-104100000D02*
G75*
G02*
X147758000Y-104200000I0J-50000D01*
G01*
X147758000Y-104200000D02*
G75*
G02*
X147758000Y-104100000I0J50000D01*
G01*
%TO.C,J2*%
D14*
X211170000Y-74160000D02*
X209490000Y-74160000D01*
X211170000Y-83100000D02*
X209490000Y-83100000D01*
D15*
X206440000Y-81830000D02*
G75*
G02*
X206240000Y-81830000I-100000J0D01*
G01*
X206240000Y-81830000D02*
G75*
G02*
X206440000Y-81830000I100000J0D01*
G01*
%TO.C,Q4*%
D11*
X127573600Y-100781300D02*
X127573600Y-102838700D01*
X128637860Y-100781300D02*
X127573600Y-100781300D01*
X128909640Y-102838700D02*
X129590360Y-102838700D01*
X130926400Y-100781300D02*
X129862140Y-100781300D01*
X130926400Y-102838700D02*
X130926400Y-100781300D01*
%TO.C,C6*%
X202319920Y-80180080D02*
X202969920Y-80180080D01*
X202319920Y-80880080D02*
X202319920Y-80180080D01*
X202319920Y-80880080D02*
X202969920Y-80880080D01*
X203469920Y-80180080D02*
X204119920Y-80180080D01*
X203469920Y-80880080D02*
X204119920Y-80880079D01*
X204119920Y-80880079D02*
X204119920Y-80180080D01*
%TO.C,U3*%
X201579000Y-87023500D02*
X201579000Y-85016900D01*
X204881000Y-87023500D02*
X204881000Y-85016900D01*
X202417200Y-88306200D02*
G75*
G02*
X202264800Y-88306200I-76200J0D01*
G01*
X202264800Y-88306200D02*
G75*
G02*
X202417200Y-88306200I76200J0D01*
G01*
%TO.C,R13*%
X195842500Y-101360000D02*
X195842500Y-100735000D01*
X195842500Y-102485000D02*
X195842500Y-101860000D01*
X196592500Y-100735000D02*
X195842500Y-100735000D01*
X196592500Y-101360000D02*
X196592500Y-100735000D01*
X196592500Y-102485000D02*
X195842500Y-102485000D01*
X196592500Y-102485000D02*
X196592500Y-101860000D01*
D13*
%TO.C,kibuzzard-6AB23AAB*%
G36*
X209331167Y-69892447D02*
G01*
X209396898Y-69956058D01*
X209435973Y-70059653D01*
X209448998Y-70200808D01*
X209432036Y-70362258D01*
X209381147Y-70468578D01*
X209301179Y-70527645D01*
X209196979Y-70547334D01*
X209132763Y-70544911D01*
X209061276Y-70535218D01*
X209061276Y-69917286D01*
X209142456Y-69884572D01*
X209238174Y-69871244D01*
X209331167Y-69892447D01*
G37*
G36*
X212874685Y-71571567D02*
G01*
X212107318Y-71571567D01*
X211586317Y-71571567D01*
X210374685Y-71571567D01*
X209204249Y-71571567D01*
X207951422Y-71571567D01*
X206795525Y-71571567D01*
X206332682Y-71571567D01*
X205565315Y-71571567D01*
X205565315Y-70273506D01*
X206332682Y-70273506D01*
X206337528Y-70384976D01*
X206352068Y-70486753D01*
X206423554Y-70655170D01*
X206565315Y-70765428D01*
X206667698Y-70794507D01*
X206795525Y-70804200D01*
X206928502Y-70798748D01*
X207051179Y-70782391D01*
X207159923Y-70760582D01*
X207251099Y-70738772D01*
X207251099Y-70709693D01*
X207532197Y-70709693D01*
X207699402Y-70770275D01*
X207814507Y-70795719D01*
X207951422Y-70804200D01*
X208085307Y-70797536D01*
X208196171Y-70777544D01*
X208357318Y-70704847D01*
X208445767Y-70595800D01*
X208472423Y-70462520D01*
X208436074Y-70311066D01*
X208342779Y-70209289D01*
X208215557Y-70142649D01*
X208079855Y-70094184D01*
X207993829Y-70063893D01*
X207923554Y-70031179D01*
X207875089Y-69993619D01*
X207856914Y-69946365D01*
X207896898Y-69886995D01*
X208050775Y-69859128D01*
X208247060Y-69886995D01*
X208375493Y-69926979D01*
X208421535Y-69674960D01*
X208255541Y-69626494D01*
X208155884Y-69613772D01*
X208048352Y-69609532D01*
X207929006Y-69616498D01*
X207827835Y-69637399D01*
X207676381Y-69714943D01*
X207589144Y-69828837D01*
X207561276Y-69965751D01*
X207597625Y-70114782D01*
X207689709Y-70212924D01*
X207813296Y-70277141D01*
X207946575Y-70321971D01*
X208035024Y-70351050D01*
X208110145Y-70381341D01*
X208161034Y-70418901D01*
X208179208Y-70472213D01*
X208121050Y-70536430D01*
X207953845Y-70552181D01*
X207758772Y-70523102D01*
X207578239Y-70460097D01*
X207532197Y-70709693D01*
X207251099Y-70709693D01*
X207251099Y-69638611D01*
X206950614Y-69638611D01*
X206950614Y-70532795D01*
X206814911Y-70544911D01*
X206668304Y-70468578D01*
X206640133Y-70371951D01*
X206630743Y-70234733D01*
X206630743Y-69638611D01*
X206332682Y-69638611D01*
X206332682Y-70273506D01*
X205565315Y-70273506D01*
X205565315Y-69146688D01*
X208763215Y-69146688D01*
X208763215Y-70743619D01*
X208855299Y-70767851D01*
X208966769Y-70787237D01*
X209086721Y-70799960D01*
X209204249Y-70804200D01*
X209327835Y-70793599D01*
X209436882Y-70761793D01*
X209530784Y-70710602D01*
X209531817Y-70709693D01*
X209955460Y-70709693D01*
X210122666Y-70770275D01*
X210237771Y-70795719D01*
X210374685Y-70804200D01*
X210508570Y-70797536D01*
X210619435Y-70777544D01*
X210769840Y-70709693D01*
X211167092Y-70709693D01*
X211334297Y-70770275D01*
X211449402Y-70795719D01*
X211586317Y-70804200D01*
X211720202Y-70797536D01*
X211831066Y-70777544D01*
X211992213Y-70704847D01*
X212080662Y-70595800D01*
X212107318Y-70462520D01*
X212070969Y-70311066D01*
X211977674Y-70209289D01*
X211850452Y-70142649D01*
X211714750Y-70094184D01*
X211628724Y-70063893D01*
X211558449Y-70031179D01*
X211509984Y-69993619D01*
X211491809Y-69946365D01*
X211531793Y-69886995D01*
X211685670Y-69859128D01*
X211881955Y-69886995D01*
X212010388Y-69926979D01*
X212056430Y-69674960D01*
X211890436Y-69626494D01*
X211790779Y-69613772D01*
X211683247Y-69609532D01*
X211563901Y-69616498D01*
X211462730Y-69637399D01*
X211311276Y-69714943D01*
X211224039Y-69828837D01*
X211196171Y-69965751D01*
X211232520Y-70114782D01*
X211324604Y-70212924D01*
X211448191Y-70277141D01*
X211581470Y-70321971D01*
X211669919Y-70351050D01*
X211745040Y-70381341D01*
X211795929Y-70418901D01*
X211814103Y-70472213D01*
X211755945Y-70536430D01*
X211588740Y-70552181D01*
X211393667Y-70523102D01*
X211213134Y-70460097D01*
X211167092Y-70709693D01*
X210769840Y-70709693D01*
X210780582Y-70704847D01*
X210869031Y-70595800D01*
X210895687Y-70462520D01*
X210859338Y-70311066D01*
X210766042Y-70209289D01*
X210638821Y-70142649D01*
X210503118Y-70094184D01*
X210417092Y-70063893D01*
X210346817Y-70031179D01*
X210298352Y-69993619D01*
X210280178Y-69946365D01*
X210320162Y-69886995D01*
X210474039Y-69859128D01*
X210670323Y-69886995D01*
X210798756Y-69926979D01*
X210844798Y-69674960D01*
X210678805Y-69626494D01*
X210579148Y-69613772D01*
X210471616Y-69609532D01*
X210352270Y-69616498D01*
X210251099Y-69637399D01*
X210099645Y-69714943D01*
X210012407Y-69828837D01*
X209984540Y-69965751D01*
X210020889Y-70114782D01*
X210112973Y-70212924D01*
X210236559Y-70277141D01*
X210369838Y-70321971D01*
X210458288Y-70351050D01*
X210533409Y-70381341D01*
X210584297Y-70418901D01*
X210602472Y-70472213D01*
X210544313Y-70536430D01*
X210377108Y-70552181D01*
X210182036Y-70523102D01*
X210001502Y-70460097D01*
X209955460Y-70709693D01*
X209531817Y-70709693D01*
X209608934Y-70641842D01*
X209670727Y-70556119D01*
X209715557Y-70454039D01*
X209742819Y-70337419D01*
X209751906Y-70208078D01*
X209744637Y-70080856D01*
X209722827Y-69965751D01*
X209686781Y-69864277D01*
X209636801Y-69777948D01*
X209495040Y-69656785D01*
X209403562Y-69624980D01*
X209298756Y-69614378D01*
X209182439Y-69625283D01*
X209061276Y-69665267D01*
X209061276Y-69095800D01*
X208763215Y-69146688D01*
X205565315Y-69146688D01*
X205565315Y-68328433D01*
X206332682Y-68328433D01*
X212107318Y-68328433D01*
X212874685Y-68328433D01*
X212874685Y-71571567D01*
G37*
%TO.C,C15*%
D11*
X198720080Y-58589920D02*
X198720080Y-59289920D01*
X199370080Y-58589920D02*
X198720080Y-58589920D01*
X199370080Y-59289920D02*
X198720080Y-59289920D01*
X200520080Y-58589920D02*
X199870080Y-58589920D01*
X200520080Y-58589920D02*
X200520080Y-59289920D01*
X200520080Y-59289920D02*
X199870080Y-59289920D01*
%TO.C,R3*%
X126325000Y-77525000D02*
X126950000Y-77525000D01*
X126325000Y-78275000D02*
X126325000Y-77525000D01*
X126325000Y-78275000D02*
X126950000Y-78275000D01*
X127450000Y-77525000D02*
X128075000Y-77525000D01*
X127450000Y-78275000D02*
X128075000Y-78275000D01*
X128075000Y-78275000D02*
X128075000Y-77525000D01*
%TO.C,R18*%
X128422500Y-104305000D02*
X129047500Y-104305000D01*
X128422500Y-105055000D02*
X128422500Y-104305000D01*
X128422500Y-105055000D02*
X129047500Y-105055000D01*
X129547500Y-104305000D02*
X130172500Y-104305000D01*
X129547500Y-105055000D02*
X130172500Y-105055000D01*
X130172500Y-105055000D02*
X130172500Y-104305000D01*
%TO.C,C7*%
X202300080Y-76419921D02*
X202300080Y-77119920D01*
X202950080Y-76419920D02*
X202300080Y-76419921D01*
X202950080Y-77119920D02*
X202300080Y-77119920D01*
X204100080Y-76419920D02*
X203450080Y-76419920D01*
X204100080Y-76419920D02*
X204100080Y-77119920D01*
X204100080Y-77119920D02*
X203450080Y-77119920D01*
%TO.C,R22*%
X198745000Y-88355000D02*
X198745000Y-89105000D01*
X199370000Y-88355000D02*
X198745000Y-88355000D01*
X199370000Y-89105000D02*
X198745000Y-89105000D01*
X200495000Y-88355000D02*
X199870000Y-88355000D01*
X200495000Y-88355000D02*
X200495000Y-89105000D01*
X200495000Y-89105000D02*
X199870000Y-89105000D01*
%TO.C,U2*%
D14*
X145214156Y-37365405D02*
X145214156Y-86365405D01*
X146774156Y-53065405D02*
X149654156Y-53065405D01*
X146774156Y-54145405D02*
X146774156Y-53065405D01*
X146774156Y-74585405D02*
X146774156Y-75665405D01*
X146774156Y-75665405D02*
X149654156Y-75665405D01*
X148214156Y-89365405D02*
X182214156Y-89365405D01*
X149654156Y-53065405D02*
X149654156Y-54145405D01*
X149654156Y-75665405D02*
X149654156Y-74585405D01*
X180774156Y-53065405D02*
X183654156Y-53065405D01*
X180774156Y-54145405D02*
X180774156Y-53065405D01*
X180774156Y-74585405D02*
X180774156Y-75665405D01*
X180774156Y-75665405D02*
X183654156Y-75665405D01*
X182214156Y-34365405D02*
X148214156Y-34365405D01*
X183654156Y-53065405D02*
X183654156Y-54145405D01*
X183654156Y-75665405D02*
X183654156Y-74585405D01*
X185214156Y-86365405D02*
X185214156Y-37365405D01*
X145214156Y-37365405D02*
G75*
G02*
X148214156Y-34365405I3000000J0D01*
G01*
X148214156Y-89365405D02*
G75*
G02*
X145214156Y-86365405I1J3000001D01*
G01*
X182214156Y-34365405D02*
G75*
G02*
X185214156Y-37365405I0J-3000000D01*
G01*
X185214156Y-86365405D02*
G75*
G02*
X182214156Y-89365405I-3000001J1D01*
G01*
D15*
X144564156Y-54565405D02*
G75*
G02*
X144364156Y-54565405I-100000J0D01*
G01*
X144364156Y-54565405D02*
G75*
G02*
X144564156Y-54565405I100000J0D01*
G01*
D13*
%TO.C,kibuzzard-6AB23BDC*%
G36*
X189439176Y-40713780D02*
G01*
X189480371Y-40765880D01*
X189500969Y-40842213D01*
X189507027Y-40931874D01*
X189503393Y-41006995D01*
X189494911Y-41077270D01*
X189233199Y-41077270D01*
X189227141Y-40997302D01*
X189225929Y-40902794D01*
X189258643Y-40752553D01*
X189368901Y-40694394D01*
X189439176Y-40713780D01*
G37*
G36*
X189793511Y-46764669D02*
G01*
X189898519Y-46851906D01*
X189933522Y-46997302D01*
X189931099Y-47053037D01*
X189921405Y-47113619D01*
X189373748Y-47113619D01*
X189342246Y-47037286D01*
X189330129Y-46946414D01*
X189404039Y-46786478D01*
X189494608Y-46748312D01*
X189618498Y-46735590D01*
X189793511Y-46764669D01*
G37*
G36*
X189730574Y-44312326D02*
G01*
X189834168Y-44348676D01*
X189897779Y-44411680D01*
X189918982Y-44503765D01*
X189905654Y-44595848D01*
X189872940Y-44673393D01*
X189252585Y-44673393D01*
X189245315Y-44607965D01*
X189242892Y-44540113D01*
X189267124Y-44431369D01*
X189339822Y-44357157D01*
X189450687Y-44314447D01*
X189589418Y-44300210D01*
X189730574Y-44312326D01*
G37*
G36*
X189905654Y-45670565D02*
G01*
X189918982Y-45766284D01*
X189897779Y-45859277D01*
X189834168Y-45925008D01*
X189730573Y-45964083D01*
X189589418Y-45977108D01*
X189427968Y-45960145D01*
X189321648Y-45909257D01*
X189262581Y-45829289D01*
X189242892Y-45725089D01*
X189245315Y-45660872D01*
X189255008Y-45589386D01*
X189872940Y-45589386D01*
X189905654Y-45670565D01*
G37*
G36*
X191461793Y-39225897D02*
G01*
X191461793Y-47414103D01*
X191461794Y-48181470D01*
X187838206Y-48181470D01*
X187838207Y-47414103D01*
X187838207Y-46847060D01*
X188605574Y-46847060D01*
X188620382Y-47027593D01*
X188664809Y-47171777D01*
X188738853Y-47279612D01*
X188843861Y-47354330D01*
X188981179Y-47399160D01*
X189150808Y-47414103D01*
X190115266Y-47414103D01*
X190148923Y-47272208D01*
X190169117Y-47137313D01*
X190175848Y-47009418D01*
X190160501Y-46844098D01*
X190114460Y-46703549D01*
X190037722Y-46587771D01*
X189929753Y-46501610D01*
X189790011Y-46449914D01*
X189618498Y-46432682D01*
X189464216Y-46445471D01*
X189334168Y-46483840D01*
X189228352Y-46547787D01*
X189150269Y-46636505D01*
X189103418Y-46749187D01*
X189087803Y-46885832D01*
X189099919Y-46998514D01*
X189136268Y-47113619D01*
X189090226Y-47113619D01*
X188999354Y-47101502D01*
X188925444Y-47060307D01*
X188875767Y-46980339D01*
X188857593Y-46851906D01*
X188880614Y-46658045D01*
X188930290Y-46510226D01*
X188678271Y-46454491D01*
X188627383Y-46642294D01*
X188611026Y-46742557D01*
X188605574Y-46847060D01*
X187838207Y-46847060D01*
X187838206Y-45732359D01*
X188986026Y-45732359D01*
X188996628Y-45855945D01*
X189028433Y-45964992D01*
X189079624Y-46058893D01*
X189148384Y-46137044D01*
X189234107Y-46198837D01*
X189336187Y-46243667D01*
X189452807Y-46270928D01*
X189582149Y-46280015D01*
X189709370Y-46272746D01*
X189824475Y-46250937D01*
X189925948Y-46214891D01*
X190012278Y-46164911D01*
X190133441Y-46023150D01*
X190165246Y-45931672D01*
X190175848Y-45826866D01*
X190164943Y-45710549D01*
X190124960Y-45589386D01*
X190694426Y-45589386D01*
X190643538Y-45291325D01*
X189046607Y-45291325D01*
X189022376Y-45383409D01*
X189002989Y-45494879D01*
X188990267Y-45614830D01*
X188986026Y-45732359D01*
X187838206Y-45732359D01*
X187838207Y-44537690D01*
X187838207Y-44537689D01*
X188986026Y-44537689D01*
X188990267Y-44652795D01*
X189002989Y-44770323D01*
X189022375Y-44879977D01*
X189046607Y-44971454D01*
X190694426Y-44971454D01*
X190643538Y-44673393D01*
X190124960Y-44673393D01*
X190162520Y-44571616D01*
X190175848Y-44452876D01*
X190157943Y-44314884D01*
X190104227Y-44201394D01*
X190014701Y-44112407D01*
X189894211Y-44048460D01*
X189747604Y-44010092D01*
X189574879Y-43997302D01*
X189405251Y-44012515D01*
X189261470Y-44058153D01*
X189143538Y-44134216D01*
X189056031Y-44239899D01*
X189003527Y-44374389D01*
X188986026Y-44537689D01*
X187838207Y-44537689D01*
X187838207Y-43498110D01*
X188986026Y-43498110D01*
X189000566Y-43683489D01*
X189049031Y-43861599D01*
X189305896Y-43820404D01*
X189274394Y-43744071D01*
X189256220Y-43676220D01*
X189247738Y-43608368D01*
X189245315Y-43532037D01*
X189252585Y-43461761D01*
X189281664Y-43408449D01*
X189342246Y-43374524D01*
X189444023Y-43362407D01*
X189904443Y-43362407D01*
X189904442Y-43839790D01*
X190151616Y-43839790D01*
X190151616Y-43362407D01*
X190486026Y-43362407D01*
X190437561Y-43064346D01*
X190151616Y-43064346D01*
X190151616Y-42805057D01*
X189904443Y-42805057D01*
X189904443Y-43064346D01*
X189436753Y-43064346D01*
X189307411Y-43071616D01*
X189205331Y-43093425D01*
X189068417Y-43178239D01*
X189002989Y-43313942D01*
X188986026Y-43498110D01*
X187838207Y-43498110D01*
X187838207Y-42022342D01*
X187838207Y-41721858D01*
X189012682Y-41721858D01*
X189012682Y-42022342D01*
X189858401Y-42022342D01*
X189881422Y-42145928D01*
X189887480Y-42269515D01*
X189885057Y-42334943D01*
X189876575Y-42414911D01*
X189863247Y-42496090D01*
X189848708Y-42565153D01*
X190124960Y-42618465D01*
X190147981Y-42525170D01*
X190162519Y-42422181D01*
X190171003Y-42326462D01*
X190173425Y-42257399D01*
X190166761Y-42100796D01*
X190146769Y-41965396D01*
X190115872Y-41842112D01*
X190076494Y-41721858D01*
X189012682Y-41721858D01*
X187838207Y-41721858D01*
X187838207Y-40880985D01*
X187838207Y-40880984D01*
X188986026Y-40880984D01*
X188990873Y-41033045D01*
X189005412Y-41169354D01*
X189039338Y-41363215D01*
X189717851Y-41363215D01*
X189910501Y-41338982D01*
X190055897Y-41259015D01*
X190147981Y-41109984D01*
X190172516Y-41004875D01*
X190180695Y-40876139D01*
X190176756Y-40768910D01*
X190164943Y-40665315D01*
X190129807Y-40507803D01*
X189889903Y-40548998D01*
X189918982Y-40676220D01*
X189931099Y-40839790D01*
X189916862Y-40951260D01*
X189874152Y-41023959D01*
X189732391Y-41077270D01*
X189696042Y-41077270D01*
X189710582Y-40980945D01*
X189715429Y-40871292D01*
X189697254Y-40694394D01*
X189637884Y-40544152D01*
X189528837Y-40439952D01*
X189361632Y-40401179D01*
X189185945Y-40435105D01*
X189069628Y-40532036D01*
X189005412Y-40683489D01*
X188986026Y-40880984D01*
X187838207Y-40880984D01*
X187838206Y-39688740D01*
X188986026Y-39688740D01*
X188991478Y-39821716D01*
X189007835Y-39944394D01*
X189029645Y-40053138D01*
X189051454Y-40144313D01*
X190151616Y-40144313D01*
X190151616Y-39843829D01*
X189257431Y-39843829D01*
X189245315Y-39708126D01*
X189321648Y-39561520D01*
X189418275Y-39533348D01*
X189555492Y-39523958D01*
X190151616Y-39523958D01*
X190151616Y-39225897D01*
X189516722Y-39225897D01*
X189405250Y-39230743D01*
X189303472Y-39245283D01*
X189135057Y-39316769D01*
X189024798Y-39458530D01*
X188995719Y-39560914D01*
X188986026Y-39688740D01*
X187838206Y-39688740D01*
X187838207Y-39225897D01*
X187838206Y-38458530D01*
X191461794Y-38458530D01*
X191461793Y-39225897D01*
G37*
%TO.C,C12*%
D11*
X191261725Y-108935136D02*
X191721344Y-108475516D01*
X191756699Y-109430111D02*
X191261725Y-108935136D01*
X191756699Y-109430111D02*
X192216319Y-108970491D01*
X192074897Y-108121963D02*
X192534517Y-107662344D01*
X192569872Y-108616938D02*
X193029491Y-108157318D01*
X193029491Y-108157318D02*
X192534517Y-107662344D01*
D13*
%TO.C,kibuzzard-6AB23BC6*%
G36*
X143315089Y-41368901D02*
G01*
X143375670Y-41378595D01*
X143375670Y-41926252D01*
X143299338Y-41957754D01*
X143208465Y-41969871D01*
X143048530Y-41895961D01*
X143010363Y-41805392D01*
X142997641Y-41681502D01*
X143026721Y-41506489D01*
X143113958Y-41401481D01*
X143259354Y-41366478D01*
X143315089Y-41368901D01*
G37*
G36*
X140857900Y-41394346D02*
G01*
X140935444Y-41427060D01*
X140935444Y-42047415D01*
X140870016Y-42054685D01*
X140802165Y-42057108D01*
X140693421Y-42032876D01*
X140619208Y-41960178D01*
X140576498Y-41849313D01*
X140562262Y-41710582D01*
X140574378Y-41569426D01*
X140610727Y-41465832D01*
X140673732Y-41402221D01*
X140765816Y-41381018D01*
X140857900Y-41394346D01*
G37*
G36*
X142121329Y-41402221D02*
G01*
X142187060Y-41465832D01*
X142226135Y-41569426D01*
X142239160Y-41710582D01*
X142222197Y-41872032D01*
X142171309Y-41978352D01*
X142091341Y-42037419D01*
X141987141Y-42057108D01*
X141922924Y-42054685D01*
X141851438Y-42044992D01*
X141851438Y-41427060D01*
X141932617Y-41394346D01*
X142028336Y-41381018D01*
X142121329Y-41402221D01*
G37*
G36*
X144443522Y-43461793D02*
G01*
X143676155Y-43461793D01*
X143109111Y-43461793D01*
X141994410Y-43461793D01*
X140799742Y-43461793D01*
X139745622Y-43461793D01*
X138887787Y-43461793D01*
X137365977Y-43461793D01*
X136643845Y-43461793D01*
X135876478Y-43461793D01*
X135876478Y-41148384D01*
X136643845Y-41148384D01*
X136643845Y-41395557D01*
X136958869Y-41395557D01*
X136958869Y-41814782D01*
X136963716Y-41926858D01*
X136978255Y-42025606D01*
X137044895Y-42181906D01*
X137170905Y-42280048D01*
X137259051Y-42305493D01*
X137365977Y-42313974D01*
X137515008Y-42298223D01*
X137688271Y-42238853D01*
X137649499Y-41998950D01*
X137518643Y-42043780D01*
X137419289Y-42054685D01*
X137294491Y-42005008D01*
X137256931Y-41853554D01*
X137256931Y-41148384D01*
X137055800Y-41148384D01*
X136643845Y-41148384D01*
X135876478Y-41148384D01*
X135876478Y-40821244D01*
X136869208Y-40821244D01*
X136923732Y-40959370D01*
X137055800Y-41010258D01*
X137189079Y-40959370D01*
X137192013Y-40952100D01*
X137872439Y-40952100D01*
X138020258Y-41160501D01*
X138172924Y-41046607D01*
X138320743Y-41012682D01*
X138461292Y-41062359D01*
X138517027Y-41204120D01*
X138472197Y-41332553D01*
X138358304Y-41463409D01*
X138286817Y-41532775D01*
X138210485Y-41605170D01*
X138134152Y-41682108D01*
X138062666Y-41765105D01*
X137999661Y-41855069D01*
X137948772Y-41952908D01*
X137915149Y-42059532D01*
X137903942Y-42175848D01*
X137902730Y-42226737D01*
X137908788Y-42287318D01*
X138887787Y-42287318D01*
X138887787Y-42040145D01*
X138243199Y-42040145D01*
X138268643Y-41960178D01*
X138330436Y-41874152D01*
X138407981Y-41791761D01*
X138480679Y-41722698D01*
X138485623Y-41717851D01*
X139086494Y-41717851D01*
X139095884Y-41839620D01*
X139124055Y-41952908D01*
X139172217Y-42054685D01*
X139241583Y-42141922D01*
X139332758Y-42213409D01*
X139446349Y-42267932D01*
X139583566Y-42302464D01*
X139745622Y-42313974D01*
X139858910Y-42310036D01*
X139956446Y-42298223D01*
X140109111Y-42258239D01*
X140065493Y-42013489D01*
X139926155Y-42044992D01*
X139779548Y-42054685D01*
X139597500Y-42032270D01*
X139477851Y-41965024D01*
X139411515Y-41858401D01*
X139390546Y-41725121D01*
X140259354Y-41725121D01*
X140274567Y-41894750D01*
X140320205Y-42038530D01*
X140396268Y-42156462D01*
X140501949Y-42243969D01*
X140636440Y-42296473D01*
X140799742Y-42313974D01*
X140914847Y-42309733D01*
X141032375Y-42297011D01*
X141142027Y-42277625D01*
X141233506Y-42253393D01*
X141233506Y-40656462D01*
X141553376Y-40656462D01*
X141553376Y-42253393D01*
X141645460Y-42277625D01*
X141756931Y-42297011D01*
X141876882Y-42309733D01*
X141994410Y-42313974D01*
X142117997Y-42303372D01*
X142227044Y-42271567D01*
X142320945Y-42220376D01*
X142399095Y-42151616D01*
X142460889Y-42065893D01*
X142505719Y-41963813D01*
X142532981Y-41847193D01*
X142542068Y-41717851D01*
X142539991Y-41681502D01*
X142694733Y-41681502D01*
X142707523Y-41835784D01*
X142745891Y-41965832D01*
X142809838Y-42071648D01*
X142898557Y-42149731D01*
X143011239Y-42196581D01*
X143147884Y-42212197D01*
X143260565Y-42200081D01*
X143375670Y-42163732D01*
X143375670Y-42209774D01*
X143363554Y-42300646D01*
X143322359Y-42374556D01*
X143242391Y-42424233D01*
X143113958Y-42442407D01*
X142920097Y-42419386D01*
X142772278Y-42369709D01*
X142716543Y-42621729D01*
X142904346Y-42672617D01*
X143004608Y-42688974D01*
X143109111Y-42694426D01*
X143289645Y-42679618D01*
X143433829Y-42635191D01*
X143541664Y-42561147D01*
X143616381Y-42456139D01*
X143661212Y-42318821D01*
X143676155Y-42149192D01*
X143676155Y-41184733D01*
X143534260Y-41151077D01*
X143399365Y-41130883D01*
X143271470Y-41124152D01*
X143106150Y-41139499D01*
X142965600Y-41185541D01*
X142849822Y-41262278D01*
X142763662Y-41370248D01*
X142711966Y-41509989D01*
X142694733Y-41681502D01*
X142539991Y-41681502D01*
X142534798Y-41590630D01*
X142512989Y-41475525D01*
X142476943Y-41374051D01*
X142426963Y-41287722D01*
X142285202Y-41166559D01*
X142193724Y-41134754D01*
X142088918Y-41124152D01*
X141972601Y-41135057D01*
X141851438Y-41175040D01*
X141851438Y-40605574D01*
X141553376Y-40656462D01*
X141233506Y-40656462D01*
X141233506Y-40605574D01*
X140935444Y-40656462D01*
X140935444Y-41175040D01*
X140833667Y-41137480D01*
X140714927Y-41124152D01*
X140576936Y-41142057D01*
X140463446Y-41195773D01*
X140374459Y-41285299D01*
X140310512Y-41405789D01*
X140272143Y-41552396D01*
X140259354Y-41725121D01*
X139390546Y-41725121D01*
X139389402Y-41717851D01*
X139408788Y-41582149D01*
X139471793Y-41474313D01*
X139586898Y-41404039D01*
X139765008Y-41378595D01*
X139916462Y-41391922D01*
X140024297Y-41422213D01*
X140089725Y-41182310D01*
X139922520Y-41133845D01*
X139738352Y-41119305D01*
X139580537Y-41131119D01*
X139446349Y-41166559D01*
X139334576Y-41222294D01*
X139244006Y-41294992D01*
X139174338Y-41383138D01*
X139125267Y-41485218D01*
X139096187Y-41597900D01*
X139086494Y-41717851D01*
X138485623Y-41717851D01*
X138604265Y-41601535D01*
X138713312Y-41470679D01*
X138790856Y-41331341D01*
X138819935Y-41182310D01*
X138781163Y-40994507D01*
X138676963Y-40860016D01*
X138526721Y-40780048D01*
X138349822Y-40753393D01*
X138223510Y-40765509D01*
X138096591Y-40801858D01*
X137976943Y-40863651D01*
X137872439Y-40952100D01*
X137192013Y-40952100D01*
X137244814Y-40821244D01*
X137189079Y-40680695D01*
X137055800Y-40629806D01*
X136923732Y-40680695D01*
X136869208Y-40821244D01*
X135876478Y-40821244D01*
X135876478Y-39838207D01*
X136643845Y-39838207D01*
X143676155Y-39838207D01*
X144443522Y-39838207D01*
X144443522Y-43461793D01*
G37*
%TO.C,kibuzzard-6AB23C57*%
G36*
X149269612Y-96576834D02*
G01*
X149339887Y-96585315D01*
X149339887Y-96847027D01*
X149259919Y-96853086D01*
X149165412Y-96854297D01*
X149015170Y-96821583D01*
X148957011Y-96711325D01*
X148976397Y-96641050D01*
X149028498Y-96599855D01*
X149104830Y-96579257D01*
X149194491Y-96573199D01*
X149269612Y-96576834D01*
G37*
G36*
X148063736Y-96182447D02*
G01*
X148129467Y-96246058D01*
X148168542Y-96349653D01*
X148181567Y-96490808D01*
X148164604Y-96652258D01*
X148113716Y-96758578D01*
X148033748Y-96817645D01*
X147929548Y-96837334D01*
X147865331Y-96834911D01*
X147793845Y-96825218D01*
X147793845Y-96207286D01*
X147875024Y-96174572D01*
X147970743Y-96161244D01*
X148063736Y-96182447D01*
G37*
G36*
X152891583Y-97861567D02*
G01*
X152124216Y-97861567D01*
X151760727Y-97861567D01*
X150549095Y-97861567D01*
X149143603Y-97861567D01*
X147936817Y-97861567D01*
X147495784Y-97861567D01*
X146728417Y-97861567D01*
X146728417Y-95436688D01*
X147495784Y-95436688D01*
X147495784Y-97033619D01*
X147587868Y-97057851D01*
X147699338Y-97077237D01*
X147819289Y-97089960D01*
X147936817Y-97094200D01*
X148060404Y-97083599D01*
X148169451Y-97051793D01*
X148263352Y-97000602D01*
X148341502Y-96931842D01*
X148403296Y-96846119D01*
X148448126Y-96744039D01*
X148454074Y-96718595D01*
X148663796Y-96718595D01*
X148697722Y-96894281D01*
X148794653Y-97010598D01*
X148946107Y-97074814D01*
X149143603Y-97094200D01*
X149295662Y-97089354D01*
X149431971Y-97074814D01*
X149625832Y-97040889D01*
X149625832Y-96362375D01*
X149601599Y-96169725D01*
X149521632Y-96024330D01*
X149372601Y-95932246D01*
X149357029Y-95928611D01*
X149856042Y-95928611D01*
X149856042Y-96175784D01*
X150115331Y-96175784D01*
X150115331Y-96643473D01*
X150122601Y-96772815D01*
X150144410Y-96874895D01*
X150229225Y-97011809D01*
X150364927Y-97077237D01*
X150549095Y-97094200D01*
X150734475Y-97079661D01*
X150912585Y-97031195D01*
X150871389Y-96774330D01*
X150795057Y-96805832D01*
X150727205Y-96824006D01*
X150659354Y-96832488D01*
X150583021Y-96834911D01*
X150512746Y-96827641D01*
X150459435Y-96798562D01*
X150425509Y-96737981D01*
X150413393Y-96636204D01*
X150413393Y-96175784D01*
X150890775Y-96175784D01*
X150890775Y-95928611D01*
X151067674Y-95928611D01*
X151067674Y-96175784D01*
X151326963Y-96175784D01*
X151326963Y-96643473D01*
X151334233Y-96772815D01*
X151356042Y-96874895D01*
X151440856Y-97011809D01*
X151576559Y-97077237D01*
X151760727Y-97094200D01*
X151946107Y-97079661D01*
X152124216Y-97031195D01*
X152083021Y-96774330D01*
X152006688Y-96805832D01*
X151938837Y-96824006D01*
X151870985Y-96832488D01*
X151794653Y-96834911D01*
X151724378Y-96827641D01*
X151671066Y-96798562D01*
X151637141Y-96737981D01*
X151625024Y-96636204D01*
X151625024Y-96175784D01*
X152102407Y-96175784D01*
X152102407Y-95928611D01*
X151625024Y-95928611D01*
X151625024Y-95594200D01*
X151326963Y-95642666D01*
X151326963Y-95928611D01*
X151067674Y-95928611D01*
X150890775Y-95928611D01*
X150413393Y-95928611D01*
X150413393Y-95594200D01*
X150115331Y-95642666D01*
X150115331Y-95928611D01*
X149856042Y-95928611D01*
X149357029Y-95928611D01*
X149267492Y-95907710D01*
X149138756Y-95899532D01*
X149031527Y-95903469D01*
X148927932Y-95915283D01*
X148770420Y-95950420D01*
X148811616Y-96190323D01*
X148938837Y-96161244D01*
X149102407Y-96149128D01*
X149213877Y-96163364D01*
X149286575Y-96206074D01*
X149339887Y-96347835D01*
X149339887Y-96384184D01*
X149243562Y-96369645D01*
X149133910Y-96364798D01*
X148957011Y-96382973D01*
X148806769Y-96442342D01*
X148702569Y-96551389D01*
X148663796Y-96718595D01*
X148454074Y-96718595D01*
X148475388Y-96627419D01*
X148484475Y-96498078D01*
X148477205Y-96370856D01*
X148455396Y-96255751D01*
X148419350Y-96154277D01*
X148369370Y-96067948D01*
X148227609Y-95946785D01*
X148136131Y-95914980D01*
X148031325Y-95904378D01*
X147915008Y-95915283D01*
X147793845Y-95955267D01*
X147793845Y-95385800D01*
X147495784Y-95436688D01*
X146728417Y-95436688D01*
X146728417Y-94618433D01*
X147495784Y-94618433D01*
X152124216Y-94618433D01*
X152891583Y-94618433D01*
X152891583Y-97861567D01*
G37*
%TO.C,J7*%
D11*
X193729904Y-45801809D02*
X194409618Y-46481523D01*
X195918231Y-43613483D02*
X193729904Y-45801809D01*
X197468477Y-49540382D02*
X198148191Y-50220096D01*
X198148191Y-50220096D02*
X200336517Y-48031769D01*
X200907575Y-45615670D02*
X198334330Y-43042425D01*
D16*
X199335292Y-50312019D02*
G75*
G02*
X198573292Y-50312019I-381000J0D01*
G01*
X198573292Y-50312019D02*
G75*
G02*
X199335292Y-50312019I381000J0D01*
G01*
%TO.C,D3*%
D17*
X140769630Y-60314100D02*
X140769630Y-61314100D01*
%TO.C,C13*%
D11*
X198724079Y-89799920D02*
X198724079Y-90499920D01*
X199374079Y-89799920D02*
X198724079Y-89799920D01*
X199374079Y-90499920D02*
X198724079Y-90499920D01*
X200524079Y-89799920D02*
X199874079Y-89799920D01*
X200524079Y-89799920D02*
X200524079Y-90499920D01*
X200524079Y-90499920D02*
X199874079Y-90499920D01*
%TO.C,R14*%
X187692500Y-101360000D02*
X187692500Y-100735000D01*
X187692500Y-102485000D02*
X187692500Y-101860000D01*
X188442500Y-100735000D02*
X187692500Y-100735000D01*
X188442500Y-101360000D02*
X188442500Y-100735000D01*
X188442500Y-102485000D02*
X187692500Y-102485000D01*
X188442500Y-102485000D02*
X188442500Y-101860000D01*
%TO.C,C5*%
X202349920Y-68170080D02*
X202999920Y-68170080D01*
X202349920Y-68870080D02*
X202349920Y-68170080D01*
X202349920Y-68870080D02*
X202999920Y-68870080D01*
X203499920Y-68170080D02*
X204149920Y-68170080D01*
X203499920Y-68870080D02*
X204149920Y-68870080D01*
X204149920Y-68870080D02*
X204149920Y-68170080D01*
%TO.C,R2*%
X119365000Y-83675000D02*
X119990000Y-83675000D01*
X119365000Y-84425000D02*
X119365000Y-83675000D01*
X119365000Y-84425000D02*
X119990000Y-84425000D01*
X120490000Y-83675000D02*
X121115000Y-83675000D01*
X120490000Y-84425000D02*
X121115000Y-84425000D01*
X121115000Y-84425000D02*
X121115000Y-83675000D01*
%TO.C,C3*%
X128450080Y-77150080D02*
X128450080Y-76500080D01*
X128450080Y-78300080D02*
X128450080Y-77650080D01*
X129150080Y-76500080D02*
X128450080Y-76500080D01*
X129150080Y-77150080D02*
X129150080Y-76500080D01*
X129150080Y-78300080D02*
X128450080Y-78300080D01*
X129150080Y-78300080D02*
X129150080Y-77650080D01*
%TO.C,Q2*%
D14*
X185493879Y-116622612D02*
X185493879Y-115847612D01*
X186333879Y-116622612D02*
X185493879Y-116622612D01*
X187283879Y-115322612D02*
X186623879Y-115322612D01*
X187573879Y-116622612D02*
X188413879Y-116622612D01*
X188413879Y-116622612D02*
X188413879Y-115847612D01*
D15*
X188253879Y-113472612D02*
G75*
G02*
X188053879Y-113472612I-100000J0D01*
G01*
X188053879Y-113472612D02*
G75*
G02*
X188253879Y-113472612I100000J0D01*
G01*
%TO.C,J5*%
D11*
X129532170Y-111564585D02*
X132105415Y-114137830D01*
X132291554Y-106960159D02*
X130103228Y-109148486D01*
X132971268Y-107639873D02*
X132291554Y-106960159D01*
X134521514Y-113566772D02*
X136709841Y-111378446D01*
X136709841Y-111378446D02*
X136030127Y-110698732D01*
D16*
X131866453Y-106868236D02*
G75*
G02*
X131104453Y-106868236I-381000J0D01*
G01*
X131104453Y-106868236D02*
G75*
G02*
X131866453Y-106868236I381000J0D01*
G01*
%TO.C,J8*%
D11*
X193530159Y-111508446D02*
X195718486Y-113696772D01*
X194209873Y-110828732D02*
X193530159Y-111508446D01*
X197948446Y-107090159D02*
X197268732Y-107769873D01*
X198134585Y-114267830D02*
X200707830Y-111694585D01*
X200136772Y-109278486D02*
X197948446Y-107090159D01*
D16*
X193819236Y-112314547D02*
G75*
G02*
X193057236Y-112314547I-381000J0D01*
G01*
X193057236Y-112314547D02*
G75*
G02*
X193819236Y-112314547I381000J0D01*
G01*
%TO.C,C4*%
D11*
X128460080Y-79660080D02*
X128460080Y-79010080D01*
X128460080Y-80810080D02*
X128460080Y-80160080D01*
X129160080Y-79010080D02*
X128460080Y-79010080D01*
X129160080Y-79660080D02*
X129160080Y-79010080D01*
X129160080Y-80810080D02*
X128460080Y-80810080D01*
X129160080Y-80810080D02*
X129160080Y-80160080D01*
%TO.C,D6*%
D14*
X194313446Y-53031213D02*
X196038787Y-54756554D01*
X196081213Y-51263446D02*
X197806554Y-52988787D01*
D15*
X193465923Y-52471185D02*
G75*
G02*
X193265923Y-52471185I-100000J0D01*
G01*
X193265923Y-52471185D02*
G75*
G02*
X193465923Y-52471185I100000J0D01*
G01*
D13*
%TO.C,kibuzzard-6AB23B67*%
G36*
X198227997Y-65139645D02*
G01*
X198265477Y-65144168D01*
X198265477Y-65283748D01*
X198222827Y-65286979D01*
X198172423Y-65287625D01*
X198092294Y-65270178D01*
X198061276Y-65211373D01*
X198071616Y-65173893D01*
X198099402Y-65151922D01*
X198140113Y-65140937D01*
X198187932Y-65137706D01*
X198227997Y-65139645D01*
G37*
G36*
X196292456Y-64929305D02*
G01*
X196327512Y-64963231D01*
X196348352Y-65018481D01*
X196355299Y-65093764D01*
X196346252Y-65179871D01*
X196319111Y-65236575D01*
X196276462Y-65268078D01*
X196220889Y-65278578D01*
X196186640Y-65277286D01*
X196148514Y-65272116D01*
X196148514Y-64942553D01*
X196191809Y-64925105D01*
X196242859Y-64917997D01*
X196292456Y-64929305D01*
G37*
G36*
X200159715Y-65824836D02*
G01*
X199750452Y-65824836D01*
X199556591Y-65824836D01*
X198902633Y-65824836D01*
X198160792Y-65824836D01*
X197771777Y-65824836D01*
X196971777Y-65824836D01*
X196224766Y-65824836D01*
X195989548Y-65824836D01*
X195580285Y-65824836D01*
X195580285Y-64531567D01*
X195989548Y-64531567D01*
X195989548Y-65383263D01*
X196038659Y-65396187D01*
X196098110Y-65406527D01*
X196162084Y-65413312D01*
X196224766Y-65415574D01*
X196290679Y-65409919D01*
X196348837Y-65392956D01*
X196398918Y-65365654D01*
X196440598Y-65328982D01*
X196473554Y-65283263D01*
X196497464Y-65228821D01*
X196512003Y-65166624D01*
X196516850Y-65097641D01*
X196512973Y-65029790D01*
X196501341Y-64968401D01*
X196482116Y-64914281D01*
X196455460Y-64868239D01*
X196379855Y-64803619D01*
X196351976Y-64793926D01*
X196602149Y-64793926D01*
X196602149Y-64925751D01*
X196740436Y-64925751D01*
X196740436Y-65175186D01*
X196744313Y-65244168D01*
X196755945Y-65298611D01*
X196801179Y-65371632D01*
X196873554Y-65406527D01*
X196971777Y-65415574D01*
X197070646Y-65407819D01*
X197165638Y-65381971D01*
X197143667Y-65244976D01*
X197102956Y-65261777D01*
X197066769Y-65271470D01*
X197030582Y-65275994D01*
X196989871Y-65277286D01*
X196952391Y-65273409D01*
X196923958Y-65257900D01*
X196905864Y-65225590D01*
X196899402Y-65171309D01*
X196899402Y-64925751D01*
X197154006Y-64925751D01*
X197154006Y-64813312D01*
X197283247Y-64813312D01*
X197283247Y-65401357D01*
X197442213Y-65401357D01*
X197442213Y-64924459D01*
X197479047Y-64920582D01*
X197514588Y-64919289D01*
X197593425Y-64956769D01*
X197607964Y-65006204D01*
X197612811Y-65079548D01*
X197612811Y-65401357D01*
X197771777Y-65401357D01*
X197771777Y-65215250D01*
X197904895Y-65215250D01*
X197922989Y-65308950D01*
X197974685Y-65370985D01*
X198055460Y-65405234D01*
X198160792Y-65415574D01*
X198241890Y-65412989D01*
X198314588Y-65405234D01*
X198417981Y-65387141D01*
X198417981Y-65097641D01*
X198551099Y-65097641D01*
X198556107Y-65162585D01*
X198571131Y-65223005D01*
X198596817Y-65277286D01*
X198633813Y-65323813D01*
X198682439Y-65361939D01*
X198743021Y-65391018D01*
X198816204Y-65409435D01*
X198902633Y-65415574D01*
X198963053Y-65413473D01*
X199015073Y-65407173D01*
X199096494Y-65385848D01*
X199073231Y-65255315D01*
X198998918Y-65272116D01*
X198920727Y-65277286D01*
X198823635Y-65265331D01*
X198759822Y-65229467D01*
X198724443Y-65172601D01*
X198712649Y-65097641D01*
X198722989Y-65025267D01*
X198756591Y-64967754D01*
X198817981Y-64930275D01*
X198912973Y-64916704D01*
X198993748Y-64923813D01*
X199051260Y-64939968D01*
X199086155Y-64812019D01*
X199023734Y-64793926D01*
X199186963Y-64793926D01*
X199186963Y-64925751D01*
X199325250Y-64925751D01*
X199325250Y-65175186D01*
X199329128Y-65244168D01*
X199340759Y-65298611D01*
X199385994Y-65371632D01*
X199458368Y-65406527D01*
X199556591Y-65415574D01*
X199655460Y-65407819D01*
X199750452Y-65381971D01*
X199728481Y-65244976D01*
X199687771Y-65261777D01*
X199651583Y-65271470D01*
X199615396Y-65275994D01*
X199574685Y-65277286D01*
X199537205Y-65273409D01*
X199508772Y-65257900D01*
X199490679Y-65225590D01*
X199484216Y-65171309D01*
X199484216Y-64925751D01*
X199738821Y-64925751D01*
X199738821Y-64793926D01*
X199484216Y-64793926D01*
X199484216Y-64615574D01*
X199325250Y-64641422D01*
X199325250Y-64793926D01*
X199186963Y-64793926D01*
X199023734Y-64793926D01*
X198996979Y-64786171D01*
X198898756Y-64778417D01*
X198814588Y-64784717D01*
X198743021Y-64803619D01*
X198683409Y-64833344D01*
X198635105Y-64872116D01*
X198597948Y-64919128D01*
X198571777Y-64973570D01*
X198556268Y-65033667D01*
X198551099Y-65097641D01*
X198417981Y-65097641D01*
X198417981Y-65025267D01*
X198405057Y-64922520D01*
X198362407Y-64844976D01*
X198282924Y-64795864D01*
X198226866Y-64782779D01*
X198158207Y-64778417D01*
X198101018Y-64780517D01*
X198045767Y-64786817D01*
X197961761Y-64805557D01*
X197983732Y-64933506D01*
X198051583Y-64917997D01*
X198138821Y-64911535D01*
X198198271Y-64919128D01*
X198237044Y-64941906D01*
X198265477Y-65017512D01*
X198265477Y-65036898D01*
X198214103Y-65029144D01*
X198155622Y-65026559D01*
X198061276Y-65036252D01*
X197981147Y-65067916D01*
X197925574Y-65126074D01*
X197904895Y-65215250D01*
X197771777Y-65215250D01*
X197771777Y-65058869D01*
X197768869Y-64999580D01*
X197760145Y-64945784D01*
X197720727Y-64857900D01*
X197645121Y-64801034D01*
X197591163Y-64786010D01*
X197524927Y-64781002D01*
X197454006Y-64783586D01*
X197388578Y-64791341D01*
X197330905Y-64802003D01*
X197283247Y-64813312D01*
X197154006Y-64813312D01*
X197154006Y-64793926D01*
X196899402Y-64793926D01*
X196899402Y-64615574D01*
X196740436Y-64641422D01*
X196740436Y-64793926D01*
X196602149Y-64793926D01*
X196351976Y-64793926D01*
X196331066Y-64786656D01*
X196275170Y-64781002D01*
X196213134Y-64786817D01*
X196148514Y-64808142D01*
X196148514Y-64504426D01*
X195989548Y-64531567D01*
X195580285Y-64531567D01*
X195580285Y-64095164D01*
X195989548Y-64095164D01*
X199750452Y-64095164D01*
X200159715Y-64095164D01*
X200159715Y-65824836D01*
G37*
%TO.C,R10*%
D11*
X140985000Y-53365000D02*
X141610000Y-53365000D01*
X140985000Y-54115000D02*
X140985000Y-53365000D01*
X140985000Y-54115000D02*
X141610000Y-54115000D01*
X142110000Y-53365000D02*
X142735000Y-53365000D01*
X142110000Y-54115000D02*
X142735000Y-54115000D01*
X142735000Y-54115000D02*
X142735000Y-53365000D01*
%TO.C,R17*%
X123722500Y-98995000D02*
X124347500Y-98995000D01*
X123722500Y-99745000D02*
X123722500Y-98995000D01*
X123722500Y-99745000D02*
X124347500Y-99745000D01*
X124847500Y-98995000D02*
X125472500Y-98995000D01*
X124847500Y-99745000D02*
X125472500Y-99745000D01*
X125472500Y-99745000D02*
X125472500Y-98995000D01*
%TO.C,B4*%
D12*
X134218902Y-106175413D02*
G75*
G02*
X134289612Y-106246123I35355J-35355D01*
G01*
X134289612Y-106246124D02*
G75*
G02*
X134218901Y-106175412I-35355J35356D01*
G01*
%TO.C,U7*%
D14*
X184945000Y-99710000D02*
X185605000Y-99710000D01*
X185605000Y-102610000D02*
X184945000Y-102610000D01*
X186075000Y-100825000D02*
X186075000Y-101495000D01*
D15*
X182965000Y-100110000D02*
G75*
G02*
X182765000Y-100110000I-100000J0D01*
G01*
X182765000Y-100110000D02*
G75*
G02*
X182965000Y-100110000I100000J0D01*
G01*
%TO.C,BT1*%
D18*
X153632546Y-103460000D02*
X154632546Y-103460000D01*
X154132546Y-102960000D02*
X154132546Y-103960000D01*
X153132547Y-100360000D02*
G75*
G02*
X153132547Y-106560000I11499999J-3100000D01*
G01*
%TO.C,J6*%
D11*
X129893228Y-48331769D02*
X132081554Y-50520096D01*
X131895415Y-43342425D02*
X129322170Y-45915670D01*
X132081554Y-50520096D02*
X132761268Y-49840382D01*
X135820127Y-46781523D02*
X136499841Y-46101809D01*
X136499841Y-46101809D02*
X134311514Y-43913483D01*
D16*
X136972764Y-45295708D02*
G75*
G02*
X136210764Y-45295708I-381000J0D01*
G01*
X136210764Y-45295708D02*
G75*
G02*
X136972764Y-45295708I381000J0D01*
G01*
%TO.C,D2*%
D14*
X202000500Y-73730000D02*
X202000500Y-71290000D01*
X204500500Y-73730000D02*
X204500500Y-71290000D01*
D15*
X204874500Y-74796000D02*
G75*
G02*
X204674500Y-74796000I-100000J0D01*
G01*
X204674500Y-74796000D02*
G75*
G02*
X204874500Y-74796000I100000J0D01*
G01*
%TO.C,D4*%
D17*
X140777430Y-51930000D02*
X140777430Y-52930000D01*
%TO.C,B2*%
D12*
X206511000Y-73160000D02*
G75*
G02*
X206511000Y-73260000I0J-50000D01*
G01*
X206511000Y-73260000D02*
G75*
G02*
X206511000Y-73160000I0J50000D01*
G01*
%TO.C,Q1*%
D11*
X189144512Y-114756436D02*
X189144512Y-116813836D01*
X190208772Y-114756436D02*
X189144512Y-114756436D01*
X190480552Y-116813836D02*
X191161272Y-116813836D01*
X192497312Y-114756436D02*
X191433052Y-114756436D01*
X192497312Y-116813836D02*
X192497312Y-114756436D01*
%TO.C,R24*%
X209395000Y-83845000D02*
X209395000Y-84595000D01*
X210020000Y-83845000D02*
X209395000Y-83845000D01*
X210020000Y-84595000D02*
X209395000Y-84595000D01*
X211145000Y-83845000D02*
X210520000Y-83845000D01*
X211145000Y-83845000D02*
X211145000Y-84595000D01*
X211145000Y-84595000D02*
X210520000Y-84595000D01*
%TO.C,C16*%
X135606117Y-48055152D02*
X136101091Y-48550126D01*
X136065736Y-47595532D02*
X135606117Y-48055152D01*
X136560711Y-48090507D02*
X136101091Y-48550126D01*
X136878909Y-46782359D02*
X136419289Y-47241979D01*
X136878909Y-46782359D02*
X137373883Y-47277334D01*
X137373883Y-47277334D02*
X136914264Y-47736954D01*
%TO.C,R25*%
X209395000Y-72715000D02*
X209395000Y-73465000D01*
X210020000Y-72715000D02*
X209395000Y-72715000D01*
X210020000Y-73465000D02*
X209395000Y-73465000D01*
X211145000Y-72715000D02*
X210520000Y-72715000D01*
X211145000Y-72715000D02*
X211145000Y-73465000D01*
X211145000Y-73465000D02*
X210520000Y-73465000D01*
%TO.C,R5*%
X135715000Y-80725000D02*
X136340000Y-80725000D01*
X135715000Y-81475000D02*
X135715000Y-80725000D01*
X135715000Y-81475000D02*
X136340000Y-81475000D01*
X136840000Y-80725000D02*
X137465000Y-80725000D01*
X136840000Y-81475000D02*
X137465000Y-81475000D01*
X137465000Y-81475000D02*
X137465000Y-80725000D01*
%TO.C,R15*%
X190152500Y-101410000D02*
X190152500Y-100785000D01*
X190152500Y-102535000D02*
X190152500Y-101910000D01*
X190902500Y-100785000D02*
X190152500Y-100785000D01*
X190902500Y-101410000D02*
X190902500Y-100785000D01*
X190902500Y-102535000D02*
X190152500Y-102535000D01*
X190902500Y-102535000D02*
X190902500Y-101910000D01*
%TO.C,R8*%
X202325000Y-77505000D02*
X202325000Y-78255000D01*
X202950000Y-77505000D02*
X202325000Y-77505000D01*
X202950000Y-78255000D02*
X202325000Y-78255000D01*
X204075000Y-77505000D02*
X203450000Y-77505000D01*
X204075000Y-77505000D02*
X204075000Y-78255000D01*
X204075000Y-78255000D02*
X203450000Y-78255000D01*
%TO.C,U6*%
D14*
X193025000Y-99710000D02*
X193685000Y-99710000D01*
X193685000Y-102610000D02*
X193025000Y-102610000D01*
X194155000Y-100825000D02*
X194155000Y-101495000D01*
D15*
X191045000Y-100110000D02*
G75*
G02*
X190845000Y-100110000I-100000J0D01*
G01*
X190845000Y-100110000D02*
G75*
G02*
X191045000Y-100110000I100000J0D01*
G01*
%TO.C,R1*%
D11*
X119345000Y-72785000D02*
X119970000Y-72785000D01*
X119345000Y-73535000D02*
X119345000Y-72785000D01*
X119345000Y-73535000D02*
X119970000Y-73535000D01*
X120470000Y-72785000D02*
X121095000Y-72785000D01*
X120470000Y-73535000D02*
X121095000Y-73535000D01*
X121095000Y-73535000D02*
X121095000Y-72785000D01*
%TO.C,D5*%
D14*
X137453446Y-48048787D02*
X139178787Y-46323446D01*
X139221213Y-49816554D02*
X140946554Y-48091213D01*
D15*
X138761185Y-50764077D02*
G75*
G02*
X138561185Y-50764077I-100000J0D01*
G01*
X138561185Y-50764077D02*
G75*
G02*
X138761185Y-50764077I100000J0D01*
G01*
%TO.C,B3*%
D12*
X192607129Y-109341098D02*
G75*
G02*
X192677839Y-109270388I35355J35355D01*
G01*
X192677840Y-109270388D02*
G75*
G02*
X192607128Y-109341099I-35356J-35355D01*
G01*
%TO.C,R6*%
D11*
X133155080Y-57592848D02*
X133155080Y-58342848D01*
X133780080Y-57592848D02*
X133155080Y-57592848D01*
X133780080Y-58342848D02*
X133155080Y-58342848D01*
X134905080Y-57592848D02*
X134280080Y-57592848D01*
X134905080Y-57592848D02*
X134905080Y-58342848D01*
X134905080Y-58342848D02*
X134280080Y-58342848D01*
%TO.C,R19*%
X135266117Y-108096447D02*
X135708058Y-108538388D01*
X135266117Y-108096447D02*
X135796447Y-107566117D01*
X135796447Y-107566117D02*
X136238388Y-108008058D01*
X136061612Y-108891942D02*
X136503553Y-109333883D01*
X136503553Y-109333883D02*
X137033883Y-108803553D01*
X136591942Y-108361612D02*
X137033883Y-108803553D01*
%TO.C,C14*%
X134016003Y-105421091D02*
X134475623Y-105880711D01*
X134016003Y-105421091D02*
X134510978Y-104926117D01*
X134510978Y-104926117D02*
X134970598Y-105385736D01*
X134829176Y-106234264D02*
X135288796Y-106693883D01*
X135288796Y-106693883D02*
X135783770Y-106198909D01*
X135324151Y-105739289D02*
X135783770Y-106198909D01*
%TO.C,C18*%
X147360000Y-100870000D02*
X147360000Y-99695000D01*
X147360000Y-102545000D02*
X147360000Y-101370000D01*
D15*
X147660000Y-101220000D02*
X147660000Y-101020000D01*
X148660000Y-101220000D02*
X148660000Y-101020000D01*
D11*
X148960000Y-99695000D02*
X147360000Y-99695000D01*
X148960000Y-100870000D02*
X148960000Y-99695000D01*
X148960000Y-102545000D02*
X147360000Y-102545000D01*
X148960000Y-102545000D02*
X148960000Y-101370000D01*
D13*
%TO.C,kibuzzard-6AB23A8A*%
G36*
X121321166Y-70238260D02*
G01*
X121386897Y-70301871D01*
X121425972Y-70405466D01*
X121438997Y-70546621D01*
X121422035Y-70708071D01*
X121371146Y-70814391D01*
X121291178Y-70873458D01*
X121186978Y-70893147D01*
X121122762Y-70890724D01*
X121051275Y-70881031D01*
X121051275Y-70263099D01*
X121132455Y-70230385D01*
X121228173Y-70217057D01*
X121321166Y-70238260D01*
G37*
G36*
X124864684Y-71917380D02*
G01*
X124097317Y-71917380D01*
X123576316Y-71917380D01*
X121967269Y-71917380D01*
X121194248Y-71917380D01*
X119941421Y-71917380D01*
X118785524Y-71917380D01*
X118322681Y-71917380D01*
X117555314Y-71917380D01*
X117555314Y-70619319D01*
X118322681Y-70619319D01*
X118327527Y-70730789D01*
X118342067Y-70832566D01*
X118413553Y-71000983D01*
X118555314Y-71111241D01*
X118657697Y-71140320D01*
X118785524Y-71150013D01*
X118918501Y-71144561D01*
X119041178Y-71128204D01*
X119149922Y-71106395D01*
X119241098Y-71084585D01*
X119241098Y-71055506D01*
X119522196Y-71055506D01*
X119689401Y-71116088D01*
X119804506Y-71141532D01*
X119941421Y-71150013D01*
X120075306Y-71143349D01*
X120186170Y-71123357D01*
X120347317Y-71050660D01*
X120435766Y-70941613D01*
X120462422Y-70808333D01*
X120426073Y-70656879D01*
X120332778Y-70555102D01*
X120205556Y-70488462D01*
X120069854Y-70439997D01*
X119983828Y-70409706D01*
X119913553Y-70376992D01*
X119865088Y-70339432D01*
X119846913Y-70292178D01*
X119886897Y-70232808D01*
X120040774Y-70204941D01*
X120237059Y-70232808D01*
X120365492Y-70272792D01*
X120411534Y-70020773D01*
X120245540Y-69972307D01*
X120145883Y-69959585D01*
X120038351Y-69955345D01*
X119919005Y-69962311D01*
X119817834Y-69983212D01*
X119666380Y-70060756D01*
X119579143Y-70174650D01*
X119551275Y-70311564D01*
X119587624Y-70460595D01*
X119679708Y-70558737D01*
X119803295Y-70622954D01*
X119936574Y-70667784D01*
X120025023Y-70696863D01*
X120100144Y-70727154D01*
X120151033Y-70764714D01*
X120169207Y-70818026D01*
X120111049Y-70882243D01*
X119943844Y-70897994D01*
X119748771Y-70868915D01*
X119568238Y-70805910D01*
X119522196Y-71055506D01*
X119241098Y-71055506D01*
X119241098Y-69984424D01*
X118940613Y-69984424D01*
X118940613Y-70878608D01*
X118804910Y-70890724D01*
X118658303Y-70814391D01*
X118630132Y-70717764D01*
X118620742Y-70580546D01*
X118620742Y-69984424D01*
X118322681Y-69984424D01*
X118322681Y-70619319D01*
X117555314Y-70619319D01*
X117555314Y-69492501D01*
X120753214Y-69492501D01*
X120753214Y-71089432D01*
X120845298Y-71113664D01*
X120956768Y-71133050D01*
X121076720Y-71145773D01*
X121194248Y-71150013D01*
X121317834Y-71139412D01*
X121426881Y-71107606D01*
X121520783Y-71056415D01*
X121598933Y-70987655D01*
X121660726Y-70901932D01*
X121705556Y-70799852D01*
X121732818Y-70683232D01*
X121741905Y-70553891D01*
X121734636Y-70426669D01*
X121712826Y-70311564D01*
X121676780Y-70210090D01*
X121626800Y-70123761D01*
X121485039Y-70002598D01*
X121393561Y-69970793D01*
X121288755Y-69960191D01*
X121172438Y-69971096D01*
X121051275Y-70011080D01*
X121051275Y-69492501D01*
X121967269Y-69492501D01*
X121967269Y-71123357D01*
X122265330Y-71123357D01*
X122265330Y-70246136D01*
X122329547Y-70229173D01*
X122410726Y-70219480D01*
X122548852Y-70289755D01*
X122576114Y-70382445D01*
X122585201Y-70519965D01*
X122585201Y-71123357D01*
X122883262Y-71123357D01*
X122883262Y-71055506D01*
X123157091Y-71055506D01*
X123324296Y-71116088D01*
X123439401Y-71141532D01*
X123576316Y-71150013D01*
X123710201Y-71143349D01*
X123821065Y-71123357D01*
X123982212Y-71050660D01*
X124070661Y-70941613D01*
X124097317Y-70808333D01*
X124060968Y-70656879D01*
X123967673Y-70555102D01*
X123840451Y-70488462D01*
X123704749Y-70439997D01*
X123618723Y-70409706D01*
X123548448Y-70376992D01*
X123499983Y-70339432D01*
X123481808Y-70292178D01*
X123521792Y-70232808D01*
X123675669Y-70204941D01*
X123871954Y-70232808D01*
X124000387Y-70272792D01*
X124046429Y-70020773D01*
X123880435Y-69972307D01*
X123780778Y-69959585D01*
X123673246Y-69955345D01*
X123553900Y-69962311D01*
X123452729Y-69983212D01*
X123301275Y-70060756D01*
X123214038Y-70174650D01*
X123186170Y-70311564D01*
X123222519Y-70460595D01*
X123314603Y-70558737D01*
X123438190Y-70622954D01*
X123571469Y-70667784D01*
X123659918Y-70696863D01*
X123735039Y-70727154D01*
X123785928Y-70764714D01*
X123804102Y-70818026D01*
X123745944Y-70882243D01*
X123578739Y-70897994D01*
X123383666Y-70868915D01*
X123203133Y-70805910D01*
X123157091Y-71055506D01*
X122883262Y-71055506D01*
X122883262Y-70481193D01*
X122877810Y-70370025D01*
X122861453Y-70269157D01*
X122788755Y-70104375D01*
X122653052Y-69997752D01*
X122557939Y-69969581D01*
X122442228Y-69960191D01*
X122352568Y-69971096D01*
X122265330Y-69994117D01*
X122265330Y-69441613D01*
X121967269Y-69492501D01*
X121051275Y-69492501D01*
X121051275Y-69441613D01*
X120753214Y-69492501D01*
X117555314Y-69492501D01*
X117555314Y-68674246D01*
X118322681Y-68674246D01*
X124097317Y-68674246D01*
X124864684Y-68674246D01*
X124864684Y-71917380D01*
G37*
%TO.C,Q3*%
D14*
X123587500Y-102600000D02*
X123587500Y-101825000D01*
X124427500Y-102600000D02*
X123587500Y-102600000D01*
X125377500Y-101300000D02*
X124717500Y-101300000D01*
X125667500Y-102600000D02*
X126507500Y-102600000D01*
X126507500Y-102600000D02*
X126507500Y-101825000D01*
D15*
X126347500Y-99450000D02*
G75*
G02*
X126147500Y-99450000I-100000J0D01*
G01*
X126147500Y-99450000D02*
G75*
G02*
X126347500Y-99450000I100000J0D01*
G01*
%TO.C,R21*%
D11*
X133199959Y-52212755D02*
X133730289Y-52743085D01*
X133641900Y-51770814D02*
X133199959Y-52212755D01*
X134172230Y-52301144D02*
X133730289Y-52743085D01*
X134437395Y-50975319D02*
X133995454Y-51417260D01*
X134437395Y-50975319D02*
X134967725Y-51505649D01*
X134967725Y-51505649D02*
X134525784Y-51947590D01*
D13*
%TO.C,kibuzzard-6AB23C23*%
G36*
X181782132Y-106369499D02*
G01*
X181849984Y-106424023D01*
X181888756Y-106500355D01*
X181900872Y-106588805D01*
X181445299Y-106588805D01*
X181465897Y-106499144D01*
X181509515Y-106421599D01*
X181579790Y-106368288D01*
X181680355Y-106348901D01*
X181782132Y-106369499D01*
G37*
G36*
X187820905Y-106348901D02*
G01*
X187881486Y-106358595D01*
X187881486Y-106906252D01*
X187805153Y-106937754D01*
X187714281Y-106949871D01*
X187554346Y-106875961D01*
X187516179Y-106785392D01*
X187503457Y-106661502D01*
X187532536Y-106486489D01*
X187619774Y-106381481D01*
X187765170Y-106346478D01*
X187820905Y-106348901D01*
G37*
G36*
X182940452Y-106374346D02*
G01*
X183017997Y-106407060D01*
X183017997Y-107027415D01*
X182952569Y-107034685D01*
X182884717Y-107037108D01*
X182775973Y-107012876D01*
X182701761Y-106940178D01*
X182659051Y-106829313D01*
X182644814Y-106690582D01*
X182656931Y-106549426D01*
X182693279Y-106445832D01*
X182756284Y-106382221D01*
X182848368Y-106361018D01*
X182940452Y-106374346D01*
G37*
G36*
X188949338Y-108441793D02*
G01*
X188181971Y-108441793D01*
X187614927Y-108441793D01*
X186977609Y-108441793D01*
X185506688Y-108441793D01*
X184001842Y-108441793D01*
X182882294Y-108441793D01*
X181762746Y-108441793D01*
X180648045Y-108441793D01*
X179938029Y-108441793D01*
X179170662Y-108441793D01*
X179170662Y-105847286D01*
X179938029Y-105847286D01*
X180253053Y-105847286D01*
X180253053Y-106814168D01*
X180276680Y-107021054D01*
X180347561Y-107171599D01*
X180469935Y-107263380D01*
X180648045Y-107293974D01*
X180782536Y-107284281D01*
X180883102Y-107261260D01*
X180949742Y-107235816D01*
X180982456Y-107218853D01*
X180943683Y-106978950D01*
X180863716Y-107010452D01*
X180713473Y-107034685D01*
X180597157Y-106993489D01*
X180551115Y-106835977D01*
X180551115Y-106707544D01*
X181137544Y-106707544D01*
X181148449Y-106843853D01*
X181181163Y-106961987D01*
X181234172Y-107062250D01*
X181305961Y-107144943D01*
X181395622Y-107209766D01*
X181502246Y-107256414D01*
X181624923Y-107284584D01*
X181762746Y-107293974D01*
X181959031Y-107275800D01*
X182123813Y-107230969D01*
X182082617Y-106976527D01*
X181945703Y-107015299D01*
X181774863Y-107034685D01*
X181642795Y-107018631D01*
X181537383Y-106970468D01*
X181468320Y-106894439D01*
X181445299Y-106794782D01*
X182184394Y-106794782D01*
X182188029Y-106743893D01*
X182188805Y-106705121D01*
X182341906Y-106705121D01*
X182357119Y-106874750D01*
X182402757Y-107018530D01*
X182478821Y-107136462D01*
X182584502Y-107223969D01*
X182718993Y-107276473D01*
X182882294Y-107293974D01*
X182997399Y-107289733D01*
X183114927Y-107277011D01*
X183224580Y-107257625D01*
X183316058Y-107233393D01*
X183316058Y-106203506D01*
X183701357Y-106203506D01*
X183701357Y-107267318D01*
X184001842Y-107267318D01*
X184001842Y-106421599D01*
X184125428Y-106398578D01*
X184249015Y-106392520D01*
X184314443Y-106394943D01*
X184394410Y-106403425D01*
X184475590Y-106416753D01*
X184544653Y-106431292D01*
X184597964Y-106155040D01*
X184504669Y-106132019D01*
X184478920Y-106128384D01*
X184784556Y-106128384D01*
X184784556Y-106375557D01*
X185099580Y-106375557D01*
X185099580Y-106794782D01*
X185104426Y-106906858D01*
X185118966Y-107005606D01*
X185185606Y-107161906D01*
X185311616Y-107260048D01*
X185399762Y-107285493D01*
X185506688Y-107293974D01*
X185655719Y-107278223D01*
X185828982Y-107218853D01*
X185790210Y-106978950D01*
X185659354Y-107023780D01*
X185560000Y-107034685D01*
X185435202Y-106985008D01*
X185397641Y-106833554D01*
X185397641Y-106164733D01*
X186061616Y-106164733D01*
X186061616Y-107267318D01*
X186359677Y-107267318D01*
X186359677Y-106373134D01*
X186428740Y-106365864D01*
X186495380Y-106363441D01*
X186643199Y-106433716D01*
X186670460Y-106526405D01*
X186679548Y-106663926D01*
X186679548Y-107267318D01*
X186977609Y-107267318D01*
X186977609Y-106661502D01*
X187200549Y-106661502D01*
X187213339Y-106815784D01*
X187251707Y-106945832D01*
X187315654Y-107051648D01*
X187404373Y-107129731D01*
X187517054Y-107176581D01*
X187653700Y-107192197D01*
X187766381Y-107180081D01*
X187881486Y-107143732D01*
X187881486Y-107189774D01*
X187869370Y-107280646D01*
X187828174Y-107354556D01*
X187748207Y-107404233D01*
X187619774Y-107422407D01*
X187425913Y-107399386D01*
X187278094Y-107349709D01*
X187222359Y-107601729D01*
X187410162Y-107652617D01*
X187510424Y-107668974D01*
X187614927Y-107674426D01*
X187795460Y-107659618D01*
X187939645Y-107615191D01*
X188047480Y-107541147D01*
X188122197Y-107436139D01*
X188167027Y-107298821D01*
X188181971Y-107129192D01*
X188181971Y-106164733D01*
X188040075Y-106131077D01*
X187905180Y-106110883D01*
X187777286Y-106104152D01*
X187611966Y-106119499D01*
X187471416Y-106165541D01*
X187355638Y-106242278D01*
X187269478Y-106350248D01*
X187217781Y-106489989D01*
X187200549Y-106661502D01*
X186977609Y-106661502D01*
X186977609Y-106625153D01*
X186972157Y-106513986D01*
X186955800Y-106413118D01*
X186881890Y-106248336D01*
X186740129Y-106141712D01*
X186638958Y-106113542D01*
X186514766Y-106104152D01*
X186381789Y-106108998D01*
X186259111Y-106123538D01*
X186150973Y-106143530D01*
X186061616Y-106164733D01*
X185397641Y-106164733D01*
X185397641Y-106128384D01*
X185196511Y-106128384D01*
X184784556Y-106128384D01*
X184478920Y-106128384D01*
X184401680Y-106117480D01*
X184305961Y-106108998D01*
X184236898Y-106106575D01*
X184080295Y-106113239D01*
X183944895Y-106133231D01*
X183821611Y-106164128D01*
X183701357Y-106203506D01*
X183316058Y-106203506D01*
X183316058Y-105801244D01*
X185009919Y-105801244D01*
X185064443Y-105939370D01*
X185196511Y-105990258D01*
X185329790Y-105939370D01*
X185385525Y-105801244D01*
X185329790Y-105660695D01*
X185196511Y-105609806D01*
X185064443Y-105660695D01*
X185009919Y-105801244D01*
X183316058Y-105801244D01*
X183316058Y-105585574D01*
X183017997Y-105636462D01*
X183017997Y-106155040D01*
X182916220Y-106117480D01*
X182797480Y-106104152D01*
X182659488Y-106122057D01*
X182545999Y-106175773D01*
X182457011Y-106265299D01*
X182393064Y-106385789D01*
X182354696Y-106532396D01*
X182341906Y-106705121D01*
X182188805Y-106705121D01*
X182189241Y-106683312D01*
X182174701Y-106507894D01*
X182131082Y-106362903D01*
X182058384Y-106248336D01*
X181957684Y-106165541D01*
X181830059Y-106115864D01*
X181675509Y-106099305D01*
X181574943Y-106108998D01*
X181476801Y-106138078D01*
X181385323Y-106186240D01*
X181304750Y-106253183D01*
X181236898Y-106338905D01*
X181183586Y-106443409D01*
X181149055Y-106566389D01*
X181137544Y-106707544D01*
X180551115Y-106707544D01*
X180551115Y-105600113D01*
X179938029Y-105600113D01*
X179938029Y-105847286D01*
X179170662Y-105847286D01*
X179170662Y-104818207D01*
X179938029Y-104818207D01*
X188181971Y-104818207D01*
X188949338Y-104818207D01*
X188949338Y-108441793D01*
G37*
%TO.C,R23*%
D11*
X198765000Y-57375000D02*
X198765000Y-58125000D01*
X199390000Y-57375000D02*
X198765000Y-57375000D01*
X199390000Y-58125000D02*
X198765000Y-58125000D01*
X200515000Y-57375000D02*
X199890000Y-57375000D01*
X200515000Y-57375000D02*
X200515000Y-58125000D01*
X200515000Y-58125000D02*
X199890000Y-58125000D01*
%TO.C,R16*%
X182022500Y-101390000D02*
X182022500Y-100765000D01*
X182022500Y-102515000D02*
X182022500Y-101890000D01*
X182772500Y-100765000D02*
X182022500Y-100765000D01*
X182772500Y-101390000D02*
X182772500Y-100765000D01*
X182772500Y-102515000D02*
X182022500Y-102515000D01*
X182772500Y-102515000D02*
X182772500Y-101890000D01*
%TO.C,R11*%
X189938412Y-118193936D02*
X190563412Y-118193936D01*
X189938412Y-118943936D02*
X189938412Y-118193936D01*
X189938412Y-118943936D02*
X190563412Y-118943936D01*
X191063412Y-118193936D02*
X191688412Y-118193936D01*
X191063412Y-118943936D02*
X191688412Y-118943936D01*
X191688412Y-118943936D02*
X191688412Y-118193936D01*
%TO.C,R7*%
X202335000Y-79015000D02*
X202335000Y-79765000D01*
X202960000Y-79015000D02*
X202335000Y-79015000D01*
X202960000Y-79765000D02*
X202335000Y-79765000D01*
X204085000Y-79015000D02*
X203460000Y-79015000D01*
X204085000Y-79015000D02*
X204085000Y-79765000D01*
X204085000Y-79765000D02*
X203460000Y-79765000D01*
D13*
%TO.C,kibuzzard-6AB23B87*%
G36*
X199861906Y-95882520D02*
G01*
X199898094Y-95911599D01*
X199918772Y-95952310D01*
X199925234Y-95999483D01*
X199682262Y-95999483D01*
X199693247Y-95951664D01*
X199716511Y-95910307D01*
X199753990Y-95881874D01*
X199807625Y-95871535D01*
X199861906Y-95882520D01*
G37*
G36*
X195983877Y-95889305D02*
G01*
X196018934Y-95923231D01*
X196039774Y-95978481D01*
X196046721Y-96053764D01*
X196037674Y-96139871D01*
X196010533Y-96196575D01*
X195967884Y-96228078D01*
X195912310Y-96238578D01*
X195878061Y-96237286D01*
X195839935Y-96232116D01*
X195839935Y-95902553D01*
X195883231Y-95885105D01*
X195934281Y-95877997D01*
X195983877Y-95889305D01*
G37*
G36*
X200488293Y-96784836D02*
G01*
X200079031Y-96784836D01*
X199851567Y-96784836D01*
X199248013Y-96784836D01*
X198508756Y-96784836D01*
X198148174Y-96784836D01*
X197463199Y-96784836D01*
X196663199Y-96784836D01*
X195916187Y-96784836D01*
X195680969Y-96784836D01*
X195271707Y-96784836D01*
X195271707Y-95491567D01*
X195680969Y-95491567D01*
X195680969Y-96343263D01*
X195730081Y-96356187D01*
X195789532Y-96366527D01*
X195853506Y-96373312D01*
X195916187Y-96375574D01*
X195982100Y-96369919D01*
X196040258Y-96352956D01*
X196090339Y-96325654D01*
X196132019Y-96288982D01*
X196164976Y-96243263D01*
X196188885Y-96188821D01*
X196203425Y-96126624D01*
X196208271Y-96057641D01*
X196204394Y-95989790D01*
X196192763Y-95928401D01*
X196173538Y-95874281D01*
X196146882Y-95828239D01*
X196071276Y-95763619D01*
X196043398Y-95753926D01*
X196293570Y-95753926D01*
X196293570Y-95885751D01*
X196431858Y-95885751D01*
X196431858Y-96135186D01*
X196435735Y-96204168D01*
X196447367Y-96258611D01*
X196492601Y-96331632D01*
X196564976Y-96366527D01*
X196663199Y-96375574D01*
X196762068Y-96367819D01*
X196857060Y-96341971D01*
X196835089Y-96204976D01*
X196794378Y-96221777D01*
X196758191Y-96231470D01*
X196722003Y-96235994D01*
X196681292Y-96237286D01*
X196643813Y-96233409D01*
X196615380Y-96217900D01*
X196597286Y-96185590D01*
X196590824Y-96131309D01*
X196590824Y-95885751D01*
X196845428Y-95885751D01*
X196845428Y-95773312D01*
X196974669Y-95773312D01*
X196974669Y-96361357D01*
X197133635Y-96361357D01*
X197133635Y-95884459D01*
X197170468Y-95880582D01*
X197206010Y-95879289D01*
X197284847Y-95916769D01*
X197299386Y-95966204D01*
X197304233Y-96039548D01*
X197304233Y-96361357D01*
X197463199Y-96361357D01*
X197463199Y-96018869D01*
X197460291Y-95959580D01*
X197451567Y-95905784D01*
X197412149Y-95817900D01*
X197358022Y-95777189D01*
X197576931Y-95777189D01*
X197576931Y-96361357D01*
X197706171Y-96361357D01*
X197706171Y-95884459D01*
X197727496Y-95880582D01*
X197746236Y-95879289D01*
X197785654Y-95903845D01*
X197797932Y-95990436D01*
X197797932Y-96130016D01*
X197927173Y-96130016D01*
X197927173Y-96008530D01*
X197924588Y-95942617D01*
X197918126Y-95888336D01*
X197941389Y-95881228D01*
X197965945Y-95879289D01*
X197985977Y-95883166D01*
X198002779Y-95898675D01*
X198014410Y-95932278D01*
X198018934Y-95990436D01*
X198018934Y-96361357D01*
X198148174Y-96361357D01*
X198148174Y-96092536D01*
X198261906Y-96092536D01*
X198264491Y-96151987D01*
X198272246Y-96206268D01*
X198310372Y-96296090D01*
X198385977Y-96354895D01*
X198440582Y-96370404D01*
X198508756Y-96375574D01*
X198579677Y-96372666D01*
X198645105Y-96363942D01*
X198703102Y-96352310D01*
X198751729Y-96340679D01*
X198751729Y-95753926D01*
X198878384Y-95753926D01*
X198878384Y-95885751D01*
X199016672Y-95885751D01*
X199016672Y-96135186D01*
X199020549Y-96204168D01*
X199032181Y-96258611D01*
X199077415Y-96331632D01*
X199149790Y-96366527D01*
X199248013Y-96375574D01*
X199346882Y-96367819D01*
X199441874Y-96341971D01*
X199419903Y-96204976D01*
X199379192Y-96221777D01*
X199343005Y-96231470D01*
X199306817Y-96235994D01*
X199266107Y-96237286D01*
X199228627Y-96233409D01*
X199200194Y-96217900D01*
X199182100Y-96185590D01*
X199175638Y-96131309D01*
X199175638Y-96062811D01*
X199518126Y-96062811D01*
X199523942Y-96135509D01*
X199541389Y-96198514D01*
X199569661Y-96251987D01*
X199607948Y-96296090D01*
X199655767Y-96330662D01*
X199712633Y-96355541D01*
X199778061Y-96370565D01*
X199851567Y-96375574D01*
X199956252Y-96365880D01*
X200044136Y-96341971D01*
X200022165Y-96206268D01*
X199949144Y-96226947D01*
X199858029Y-96237286D01*
X199787593Y-96228724D01*
X199731373Y-96203037D01*
X199694540Y-96162488D01*
X199682262Y-96109338D01*
X200076446Y-96109338D01*
X200078384Y-96082197D01*
X200079031Y-96049887D01*
X200071276Y-95956331D01*
X200048013Y-95879002D01*
X200009241Y-95817900D01*
X199955534Y-95773743D01*
X199887467Y-95747248D01*
X199805040Y-95738417D01*
X199751405Y-95743586D01*
X199699063Y-95759095D01*
X199650275Y-95784782D01*
X199607302Y-95820485D01*
X199571115Y-95866204D01*
X199542682Y-95921939D01*
X199524265Y-95987528D01*
X199518126Y-96062811D01*
X199175638Y-96062811D01*
X199175638Y-95885751D01*
X199430242Y-95885751D01*
X199430242Y-95753926D01*
X199175638Y-95753926D01*
X199175638Y-95575574D01*
X199016672Y-95601422D01*
X199016672Y-95753926D01*
X198878384Y-95753926D01*
X198751729Y-95753926D01*
X198591470Y-95753926D01*
X198591470Y-96230824D01*
X198519095Y-96237286D01*
X198440905Y-96196575D01*
X198425880Y-96145040D01*
X198420872Y-96071858D01*
X198420872Y-95753926D01*
X198261906Y-95753926D01*
X198261906Y-96092536D01*
X198148174Y-96092536D01*
X198148174Y-95998191D01*
X198146559Y-95938901D01*
X198141712Y-95887690D01*
X198116511Y-95809499D01*
X198065460Y-95762973D01*
X197982746Y-95747464D01*
X197920711Y-95758449D01*
X197869015Y-95783651D01*
X197823134Y-95755864D01*
X197763037Y-95747464D01*
X197676446Y-95755218D01*
X197576931Y-95777189D01*
X197358022Y-95777189D01*
X197336543Y-95761034D01*
X197282585Y-95746010D01*
X197216349Y-95741002D01*
X197145428Y-95743586D01*
X197080000Y-95751341D01*
X197022326Y-95762003D01*
X196974669Y-95773312D01*
X196845428Y-95773312D01*
X196845428Y-95753926D01*
X196590824Y-95753926D01*
X196590824Y-95575574D01*
X196431858Y-95601422D01*
X196431858Y-95753926D01*
X196293570Y-95753926D01*
X196043398Y-95753926D01*
X196022488Y-95746656D01*
X195966591Y-95741002D01*
X195904556Y-95746817D01*
X195839935Y-95768142D01*
X195839935Y-95464426D01*
X195680969Y-95491567D01*
X195271707Y-95491567D01*
X195271707Y-95055164D01*
X195680969Y-95055164D01*
X200079031Y-95055164D01*
X200488293Y-95055164D01*
X200488293Y-96784836D01*
G37*
%TO.C,kibuzzard-6AB24C6E*%
G36*
X169894143Y-117950642D02*
G01*
X169954724Y-117960335D01*
X169954724Y-118507992D01*
X169878392Y-118539495D01*
X169787519Y-118551611D01*
X169627584Y-118477702D01*
X169589418Y-118387132D01*
X169576695Y-118263243D01*
X169605775Y-118088229D01*
X169693012Y-117983221D01*
X169838408Y-117948219D01*
X169894143Y-117950642D01*
G37*
G36*
X161409086Y-117984870D02*
G01*
X161485419Y-118058477D01*
X161530855Y-118170250D01*
X161546001Y-118309285D01*
X161533279Y-118448925D01*
X161495112Y-118552823D01*
X161430290Y-118617342D01*
X161337600Y-118638849D01*
X161240670Y-118626732D01*
X161163125Y-118595230D01*
X161163125Y-117970028D01*
X161228553Y-117963970D01*
X161301251Y-117960335D01*
X161409086Y-117984870D01*
G37*
G36*
X165060035Y-117983659D02*
G01*
X165131219Y-118053631D01*
X165172111Y-118161769D01*
X165185742Y-118299592D01*
X165170900Y-118437718D01*
X165126372Y-118546765D01*
X165052766Y-118617645D01*
X164950686Y-118641272D01*
X164846182Y-118617645D01*
X164774999Y-118546765D01*
X164734107Y-118437718D01*
X164720476Y-118299592D01*
X164735318Y-118161769D01*
X164779846Y-118053631D01*
X164853452Y-117983659D01*
X164955532Y-117960335D01*
X165060035Y-117983659D01*
G37*
G36*
X171022576Y-120043534D02*
G01*
X170255209Y-120043534D01*
X169688165Y-120043534D01*
X168791558Y-120043534D01*
X167107390Y-120043534D01*
X166627584Y-120043534D01*
X164955532Y-120043534D01*
X163901413Y-120043534D01*
X162733400Y-120043534D01*
X161163125Y-120043534D01*
X160016922Y-120043534D01*
X159716437Y-120043534D01*
X158949070Y-120043534D01*
X158949070Y-117805246D01*
X159716437Y-117805246D01*
X159716437Y-118869059D01*
X160016922Y-118869059D01*
X160016922Y-118023340D01*
X160140508Y-118000319D01*
X160264094Y-117994261D01*
X160329523Y-117996684D01*
X160409490Y-118005165D01*
X160490670Y-118018493D01*
X160559733Y-118033033D01*
X160611173Y-117766474D01*
X160865064Y-117766474D01*
X160865064Y-119268897D01*
X161163125Y-119268897D01*
X161163125Y-118839979D01*
X161282471Y-118881781D01*
X161398182Y-118895715D01*
X161502988Y-118884810D01*
X161594466Y-118852096D01*
X161735015Y-118729721D01*
X161784086Y-118643089D01*
X161819829Y-118540706D01*
X161841639Y-118425299D01*
X161848909Y-118299592D01*
X161833292Y-118129694D01*
X161786442Y-117985106D01*
X161708359Y-117865828D01*
X161600928Y-117776975D01*
X161482384Y-117730125D01*
X162011267Y-117730125D01*
X162011267Y-117977298D01*
X162326291Y-117977298D01*
X162326291Y-118396522D01*
X162331138Y-118508598D01*
X162345678Y-118607346D01*
X162412317Y-118763647D01*
X162538327Y-118861789D01*
X162626473Y-118887233D01*
X162733400Y-118895715D01*
X162882430Y-118879963D01*
X163055694Y-118820593D01*
X163016922Y-118580690D01*
X162886065Y-118625521D01*
X162786712Y-118636425D01*
X162661913Y-118586748D01*
X162624353Y-118435294D01*
X162624353Y-118299592D01*
X163242285Y-118299592D01*
X163251675Y-118421361D01*
X163279846Y-118534648D01*
X163328008Y-118636425D01*
X163397374Y-118723663D01*
X163488549Y-118795149D01*
X163602140Y-118849673D01*
X163739357Y-118884204D01*
X163901413Y-118895715D01*
X164014700Y-118891777D01*
X164112237Y-118879963D01*
X164264902Y-118839979D01*
X164221283Y-118595230D01*
X164081946Y-118626732D01*
X163935338Y-118636425D01*
X163753291Y-118614010D01*
X163633642Y-118546765D01*
X163567305Y-118440141D01*
X163545193Y-118299592D01*
X163545539Y-118297168D01*
X164417568Y-118297168D01*
X164427261Y-118426510D01*
X164456340Y-118543130D01*
X164503291Y-118645815D01*
X164566598Y-118733356D01*
X164644749Y-118804236D01*
X164736227Y-118856942D01*
X164840124Y-118889656D01*
X164955532Y-118900561D01*
X165070940Y-118889656D01*
X165174838Y-118856942D01*
X165266013Y-118804236D01*
X165343254Y-118733356D01*
X165405653Y-118645815D01*
X165452301Y-118543130D01*
X165481380Y-118426510D01*
X165491073Y-118297168D01*
X165481380Y-118169644D01*
X165452301Y-118053631D01*
X165405350Y-117951248D01*
X165342043Y-117864616D01*
X165263892Y-117794947D01*
X165213310Y-117766474D01*
X165711590Y-117766474D01*
X165711590Y-118869059D01*
X166009652Y-118869059D01*
X166009652Y-117974874D01*
X166078715Y-117967605D01*
X166145355Y-117965181D01*
X166293174Y-118035456D01*
X166320435Y-118128146D01*
X166329523Y-118265666D01*
X166329523Y-118869059D01*
X166627584Y-118869059D01*
X166627584Y-118226894D01*
X166622132Y-118115727D01*
X166605775Y-118014858D01*
X166531865Y-117850076D01*
X166390104Y-117743453D01*
X166342239Y-117730125D01*
X166857794Y-117730125D01*
X166857794Y-117977298D01*
X167107390Y-117977298D01*
X167107390Y-118869059D01*
X167407875Y-118869059D01*
X167407875Y-117977298D01*
X167875565Y-117977298D01*
X167875565Y-117730125D01*
X168069426Y-117730125D01*
X168069426Y-117977298D01*
X168384450Y-117977298D01*
X168384450Y-118396522D01*
X168389296Y-118508598D01*
X168403836Y-118607346D01*
X168470476Y-118763647D01*
X168596485Y-118861789D01*
X168684632Y-118887233D01*
X168791558Y-118895715D01*
X168940589Y-118879963D01*
X169113852Y-118820593D01*
X169075080Y-118580690D01*
X168944224Y-118625521D01*
X168844870Y-118636425D01*
X168720072Y-118586748D01*
X168682511Y-118435294D01*
X168682511Y-118263243D01*
X169273787Y-118263243D01*
X169286577Y-118417524D01*
X169324945Y-118547572D01*
X169388892Y-118653388D01*
X169477611Y-118731471D01*
X169590293Y-118778321D01*
X169726938Y-118793937D01*
X169839619Y-118781821D01*
X169954724Y-118745472D01*
X169954724Y-118791514D01*
X169942608Y-118882387D01*
X169901413Y-118956296D01*
X169821445Y-119005973D01*
X169693012Y-119024147D01*
X169499151Y-119001126D01*
X169351332Y-118951450D01*
X169295597Y-119203469D01*
X169483400Y-119254357D01*
X169583662Y-119270715D01*
X169688165Y-119276167D01*
X169868699Y-119261358D01*
X170012883Y-119216932D01*
X170120718Y-119142887D01*
X170195435Y-119037879D01*
X170240266Y-118900561D01*
X170255209Y-118730933D01*
X170255209Y-117766474D01*
X170113314Y-117732817D01*
X169978419Y-117712624D01*
X169850524Y-117705892D01*
X169685204Y-117721240D01*
X169544654Y-117767282D01*
X169428876Y-117844018D01*
X169342716Y-117951988D01*
X169291020Y-118091730D01*
X169273787Y-118263243D01*
X168682511Y-118263243D01*
X168682511Y-117730125D01*
X168481380Y-117730125D01*
X168069426Y-117730125D01*
X167875565Y-117730125D01*
X167407875Y-117730125D01*
X167407875Y-117669543D01*
X167424838Y-117552015D01*
X167469668Y-117482952D01*
X167535096Y-117451450D01*
X167613852Y-117444180D01*
X167772576Y-117464778D01*
X167911913Y-117504761D01*
X167933286Y-117402984D01*
X168294789Y-117402984D01*
X168349312Y-117541110D01*
X168481380Y-117591999D01*
X168614660Y-117541110D01*
X168670395Y-117402984D01*
X168614660Y-117262435D01*
X168481380Y-117211547D01*
X168349312Y-117262435D01*
X168294789Y-117402984D01*
X167933286Y-117402984D01*
X167962802Y-117262435D01*
X167783481Y-117206700D01*
X167589619Y-117189737D01*
X167410298Y-117212758D01*
X167255209Y-117290303D01*
X167147374Y-117435698D01*
X167117386Y-117538384D01*
X167107390Y-117664697D01*
X167107390Y-117730125D01*
X166857794Y-117730125D01*
X166342239Y-117730125D01*
X166288933Y-117715282D01*
X166164741Y-117705892D01*
X166031764Y-117710739D01*
X165909086Y-117725278D01*
X165800948Y-117745270D01*
X165711590Y-117766474D01*
X165213310Y-117766474D01*
X165172414Y-117743453D01*
X165069123Y-117711647D01*
X164955532Y-117701046D01*
X164843456Y-117711647D01*
X164739862Y-117743453D01*
X164647475Y-117794947D01*
X164569022Y-117864616D01*
X164505411Y-117951248D01*
X164457552Y-118053631D01*
X164427564Y-118169644D01*
X164417568Y-118297168D01*
X163545539Y-118297168D01*
X163564579Y-118163889D01*
X163627584Y-118056054D01*
X163742689Y-117985779D01*
X163920799Y-117960335D01*
X164072253Y-117973663D01*
X164180088Y-118003954D01*
X164245516Y-117764051D01*
X164078311Y-117715585D01*
X163894143Y-117701046D01*
X163736328Y-117712859D01*
X163602140Y-117748299D01*
X163490367Y-117804034D01*
X163399797Y-117876732D01*
X163330128Y-117964878D01*
X163281057Y-118066958D01*
X163251978Y-118179640D01*
X163242285Y-118299592D01*
X162624353Y-118299592D01*
X162624353Y-117730125D01*
X162423222Y-117730125D01*
X162011267Y-117730125D01*
X161482384Y-117730125D01*
X161466033Y-117723663D01*
X161303674Y-117705892D01*
X161186449Y-117710133D01*
X161067406Y-117722855D01*
X160956845Y-117742241D01*
X160865064Y-117766474D01*
X160611173Y-117766474D01*
X160613044Y-117756781D01*
X160519749Y-117733760D01*
X160416760Y-117719220D01*
X160321041Y-117710739D01*
X160251978Y-117708315D01*
X160095375Y-117714979D01*
X159959975Y-117734971D01*
X159836691Y-117765868D01*
X159716437Y-117805246D01*
X158949070Y-117805246D01*
X158949070Y-117402984D01*
X162236631Y-117402984D01*
X162291154Y-117541110D01*
X162423222Y-117591999D01*
X162556502Y-117541110D01*
X162612237Y-117402984D01*
X162556502Y-117262435D01*
X162423222Y-117211547D01*
X162291154Y-117262435D01*
X162236631Y-117402984D01*
X158949070Y-117402984D01*
X158949070Y-116422370D01*
X159716437Y-116422370D01*
X170255209Y-116422370D01*
X171022576Y-116422370D01*
X171022576Y-120043534D01*
G37*
%TO.C,R20*%
D11*
X132436117Y-51463553D02*
X132966447Y-51993883D01*
X132878058Y-51021612D02*
X132436117Y-51463553D01*
X133408388Y-51551942D02*
X132966447Y-51993883D01*
X133673553Y-50226117D02*
X133231612Y-50668058D01*
X133673553Y-50226117D02*
X134203883Y-50756447D01*
X134203883Y-50756447D02*
X133761942Y-51198388D01*
%TO.C,U5*%
D14*
X135790000Y-80190000D02*
X137390000Y-80190000D01*
X137390000Y-77070000D02*
X135790000Y-77070000D01*
D15*
X134190000Y-77680000D02*
G75*
G02*
X133990000Y-77680000I-100000J0D01*
G01*
X133990000Y-77680000D02*
G75*
G02*
X134190000Y-77680000I100000J0D01*
G01*
%TO.C,C17*%
D11*
X195915849Y-50460711D02*
X195456230Y-50001091D01*
X195951204Y-49506117D02*
X195456230Y-50001091D01*
X196410824Y-49965736D02*
X195951204Y-49506117D01*
X196729022Y-51273883D02*
X196269402Y-50814264D01*
X197223997Y-50778909D02*
X196729022Y-51273883D01*
X197223997Y-50778909D02*
X196764377Y-50319289D01*
%TO.C,R12*%
X185608412Y-112843936D02*
X186233412Y-112843936D01*
X185608412Y-113593936D02*
X185608412Y-112843936D01*
X185608412Y-113593936D02*
X186233412Y-113593936D01*
X186733412Y-112843936D02*
X187358412Y-112843936D01*
X186733412Y-113593936D02*
X187358412Y-113593936D01*
X187358412Y-113593936D02*
X187358412Y-112843936D01*
%TO.C,C8*%
X133130080Y-58689920D02*
X133130080Y-59389920D01*
X133780080Y-58689920D02*
X133130080Y-58689920D01*
X133780080Y-59389920D02*
X133130080Y-59389920D01*
X134930080Y-58689920D02*
X134280080Y-58689920D01*
X134930080Y-58689920D02*
X134930080Y-59389920D01*
X134930080Y-59389920D02*
X134280080Y-59389920D01*
%TD*%
M02*
