%TF.GenerationSoftware,KiCad,Pcbnew,10.0.5*%
%TF.CreationDate,2026-09-26T10:13:51+03:00*%
%TF.ProjectId,nielo,6e69656c-6f2e-46b6-9963-61645f706362,rev?*%
%TF.SameCoordinates,Original*%
%TF.FileFunction,Soldermask,Top*%
%TF.FilePolarity,Negative*%
%FSLAX46Y46*%
G04 Gerber Fmt 4.6, Leading zero omitted, Abs format (unit mm)*
G04 Created by KiCad (PCBNEW 10.0.5) date 2026-09-26 10:13:51*
%MOMM*%
%LPD*%
G01*
G04 APERTURE LIST*
G04 Aperture macros list*
%AMRoundRect*
0 Rectangle with rounded corners*
0 $1 Rounding radius*
0 $2 $3 $4 $5 $6 $7 $8 $9 X,Y pos of 4 corners*
0 Add a 4 corners polygon primitive as box body*
4,1,4,$2,$3,$4,$5,$6,$7,$8,$9,$2,$3,0*
0 Add four circle primitives for the rounded corners*
1,1,$1+$1,$2,$3*
1,1,$1+$1,$4,$5*
1,1,$1+$1,$6,$7*
1,1,$1+$1,$8,$9*
0 Add four rect primitives between the rounded corners*
20,1,$1+$1,$2,$3,$4,$5,0*
20,1,$1+$1,$4,$5,$6,$7,0*
20,1,$1+$1,$6,$7,$8,$9,0*
20,1,$1+$1,$8,$9,$2,$3,0*%
%AMRotRect*
0 Rectangle, with rotation*
0 The origin of the aperture is its center*
0 $1 length*
0 $2 width*
0 $3 Rotation angle, in degrees counterclockwise*
0 Add horizontal line*
21,1,$1,$2,0,0,$3*%
%AMFreePoly0*
4,1,56,0.042516,0.101333,0.075406,0.092703,0.114669,0.072476,0.140789,0.050706,0.167749,0.015751,0.182169,-0.015039,0.191760,-0.058129,0.191770,-0.908469,0.191760,-0.908499,0.191760,-0.925470,0.182175,-0.968550,0.167755,-0.999350,0.140774,-1.034329,0.114644,-1.056099,0.075396,-1.076313,0.042506,-1.084943,-0.001570,-1.086610,-0.018290,-1.083550,-0.018321,-1.083545,-0.061141,-1.075695,
-0.078145,-1.071021,-0.159775,-1.040751,-0.175696,-1.033219,-0.250866,-0.989309,-0.265251,-0.979137,-0.331711,-0.922897,-0.344138,-0.910375,-0.399868,-0.843485,-0.409927,-0.829026,-0.453267,-0.753516,-0.460684,-0.737520,-0.490314,-0.655660,-0.494850,-0.638643,-0.509900,-0.552893,-0.511430,-0.535307,-0.511420,-0.491823,-0.511430,-0.448293,-0.509900,-0.430707,-0.494850,-0.344957,-0.490314,-0.327940,
-0.460684,-0.246080,-0.453267,-0.230084,-0.409927,-0.154574,-0.399863,-0.140110,-0.344133,-0.073230,-0.331711,-0.060713,-0.265251,-0.004473,-0.250875,0.005694,-0.175705,0.049614,-0.159761,0.057157,-0.078121,0.087417,-0.061135,0.092084,-0.018325,0.099934,-0.018291,0.099929,-0.001608,0.102991,0.042516,0.101333,0.042516,0.101333,$1*%
%AMFreePoly1*
4,1,56,0.018290,1.083550,0.018321,1.083545,0.061141,1.075695,0.078145,1.071021,0.159775,1.040751,0.175696,1.033219,0.250866,0.989309,0.265251,0.979137,0.331711,0.922897,0.344138,0.910375,0.399868,0.843485,0.409927,0.829026,0.453267,0.753516,0.460684,0.737520,0.490314,0.655660,0.494850,0.638643,0.509900,0.552893,0.511430,0.535307,0.511420,0.491777,0.511430,0.448293,
0.509900,0.430707,0.494850,0.344957,0.490314,0.327940,0.460684,0.246080,0.453267,0.230084,0.409927,0.154574,0.399863,0.140110,0.344133,0.073230,0.331711,0.060713,0.265251,0.004473,0.250875,-0.005694,0.175705,-0.049614,0.159761,-0.057157,0.078121,-0.087417,0.061135,-0.092084,0.018325,-0.099934,0.018291,-0.099929,0.001608,-0.102991,-0.042516,-0.101333,-0.075406,-0.092703,
-0.114669,-0.072476,-0.140789,-0.050706,-0.167749,-0.015751,-0.182169,0.015039,-0.191760,0.058129,-0.191770,0.908469,-0.191760,0.908499,-0.191760,0.925470,-0.182175,0.968550,-0.167755,0.999350,-0.140774,1.034329,-0.114644,1.056099,-0.075396,1.076313,-0.042506,1.084943,0.001570,1.086610,0.018290,1.083550,0.018290,1.083550,$1*%
G04 Aperture macros list end*
%ADD10C,0.609600*%
%ADD11C,0.025400*%
%ADD12FreePoly0,180.000000*%
%ADD13FreePoly1,180.000000*%
%ADD14R,0.500000X0.600000*%
%ADD15R,0.558000X0.972300*%
%ADD16R,0.700000X0.400000*%
%ADD17RoundRect,0.050000X0.300000X-0.275000X0.300000X0.275000X-0.300000X0.275000X-0.300000X-0.275000X0*%
%ADD18C,0.600000*%
%ADD19RoundRect,0.050000X-0.570000X0.300000X-0.570000X-0.300000X0.570000X-0.300000X0.570000X0.300000X0*%
%ADD20RoundRect,0.050000X-0.570000X0.150000X-0.570000X-0.150000X0.570000X-0.150000X0.570000X0.150000X0*%
%ADD21O,2.000000X0.900000*%
%ADD22O,1.700000X0.900000*%
%ADD23R,1.800000X1.524000*%
%ADD24C,1.800000*%
%ADD25C,1.500000*%
%ADD26RoundRect,0.050000X0.570000X-0.300000X0.570000X0.300000X-0.570000X0.300000X-0.570000X-0.300000X0*%
%ADD27RoundRect,0.050000X0.570000X-0.150000X0.570000X0.150000X-0.570000X0.150000X-0.570000X-0.150000X0*%
%ADD28RoundRect,0.035000X-0.315000X-0.315000X0.315000X-0.315000X0.315000X0.315000X-0.315000X0.315000X0*%
%ADD29R,0.558800X1.320800*%
%ADD30R,0.600000X0.500000*%
%ADD31C,0.700000*%
%ADD32C,4.400000*%
%ADD33RoundRect,0.050000X0.275000X0.300000X-0.275000X0.300000X-0.275000X-0.300000X0.275000X-0.300000X0*%
%ADD34RoundRect,0.050000X-0.300000X0.275000X-0.300000X-0.275000X0.300000X-0.275000X0.300000X0.275000X0*%
%ADD35RoundRect,0.102000X0.350000X-0.100000X0.350000X0.100000X-0.350000X0.100000X-0.350000X-0.100000X0*%
%ADD36C,6.004000*%
%ADD37R,0.800000X0.750000*%
%ADD38RotRect,0.500000X0.600000X135.000000*%
%ADD39RotRect,0.660400X1.549400X315.000000*%
%ADD40RotRect,1.905000X1.295400X45.000000*%
%ADD41RoundRect,0.075000X0.225000X0.275000X-0.225000X0.275000X-0.225000X-0.275000X0.225000X-0.275000X0*%
%ADD42RoundRect,0.177000X-0.225000X0.540000X-0.225000X-0.540000X0.225000X-0.540000X0.225000X0.540000X0*%
%ADD43RotRect,0.660400X1.549400X135.000000*%
%ADD44RotRect,1.905000X1.295400X225.000000*%
%ADD45RotRect,0.660400X1.549400X225.000000*%
%ADD46RotRect,1.905000X1.295400X315.000000*%
%ADD47RotRect,1.170000X1.920000X315.000000*%
%ADD48RotRect,0.700000X0.400000X45.000000*%
%ADD49RoundRect,0.249500X-0.457500X-0.147500X0.457500X-0.147500X0.457500X0.147500X-0.457500X0.147500X0*%
%ADD50R,2.000000X2.000000*%
%ADD51C,2.000000*%
%ADD52RotRect,0.660400X1.549400X45.000000*%
%ADD53RotRect,1.905000X1.295400X135.000000*%
%ADD54R,1.920000X1.170000*%
%ADD55RoundRect,0.100000X-0.300000X-0.400000X0.300000X-0.400000X0.300000X0.400000X-0.300000X0.400000X0*%
%ADD56RotRect,0.500000X0.600000X315.000000*%
%ADD57RotRect,1.170000X1.920000X45.000000*%
%ADD58RotRect,0.700000X0.400000X135.000000*%
%ADD59RoundRect,0.050000X0.017678X-0.406586X0.406586X-0.017678X-0.017678X0.406586X-0.406586X0.017678X0*%
%ADD60RotRect,0.500000X0.600000X45.000000*%
%ADD61R,1.400000X1.100000*%
%ADD62RoundRect,0.050000X-0.406586X-0.017678X-0.017678X-0.406586X0.406586X0.017678X0.017678X0.406586X0*%
%ADD63RoundRect,0.175750X-0.586250X-0.221250X0.586250X-0.221250X0.586250X0.221250X-0.586250X0.221250X0*%
%ADD64RotRect,0.500000X0.600000X225.000000*%
G04 APERTURE END LIST*
%TO.C,SB1*%
G36*
X142039480Y-71075942D02*
G01*
X142239480Y-71075942D01*
X142239480Y-72275942D01*
X142039480Y-72275942D01*
X142039480Y-71075942D01*
G37*
D10*
X142334830Y-71675942D02*
G75*
G02*
X141744830Y-71675942I-295000J0D01*
G01*
X141744830Y-71675942D02*
G75*
G02*
X142334830Y-71675942I295000J0D01*
G01*
X142534830Y-71675942D02*
G75*
G02*
X141944830Y-71675942I-295000J0D01*
G01*
X141944830Y-71675942D02*
G75*
G02*
X142534830Y-71675942I295000J0D01*
G01*
%TO.C,SB2*%
G36*
X142059820Y-72830000D02*
G01*
X142259820Y-72830000D01*
X142259820Y-74030000D01*
X142059820Y-74030000D01*
X142059820Y-72830000D01*
G37*
X142355170Y-73430000D02*
G75*
G02*
X141765170Y-73430000I-295000J0D01*
G01*
X141765170Y-73430000D02*
G75*
G02*
X142355170Y-73430000I295000J0D01*
G01*
X142555170Y-73430000D02*
G75*
G02*
X141965170Y-73430000I-295000J0D01*
G01*
X141965170Y-73430000D02*
G75*
G02*
X142555170Y-73430000I295000J0D01*
G01*
%TD*%
D11*
%TO.C,SB1*%
X142489830Y-71675942D03*
D12*
X142330000Y-72167752D03*
D13*
X141949660Y-71184132D03*
D11*
X141789830Y-71675942D03*
%TD*%
D14*
%TO.C,C1*%
X126510000Y-73860001D03*
X126510000Y-74859999D03*
%TD*%
D15*
%TO.C,U1*%
X126240000Y-87382650D03*
X127190000Y-87382650D03*
X128140000Y-87382650D03*
X128140000Y-84657750D03*
X127190000Y-84657750D03*
X126240000Y-84657750D03*
%TD*%
D16*
%TO.C,B1*%
X124770000Y-73430000D03*
X124770000Y-74130000D03*
%TD*%
D17*
%TO.C,R9*%
X141360000Y-62160000D03*
X142360000Y-62160000D03*
%TD*%
D18*
%TO.C,J1*%
X121880000Y-75750000D03*
X121880000Y-81530000D03*
D19*
X122950000Y-75440000D03*
X122950000Y-76240000D03*
D20*
X122950000Y-77390000D03*
X122950000Y-78390000D03*
X122950000Y-78890000D03*
X122950000Y-79890000D03*
D19*
X122950000Y-81840000D03*
X122950000Y-81040000D03*
D20*
X122950000Y-80390000D03*
X122950000Y-79390000D03*
X122950000Y-77890000D03*
X122950000Y-76890000D03*
D21*
X122370000Y-74315000D03*
X122370000Y-82965000D03*
D22*
X118200000Y-74315000D03*
X118200000Y-82965000D03*
%TD*%
D17*
%TO.C,R4*%
X126710000Y-79390000D03*
X127710000Y-79390000D03*
%TD*%
D14*
%TO.C,C2*%
X130590000Y-73870001D03*
X130590000Y-74869999D03*
%TD*%
D23*
%TO.C,J3*%
X172580000Y-124900000D03*
D24*
X172580000Y-122360000D03*
X170040000Y-124900000D03*
X170040000Y-122360000D03*
X167500000Y-124900000D03*
X167500000Y-122360000D03*
X164960000Y-124900000D03*
X164960000Y-122360000D03*
X162420000Y-124900000D03*
X162420000Y-122360000D03*
X159880000Y-124900000D03*
X159880000Y-122360000D03*
X157340000Y-124900000D03*
X157340000Y-122360000D03*
%TD*%
D16*
%TO.C,B5*%
X148510000Y-104150000D03*
X148510000Y-103450000D03*
%TD*%
D25*
%TO.C,TP10*%
X126140000Y-54620000D03*
%TD*%
D18*
%TO.C,J2*%
X208660000Y-81520000D03*
X208660000Y-75740000D03*
D26*
X207590000Y-81830000D03*
X207590000Y-81030000D03*
D27*
X207590000Y-79880000D03*
X207590000Y-78880000D03*
X207590000Y-78380000D03*
X207590000Y-77380000D03*
D26*
X207590000Y-75430000D03*
X207590000Y-76230000D03*
D27*
X207590000Y-76880000D03*
X207590000Y-77880000D03*
X207590000Y-79380000D03*
X207590000Y-80380000D03*
D21*
X208170000Y-82955000D03*
X208170000Y-74305000D03*
D22*
X212340000Y-82955000D03*
X212340000Y-74305000D03*
%TD*%
D28*
%TO.C,SW2*%
X195620000Y-91845000D03*
X200120000Y-91845000D03*
X195620000Y-93995000D03*
X200120000Y-93995000D03*
%TD*%
D29*
%TO.C,Q4*%
X128297500Y-103003800D03*
X130202500Y-103003800D03*
X129250000Y-100616200D03*
%TD*%
D30*
%TO.C,C6*%
X202720001Y-80530000D03*
X203719999Y-80530000D03*
%TD*%
D15*
%TO.C,U3*%
X202280000Y-87382650D03*
X203230000Y-87382650D03*
X204180000Y-87382650D03*
X204180000Y-84657750D03*
X203230000Y-84657750D03*
X202280000Y-84657750D03*
%TD*%
D31*
%TO.C,H3*%
X139052500Y-99965000D03*
X139535774Y-98798274D03*
X139535774Y-101131726D03*
X140702500Y-98315000D03*
D32*
X140702500Y-99965000D03*
D31*
X140702500Y-101615000D03*
X141869226Y-98798274D03*
X141869226Y-101131726D03*
X142352500Y-99965000D03*
%TD*%
D33*
%TO.C,R13*%
X196217500Y-102110000D03*
X196217500Y-101110000D03*
%TD*%
D30*
%TO.C,C15*%
X200120000Y-58940000D03*
X199120000Y-58940000D03*
%TD*%
D25*
%TO.C,TP1*%
X136290000Y-70390000D03*
%TD*%
D17*
%TO.C,R3*%
X126700000Y-77900000D03*
X127700000Y-77900000D03*
%TD*%
%TO.C,R18*%
X128797500Y-104680000D03*
X129797500Y-104680000D03*
%TD*%
D30*
%TO.C,C7*%
X203699999Y-76770000D03*
X202700001Y-76770000D03*
%TD*%
D34*
%TO.C,R22*%
X200120000Y-88730000D03*
X199120000Y-88730000D03*
%TD*%
D35*
%TO.C,U2*%
X146674156Y-54565405D03*
X149754156Y-54565405D03*
X146674156Y-54965405D03*
X149754156Y-54965405D03*
X146674156Y-55365405D03*
X149754156Y-55365405D03*
X146674156Y-55765405D03*
X149754156Y-55765405D03*
X146674156Y-56165405D03*
X149754156Y-56165405D03*
X146674156Y-56565405D03*
X149754156Y-56565405D03*
X146674156Y-56965405D03*
X149754156Y-56965405D03*
X146674156Y-57365405D03*
X149754156Y-57365405D03*
X146674156Y-57765405D03*
X149754156Y-57765405D03*
X146674156Y-58165405D03*
X149754156Y-58165405D03*
X146674156Y-58565405D03*
X149754156Y-58565405D03*
X146674156Y-58965405D03*
X149754156Y-58965405D03*
X146674156Y-59365405D03*
X149754156Y-59365405D03*
X146674156Y-59765405D03*
X149754156Y-59765405D03*
X146674156Y-60165405D03*
X149754156Y-60165405D03*
X146674156Y-60565405D03*
X149754156Y-60565405D03*
X146674156Y-60965405D03*
X149754156Y-60965405D03*
X146674156Y-61365405D03*
X149754156Y-61365405D03*
X146674156Y-61765405D03*
X149754156Y-61765405D03*
X146674156Y-62165405D03*
X149754156Y-62165405D03*
X146674156Y-62565405D03*
X149754156Y-62565405D03*
X146674156Y-62965405D03*
X149754156Y-62965405D03*
X146674156Y-63365405D03*
X149754156Y-63365405D03*
X146674156Y-63765405D03*
X149754156Y-63765405D03*
X146674156Y-64165405D03*
X149754156Y-64165405D03*
X146674156Y-64565405D03*
X149754156Y-64565405D03*
X146674156Y-64965405D03*
X149754156Y-64965405D03*
X146674156Y-65365405D03*
X149754156Y-65365405D03*
X146674156Y-65765405D03*
X149754156Y-65765405D03*
X146674156Y-66165405D03*
X149754156Y-66165405D03*
X146674156Y-66565405D03*
X149754156Y-66565405D03*
X146674156Y-66965405D03*
X149754156Y-66965405D03*
X146674156Y-67365405D03*
X149754156Y-67365405D03*
X146674156Y-67765405D03*
X149754156Y-67765405D03*
X146674156Y-68165405D03*
X149754156Y-68165405D03*
X146674156Y-68565405D03*
X149754156Y-68565405D03*
X146674156Y-68965405D03*
X149754156Y-68965405D03*
X146674156Y-69365405D03*
X149754156Y-69365405D03*
X146674156Y-69765405D03*
X149754156Y-69765405D03*
X146674156Y-70165405D03*
X149754156Y-70165405D03*
X146674156Y-70565405D03*
X149754156Y-70565405D03*
X146674156Y-70965405D03*
X149754156Y-70965405D03*
X146674156Y-71365405D03*
X149754156Y-71365405D03*
X146674156Y-71765405D03*
X149754156Y-71765405D03*
X146674156Y-72165405D03*
X149754156Y-72165405D03*
X146674156Y-72565405D03*
X149754156Y-72565405D03*
X146674156Y-72965405D03*
X149754156Y-72965405D03*
X146674156Y-73365405D03*
X149754156Y-73365405D03*
X146674156Y-73765405D03*
X149754156Y-73765405D03*
X146674156Y-74165405D03*
X149754156Y-74165405D03*
X180674156Y-54565405D03*
X183754156Y-54565405D03*
X180674156Y-54965405D03*
X183754156Y-54965405D03*
X180674156Y-55365405D03*
X183754156Y-55365405D03*
X180674156Y-55765405D03*
X183754156Y-55765405D03*
X180674156Y-56165405D03*
X183754156Y-56165405D03*
X180674156Y-56565405D03*
X183754156Y-56565405D03*
X180674156Y-56965405D03*
X183754156Y-56965405D03*
X180674156Y-57365405D03*
X183754156Y-57365405D03*
X180674156Y-57765405D03*
X183754156Y-57765405D03*
X180674156Y-58165405D03*
X183754156Y-58165405D03*
X180674156Y-58565405D03*
X183754156Y-58565405D03*
X180674156Y-58965405D03*
X183754156Y-58965405D03*
X180674156Y-59365405D03*
X183754156Y-59365405D03*
X180674156Y-59765405D03*
X183754156Y-59765405D03*
X180674156Y-60165405D03*
X183754156Y-60165405D03*
X180674156Y-60565405D03*
X183754156Y-60565405D03*
X180674156Y-60965405D03*
X183754156Y-60965405D03*
X180674156Y-61365405D03*
X183754156Y-61365405D03*
X180674156Y-61765405D03*
X183754156Y-61765405D03*
X180674156Y-62165405D03*
X183754156Y-62165405D03*
X180674156Y-62565405D03*
X183754156Y-62565405D03*
X180674156Y-62965405D03*
X183754156Y-62965405D03*
X180674156Y-63365405D03*
X183754156Y-63365405D03*
X180674156Y-63765405D03*
X183754156Y-63765405D03*
X180674156Y-64165405D03*
X183754156Y-64165405D03*
X180674156Y-64565405D03*
X183754156Y-64565405D03*
X180674156Y-64965405D03*
X183754156Y-64965405D03*
X180674156Y-65365405D03*
X183754156Y-65365405D03*
X180674156Y-65765405D03*
X183754156Y-65765405D03*
X180674156Y-66165405D03*
X183754156Y-66165405D03*
X180674156Y-66565405D03*
X183754156Y-66565405D03*
X180674156Y-66965405D03*
X183754156Y-66965405D03*
X180674156Y-67365405D03*
X183754156Y-67365405D03*
X180674156Y-67765405D03*
X183754156Y-67765405D03*
X180674156Y-68165405D03*
X183754156Y-68165405D03*
X180674156Y-68565405D03*
X183754156Y-68565405D03*
X180674156Y-68965405D03*
X183754156Y-68965405D03*
X180674156Y-69365405D03*
X183754156Y-69365405D03*
X180674156Y-69765405D03*
X183754156Y-69765405D03*
X180674156Y-70165405D03*
X183754156Y-70165405D03*
X180674156Y-70565405D03*
X183754156Y-70565405D03*
X180674156Y-70965405D03*
X183754156Y-70965405D03*
X180674156Y-71365405D03*
X183754156Y-71365405D03*
X180674156Y-71765405D03*
X183754156Y-71765405D03*
X180674156Y-72165405D03*
X183754156Y-72165405D03*
X180674156Y-72565405D03*
X183754156Y-72565405D03*
X180674156Y-72965405D03*
X183754156Y-72965405D03*
X180674156Y-73365405D03*
X183754156Y-73365405D03*
X180674156Y-73765405D03*
X183754156Y-73765405D03*
X180674156Y-74165405D03*
X183754156Y-74165405D03*
D36*
X148714156Y-85865405D03*
X148714156Y-37865405D03*
X181714156Y-85865405D03*
X181714156Y-37865405D03*
%TD*%
D37*
%TO.C,C11*%
X141250000Y-79055000D03*
X141250000Y-77705000D03*
%TD*%
D28*
%TO.C,SW3*%
X195620000Y-60885000D03*
X200120000Y-60885000D03*
X195620000Y-63035000D03*
X200120000Y-63035000D03*
%TD*%
D38*
%TO.C,C12*%
X191792055Y-108899667D03*
X192499161Y-108192561D03*
%TD*%
D39*
%TO.C,J7*%
X197356797Y-48714524D03*
X196649689Y-48007416D03*
X195942584Y-47300311D03*
X195235476Y-46593203D03*
D40*
X197002183Y-42988020D03*
X200961980Y-46947817D03*
%TD*%
D28*
%TO.C,SW1*%
X130040000Y-60790000D03*
X134540000Y-60790000D03*
X130040000Y-62940000D03*
X134540000Y-62940000D03*
%TD*%
D41*
%TO.C,D3*%
X142370000Y-60780000D03*
X141370000Y-60780000D03*
%TD*%
D30*
%TO.C,C13*%
X200123999Y-90150000D03*
X199123999Y-90150000D03*
%TD*%
D33*
%TO.C,R14*%
X188067500Y-102110000D03*
X188067500Y-101110000D03*
%TD*%
D25*
%TO.C,TP12*%
X189450000Y-51480000D03*
%TD*%
D30*
%TO.C,C5*%
X202750000Y-68520000D03*
X203750000Y-68520000D03*
%TD*%
D17*
%TO.C,R2*%
X119740000Y-84050000D03*
X120740000Y-84050000D03*
%TD*%
D14*
%TO.C,C3*%
X128800000Y-77900000D03*
X128800000Y-76900000D03*
%TD*%
D42*
%TO.C,Q2*%
X187903879Y-114912612D03*
X186003879Y-114912612D03*
X186953879Y-117032612D03*
%TD*%
D43*
%TO.C,J5*%
X133082948Y-108465731D03*
X133790056Y-109172839D03*
X134497161Y-109879944D03*
X135204269Y-110587052D03*
D44*
X133437562Y-114192235D03*
X129477765Y-110232438D03*
%TD*%
D25*
%TO.C,TP2*%
X190930000Y-106630000D03*
%TD*%
D45*
%TO.C,J8*%
X195035731Y-110717052D03*
X195742839Y-110009944D03*
X196449944Y-109302839D03*
X197157052Y-108595731D03*
D46*
X200762235Y-110362438D03*
X196802438Y-114322235D03*
%TD*%
D25*
%TO.C,TP5*%
X186984017Y-111240000D03*
%TD*%
D14*
%TO.C,C4*%
X128810000Y-80410000D03*
X128810000Y-79410000D03*
%TD*%
D11*
%TO.C,SB2*%
X142510170Y-73430000D03*
D12*
X142350340Y-73921810D03*
D13*
X141970000Y-72938190D03*
D11*
X141810170Y-73430000D03*
%TD*%
D47*
%TO.C,D6*%
X197562602Y-54512602D03*
X194557398Y-51507398D03*
%TD*%
D25*
%TO.C,TP11*%
X128250000Y-52370000D03*
%TD*%
D17*
%TO.C,R10*%
X141360000Y-53740000D03*
X142360000Y-53740000D03*
%TD*%
%TO.C,R17*%
X124097500Y-99370000D03*
X125097500Y-99370000D03*
%TD*%
D48*
%TO.C,B4*%
X133722513Y-106742513D03*
X134217487Y-107237487D03*
%TD*%
D49*
%TO.C,U7*%
X184020000Y-100210000D03*
X184020000Y-101160000D03*
X184020000Y-102110000D03*
X186530000Y-102110000D03*
X186530000Y-100210000D03*
%TD*%
D50*
%TO.C,BT1*%
X152232546Y-103460000D03*
D51*
X173032546Y-103460000D03*
%TD*%
D25*
%TO.C,TP7*%
X136670000Y-104750000D03*
%TD*%
D52*
%TO.C,J6*%
X134994269Y-46893203D03*
X134287161Y-47600311D03*
X133580056Y-48307416D03*
X132872948Y-49014524D03*
D53*
X129267765Y-47247817D03*
X133227562Y-43288020D03*
%TD*%
D54*
%TO.C,D2*%
X203250500Y-70385000D03*
X203250500Y-74635000D03*
%TD*%
D41*
%TO.C,D4*%
X142360000Y-52408250D03*
X141360000Y-52408250D03*
%TD*%
D16*
%TO.C,B2*%
X205759000Y-73210000D03*
X205759000Y-73910000D03*
%TD*%
D55*
%TO.C,FB1*%
X127830000Y-74870000D03*
X129330000Y-74870000D03*
%TD*%
D29*
%TO.C,Q1*%
X189868412Y-116978936D03*
X191773412Y-116978936D03*
X190820912Y-114591336D03*
%TD*%
D34*
%TO.C,R24*%
X210770000Y-84220000D03*
X209770000Y-84220000D03*
%TD*%
D31*
%TO.C,H1*%
X197552500Y-78610000D03*
X198035774Y-77443274D03*
X198035774Y-79776726D03*
X199202500Y-76960000D03*
D32*
X199202500Y-78610000D03*
D31*
X199202500Y-80260000D03*
X200369226Y-77443274D03*
X200369226Y-79776726D03*
X200852500Y-78610000D03*
%TD*%
D56*
%TO.C,C16*%
X136843553Y-47312803D03*
X136136447Y-48019909D03*
%TD*%
D34*
%TO.C,R25*%
X210770000Y-73090000D03*
X209770000Y-73090000D03*
%TD*%
D31*
%TO.C,H4*%
X186880000Y-93920000D03*
X187363274Y-92753274D03*
X187363274Y-95086726D03*
X188530000Y-92270000D03*
D32*
X188530000Y-93920000D03*
D31*
X188530000Y-95570000D03*
X189696726Y-92753274D03*
X189696726Y-95086726D03*
X190180000Y-93920000D03*
%TD*%
D17*
%TO.C,R5*%
X136090000Y-81100000D03*
X137090000Y-81100000D03*
%TD*%
D33*
%TO.C,R15*%
X190527500Y-102160000D03*
X190527500Y-101160000D03*
%TD*%
D34*
%TO.C,R8*%
X203700000Y-77880000D03*
X202700000Y-77880000D03*
%TD*%
D49*
%TO.C,U6*%
X192100000Y-100210000D03*
X192100000Y-101160000D03*
X192100000Y-102110000D03*
X194610000Y-102110000D03*
X194610000Y-100210000D03*
%TD*%
D17*
%TO.C,R1*%
X119720000Y-73160000D03*
X120720000Y-73160000D03*
%TD*%
D57*
%TO.C,D5*%
X140702602Y-46567398D03*
X137697398Y-49572602D03*
%TD*%
D58*
%TO.C,B3*%
X193174229Y-109837487D03*
X193669203Y-109342513D03*
%TD*%
D34*
%TO.C,R6*%
X134530080Y-57967848D03*
X133530080Y-57967848D03*
%TD*%
D37*
%TO.C,C9*%
X133060000Y-79055000D03*
X133060000Y-77705000D03*
%TD*%
D59*
%TO.C,R19*%
X135796447Y-108096447D03*
X136503553Y-108803553D03*
%TD*%
D60*
%TO.C,C14*%
X134546447Y-105456447D03*
X135253553Y-106163553D03*
%TD*%
D61*
%TO.C,C18*%
X148160000Y-101870000D03*
X148160000Y-100370000D03*
%TD*%
D42*
%TO.C,Q3*%
X125997500Y-100890000D03*
X124097500Y-100890000D03*
X125047500Y-103010000D03*
%TD*%
D62*
%TO.C,R21*%
X134437395Y-51505649D03*
X133730289Y-52212755D03*
%TD*%
D37*
%TO.C,C10*%
X139658193Y-79043151D03*
X139658193Y-77693151D03*
%TD*%
D34*
%TO.C,R23*%
X200140000Y-57750000D03*
X199140000Y-57750000D03*
%TD*%
D25*
%TO.C,TP13*%
X191190000Y-53080000D03*
%TD*%
D33*
%TO.C,R16*%
X182397500Y-102140000D03*
X182397500Y-101140000D03*
%TD*%
D17*
%TO.C,R11*%
X190313412Y-118568936D03*
X191313412Y-118568936D03*
%TD*%
D25*
%TO.C,TP6*%
X125087500Y-97570000D03*
%TD*%
D34*
%TO.C,R7*%
X203710000Y-79390000D03*
X202710000Y-79390000D03*
%TD*%
D62*
%TO.C,R20*%
X133673553Y-50756447D03*
X132966447Y-51463553D03*
%TD*%
D63*
%TO.C,U5*%
X135445000Y-77680000D03*
X135445000Y-78630000D03*
X135445000Y-79580000D03*
X137735000Y-79580000D03*
X137735000Y-78630000D03*
X137735000Y-77680000D03*
%TD*%
D64*
%TO.C,C17*%
X196693553Y-50743553D03*
X195986447Y-50036447D03*
%TD*%
D17*
%TO.C,R12*%
X185983412Y-113218936D03*
X186983412Y-113218936D03*
%TD*%
D30*
%TO.C,C8*%
X134530000Y-59040000D03*
X133530000Y-59040000D03*
%TD*%
D31*
%TO.C,H2*%
X142352500Y-57255000D03*
X141869226Y-58421726D03*
X141869226Y-56088274D03*
X140702500Y-58905000D03*
D32*
X140702500Y-57255000D03*
D31*
X140702500Y-55605000D03*
X139535774Y-58421726D03*
X139535774Y-56088274D03*
X139052500Y-57255000D03*
%TD*%
M02*
