M48
; DRILL file KiCad 10.0.5 date 2026-09-26T10:14:20
; FORMAT={-:-/ absolute / metric / decimal}
; #@! TF.CreationDate,2026-09-26T10:14:20+03:00
; #@! TF.GenerationSoftware,Kicad,Pcbnew,10.0.5
; #@! TF.FileFunction,Plated,1,6,PTH
FMAT,2
METRIC
; #@! TA.AperFunction,Plated,PTH,ViaDrill
T1C0.200
; #@! TA.AperFunction,Plated,PTH,ViaDrill
T2C0.300
; #@! TA.AperFunction,Plated,PTH,ComponentDrill
T3C0.400
; #@! TA.AperFunction,Plated,PTH,ViaDrill
T4C0.500
; #@! TA.AperFunction,Plated,PTH,ComponentDrill
T5C0.650
; #@! TA.AperFunction,Plated,PTH,ComponentDrill
T6C0.655
; #@! TA.AperFunction,Plated,PTH,ComponentDrill
T7C1.300
; #@! TA.AperFunction,Plated,PTH,ComponentDrill
T8C1.500
; #@! TA.AperFunction,Plated,PTH,ComponentDrill
T9C2.200
; #@! TA.AperFunction,Plated,PTH,ComponentDrill
T10C2.700
%
G90
G05
T1
X121.93Y-77.37
X121.93Y-80.361
X125.08Y-96.11
X125.32Y-77.48
X125.32Y-78.78
X126.14Y-53.38
X127.13Y-85.635
X127.13Y-86.385
X128.21Y-53.54
X133.47Y-110.89
X134.25Y-50.18
X134.99Y-80.72
X134.997Y-50.947
X136.38Y-107.52
X142.37Y-62.95
X144.27Y-70.42
X145.53Y-57.92
X145.62Y-73.37
X147.83Y-72.96
X148.11Y-61.2
X148.5Y-57.34
X148.72Y-60.67
X148.75Y-73.37
X148.8Y-72.57
X150.76Y-66.15
X150.77Y-65.37
X150.77Y-73.35
X150.8Y-58.16
X150.89Y-61.77
X150.89Y-72.57
X151.55Y-77.78
X152.171Y-62.796
X154.038Y-63.215
X154.35Y-77.41
X155.47Y-81.77
X157.13Y-80.12
X157.34Y-74.0
X158.12Y-78.86
X159.23Y-72.23
X159.74Y-62.52
X160.44Y-77.04
X160.84Y-67.69
X162.23Y-75.23
X163.47Y-67.83
X166.41Y-70.89
X168.7Y-69.53
X170.45Y-60.99
X171.61Y-78.39
X176.21Y-60.91
X179.46Y-56.58
X179.51Y-54.22
X181.51Y-101.16
X186.97Y-109.89
X187.89Y-51.49
X188.87Y-101.11
X189.68Y-53.09
X190.15Y-100.29
X194.49Y-108.67
X194.711Y-107.601
X197.02Y-101.1
X199.21Y-60.91
X199.975Y-75.792
X200.12Y-87.95
X200.43Y-75.26
X203.21Y-85.625
X203.21Y-86.375
X205.44Y-78.42
X205.45Y-79.81
T2
X121.22Y-80.99
X121.23Y-76.33
X130.48Y-78.942
X131.082Y-78.341
X165.202Y-78.61
X178.46Y-54.785
X178.46Y-55.635
X181.929Y-67.951
X182.531Y-67.349
X209.26Y-80.9
X209.267Y-76.28
T3
X139.052Y-57.255
X139.052Y-99.965
X139.536Y-56.088
X139.536Y-58.422
X139.536Y-98.798
X139.536Y-101.132
X140.702Y-55.605
X140.702Y-58.905
X140.702Y-98.315
X140.702Y-101.615
X141.869Y-56.088
X141.869Y-58.422
X141.869Y-98.798
X141.869Y-101.132
X142.352Y-57.255
X142.352Y-99.965
X186.88Y-93.92
X187.363Y-92.753
X187.363Y-95.087
X188.53Y-92.27
X188.53Y-95.57
X189.697Y-92.753
X189.697Y-95.087
X190.18Y-93.92
X197.552Y-78.61
X198.036Y-77.443
X198.036Y-79.777
X199.202Y-76.96
X199.202Y-80.26
X200.369Y-77.443
X200.369Y-79.777
X200.852Y-78.61
T4
X123.16Y-99.34
X124.77Y-72.69
X126.54Y-72.94
X127.19Y-88.53
X129.68Y-76.9
X129.72Y-80.41
X130.57Y-72.92
X131.08Y-62.91
X131.64Y-47.91
X132.31Y-52.1
X132.55Y-59.04
X133.07Y-80.13
X134.08Y-111.72
X135.13Y-104.85
X137.09Y-82.11
X137.11Y-109.4
X137.46Y-46.7
X139.64Y-80.02
X140.93Y-71.77
X140.93Y-73.47
X141.25Y-80.02
X141.69Y-45.57
X142.35Y-77.69
X143.29Y-77.69
X143.71Y-51.1
X143.843Y-60.783
X144.37Y-61.59
X145.48Y-101.91
X145.57Y-56.6
X145.59Y-64.97
X145.6Y-66.16
X145.61Y-62.94
X145.63Y-68.57
X146.65Y-101.88
X147.78Y-67.37
X147.8Y-54.56
X147.8Y-55.77
X147.835Y-58.385
X148.19Y-99.22
X148.52Y-104.91
X148.59Y-68.96
X148.6Y-66.16
X148.78Y-55.77
X149.15Y-77.49
X150.23Y-77.5
X150.87Y-54.56
X150.88Y-67.35
X150.95Y-59.08
X150.96Y-60.56
X150.96Y-74.36
X151.02Y-69.76
X151.02Y-70.95
X151.71Y-65.24
X152.0Y-75.06
X152.02Y-61.96
X152.57Y-56.94
X152.57Y-82.08
X152.85Y-75.7
X153.47Y-81.62
X179.37Y-60.21
X179.52Y-65.36
X179.53Y-58.17
X179.53Y-66.55
X179.54Y-61.76
X179.55Y-67.77
X179.56Y-72.57
X179.64Y-70.17
X181.72Y-71.37
X181.73Y-73.76
X181.74Y-59.36
X181.76Y-55.77
X181.78Y-56.97
X181.91Y-68.97
X182.67Y-72.56
X182.69Y-71.37
X182.72Y-70.16
X182.74Y-59.37
X182.76Y-56.97
X182.77Y-58.17
X184.02Y-103.44
X184.03Y-99.31
X184.75Y-64.17
X184.75Y-65.35
X184.76Y-61.77
X184.76Y-73.77
X184.77Y-62.96
X184.77Y-67.78
X184.779Y-68.961
X184.78Y-60.21
X184.78Y-66.56
X184.83Y-55.77
X184.96Y-113.22
X192.1Y-99.29
X192.1Y-103.24
X192.32Y-109.42
X196.37Y-45.46
X196.55Y-63.04
X196.62Y-94.0
X197.35Y-51.39
X198.13Y-58.95
X198.14Y-90.15
X198.24Y-109.68
X198.5Y-55.45
X201.61Y-70.38
X202.73Y-67.63
X203.23Y-88.51
X204.67Y-76.77
X204.835Y-80.545
X205.76Y-72.3
X209.77Y-72.17
X209.77Y-85.12
T7
X157.34Y-122.36
X157.34Y-124.9
X159.88Y-122.36
X159.88Y-124.9
X162.42Y-122.36
X162.42Y-124.9
X164.96Y-122.36
X164.96Y-124.9
X167.5Y-122.36
X167.5Y-124.9
X170.04Y-122.36
X170.04Y-124.9
X172.58Y-122.36
X172.58Y-124.9
T8
X152.233Y-103.46
X173.033Y-103.46
T9
X140.702Y-57.255
X140.702Y-99.965
X188.53Y-93.92
X199.202Y-78.61
T10
X148.714Y-37.865
X148.714Y-85.865
X181.714Y-37.865
X181.714Y-85.865
T5
G00X117.825Y-82.965
M15
G01X118.575Y-82.965
M16
G05
G00X121.845Y-74.315
M15
G01X122.895Y-74.315
M16
G05
G00X121.845Y-82.965
M15
G01X122.895Y-82.965
M16
G05
G00X208.695Y-74.305
M15
G01X207.645Y-74.305
M16
G05
G00X208.695Y-82.955
M15
G01X207.645Y-82.955
M16
G05
G00X212.715Y-74.305
M15
G01X211.965Y-74.305
M16
G05
T6
G00X117.828Y-74.315
M15
G01X118.572Y-74.315
M16
G05
G00X212.712Y-82.955
M15
G01X211.968Y-82.955
M16
G05
M30
