%TF.GenerationSoftware,KiCad,Pcbnew,10.0.5*%
%TF.CreationDate,2026-09-26T18:09:32+03:00*%
%TF.ProjectId,nielo,6e69656c-6f2e-46b6-9963-61645f706362,rev?*%
%TF.SameCoordinates,Original*%
%TF.FileFunction,Paste,Top*%
%TF.FilePolarity,Positive*%
%FSLAX46Y46*%
G04 Gerber Fmt 4.6, Leading zero omitted, Abs format (unit mm)*
G04 Created by KiCad (PCBNEW 10.0.5) date 2026-09-26 18:09:32*
%MOMM*%
%LPD*%
G01*
G04 APERTURE LIST*
G04 Aperture macros list*
%AMRoundRect*
0 Rectangle with rounded corners*
0 $1 Rounding radius*
0 $2 $3 $4 $5 $6 $7 $8 $9 X,Y pos of 4 corners*
0 Add a 4 corners polygon primitive as box body*
4,1,4,$2,$3,$4,$5,$6,$7,$8,$9,$2,$3,0*
0 Add four circle primitives for the rounded corners*
1,1,$1+$1,$2,$3*
1,1,$1+$1,$4,$5*
1,1,$1+$1,$6,$7*
1,1,$1+$1,$8,$9*
0 Add four rect primitives between the rounded corners*
20,1,$1+$1,$2,$3,$4,$5,0*
20,1,$1+$1,$4,$5,$6,$7,0*
20,1,$1+$1,$6,$7,$8,$9,0*
20,1,$1+$1,$8,$9,$2,$3,0*%
%AMRotRect*
0 Rectangle, with rotation*
0 The origin of the aperture is its center*
0 $1 length*
0 $2 width*
0 $3 Rotation angle, in degrees counterclockwise*
0 Add horizontal line*
21,1,$1,$2,0,0,$3*%
%AMFreePoly0*
4,1,31,0.049620,-0.005570,0.075740,-0.027340,0.090160,-0.058130,0.090170,-0.908470,0.090160,-0.908470,0.090160,-0.925470,0.075740,-0.956270,0.049610,-0.978040,0.016720,-0.986670,0.000000,-0.983610,-0.042820,-0.975760,-0.124450,-0.945490,-0.199620,-0.901580,-0.266080,-0.845340,-0.321810,-0.778450,-0.365150,-0.702940,-0.394780,-0.621080,-0.409830,-0.535330,-0.409820,-0.491800,-0.409830,-0.448270,
-0.394780,-0.362520,-0.365150,-0.280660,-0.321810,-0.205150,-0.266080,-0.138270,-0.199620,-0.082030,-0.124450,-0.038110,-0.042810,-0.007850,0.000000,0.000000,0.000000,-0.000010,0.016730,0.003060,0.049620,-0.005570,0.049620,-0.005570,$1*%
%AMFreePoly1*
4,1,31,0.000000,0.983610,0.042820,0.975760,0.124450,0.945490,0.199620,0.901580,0.266080,0.845340,0.321810,0.778450,0.365150,0.702940,0.394780,0.621080,0.409830,0.535330,0.409820,0.491800,0.409830,0.448270,0.394780,0.362520,0.365150,0.280660,0.321810,0.205150,0.266080,0.138270,0.199620,0.082030,0.124450,0.038110,0.042810,0.007850,0.000000,0.000000,0.000000,0.000010,
-0.016730,-0.003060,-0.049620,0.005570,-0.075740,0.027340,-0.090160,0.058130,-0.090170,0.908470,-0.090160,0.908470,-0.090160,0.925470,-0.075740,0.956270,-0.049610,0.978040,-0.016720,0.986670,0.000000,0.983610,0.000000,0.983610,$1*%
G04 Aperture macros list end*
%ADD10C,0.025400*%
%ADD11FreePoly0,180.000000*%
%ADD12FreePoly1,180.000000*%
%ADD13R,0.500000X0.600000*%
%ADD14R,0.558000X0.972300*%
%ADD15R,0.700000X0.400000*%
%ADD16R,0.600000X0.550000*%
%ADD17R,1.140000X0.600000*%
%ADD18R,1.140000X0.300000*%
%ADD19RoundRect,0.035000X-0.315000X-0.315000X0.315000X-0.315000X0.315000X0.315000X-0.315000X0.315000X0*%
%ADD20R,0.558800X1.320800*%
%ADD21R,0.600000X0.500000*%
%ADD22R,0.550000X0.600000*%
%ADD23R,0.700000X0.200000*%
%ADD24R,0.800000X0.750000*%
%ADD25RotRect,0.500000X0.600000X135.000000*%
%ADD26RotRect,0.660400X1.549400X315.000000*%
%ADD27RotRect,1.905000X1.295400X45.000000*%
%ADD28RoundRect,0.075000X0.225000X0.275000X-0.225000X0.275000X-0.225000X-0.275000X0.225000X-0.275000X0*%
%ADD29RoundRect,0.075000X-0.225000X0.540000X-0.225000X-0.540000X0.225000X-0.540000X0.225000X0.540000X0*%
%ADD30RotRect,0.660400X1.549400X135.000000*%
%ADD31RotRect,1.905000X1.295400X225.000000*%
%ADD32RotRect,0.660400X1.549400X225.000000*%
%ADD33RotRect,1.905000X1.295400X315.000000*%
%ADD34RotRect,1.170000X1.920000X315.000000*%
%ADD35RotRect,0.700000X0.400000X45.000000*%
%ADD36RoundRect,0.147500X-0.457500X-0.147500X0.457500X-0.147500X0.457500X0.147500X-0.457500X0.147500X0*%
%ADD37RotRect,0.660400X1.549400X45.000000*%
%ADD38RotRect,1.905000X1.295400X135.000000*%
%ADD39R,1.920000X1.170000*%
%ADD40RoundRect,0.100000X-0.300000X-0.400000X0.300000X-0.400000X0.300000X0.400000X-0.300000X0.400000X0*%
%ADD41RotRect,0.500000X0.600000X315.000000*%
%ADD42RotRect,1.170000X1.920000X45.000000*%
%ADD43RotRect,0.700000X0.400000X135.000000*%
%ADD44RotRect,0.550000X0.600000X45.000000*%
%ADD45RotRect,0.500000X0.600000X45.000000*%
%ADD46R,1.400000X1.100000*%
%ADD47RotRect,0.550000X0.600000X315.000000*%
%ADD48RoundRect,0.073750X-0.586250X-0.221250X0.586250X-0.221250X0.586250X0.221250X-0.586250X0.221250X0*%
%ADD49RotRect,0.500000X0.600000X225.000000*%
G04 APERTURE END LIST*
D10*
%TO.C,SB1*%
X142489830Y-71675942D03*
D11*
X142330000Y-72167752D03*
D12*
X141949660Y-71184132D03*
D10*
X141789830Y-71675942D03*
%TD*%
D13*
%TO.C,C1*%
X126510000Y-73860000D03*
X126510000Y-74860000D03*
%TD*%
D14*
%TO.C,U1*%
X126240000Y-87382650D03*
X127190000Y-87382650D03*
X128140000Y-87382650D03*
X128140000Y-84657750D03*
X127190000Y-84657750D03*
X126240000Y-84657750D03*
%TD*%
D15*
%TO.C,B1*%
X124770000Y-73430000D03*
X124770000Y-74130000D03*
%TD*%
D16*
%TO.C,R9*%
X141360000Y-62160000D03*
X142360000Y-62160000D03*
%TD*%
D17*
%TO.C,J1*%
X122950000Y-75440000D03*
X122950000Y-76240000D03*
D18*
X122950000Y-77390000D03*
X122950000Y-78390000D03*
X122950000Y-78890000D03*
X122950000Y-79890000D03*
D17*
X122950000Y-81840000D03*
X122950000Y-81040000D03*
D18*
X122950000Y-80390000D03*
X122950000Y-79390000D03*
X122950000Y-77890000D03*
X122950000Y-76890000D03*
%TD*%
D16*
%TO.C,R4*%
X126710000Y-79390000D03*
X127710000Y-79390000D03*
%TD*%
D13*
%TO.C,C2*%
X130590000Y-73870000D03*
X130590000Y-74870000D03*
%TD*%
D15*
%TO.C,B5*%
X148510000Y-104150000D03*
X148510000Y-103450000D03*
%TD*%
D17*
%TO.C,J2*%
X207590000Y-81830000D03*
X207590000Y-81030000D03*
D18*
X207590000Y-79880000D03*
X207590000Y-78880000D03*
X207590000Y-78380000D03*
X207590000Y-77380000D03*
D17*
X207590000Y-75430000D03*
X207590000Y-76230000D03*
D18*
X207590000Y-76880000D03*
X207590000Y-77880000D03*
X207590000Y-79380000D03*
X207590000Y-80380000D03*
%TD*%
D19*
%TO.C,SW2*%
X195620000Y-91845000D03*
X200120000Y-91845000D03*
X195620000Y-93995000D03*
X200120000Y-93995000D03*
%TD*%
D20*
%TO.C,Q4*%
X128297500Y-103003800D03*
X130202500Y-103003800D03*
X129250000Y-100616200D03*
%TD*%
D21*
%TO.C,C6*%
X202720000Y-80530000D03*
X203720000Y-80530000D03*
%TD*%
D14*
%TO.C,U3*%
X202280000Y-87382650D03*
X203230000Y-87382650D03*
X204180000Y-87382650D03*
X204180000Y-84657750D03*
X203230000Y-84657750D03*
X202280000Y-84657750D03*
%TD*%
D22*
%TO.C,R13*%
X196217500Y-102110000D03*
X196217500Y-101110000D03*
%TD*%
D21*
%TO.C,C15*%
X200120000Y-58940000D03*
X199120000Y-58940000D03*
%TD*%
D16*
%TO.C,R3*%
X126700000Y-77900000D03*
X127700000Y-77900000D03*
%TD*%
%TO.C,R18*%
X128797500Y-104680000D03*
X129797500Y-104680000D03*
%TD*%
D21*
%TO.C,C7*%
X203700000Y-76770000D03*
X202700000Y-76770000D03*
%TD*%
D16*
%TO.C,R22*%
X200120000Y-88730000D03*
X199120000Y-88730000D03*
%TD*%
D23*
%TO.C,U2*%
X146674156Y-54565405D03*
X149754156Y-54565405D03*
X146674156Y-54965405D03*
X149754156Y-54965405D03*
X146674156Y-55365405D03*
X149754156Y-55365405D03*
X146674156Y-55765405D03*
X149754156Y-55765405D03*
X146674156Y-56165405D03*
X149754156Y-56165405D03*
X146674156Y-56565405D03*
X149754156Y-56565405D03*
X146674156Y-56965405D03*
X149754156Y-56965405D03*
X146674156Y-57365405D03*
X149754156Y-57365405D03*
X146674156Y-57765405D03*
X149754156Y-57765405D03*
X146674156Y-58165405D03*
X149754156Y-58165405D03*
X146674156Y-58565405D03*
X149754156Y-58565405D03*
X146674156Y-58965405D03*
X149754156Y-58965405D03*
X146674156Y-59365405D03*
X149754156Y-59365405D03*
X146674156Y-59765405D03*
X149754156Y-59765405D03*
X146674156Y-60165405D03*
X149754156Y-60165405D03*
X146674156Y-60565405D03*
X149754156Y-60565405D03*
X146674156Y-60965405D03*
X149754156Y-60965405D03*
X146674156Y-61365405D03*
X149754156Y-61365405D03*
X146674156Y-61765405D03*
X149754156Y-61765405D03*
X146674156Y-62165405D03*
X149754156Y-62165405D03*
X146674156Y-62565405D03*
X149754156Y-62565405D03*
X146674156Y-62965405D03*
X149754156Y-62965405D03*
X146674156Y-63365405D03*
X149754156Y-63365405D03*
X146674156Y-63765405D03*
X149754156Y-63765405D03*
X146674156Y-64165405D03*
X149754156Y-64165405D03*
X146674156Y-64565405D03*
X149754156Y-64565405D03*
X146674156Y-64965405D03*
X149754156Y-64965405D03*
X146674156Y-65365405D03*
X149754156Y-65365405D03*
X146674156Y-65765405D03*
X149754156Y-65765405D03*
X146674156Y-66165405D03*
X149754156Y-66165405D03*
X146674156Y-66565405D03*
X149754156Y-66565405D03*
X146674156Y-66965405D03*
X149754156Y-66965405D03*
X146674156Y-67365405D03*
X149754156Y-67365405D03*
X146674156Y-67765405D03*
X149754156Y-67765405D03*
X146674156Y-68165405D03*
X149754156Y-68165405D03*
X146674156Y-68565405D03*
X149754156Y-68565405D03*
X146674156Y-68965405D03*
X149754156Y-68965405D03*
X146674156Y-69365405D03*
X149754156Y-69365405D03*
X146674156Y-69765405D03*
X149754156Y-69765405D03*
X146674156Y-70165405D03*
X149754156Y-70165405D03*
X146674156Y-70565405D03*
X149754156Y-70565405D03*
X146674156Y-70965405D03*
X149754156Y-70965405D03*
X146674156Y-71365405D03*
X149754156Y-71365405D03*
X146674156Y-71765405D03*
X149754156Y-71765405D03*
X146674156Y-72165405D03*
X149754156Y-72165405D03*
X146674156Y-72565405D03*
X149754156Y-72565405D03*
X146674156Y-72965405D03*
X149754156Y-72965405D03*
X146674156Y-73365405D03*
X149754156Y-73365405D03*
X146674156Y-73765405D03*
X149754156Y-73765405D03*
X146674156Y-74165405D03*
X149754156Y-74165405D03*
X180674156Y-54565405D03*
X183754156Y-54565405D03*
X180674156Y-54965405D03*
X183754156Y-54965405D03*
X180674156Y-55365405D03*
X183754156Y-55365405D03*
X180674156Y-55765405D03*
X183754156Y-55765405D03*
X180674156Y-56165405D03*
X183754156Y-56165405D03*
X180674156Y-56565405D03*
X183754156Y-56565405D03*
X180674156Y-56965405D03*
X183754156Y-56965405D03*
X180674156Y-57365405D03*
X183754156Y-57365405D03*
X180674156Y-57765405D03*
X183754156Y-57765405D03*
X180674156Y-58165405D03*
X183754156Y-58165405D03*
X180674156Y-58565405D03*
X183754156Y-58565405D03*
X180674156Y-58965405D03*
X183754156Y-58965405D03*
X180674156Y-59365405D03*
X183754156Y-59365405D03*
X180674156Y-59765405D03*
X183754156Y-59765405D03*
X180674156Y-60165405D03*
X183754156Y-60165405D03*
X180674156Y-60565405D03*
X183754156Y-60565405D03*
X180674156Y-60965405D03*
X183754156Y-60965405D03*
X180674156Y-61365405D03*
X183754156Y-61365405D03*
X180674156Y-61765405D03*
X183754156Y-61765405D03*
X180674156Y-62165405D03*
X183754156Y-62165405D03*
X180674156Y-62565405D03*
X183754156Y-62565405D03*
X180674156Y-62965405D03*
X183754156Y-62965405D03*
X180674156Y-63365405D03*
X183754156Y-63365405D03*
X180674156Y-63765405D03*
X183754156Y-63765405D03*
X180674156Y-64165405D03*
X183754156Y-64165405D03*
X180674156Y-64565405D03*
X183754156Y-64565405D03*
X180674156Y-64965405D03*
X183754156Y-64965405D03*
X180674156Y-65365405D03*
X183754156Y-65365405D03*
X180674156Y-65765405D03*
X183754156Y-65765405D03*
X180674156Y-66165405D03*
X183754156Y-66165405D03*
X180674156Y-66565405D03*
X183754156Y-66565405D03*
X180674156Y-66965405D03*
X183754156Y-66965405D03*
X180674156Y-67365405D03*
X183754156Y-67365405D03*
X180674156Y-67765405D03*
X183754156Y-67765405D03*
X180674156Y-68165405D03*
X183754156Y-68165405D03*
X180674156Y-68565405D03*
X183754156Y-68565405D03*
X180674156Y-68965405D03*
X183754156Y-68965405D03*
X180674156Y-69365405D03*
X183754156Y-69365405D03*
X180674156Y-69765405D03*
X183754156Y-69765405D03*
X180674156Y-70165405D03*
X183754156Y-70165405D03*
X180674156Y-70565405D03*
X183754156Y-70565405D03*
X180674156Y-70965405D03*
X183754156Y-70965405D03*
X180674156Y-71365405D03*
X183754156Y-71365405D03*
X180674156Y-71765405D03*
X183754156Y-71765405D03*
X180674156Y-72165405D03*
X183754156Y-72165405D03*
X180674156Y-72565405D03*
X183754156Y-72565405D03*
X180674156Y-72965405D03*
X183754156Y-72965405D03*
X180674156Y-73365405D03*
X183754156Y-73365405D03*
X180674156Y-73765405D03*
X183754156Y-73765405D03*
X180674156Y-74165405D03*
X183754156Y-74165405D03*
%TD*%
D24*
%TO.C,C11*%
X141250000Y-79055000D03*
X141250000Y-77705000D03*
%TD*%
D19*
%TO.C,SW3*%
X195620000Y-60885000D03*
X200120000Y-60885000D03*
X195620000Y-63035000D03*
X200120000Y-63035000D03*
%TD*%
D25*
%TO.C,C12*%
X191792055Y-108899667D03*
X192499161Y-108192561D03*
%TD*%
D26*
%TO.C,J7*%
X197356797Y-48714524D03*
X196649689Y-48007416D03*
X195942584Y-47300311D03*
X195235476Y-46593203D03*
D27*
X197002183Y-42988020D03*
X200961980Y-46947817D03*
%TD*%
D19*
%TO.C,SW1*%
X130040000Y-60790000D03*
X134540000Y-60790000D03*
X130040000Y-62940000D03*
X134540000Y-62940000D03*
%TD*%
D28*
%TO.C,D3*%
X142370000Y-60780000D03*
X141370000Y-60780000D03*
%TD*%
D21*
%TO.C,C13*%
X200123999Y-90150000D03*
X199123999Y-90150000D03*
%TD*%
D22*
%TO.C,R14*%
X188067500Y-102110000D03*
X188067500Y-101110000D03*
%TD*%
D21*
%TO.C,C5*%
X202750000Y-68520000D03*
X203750000Y-68520000D03*
%TD*%
D16*
%TO.C,R2*%
X119740000Y-84050000D03*
X120740000Y-84050000D03*
%TD*%
D13*
%TO.C,C3*%
X128800000Y-77900000D03*
X128800000Y-76900000D03*
%TD*%
D29*
%TO.C,Q2*%
X187903879Y-114912612D03*
X186003879Y-114912612D03*
X186953879Y-117032612D03*
%TD*%
D30*
%TO.C,J5*%
X133082948Y-108465731D03*
X133790056Y-109172839D03*
X134497161Y-109879944D03*
X135204269Y-110587052D03*
D31*
X133437562Y-114192235D03*
X129477765Y-110232438D03*
%TD*%
D32*
%TO.C,J8*%
X195035731Y-110717052D03*
X195742839Y-110009944D03*
X196449944Y-109302839D03*
X197157052Y-108595731D03*
D33*
X200762235Y-110362438D03*
X196802438Y-114322235D03*
%TD*%
D13*
%TO.C,C4*%
X128810000Y-80410000D03*
X128810000Y-79410000D03*
%TD*%
D10*
%TO.C,SB2*%
X142510170Y-73430000D03*
D11*
X142350340Y-73921810D03*
D12*
X141970000Y-72938190D03*
D10*
X141810170Y-73430000D03*
%TD*%
D34*
%TO.C,D6*%
X197562602Y-54512602D03*
X194557398Y-51507398D03*
%TD*%
D16*
%TO.C,R10*%
X141360000Y-53740000D03*
X142360000Y-53740000D03*
%TD*%
%TO.C,R17*%
X124097500Y-99370000D03*
X125097500Y-99370000D03*
%TD*%
D35*
%TO.C,B4*%
X133722513Y-106742513D03*
X134217487Y-107237487D03*
%TD*%
D36*
%TO.C,U7*%
X184020000Y-100210000D03*
X184020000Y-101160000D03*
X184020000Y-102110000D03*
X186530000Y-102110000D03*
X186530000Y-100210000D03*
%TD*%
D37*
%TO.C,J6*%
X134994269Y-46893203D03*
X134287161Y-47600311D03*
X133580056Y-48307416D03*
X132872948Y-49014524D03*
D38*
X129267765Y-47247817D03*
X133227562Y-43288020D03*
%TD*%
D39*
%TO.C,D2*%
X203250500Y-70385000D03*
X203250500Y-74635000D03*
%TD*%
D28*
%TO.C,D4*%
X142360000Y-52408250D03*
X141360000Y-52408250D03*
%TD*%
D15*
%TO.C,B2*%
X205759000Y-73210000D03*
X205759000Y-73910000D03*
%TD*%
D40*
%TO.C,FB1*%
X127830000Y-74870000D03*
X129330000Y-74870000D03*
%TD*%
D20*
%TO.C,Q1*%
X189868412Y-116978936D03*
X191773412Y-116978936D03*
X190820912Y-114591336D03*
%TD*%
D16*
%TO.C,R24*%
X210770000Y-84220000D03*
X209770000Y-84220000D03*
%TD*%
D41*
%TO.C,C16*%
X136843553Y-47312803D03*
X136136447Y-48019909D03*
%TD*%
D16*
%TO.C,R25*%
X210770000Y-73090000D03*
X209770000Y-73090000D03*
%TD*%
%TO.C,R5*%
X136090000Y-81100000D03*
X137090000Y-81100000D03*
%TD*%
D22*
%TO.C,R15*%
X190527500Y-102160000D03*
X190527500Y-101160000D03*
%TD*%
D16*
%TO.C,R8*%
X203700000Y-77880000D03*
X202700000Y-77880000D03*
%TD*%
D36*
%TO.C,U6*%
X192100000Y-100210000D03*
X192100000Y-101160000D03*
X192100000Y-102110000D03*
X194610000Y-102110000D03*
X194610000Y-100210000D03*
%TD*%
D16*
%TO.C,R1*%
X119720000Y-73160000D03*
X120720000Y-73160000D03*
%TD*%
D42*
%TO.C,D5*%
X140702602Y-46567398D03*
X137697398Y-49572602D03*
%TD*%
D43*
%TO.C,B3*%
X193174229Y-109837487D03*
X193669203Y-109342513D03*
%TD*%
D16*
%TO.C,R6*%
X134530080Y-57967848D03*
X133530080Y-57967848D03*
%TD*%
D24*
%TO.C,C9*%
X133060000Y-79055000D03*
X133060000Y-77705000D03*
%TD*%
D44*
%TO.C,R19*%
X135796447Y-108096447D03*
X136503553Y-108803553D03*
%TD*%
D45*
%TO.C,C14*%
X134546447Y-105456447D03*
X135253553Y-106163553D03*
%TD*%
D46*
%TO.C,C18*%
X148160000Y-101870000D03*
X148160000Y-100370000D03*
%TD*%
D29*
%TO.C,Q3*%
X125997500Y-100890000D03*
X124097500Y-100890000D03*
X125047500Y-103010000D03*
%TD*%
D47*
%TO.C,R21*%
X134437395Y-51505649D03*
X133730289Y-52212755D03*
%TD*%
D24*
%TO.C,C10*%
X139658193Y-79043151D03*
X139658193Y-77693151D03*
%TD*%
D16*
%TO.C,R23*%
X200140000Y-57750000D03*
X199140000Y-57750000D03*
%TD*%
D22*
%TO.C,R16*%
X182397500Y-102140000D03*
X182397500Y-101140000D03*
%TD*%
D16*
%TO.C,R11*%
X190313412Y-118568936D03*
X191313412Y-118568936D03*
%TD*%
%TO.C,R7*%
X203710000Y-79390000D03*
X202710000Y-79390000D03*
%TD*%
D47*
%TO.C,R20*%
X133673553Y-50756447D03*
X132966447Y-51463553D03*
%TD*%
D48*
%TO.C,U5*%
X135445000Y-77680000D03*
X135445000Y-78630000D03*
X135445000Y-79580000D03*
X137735000Y-79580000D03*
X137735000Y-78630000D03*
X137735000Y-77680000D03*
%TD*%
D49*
%TO.C,C17*%
X196693553Y-50743553D03*
X195986447Y-50036447D03*
%TD*%
D16*
%TO.C,R12*%
X185983412Y-113218936D03*
X186983412Y-113218936D03*
%TD*%
D21*
%TO.C,C8*%
X134530000Y-59040000D03*
X133530000Y-59040000D03*
%TD*%
M02*
