%TF.GenerationSoftware,KiCad,Pcbnew,10.0.5*%
%TF.CreationDate,2026-09-26T18:31:08+03:00*%
%TF.ProjectId,nielo,6e69656c-6f2e-46b6-9963-61645f706362,rev?*%
%TF.SameCoordinates,Original*%
%TF.FileFunction,Drillmap*%
%TF.FilePolarity,Positive*%
%FSLAX45Y45*%
G04 Gerber Fmt 4.5, Leading zero omitted, Abs format (unit mm)*
G04 Created by KiCad (PCBNEW 10.0.5) date 2026-09-26 18:31:08*
%MOMM*%
%LPD*%
G01*
G04 APERTURE LIST*
%ADD10C,0.200000*%
%ADD11C,0.100000*%
%ADD12C,0.130000*%
%ADD13C,0.150000*%
%ADD14C,0.220000*%
%ADD15C,0.270000*%
G04 APERTURE END LIST*
D10*
X21420250Y-7861000D02*
G75*
G02*
X11620250Y-7861000I-4900000J0D01*
G01*
X11620250Y-7861000D02*
G75*
G02*
X21420250Y-7861000I4900000J0D01*
G01*
D11*
X12183000Y-7726969D02*
X12203000Y-7746969D01*
X12203000Y-7726969D02*
X12183000Y-7746969D01*
X12183000Y-8026116D02*
X12203000Y-8046116D01*
X12203000Y-8026116D02*
X12183000Y-8046116D01*
X12498000Y-9601000D02*
X12518000Y-9621000D01*
X12518000Y-9601000D02*
X12498000Y-9621000D01*
X12522000Y-7738000D02*
X12542000Y-7758000D01*
X12542000Y-7738000D02*
X12522000Y-7758000D01*
X12522000Y-7868000D02*
X12542000Y-7888000D01*
X12542000Y-7868000D02*
X12522000Y-7888000D01*
X12604000Y-5328000D02*
X12624000Y-5348000D01*
X12624000Y-5328000D02*
X12604000Y-5348000D01*
X12703000Y-8553500D02*
X12723000Y-8573500D01*
X12723000Y-8553500D02*
X12703000Y-8573500D01*
X12703000Y-8628500D02*
X12723000Y-8648500D01*
X12723000Y-8628500D02*
X12703000Y-8648500D01*
X12811000Y-5344000D02*
X12831000Y-5364000D01*
X12831000Y-5344000D02*
X12811000Y-5364000D01*
X13337000Y-11079000D02*
X13357000Y-11099000D01*
X13357000Y-11079000D02*
X13337000Y-11099000D01*
X13415000Y-5008000D02*
X13435000Y-5028000D01*
X13435000Y-5008000D02*
X13415000Y-5028000D01*
X13489000Y-8062000D02*
X13509000Y-8082000D01*
X13509000Y-8062000D02*
X13489000Y-8082000D01*
X13489652Y-5084652D02*
X13509652Y-5104652D01*
X13509652Y-5084652D02*
X13489652Y-5104652D01*
X13628000Y-10742000D02*
X13648000Y-10762000D01*
X13648000Y-10742000D02*
X13628000Y-10762000D01*
X14227000Y-6285000D02*
X14247000Y-6305000D01*
X14247000Y-6285000D02*
X14227000Y-6305000D01*
X14417000Y-6936000D02*
X14437000Y-6956000D01*
X14437000Y-6936000D02*
X14417000Y-6956000D01*
X14543000Y-5782000D02*
X14563000Y-5802000D01*
X14563000Y-5782000D02*
X14543000Y-5802000D01*
X14552000Y-7327000D02*
X14572000Y-7347000D01*
X14572000Y-7327000D02*
X14552000Y-7347000D01*
X14773000Y-7286000D02*
X14793000Y-7306000D01*
X14793000Y-7286000D02*
X14773000Y-7306000D01*
X14801000Y-6110000D02*
X14821000Y-6130000D01*
X14821000Y-6110000D02*
X14801000Y-6130000D01*
X14840000Y-5724000D02*
X14860000Y-5744000D01*
X14860000Y-5724000D02*
X14840000Y-5744000D01*
X14862000Y-6057000D02*
X14882000Y-6077000D01*
X14882000Y-6057000D02*
X14862000Y-6077000D01*
X14865000Y-7327000D02*
X14885000Y-7347000D01*
X14885000Y-7327000D02*
X14865000Y-7347000D01*
X14870000Y-7247000D02*
X14890000Y-7267000D01*
X14890000Y-7247000D02*
X14870000Y-7267000D01*
X15066000Y-6605000D02*
X15086000Y-6625000D01*
X15086000Y-6605000D02*
X15066000Y-6625000D01*
X15067000Y-6527000D02*
X15087000Y-6547000D01*
X15087000Y-6527000D02*
X15067000Y-6547000D01*
X15067000Y-7325000D02*
X15087000Y-7345000D01*
X15087000Y-7325000D02*
X15067000Y-7345000D01*
X15070000Y-5806000D02*
X15090000Y-5826000D01*
X15090000Y-5806000D02*
X15070000Y-5826000D01*
X15079000Y-6167000D02*
X15099000Y-6187000D01*
X15099000Y-6167000D02*
X15079000Y-6187000D01*
X15079000Y-7247000D02*
X15099000Y-7267000D01*
X15099000Y-7247000D02*
X15079000Y-7267000D01*
X15145000Y-7768000D02*
X15165000Y-7788000D01*
X15165000Y-7768000D02*
X15145000Y-7788000D01*
X15207117Y-6269645D02*
X15227117Y-6289645D01*
X15227117Y-6269645D02*
X15207117Y-6289645D01*
X15393759Y-6311541D02*
X15413759Y-6331541D01*
X15413759Y-6311541D02*
X15393759Y-6331541D01*
X15425000Y-7731000D02*
X15445000Y-7751000D01*
X15445000Y-7731000D02*
X15425000Y-7751000D01*
X15537000Y-8167000D02*
X15557000Y-8187000D01*
X15557000Y-8167000D02*
X15537000Y-8187000D01*
X15703000Y-8002000D02*
X15723000Y-8022000D01*
X15723000Y-8002000D02*
X15703000Y-8022000D01*
X15724000Y-7390000D02*
X15744000Y-7410000D01*
X15744000Y-7390000D02*
X15724000Y-7410000D01*
X15802000Y-7876000D02*
X15822000Y-7896000D01*
X15822000Y-7876000D02*
X15802000Y-7896000D01*
X15913000Y-7213000D02*
X15933000Y-7233000D01*
X15933000Y-7213000D02*
X15913000Y-7233000D01*
X15964000Y-6242000D02*
X15984000Y-6262000D01*
X15984000Y-6242000D02*
X15964000Y-6262000D01*
X16034000Y-7694000D02*
X16054000Y-7714000D01*
X16054000Y-7694000D02*
X16034000Y-7714000D01*
X16074000Y-6759000D02*
X16094000Y-6779000D01*
X16094000Y-6759000D02*
X16074000Y-6779000D01*
X16213000Y-7513000D02*
X16233000Y-7533000D01*
X16233000Y-7513000D02*
X16213000Y-7533000D01*
X16337000Y-6773000D02*
X16357000Y-6793000D01*
X16357000Y-6773000D02*
X16337000Y-6793000D01*
X16631000Y-7079000D02*
X16651000Y-7099000D01*
X16651000Y-7079000D02*
X16631000Y-7099000D01*
X16860000Y-6943000D02*
X16880000Y-6963000D01*
X16880000Y-6943000D02*
X16860000Y-6963000D01*
X17035000Y-6089000D02*
X17055000Y-6109000D01*
X17055000Y-6089000D02*
X17035000Y-6109000D01*
X17151000Y-7829000D02*
X17171000Y-7849000D01*
X17171000Y-7829000D02*
X17151000Y-7849000D01*
X17611000Y-6081000D02*
X17631000Y-6101000D01*
X17631000Y-6081000D02*
X17611000Y-6101000D01*
X17936000Y-5648000D02*
X17956000Y-5668000D01*
X17956000Y-5648000D02*
X17936000Y-5668000D01*
X17941000Y-5412000D02*
X17961000Y-5432000D01*
X17961000Y-5412000D02*
X17941000Y-5432000D01*
X18141000Y-10106000D02*
X18161000Y-10126000D01*
X18161000Y-10106000D02*
X18141000Y-10126000D01*
X18687000Y-10979000D02*
X18707000Y-10999000D01*
X18707000Y-10979000D02*
X18687000Y-10999000D01*
X18779000Y-5139000D02*
X18799000Y-5159000D01*
X18799000Y-5139000D02*
X18779000Y-5159000D01*
X18877000Y-10101000D02*
X18897000Y-10121000D01*
X18897000Y-10101000D02*
X18877000Y-10121000D01*
X18958000Y-5299000D02*
X18978000Y-5319000D01*
X18978000Y-5299000D02*
X18958000Y-5319000D01*
X19005000Y-10019000D02*
X19025000Y-10039000D01*
X19025000Y-10019000D02*
X19005000Y-10039000D01*
X19439000Y-10857000D02*
X19459000Y-10877000D01*
X19459000Y-10857000D02*
X19439000Y-10877000D01*
X19461074Y-10750074D02*
X19481074Y-10770074D01*
X19481074Y-10750074D02*
X19461074Y-10770074D01*
X19692000Y-10100000D02*
X19712000Y-10120000D01*
X19712000Y-10100000D02*
X19692000Y-10120000D01*
X19911000Y-6081000D02*
X19931000Y-6101000D01*
X19931000Y-6081000D02*
X19911000Y-6101000D01*
X19987536Y-7569226D02*
X20007536Y-7589226D01*
X20007536Y-7569226D02*
X19987536Y-7589226D01*
X20002000Y-8785000D02*
X20022000Y-8805000D01*
X20022000Y-8785000D02*
X20002000Y-8805000D01*
X20033000Y-7516000D02*
X20053000Y-7536000D01*
X20053000Y-7516000D02*
X20033000Y-7536000D01*
X20311000Y-8552500D02*
X20331000Y-8572500D01*
X20331000Y-8552500D02*
X20311000Y-8572500D01*
X20311000Y-8627500D02*
X20331000Y-8647500D01*
X20331000Y-8627500D02*
X20311000Y-8647500D01*
X20534000Y-7832000D02*
X20554000Y-7852000D01*
X20554000Y-7832000D02*
X20534000Y-7852000D01*
X20535000Y-7971000D02*
X20555000Y-7991000D01*
X20555000Y-7971000D02*
X20535000Y-7991000D01*
X12137000Y-8099000D02*
G75*
G02*
X12107000Y-8099000I-15000J0D01*
G01*
X12107000Y-8099000D02*
G75*
G02*
X12137000Y-8099000I15000J0D01*
G01*
X12138000Y-7633000D02*
G75*
G02*
X12108000Y-7633000I-15000J0D01*
G01*
X12108000Y-7633000D02*
G75*
G02*
X12138000Y-7633000I15000J0D01*
G01*
X13063048Y-7894243D02*
G75*
G02*
X13033048Y-7894243I-15000J0D01*
G01*
X13033048Y-7894243D02*
G75*
G02*
X13063048Y-7894243I15000J0D01*
G01*
X13123153Y-7834139D02*
G75*
G02*
X13093153Y-7834139I-15000J0D01*
G01*
X13093153Y-7834139D02*
G75*
G02*
X13123153Y-7834139I15000J0D01*
G01*
X16535250Y-7861000D02*
G75*
G02*
X16505250Y-7861000I-15000J0D01*
G01*
X16505250Y-7861000D02*
G75*
G02*
X16535250Y-7861000I15000J0D01*
G01*
X17861000Y-5478500D02*
G75*
G02*
X17831000Y-5478500I-15000J0D01*
G01*
X17831000Y-5478500D02*
G75*
G02*
X17861000Y-5478500I15000J0D01*
G01*
X17861000Y-5563500D02*
G75*
G02*
X17831000Y-5563500I-15000J0D01*
G01*
X17831000Y-5563500D02*
G75*
G02*
X17861000Y-5563500I15000J0D01*
G01*
X18207948Y-6795052D02*
G75*
G02*
X18177948Y-6795052I-15000J0D01*
G01*
X18177948Y-6795052D02*
G75*
G02*
X18207948Y-6795052I15000J0D01*
G01*
X18268052Y-6734948D02*
G75*
G02*
X18238052Y-6734948I-15000J0D01*
G01*
X18238052Y-6734948D02*
G75*
G02*
X18268052Y-6734948I15000J0D01*
G01*
X20941000Y-8090000D02*
G75*
G02*
X20911000Y-8090000I-15000J0D01*
G01*
X20911000Y-8090000D02*
G75*
G02*
X20941000Y-8090000I15000J0D01*
G01*
X20941663Y-7628000D02*
G75*
G02*
X20911663Y-7628000I-15000J0D01*
G01*
X20911663Y-7628000D02*
G75*
G02*
X20941663Y-7628000I15000J0D01*
G01*
X13905250Y-5705500D02*
X13905250Y-5745500D01*
X13885250Y-5725500D02*
X13925250Y-5725500D01*
X13905250Y-9976500D02*
X13905250Y-10016500D01*
X13885250Y-9996500D02*
X13925250Y-9996500D01*
X13953577Y-5588827D02*
X13953577Y-5628827D01*
X13933577Y-5608827D02*
X13973577Y-5608827D01*
X13953577Y-5822173D02*
X13953577Y-5862173D01*
X13933577Y-5842173D02*
X13973577Y-5842173D01*
X13953577Y-9859827D02*
X13953577Y-9899827D01*
X13933577Y-9879827D02*
X13973577Y-9879827D01*
X13953577Y-10093173D02*
X13953577Y-10133173D01*
X13933577Y-10113173D02*
X13973577Y-10113173D01*
X14070250Y-5540500D02*
X14070250Y-5580500D01*
X14050250Y-5560500D02*
X14090250Y-5560500D01*
X14070250Y-5870500D02*
X14070250Y-5910500D01*
X14050250Y-5890500D02*
X14090250Y-5890500D01*
X14070250Y-9811500D02*
X14070250Y-9851500D01*
X14050250Y-9831500D02*
X14090250Y-9831500D01*
X14070250Y-10141500D02*
X14070250Y-10181500D01*
X14050250Y-10161500D02*
X14090250Y-10161500D01*
X14186923Y-5588827D02*
X14186923Y-5628827D01*
X14166923Y-5608827D02*
X14206923Y-5608827D01*
X14186923Y-5822173D02*
X14186923Y-5862173D01*
X14166923Y-5842173D02*
X14206923Y-5842173D01*
X14186923Y-9859827D02*
X14186923Y-9899827D01*
X14166923Y-9879827D02*
X14206923Y-9879827D01*
X14186923Y-10093173D02*
X14186923Y-10133173D01*
X14166923Y-10113173D02*
X14206923Y-10113173D01*
X14235250Y-5705500D02*
X14235250Y-5745500D01*
X14215250Y-5725500D02*
X14255250Y-5725500D01*
X14235250Y-9976500D02*
X14235250Y-10016500D01*
X14215250Y-9996500D02*
X14255250Y-9996500D01*
X18688000Y-9372000D02*
X18688000Y-9412000D01*
X18668000Y-9392000D02*
X18708000Y-9392000D01*
X18736327Y-9255327D02*
X18736327Y-9295327D01*
X18716327Y-9275327D02*
X18756327Y-9275327D01*
X18736327Y-9488673D02*
X18736327Y-9528673D01*
X18716327Y-9508673D02*
X18756327Y-9508673D01*
X18853000Y-9207000D02*
X18853000Y-9247000D01*
X18833000Y-9227000D02*
X18873000Y-9227000D01*
X18853000Y-9537000D02*
X18853000Y-9577000D01*
X18833000Y-9557000D02*
X18873000Y-9557000D01*
X18969673Y-9255327D02*
X18969673Y-9295327D01*
X18949673Y-9275327D02*
X18989673Y-9275327D01*
X18969673Y-9488673D02*
X18969673Y-9528673D01*
X18949673Y-9508673D02*
X18989673Y-9508673D01*
X19018000Y-9372000D02*
X19018000Y-9412000D01*
X18998000Y-9392000D02*
X19038000Y-9392000D01*
X19755250Y-7841000D02*
X19755250Y-7881000D01*
X19735250Y-7861000D02*
X19775250Y-7861000D01*
X19803577Y-7724327D02*
X19803577Y-7764327D01*
X19783577Y-7744327D02*
X19823577Y-7744327D01*
X19803577Y-7957673D02*
X19803577Y-7997673D01*
X19783577Y-7977673D02*
X19823577Y-7977673D01*
X19920250Y-7676000D02*
X19920250Y-7716000D01*
X19900250Y-7696000D02*
X19940250Y-7696000D01*
X19920250Y-8006000D02*
X19920250Y-8046000D01*
X19900250Y-8026000D02*
X19940250Y-8026000D01*
X20036923Y-7724327D02*
X20036923Y-7764327D01*
X20016923Y-7744327D02*
X20056923Y-7744327D01*
X20036923Y-7957673D02*
X20036923Y-7997673D01*
X20016923Y-7977673D02*
X20056923Y-7977673D01*
X20085250Y-7841000D02*
X20085250Y-7881000D01*
X20065250Y-7861000D02*
X20105250Y-7861000D01*
X12333678Y-9951678D02*
X12333678Y-9916322D01*
X12298322Y-9916322D01*
X12298322Y-9951678D01*
X12333678Y-9951678D01*
X12494678Y-7286678D02*
X12494678Y-7251322D01*
X12459322Y-7251322D01*
X12459322Y-7286678D01*
X12494678Y-7286678D01*
X12671678Y-7311678D02*
X12671678Y-7276322D01*
X12636322Y-7276322D01*
X12636322Y-7311678D01*
X12671678Y-7311678D01*
X12736678Y-8870678D02*
X12736678Y-8835322D01*
X12701322Y-8835322D01*
X12701322Y-8870678D01*
X12736678Y-8870678D01*
X12985678Y-7707678D02*
X12985678Y-7672322D01*
X12950322Y-7672322D01*
X12950322Y-7707678D01*
X12985678Y-7707678D01*
X12989678Y-8058678D02*
X12989678Y-8023322D01*
X12954322Y-8023322D01*
X12954322Y-8058678D01*
X12989678Y-8058678D01*
X13074678Y-7309678D02*
X13074678Y-7274322D01*
X13039322Y-7274322D01*
X13039322Y-7309678D01*
X13074678Y-7309678D01*
X13125678Y-6308678D02*
X13125678Y-6273322D01*
X13090322Y-6273322D01*
X13090322Y-6308678D01*
X13125678Y-6308678D01*
X13181678Y-4808678D02*
X13181678Y-4773322D01*
X13146322Y-4773322D01*
X13146322Y-4808678D01*
X13181678Y-4808678D01*
X13248678Y-5227678D02*
X13248678Y-5192322D01*
X13213322Y-5192322D01*
X13213322Y-5227678D01*
X13248678Y-5227678D01*
X13272678Y-5921678D02*
X13272678Y-5886322D01*
X13237322Y-5886322D01*
X13237322Y-5921678D01*
X13272678Y-5921678D01*
X13324678Y-8030678D02*
X13324678Y-7995322D01*
X13289322Y-7995322D01*
X13289322Y-8030678D01*
X13324678Y-8030678D01*
X13425678Y-11189678D02*
X13425678Y-11154322D01*
X13390322Y-11154322D01*
X13390322Y-11189678D01*
X13425678Y-11189678D01*
X13530678Y-10502678D02*
X13530678Y-10467322D01*
X13495322Y-10467322D01*
X13495322Y-10502678D01*
X13530678Y-10502678D01*
X13726678Y-8228678D02*
X13726678Y-8193322D01*
X13691322Y-8193322D01*
X13691322Y-8228678D01*
X13726678Y-8228678D01*
X13728678Y-10957678D02*
X13728678Y-10922322D01*
X13693322Y-10922322D01*
X13693322Y-10957678D01*
X13728678Y-10957678D01*
X13763678Y-4687678D02*
X13763678Y-4652322D01*
X13728322Y-4652322D01*
X13728322Y-4687678D01*
X13763678Y-4687678D01*
X13981678Y-8019678D02*
X13981678Y-7984322D01*
X13946322Y-7984322D01*
X13946322Y-8019678D01*
X13981678Y-8019678D01*
X14110678Y-7194678D02*
X14110678Y-7159322D01*
X14075322Y-7159322D01*
X14075322Y-7194678D01*
X14110678Y-7194678D01*
X14110678Y-7364678D02*
X14110678Y-7329322D01*
X14075322Y-7329322D01*
X14075322Y-7364678D01*
X14110678Y-7364678D01*
X14142678Y-8019678D02*
X14142678Y-7984322D01*
X14107322Y-7984322D01*
X14107322Y-8019678D01*
X14142678Y-8019678D01*
X14186678Y-4574678D02*
X14186678Y-4539322D01*
X14151322Y-4539322D01*
X14151322Y-4574678D01*
X14186678Y-4574678D01*
X14252678Y-7786678D02*
X14252678Y-7751322D01*
X14217322Y-7751322D01*
X14217322Y-7786678D01*
X14252678Y-7786678D01*
X14346678Y-7786678D02*
X14346678Y-7751322D01*
X14311322Y-7751322D01*
X14311322Y-7786678D01*
X14346678Y-7786678D01*
X14388678Y-5127678D02*
X14388678Y-5092322D01*
X14353322Y-5092322D01*
X14353322Y-5127678D01*
X14388678Y-5127678D01*
X14401968Y-6095963D02*
X14401968Y-6060607D01*
X14366612Y-6060607D01*
X14366612Y-6095963D01*
X14401968Y-6095963D01*
X14454678Y-6176678D02*
X14454678Y-6141322D01*
X14419322Y-6141322D01*
X14419322Y-6176678D01*
X14454678Y-6176678D01*
X14565678Y-10208678D02*
X14565678Y-10173322D01*
X14530322Y-10173322D01*
X14530322Y-10208678D01*
X14565678Y-10208678D01*
X14574678Y-5677678D02*
X14574678Y-5642322D01*
X14539322Y-5642322D01*
X14539322Y-5677678D01*
X14574678Y-5677678D01*
X14576678Y-6514678D02*
X14576678Y-6479322D01*
X14541322Y-6479322D01*
X14541322Y-6514678D01*
X14576678Y-6514678D01*
X14577678Y-6633678D02*
X14577678Y-6598322D01*
X14542322Y-6598322D01*
X14542322Y-6633678D01*
X14577678Y-6633678D01*
X14578678Y-6311678D02*
X14578678Y-6276322D01*
X14543322Y-6276322D01*
X14543322Y-6311678D01*
X14578678Y-6311678D01*
X14580678Y-6874678D02*
X14580678Y-6839322D01*
X14545322Y-6839322D01*
X14545322Y-6874678D01*
X14580678Y-6874678D01*
X14682678Y-10205678D02*
X14682678Y-10170322D01*
X14647322Y-10170322D01*
X14647322Y-10205678D01*
X14682678Y-10205678D01*
X14795678Y-6754678D02*
X14795678Y-6719322D01*
X14760322Y-6719322D01*
X14760322Y-6754678D01*
X14795678Y-6754678D01*
X14797678Y-5473678D02*
X14797678Y-5438322D01*
X14762322Y-5438322D01*
X14762322Y-5473678D01*
X14797678Y-5473678D01*
X14797678Y-5594678D02*
X14797678Y-5559322D01*
X14762322Y-5559322D01*
X14762322Y-5594678D01*
X14797678Y-5594678D01*
X14801180Y-5856180D02*
X14801180Y-5820825D01*
X14765825Y-5820825D01*
X14765825Y-5856180D01*
X14801180Y-5856180D01*
X14836678Y-9939678D02*
X14836678Y-9904322D01*
X14801322Y-9904322D01*
X14801322Y-9939678D01*
X14836678Y-9939678D01*
X14869678Y-10508678D02*
X14869678Y-10473322D01*
X14834322Y-10473322D01*
X14834322Y-10508678D01*
X14869678Y-10508678D01*
X14876678Y-6913678D02*
X14876678Y-6878322D01*
X14841322Y-6878322D01*
X14841322Y-6913678D01*
X14876678Y-6913678D01*
X14877678Y-6633678D02*
X14877678Y-6598322D01*
X14842322Y-6598322D01*
X14842322Y-6633678D01*
X14877678Y-6633678D01*
X14895678Y-5594678D02*
X14895678Y-5559322D01*
X14860322Y-5559322D01*
X14860322Y-5594678D01*
X14895678Y-5594678D01*
X14932678Y-7766678D02*
X14932678Y-7731322D01*
X14897322Y-7731322D01*
X14897322Y-7766678D01*
X14932678Y-7766678D01*
X15040678Y-7767678D02*
X15040678Y-7732322D01*
X15005322Y-7732322D01*
X15005322Y-7767678D01*
X15040678Y-7767678D01*
X15104678Y-5473678D02*
X15104678Y-5438322D01*
X15069322Y-5438322D01*
X15069322Y-5473678D01*
X15104678Y-5473678D01*
X15105678Y-6752678D02*
X15105678Y-6717322D01*
X15070322Y-6717322D01*
X15070322Y-6752678D01*
X15105678Y-6752678D01*
X15112678Y-5925678D02*
X15112678Y-5890322D01*
X15077322Y-5890322D01*
X15077322Y-5925678D01*
X15112678Y-5925678D01*
X15113678Y-6073678D02*
X15113678Y-6038322D01*
X15078322Y-6038322D01*
X15078322Y-6073678D01*
X15113678Y-6073678D01*
X15113678Y-7453678D02*
X15113678Y-7418322D01*
X15078322Y-7418322D01*
X15078322Y-7453678D01*
X15113678Y-7453678D01*
X15119678Y-6993678D02*
X15119678Y-6958322D01*
X15084322Y-6958322D01*
X15084322Y-6993678D01*
X15119678Y-6993678D01*
X15119678Y-7112678D02*
X15119678Y-7077322D01*
X15084322Y-7077322D01*
X15084322Y-7112678D01*
X15119678Y-7112678D01*
X15188678Y-6541678D02*
X15188678Y-6506322D01*
X15153322Y-6506322D01*
X15153322Y-6541678D01*
X15188678Y-6541678D01*
X15217678Y-7523678D02*
X15217678Y-7488322D01*
X15182322Y-7488322D01*
X15182322Y-7523678D01*
X15217678Y-7523678D01*
X15219678Y-6213678D02*
X15219678Y-6178322D01*
X15184322Y-6178322D01*
X15184322Y-6213678D01*
X15219678Y-6213678D01*
X15274678Y-5711678D02*
X15274678Y-5676322D01*
X15239322Y-5676322D01*
X15239322Y-5711678D01*
X15274678Y-5711678D01*
X15274678Y-8225678D02*
X15274678Y-8190322D01*
X15239322Y-8190322D01*
X15239322Y-8225678D01*
X15274678Y-8225678D01*
X15302678Y-7587678D02*
X15302678Y-7552322D01*
X15267322Y-7552322D01*
X15267322Y-7587678D01*
X15302678Y-7587678D01*
X15364678Y-8179678D02*
X15364678Y-8144322D01*
X15329322Y-8144322D01*
X15329322Y-8179678D01*
X15364678Y-8179678D01*
X17954678Y-6038678D02*
X17954678Y-6003322D01*
X17919322Y-6003322D01*
X17919322Y-6038678D01*
X17954678Y-6038678D01*
X17969678Y-6553678D02*
X17969678Y-6518322D01*
X17934322Y-6518322D01*
X17934322Y-6553678D01*
X17969678Y-6553678D01*
X17970678Y-5834678D02*
X17970678Y-5799322D01*
X17935322Y-5799322D01*
X17935322Y-5834678D01*
X17970678Y-5834678D01*
X17970678Y-6672678D02*
X17970678Y-6637322D01*
X17935322Y-6637322D01*
X17935322Y-6672678D01*
X17970678Y-6672678D01*
X17971678Y-6193678D02*
X17971678Y-6158322D01*
X17936322Y-6158322D01*
X17936322Y-6193678D01*
X17971678Y-6193678D01*
X17972678Y-6794678D02*
X17972678Y-6759322D01*
X17937322Y-6759322D01*
X17937322Y-6794678D01*
X17972678Y-6794678D01*
X17973678Y-7274678D02*
X17973678Y-7239322D01*
X17938322Y-7239322D01*
X17938322Y-7274678D01*
X17973678Y-7274678D01*
X17981678Y-7034678D02*
X17981678Y-6999322D01*
X17946322Y-6999322D01*
X17946322Y-7034678D01*
X17981678Y-7034678D01*
X18189678Y-7154678D02*
X18189678Y-7119322D01*
X18154322Y-7119322D01*
X18154322Y-7154678D01*
X18189678Y-7154678D01*
X18190678Y-7393678D02*
X18190678Y-7358322D01*
X18155322Y-7358322D01*
X18155322Y-7393678D01*
X18190678Y-7393678D01*
X18191678Y-5953678D02*
X18191678Y-5918322D01*
X18156322Y-5918322D01*
X18156322Y-5953678D01*
X18191678Y-5953678D01*
X18193678Y-5594678D02*
X18193678Y-5559322D01*
X18158322Y-5559322D01*
X18158322Y-5594678D01*
X18193678Y-5594678D01*
X18195678Y-5714678D02*
X18195678Y-5679322D01*
X18160322Y-5679322D01*
X18160322Y-5714678D01*
X18195678Y-5714678D01*
X18208678Y-6914678D02*
X18208678Y-6879322D01*
X18173322Y-6879322D01*
X18173322Y-6914678D01*
X18208678Y-6914678D01*
X18284678Y-7273678D02*
X18284678Y-7238322D01*
X18249322Y-7238322D01*
X18249322Y-7273678D01*
X18284678Y-7273678D01*
X18286678Y-7154678D02*
X18286678Y-7119322D01*
X18251322Y-7119322D01*
X18251322Y-7154678D01*
X18286678Y-7154678D01*
X18289678Y-7033678D02*
X18289678Y-6998322D01*
X18254322Y-6998322D01*
X18254322Y-7033678D01*
X18289678Y-7033678D01*
X18291678Y-5954678D02*
X18291678Y-5919322D01*
X18256322Y-5919322D01*
X18256322Y-5954678D01*
X18291678Y-5954678D01*
X18293678Y-5714678D02*
X18293678Y-5679322D01*
X18258322Y-5679322D01*
X18258322Y-5714678D01*
X18293678Y-5714678D01*
X18294678Y-5834678D02*
X18294678Y-5799322D01*
X18259322Y-5799322D01*
X18259322Y-5834678D01*
X18294678Y-5834678D01*
X18419678Y-10361678D02*
X18419678Y-10326322D01*
X18384322Y-10326322D01*
X18384322Y-10361678D01*
X18419678Y-10361678D01*
X18420678Y-9948678D02*
X18420678Y-9913322D01*
X18385322Y-9913322D01*
X18385322Y-9948678D01*
X18420678Y-9948678D01*
X18492678Y-6434678D02*
X18492678Y-6399322D01*
X18457322Y-6399322D01*
X18457322Y-6434678D01*
X18492678Y-6434678D01*
X18492678Y-6552678D02*
X18492678Y-6517322D01*
X18457322Y-6517322D01*
X18457322Y-6552678D01*
X18492678Y-6552678D01*
X18493678Y-6194678D02*
X18493678Y-6159322D01*
X18458322Y-6159322D01*
X18458322Y-6194678D01*
X18493678Y-6194678D01*
X18493678Y-7394678D02*
X18493678Y-7359322D01*
X18458322Y-7359322D01*
X18458322Y-7394678D01*
X18493678Y-7394678D01*
X18494678Y-6313678D02*
X18494678Y-6278322D01*
X18459322Y-6278322D01*
X18459322Y-6313678D01*
X18494678Y-6313678D01*
X18494678Y-6795678D02*
X18494678Y-6760322D01*
X18459322Y-6760322D01*
X18459322Y-6795678D01*
X18494678Y-6795678D01*
X18495550Y-6913806D02*
X18495550Y-6878450D01*
X18460194Y-6878450D01*
X18460194Y-6913806D01*
X18495550Y-6913806D01*
X18495678Y-6038678D02*
X18495678Y-6003322D01*
X18460322Y-6003322D01*
X18460322Y-6038678D01*
X18495678Y-6038678D01*
X18495678Y-6673678D02*
X18495678Y-6638322D01*
X18460322Y-6638322D01*
X18460322Y-6673678D01*
X18495678Y-6673678D01*
X18500678Y-5594678D02*
X18500678Y-5559322D01*
X18465322Y-5559322D01*
X18465322Y-5594678D01*
X18500678Y-5594678D01*
X18513678Y-11339678D02*
X18513678Y-11304322D01*
X18478322Y-11304322D01*
X18478322Y-11339678D01*
X18513678Y-11339678D01*
X19227678Y-9946678D02*
X19227678Y-9911322D01*
X19192322Y-9911322D01*
X19192322Y-9946678D01*
X19227678Y-9946678D01*
X19227678Y-10341678D02*
X19227678Y-10306322D01*
X19192322Y-10306322D01*
X19192322Y-10341678D01*
X19227678Y-10341678D01*
X19249678Y-10959678D02*
X19249678Y-10924322D01*
X19214322Y-10924322D01*
X19214322Y-10959678D01*
X19249678Y-10959678D01*
X19654678Y-4563678D02*
X19654678Y-4528322D01*
X19619322Y-4528322D01*
X19619322Y-4563678D01*
X19654678Y-4563678D01*
X19672678Y-6321678D02*
X19672678Y-6286322D01*
X19637322Y-6286322D01*
X19637322Y-6321678D01*
X19672678Y-6321678D01*
X19679678Y-9417678D02*
X19679678Y-9382322D01*
X19644322Y-9382322D01*
X19644322Y-9417678D01*
X19679678Y-9417678D01*
X19752678Y-5156678D02*
X19752678Y-5121322D01*
X19717322Y-5121322D01*
X19717322Y-5156678D01*
X19752678Y-5156678D01*
X19830678Y-5912678D02*
X19830678Y-5877322D01*
X19795322Y-5877322D01*
X19795322Y-5912678D01*
X19830678Y-5912678D01*
X19831678Y-9032678D02*
X19831678Y-8997322D01*
X19796322Y-8997322D01*
X19796322Y-9032678D01*
X19831678Y-9032678D01*
X19841678Y-10985678D02*
X19841678Y-10950322D01*
X19806322Y-10950322D01*
X19806322Y-10985678D01*
X19841678Y-10985678D01*
X19867678Y-5562678D02*
X19867678Y-5527322D01*
X19832322Y-5527322D01*
X19832322Y-5562678D01*
X19867678Y-5562678D01*
X20178678Y-7055678D02*
X20178678Y-7020322D01*
X20143322Y-7020322D01*
X20143322Y-7055678D01*
X20178678Y-7055678D01*
X20290678Y-6780678D02*
X20290678Y-6745322D01*
X20255322Y-6745322D01*
X20255322Y-6780678D01*
X20290678Y-6780678D01*
X20340678Y-8868678D02*
X20340678Y-8833322D01*
X20305322Y-8833322D01*
X20305322Y-8868678D01*
X20340678Y-8868678D01*
X20484678Y-7694678D02*
X20484678Y-7659322D01*
X20449322Y-7659322D01*
X20449322Y-7694678D01*
X20484678Y-7694678D01*
X20501192Y-8072192D02*
X20501192Y-8036836D01*
X20465836Y-8036836D01*
X20465836Y-8072192D01*
X20501192Y-8072192D01*
X20593678Y-7247678D02*
X20593678Y-7212322D01*
X20558322Y-7212322D01*
X20558322Y-7247678D01*
X20593678Y-7247678D01*
X20994678Y-7234678D02*
X20994678Y-7199322D01*
X20959322Y-7199322D01*
X20959322Y-7234678D01*
X20994678Y-7234678D01*
X20994678Y-8529678D02*
X20994678Y-8494322D01*
X20959322Y-8494322D01*
X20959322Y-8529678D01*
X20994678Y-8529678D01*
X11820000Y-8329000D02*
X11852500Y-8296500D01*
X11820000Y-8264000D01*
X11787500Y-8296500D01*
X11820000Y-8329000D01*
X11782500Y-8329000D02*
X11857500Y-8329000D01*
X11857500Y-8264000D02*
G75*
G02*
X11857500Y-8329000I0J-32500D01*
G01*
X11857500Y-8264000D02*
X11782500Y-8264000D01*
X11782500Y-8264000D02*
G75*
G03*
X11782500Y-8329000I0J-32500D01*
G01*
X12237000Y-7464000D02*
X12269500Y-7431500D01*
X12237000Y-7399000D01*
X12204500Y-7431500D01*
X12237000Y-7464000D01*
X12184500Y-7464000D02*
X12289500Y-7464000D01*
X12289500Y-7399000D02*
G75*
G02*
X12289500Y-7464000I0J-32500D01*
G01*
X12289500Y-7399000D02*
X12184500Y-7399000D01*
X12184500Y-7399000D02*
G75*
G03*
X12184500Y-7464000I0J-32500D01*
G01*
X12237000Y-8329000D02*
X12269500Y-8296500D01*
X12237000Y-8264000D01*
X12204500Y-8296500D01*
X12237000Y-8329000D01*
X12184500Y-8329000D02*
X12289500Y-8329000D01*
X12289500Y-8264000D02*
G75*
G02*
X12289500Y-8329000I0J-32500D01*
G01*
X12289500Y-8264000D02*
X12184500Y-8264000D01*
X12184500Y-8264000D02*
G75*
G03*
X12184500Y-8329000I0J-32500D01*
G01*
X20817000Y-7463000D02*
X20849500Y-7430500D01*
X20817000Y-7398000D01*
X20784500Y-7430500D01*
X20817000Y-7463000D01*
X20869500Y-7398000D02*
X20764500Y-7398000D01*
X20764500Y-7463000D02*
G75*
G02*
X20764500Y-7398000I0J32500D01*
G01*
X20764500Y-7463000D02*
X20869500Y-7463000D01*
X20869500Y-7463000D02*
G75*
G03*
X20869500Y-7398000I0J32500D01*
G01*
X20817000Y-8328000D02*
X20849500Y-8295500D01*
X20817000Y-8263000D01*
X20784500Y-8295500D01*
X20817000Y-8328000D01*
X20869500Y-8263000D02*
X20764500Y-8263000D01*
X20764500Y-8328000D02*
G75*
G02*
X20764500Y-8263000I0J32500D01*
G01*
X20764500Y-8328000D02*
X20869500Y-8328000D01*
X20869500Y-8328000D02*
G75*
G03*
X20869500Y-8263000I0J32500D01*
G01*
X21234000Y-7463000D02*
X21266500Y-7430500D01*
X21234000Y-7398000D01*
X21201500Y-7430500D01*
X21234000Y-7463000D01*
X21271500Y-7398000D02*
X21196500Y-7398000D01*
X21196500Y-7463000D02*
G75*
G02*
X21196500Y-7398000I0J32500D01*
G01*
X21196500Y-7463000D02*
X21271500Y-7463000D01*
X21271500Y-7463000D02*
G75*
G03*
X21271500Y-7398000I0J32500D01*
G01*
X11787250Y-7398750D02*
X11852750Y-7464250D01*
X11852750Y-7398750D02*
X11787250Y-7464250D01*
X11852750Y-7431500D02*
G75*
G02*
X11787250Y-7431500I-32750J0D01*
G01*
X11787250Y-7431500D02*
G75*
G02*
X11852750Y-7431500I32750J0D01*
G01*
X11782750Y-7464250D02*
X11857250Y-7464250D01*
X11857250Y-7398750D02*
G75*
G02*
X11857250Y-7464250I0J-32750D01*
G01*
X11857250Y-7398750D02*
X11782750Y-7398750D01*
X11782750Y-7398750D02*
G75*
G03*
X11782750Y-7464250I0J-32750D01*
G01*
X21201250Y-8262750D02*
X21266750Y-8328250D01*
X21266750Y-8262750D02*
X21201250Y-8328250D01*
X21266750Y-8295500D02*
G75*
G02*
X21201250Y-8295500I-32750J0D01*
G01*
X21201250Y-8295500D02*
G75*
G02*
X21266750Y-8295500I32750J0D01*
G01*
X21271250Y-8262750D02*
X21196750Y-8262750D01*
X21196750Y-8328250D02*
G75*
G02*
X21196750Y-8262750I0J32750D01*
G01*
X21196750Y-8328250D02*
X21271250Y-8328250D01*
X21271250Y-8328250D02*
G75*
G03*
X21271250Y-8262750I0J32750D01*
G01*
D12*
X15669000Y-12171000D02*
X15799000Y-12301000D01*
X15799000Y-12171000D02*
X15669000Y-12301000D01*
X15734000Y-12171000D02*
X15734000Y-12301000D01*
X15669000Y-12236000D02*
X15799000Y-12236000D01*
X15669000Y-12425000D02*
X15799000Y-12555000D01*
X15799000Y-12425000D02*
X15669000Y-12555000D01*
X15734000Y-12425000D02*
X15734000Y-12555000D01*
X15669000Y-12490000D02*
X15799000Y-12490000D01*
X15923000Y-12171000D02*
X16053000Y-12301000D01*
X16053000Y-12171000D02*
X15923000Y-12301000D01*
X15988000Y-12171000D02*
X15988000Y-12301000D01*
X15923000Y-12236000D02*
X16053000Y-12236000D01*
X15923000Y-12425000D02*
X16053000Y-12555000D01*
X16053000Y-12425000D02*
X15923000Y-12555000D01*
X15988000Y-12425000D02*
X15988000Y-12555000D01*
X15923000Y-12490000D02*
X16053000Y-12490000D01*
X16177000Y-12171000D02*
X16307000Y-12301000D01*
X16307000Y-12171000D02*
X16177000Y-12301000D01*
X16242000Y-12171000D02*
X16242000Y-12301000D01*
X16177000Y-12236000D02*
X16307000Y-12236000D01*
X16177000Y-12425000D02*
X16307000Y-12555000D01*
X16307000Y-12425000D02*
X16177000Y-12555000D01*
X16242000Y-12425000D02*
X16242000Y-12555000D01*
X16177000Y-12490000D02*
X16307000Y-12490000D01*
X16431000Y-12171000D02*
X16561000Y-12301000D01*
X16561000Y-12171000D02*
X16431000Y-12301000D01*
X16496000Y-12171000D02*
X16496000Y-12301000D01*
X16431000Y-12236000D02*
X16561000Y-12236000D01*
X16431000Y-12425000D02*
X16561000Y-12555000D01*
X16561000Y-12425000D02*
X16431000Y-12555000D01*
X16496000Y-12425000D02*
X16496000Y-12555000D01*
X16431000Y-12490000D02*
X16561000Y-12490000D01*
X16685000Y-12171000D02*
X16815000Y-12301000D01*
X16815000Y-12171000D02*
X16685000Y-12301000D01*
X16750000Y-12171000D02*
X16750000Y-12301000D01*
X16685000Y-12236000D02*
X16815000Y-12236000D01*
X16685000Y-12425000D02*
X16815000Y-12555000D01*
X16815000Y-12425000D02*
X16685000Y-12555000D01*
X16750000Y-12425000D02*
X16750000Y-12555000D01*
X16685000Y-12490000D02*
X16815000Y-12490000D01*
X16939000Y-12171000D02*
X17069000Y-12301000D01*
X17069000Y-12171000D02*
X16939000Y-12301000D01*
X17004000Y-12171000D02*
X17004000Y-12301000D01*
X16939000Y-12236000D02*
X17069000Y-12236000D01*
X16939000Y-12425000D02*
X17069000Y-12555000D01*
X17069000Y-12425000D02*
X16939000Y-12555000D01*
X17004000Y-12425000D02*
X17004000Y-12555000D01*
X16939000Y-12490000D02*
X17069000Y-12490000D01*
X17193000Y-12171000D02*
X17323000Y-12301000D01*
X17323000Y-12171000D02*
X17193000Y-12301000D01*
X17258000Y-12171000D02*
X17258000Y-12301000D01*
X17193000Y-12236000D02*
X17323000Y-12236000D01*
X17193000Y-12425000D02*
X17323000Y-12555000D01*
X17323000Y-12425000D02*
X17193000Y-12555000D01*
X17258000Y-12425000D02*
X17258000Y-12555000D01*
X17193000Y-12490000D02*
X17323000Y-12490000D01*
D13*
X15148255Y-10271000D02*
X15298255Y-10421000D01*
X15298255Y-10271000D02*
X15148255Y-10421000D01*
X15276288Y-10399034D02*
X15276288Y-10292967D01*
X15170221Y-10292967D01*
X15170221Y-10399034D01*
X15276288Y-10399034D01*
X17228255Y-10271000D02*
X17378255Y-10421000D01*
X17378255Y-10271000D02*
X17228255Y-10421000D01*
X17356288Y-10399034D02*
X17356288Y-10292967D01*
X17250221Y-10292967D01*
X17250221Y-10399034D01*
X17356288Y-10399034D01*
D14*
X13960250Y-5615500D02*
X14180250Y-5835500D01*
X14180250Y-5615500D02*
X13960250Y-5835500D01*
X14070250Y-5835500D02*
X14180250Y-5725500D01*
X14070250Y-5615500D01*
X13960250Y-5725500D01*
X14070250Y-5835500D01*
X13960250Y-9886500D02*
X14180250Y-10106500D01*
X14180250Y-9886500D02*
X13960250Y-10106500D01*
X14070250Y-10106500D02*
X14180250Y-9996500D01*
X14070250Y-9886500D01*
X13960250Y-9996500D01*
X14070250Y-10106500D01*
X18743000Y-9282000D02*
X18963000Y-9502000D01*
X18963000Y-9282000D02*
X18743000Y-9502000D01*
X18853000Y-9502000D02*
X18963000Y-9392000D01*
X18853000Y-9282000D01*
X18743000Y-9392000D01*
X18853000Y-9502000D01*
X19810250Y-7751000D02*
X20030250Y-7971000D01*
X20030250Y-7751000D02*
X19810250Y-7971000D01*
X19920250Y-7971000D02*
X20030250Y-7861000D01*
X19920250Y-7751000D01*
X19810250Y-7861000D01*
X19920250Y-7971000D01*
D15*
X14871416Y-3651540D02*
X14871416Y-3921540D01*
X14736416Y-3786540D02*
X15006416Y-3786540D01*
X15006416Y-3786540D02*
G75*
G02*
X14736416Y-3786540I-135000J0D01*
G01*
X14736416Y-3786540D02*
G75*
G02*
X15006416Y-3786540I135000J0D01*
G01*
X14871416Y-8451541D02*
X14871416Y-8721541D01*
X14736416Y-8586541D02*
X15006416Y-8586541D01*
X15006416Y-8586541D02*
G75*
G02*
X14736416Y-8586541I-135000J0D01*
G01*
X14736416Y-8586541D02*
G75*
G02*
X15006416Y-8586541I135000J0D01*
G01*
X18171416Y-3651540D02*
X18171416Y-3921540D01*
X18036416Y-3786540D02*
X18306416Y-3786540D01*
X18306416Y-3786540D02*
G75*
G02*
X18036416Y-3786540I-135000J0D01*
G01*
X18036416Y-3786540D02*
G75*
G02*
X18306416Y-3786540I135000J0D01*
G01*
X18171416Y-8451541D02*
X18171416Y-8721541D01*
X18036416Y-8586541D02*
X18306416Y-8586541D01*
X18306416Y-8586541D02*
G75*
G02*
X18036416Y-8586541I-135000J0D01*
G01*
X18036416Y-8586541D02*
G75*
G02*
X18306416Y-8586541I135000J0D01*
G01*
D10*
X11871027Y-13082484D02*
X11871027Y-12882484D01*
X11871027Y-12882484D02*
X11918646Y-12882484D01*
X11918646Y-12882484D02*
X11947217Y-12892008D01*
X11947217Y-12892008D02*
X11966265Y-12911055D01*
X11966265Y-12911055D02*
X11975789Y-12930103D01*
X11975789Y-12930103D02*
X11985312Y-12968198D01*
X11985312Y-12968198D02*
X11985312Y-12996769D01*
X11985312Y-12996769D02*
X11975789Y-13034865D01*
X11975789Y-13034865D02*
X11966265Y-13053912D01*
X11966265Y-13053912D02*
X11947217Y-13072960D01*
X11947217Y-13072960D02*
X11918646Y-13082484D01*
X11918646Y-13082484D02*
X11871027Y-13082484D01*
X12071027Y-13082484D02*
X12071027Y-12949150D01*
X12071027Y-12987246D02*
X12080551Y-12968198D01*
X12080551Y-12968198D02*
X12090074Y-12958674D01*
X12090074Y-12958674D02*
X12109122Y-12949150D01*
X12109122Y-12949150D02*
X12128170Y-12949150D01*
X12194836Y-13082484D02*
X12194836Y-12949150D01*
X12194836Y-12882484D02*
X12185312Y-12892008D01*
X12185312Y-12892008D02*
X12194836Y-12901531D01*
X12194836Y-12901531D02*
X12204360Y-12892008D01*
X12204360Y-12892008D02*
X12194836Y-12882484D01*
X12194836Y-12882484D02*
X12194836Y-12901531D01*
X12318646Y-13082484D02*
X12299598Y-13072960D01*
X12299598Y-13072960D02*
X12290074Y-13053912D01*
X12290074Y-13053912D02*
X12290074Y-12882484D01*
X12423408Y-13082484D02*
X12404360Y-13072960D01*
X12404360Y-13072960D02*
X12394836Y-13053912D01*
X12394836Y-13053912D02*
X12394836Y-12882484D01*
X12651979Y-13082484D02*
X12651979Y-12882484D01*
X12651979Y-12882484D02*
X12718646Y-13025341D01*
X12718646Y-13025341D02*
X12785312Y-12882484D01*
X12785312Y-12882484D02*
X12785312Y-13082484D01*
X12966265Y-13082484D02*
X12966265Y-12977722D01*
X12966265Y-12977722D02*
X12956741Y-12958674D01*
X12956741Y-12958674D02*
X12937693Y-12949150D01*
X12937693Y-12949150D02*
X12899598Y-12949150D01*
X12899598Y-12949150D02*
X12880551Y-12958674D01*
X12966265Y-13072960D02*
X12947217Y-13082484D01*
X12947217Y-13082484D02*
X12899598Y-13082484D01*
X12899598Y-13082484D02*
X12880551Y-13072960D01*
X12880551Y-13072960D02*
X12871027Y-13053912D01*
X12871027Y-13053912D02*
X12871027Y-13034865D01*
X12871027Y-13034865D02*
X12880551Y-13015817D01*
X12880551Y-13015817D02*
X12899598Y-13006293D01*
X12899598Y-13006293D02*
X12947217Y-13006293D01*
X12947217Y-13006293D02*
X12966265Y-12996769D01*
X13061503Y-12949150D02*
X13061503Y-13149150D01*
X13061503Y-12958674D02*
X13080551Y-12949150D01*
X13080551Y-12949150D02*
X13118646Y-12949150D01*
X13118646Y-12949150D02*
X13137693Y-12958674D01*
X13137693Y-12958674D02*
X13147217Y-12968198D01*
X13147217Y-12968198D02*
X13156741Y-12987246D01*
X13156741Y-12987246D02*
X13156741Y-13044388D01*
X13156741Y-13044388D02*
X13147217Y-13063436D01*
X13147217Y-13063436D02*
X13137693Y-13072960D01*
X13137693Y-13072960D02*
X13118646Y-13082484D01*
X13118646Y-13082484D02*
X13080551Y-13082484D01*
X13080551Y-13082484D02*
X13061503Y-13072960D01*
X13242455Y-13063436D02*
X13251979Y-13072960D01*
X13251979Y-13072960D02*
X13242455Y-13082484D01*
X13242455Y-13082484D02*
X13232932Y-13072960D01*
X13232932Y-13072960D02*
X13242455Y-13063436D01*
X13242455Y-13063436D02*
X13242455Y-13082484D01*
X13242455Y-12958674D02*
X13251979Y-12968198D01*
X13251979Y-12968198D02*
X13242455Y-12977722D01*
X13242455Y-12977722D02*
X13232932Y-12968198D01*
X13232932Y-12968198D02*
X13242455Y-12958674D01*
X13242455Y-12958674D02*
X13242455Y-12977722D01*
D11*
X11590250Y-13401000D02*
X11610250Y-13421000D01*
X11610250Y-13401000D02*
X11590250Y-13421000D01*
D10*
X11909122Y-13302484D02*
X11928170Y-13302484D01*
X11928170Y-13302484D02*
X11947217Y-13312008D01*
X11947217Y-13312008D02*
X11956741Y-13321531D01*
X11956741Y-13321531D02*
X11966265Y-13340579D01*
X11966265Y-13340579D02*
X11975789Y-13378674D01*
X11975789Y-13378674D02*
X11975789Y-13426293D01*
X11975789Y-13426293D02*
X11966265Y-13464388D01*
X11966265Y-13464388D02*
X11956741Y-13483436D01*
X11956741Y-13483436D02*
X11947217Y-13492960D01*
X11947217Y-13492960D02*
X11928170Y-13502484D01*
X11928170Y-13502484D02*
X11909122Y-13502484D01*
X11909122Y-13502484D02*
X11890074Y-13492960D01*
X11890074Y-13492960D02*
X11880551Y-13483436D01*
X11880551Y-13483436D02*
X11871027Y-13464388D01*
X11871027Y-13464388D02*
X11861503Y-13426293D01*
X11861503Y-13426293D02*
X11861503Y-13378674D01*
X11861503Y-13378674D02*
X11871027Y-13340579D01*
X11871027Y-13340579D02*
X11880551Y-13321531D01*
X11880551Y-13321531D02*
X11890074Y-13312008D01*
X11890074Y-13312008D02*
X11909122Y-13302484D01*
X12061503Y-13483436D02*
X12071027Y-13492960D01*
X12071027Y-13492960D02*
X12061503Y-13502484D01*
X12061503Y-13502484D02*
X12051979Y-13492960D01*
X12051979Y-13492960D02*
X12061503Y-13483436D01*
X12061503Y-13483436D02*
X12061503Y-13502484D01*
X12147217Y-13321531D02*
X12156741Y-13312008D01*
X12156741Y-13312008D02*
X12175789Y-13302484D01*
X12175789Y-13302484D02*
X12223408Y-13302484D01*
X12223408Y-13302484D02*
X12242455Y-13312008D01*
X12242455Y-13312008D02*
X12251979Y-13321531D01*
X12251979Y-13321531D02*
X12261503Y-13340579D01*
X12261503Y-13340579D02*
X12261503Y-13359627D01*
X12261503Y-13359627D02*
X12251979Y-13388198D01*
X12251979Y-13388198D02*
X12137693Y-13502484D01*
X12137693Y-13502484D02*
X12261503Y-13502484D01*
X12385312Y-13302484D02*
X12404360Y-13302484D01*
X12404360Y-13302484D02*
X12423408Y-13312008D01*
X12423408Y-13312008D02*
X12432932Y-13321531D01*
X12432932Y-13321531D02*
X12442455Y-13340579D01*
X12442455Y-13340579D02*
X12451979Y-13378674D01*
X12451979Y-13378674D02*
X12451979Y-13426293D01*
X12451979Y-13426293D02*
X12442455Y-13464388D01*
X12442455Y-13464388D02*
X12432932Y-13483436D01*
X12432932Y-13483436D02*
X12423408Y-13492960D01*
X12423408Y-13492960D02*
X12404360Y-13502484D01*
X12404360Y-13502484D02*
X12385312Y-13502484D01*
X12385312Y-13502484D02*
X12366265Y-13492960D01*
X12366265Y-13492960D02*
X12356741Y-13483436D01*
X12356741Y-13483436D02*
X12347217Y-13464388D01*
X12347217Y-13464388D02*
X12337693Y-13426293D01*
X12337693Y-13426293D02*
X12337693Y-13378674D01*
X12337693Y-13378674D02*
X12347217Y-13340579D01*
X12347217Y-13340579D02*
X12356741Y-13321531D01*
X12356741Y-13321531D02*
X12366265Y-13312008D01*
X12366265Y-13312008D02*
X12385312Y-13302484D01*
X12575789Y-13302484D02*
X12594836Y-13302484D01*
X12594836Y-13302484D02*
X12613884Y-13312008D01*
X12613884Y-13312008D02*
X12623408Y-13321531D01*
X12623408Y-13321531D02*
X12632932Y-13340579D01*
X12632932Y-13340579D02*
X12642455Y-13378674D01*
X12642455Y-13378674D02*
X12642455Y-13426293D01*
X12642455Y-13426293D02*
X12632932Y-13464388D01*
X12632932Y-13464388D02*
X12623408Y-13483436D01*
X12623408Y-13483436D02*
X12613884Y-13492960D01*
X12613884Y-13492960D02*
X12594836Y-13502484D01*
X12594836Y-13502484D02*
X12575789Y-13502484D01*
X12575789Y-13502484D02*
X12556741Y-13492960D01*
X12556741Y-13492960D02*
X12547217Y-13483436D01*
X12547217Y-13483436D02*
X12537693Y-13464388D01*
X12537693Y-13464388D02*
X12528170Y-13426293D01*
X12528170Y-13426293D02*
X12528170Y-13378674D01*
X12528170Y-13378674D02*
X12537693Y-13340579D01*
X12537693Y-13340579D02*
X12547217Y-13321531D01*
X12547217Y-13321531D02*
X12556741Y-13312008D01*
X12556741Y-13312008D02*
X12575789Y-13302484D01*
X12728170Y-13502484D02*
X12728170Y-13369150D01*
X12728170Y-13388198D02*
X12737693Y-13378674D01*
X12737693Y-13378674D02*
X12756741Y-13369150D01*
X12756741Y-13369150D02*
X12785313Y-13369150D01*
X12785313Y-13369150D02*
X12804360Y-13378674D01*
X12804360Y-13378674D02*
X12813884Y-13397722D01*
X12813884Y-13397722D02*
X12813884Y-13502484D01*
X12813884Y-13397722D02*
X12823408Y-13378674D01*
X12823408Y-13378674D02*
X12842455Y-13369150D01*
X12842455Y-13369150D02*
X12871027Y-13369150D01*
X12871027Y-13369150D02*
X12890074Y-13378674D01*
X12890074Y-13378674D02*
X12899598Y-13397722D01*
X12899598Y-13397722D02*
X12899598Y-13502484D01*
X12994836Y-13502484D02*
X12994836Y-13369150D01*
X12994836Y-13388198D02*
X13004360Y-13378674D01*
X13004360Y-13378674D02*
X13023408Y-13369150D01*
X13023408Y-13369150D02*
X13051979Y-13369150D01*
X13051979Y-13369150D02*
X13071027Y-13378674D01*
X13071027Y-13378674D02*
X13080551Y-13397722D01*
X13080551Y-13397722D02*
X13080551Y-13502484D01*
X13080551Y-13397722D02*
X13090074Y-13378674D01*
X13090074Y-13378674D02*
X13109122Y-13369150D01*
X13109122Y-13369150D02*
X13137693Y-13369150D01*
X13137693Y-13369150D02*
X13156741Y-13378674D01*
X13156741Y-13378674D02*
X13166265Y-13397722D01*
X13166265Y-13397722D02*
X13166265Y-13502484D01*
X13556741Y-13292960D02*
X13385313Y-13550103D01*
X13813884Y-13302484D02*
X13832932Y-13302484D01*
X13832932Y-13302484D02*
X13851979Y-13312008D01*
X13851979Y-13312008D02*
X13861503Y-13321531D01*
X13861503Y-13321531D02*
X13871027Y-13340579D01*
X13871027Y-13340579D02*
X13880551Y-13378674D01*
X13880551Y-13378674D02*
X13880551Y-13426293D01*
X13880551Y-13426293D02*
X13871027Y-13464388D01*
X13871027Y-13464388D02*
X13861503Y-13483436D01*
X13861503Y-13483436D02*
X13851979Y-13492960D01*
X13851979Y-13492960D02*
X13832932Y-13502484D01*
X13832932Y-13502484D02*
X13813884Y-13502484D01*
X13813884Y-13502484D02*
X13794836Y-13492960D01*
X13794836Y-13492960D02*
X13785313Y-13483436D01*
X13785313Y-13483436D02*
X13775789Y-13464388D01*
X13775789Y-13464388D02*
X13766265Y-13426293D01*
X13766265Y-13426293D02*
X13766265Y-13378674D01*
X13766265Y-13378674D02*
X13775789Y-13340579D01*
X13775789Y-13340579D02*
X13785313Y-13321531D01*
X13785313Y-13321531D02*
X13794836Y-13312008D01*
X13794836Y-13312008D02*
X13813884Y-13302484D01*
X13966265Y-13483436D02*
X13975789Y-13492960D01*
X13975789Y-13492960D02*
X13966265Y-13502484D01*
X13966265Y-13502484D02*
X13956741Y-13492960D01*
X13956741Y-13492960D02*
X13966265Y-13483436D01*
X13966265Y-13483436D02*
X13966265Y-13502484D01*
X14099598Y-13302484D02*
X14118646Y-13302484D01*
X14118646Y-13302484D02*
X14137694Y-13312008D01*
X14137694Y-13312008D02*
X14147217Y-13321531D01*
X14147217Y-13321531D02*
X14156741Y-13340579D01*
X14156741Y-13340579D02*
X14166265Y-13378674D01*
X14166265Y-13378674D02*
X14166265Y-13426293D01*
X14166265Y-13426293D02*
X14156741Y-13464388D01*
X14156741Y-13464388D02*
X14147217Y-13483436D01*
X14147217Y-13483436D02*
X14137694Y-13492960D01*
X14137694Y-13492960D02*
X14118646Y-13502484D01*
X14118646Y-13502484D02*
X14099598Y-13502484D01*
X14099598Y-13502484D02*
X14080551Y-13492960D01*
X14080551Y-13492960D02*
X14071027Y-13483436D01*
X14071027Y-13483436D02*
X14061503Y-13464388D01*
X14061503Y-13464388D02*
X14051979Y-13426293D01*
X14051979Y-13426293D02*
X14051979Y-13378674D01*
X14051979Y-13378674D02*
X14061503Y-13340579D01*
X14061503Y-13340579D02*
X14071027Y-13321531D01*
X14071027Y-13321531D02*
X14080551Y-13312008D01*
X14080551Y-13312008D02*
X14099598Y-13302484D01*
X14290075Y-13302484D02*
X14309122Y-13302484D01*
X14309122Y-13302484D02*
X14328170Y-13312008D01*
X14328170Y-13312008D02*
X14337694Y-13321531D01*
X14337694Y-13321531D02*
X14347217Y-13340579D01*
X14347217Y-13340579D02*
X14356741Y-13378674D01*
X14356741Y-13378674D02*
X14356741Y-13426293D01*
X14356741Y-13426293D02*
X14347217Y-13464388D01*
X14347217Y-13464388D02*
X14337694Y-13483436D01*
X14337694Y-13483436D02*
X14328170Y-13492960D01*
X14328170Y-13492960D02*
X14309122Y-13502484D01*
X14309122Y-13502484D02*
X14290075Y-13502484D01*
X14290075Y-13502484D02*
X14271027Y-13492960D01*
X14271027Y-13492960D02*
X14261503Y-13483436D01*
X14261503Y-13483436D02*
X14251979Y-13464388D01*
X14251979Y-13464388D02*
X14242456Y-13426293D01*
X14242456Y-13426293D02*
X14242456Y-13378674D01*
X14242456Y-13378674D02*
X14251979Y-13340579D01*
X14251979Y-13340579D02*
X14261503Y-13321531D01*
X14261503Y-13321531D02*
X14271027Y-13312008D01*
X14271027Y-13312008D02*
X14290075Y-13302484D01*
X14423408Y-13302484D02*
X14556741Y-13302484D01*
X14556741Y-13302484D02*
X14471027Y-13502484D01*
X14642456Y-13502484D02*
X14680551Y-13502484D01*
X14680551Y-13502484D02*
X14699598Y-13492960D01*
X14699598Y-13492960D02*
X14709122Y-13483436D01*
X14709122Y-13483436D02*
X14728170Y-13454865D01*
X14728170Y-13454865D02*
X14737694Y-13416769D01*
X14737694Y-13416769D02*
X14737694Y-13340579D01*
X14737694Y-13340579D02*
X14728170Y-13321531D01*
X14728170Y-13321531D02*
X14718646Y-13312008D01*
X14718646Y-13312008D02*
X14699598Y-13302484D01*
X14699598Y-13302484D02*
X14661503Y-13302484D01*
X14661503Y-13302484D02*
X14642456Y-13312008D01*
X14642456Y-13312008D02*
X14632932Y-13321531D01*
X14632932Y-13321531D02*
X14623408Y-13340579D01*
X14623408Y-13340579D02*
X14623408Y-13388198D01*
X14623408Y-13388198D02*
X14632932Y-13407246D01*
X14632932Y-13407246D02*
X14642456Y-13416769D01*
X14642456Y-13416769D02*
X14661503Y-13426293D01*
X14661503Y-13426293D02*
X14699598Y-13426293D01*
X14699598Y-13426293D02*
X14718646Y-13416769D01*
X14718646Y-13416769D02*
X14728170Y-13407246D01*
X14728170Y-13407246D02*
X14737694Y-13388198D01*
X14813884Y-13302484D02*
X14813884Y-13340579D01*
X14890075Y-13302484D02*
X14890075Y-13340579D01*
X15185313Y-13578674D02*
X15175789Y-13569150D01*
X15175789Y-13569150D02*
X15156741Y-13540579D01*
X15156741Y-13540579D02*
X15147218Y-13521531D01*
X15147218Y-13521531D02*
X15137694Y-13492960D01*
X15137694Y-13492960D02*
X15128170Y-13445341D01*
X15128170Y-13445341D02*
X15128170Y-13407246D01*
X15128170Y-13407246D02*
X15137694Y-13359627D01*
X15137694Y-13359627D02*
X15147218Y-13331055D01*
X15147218Y-13331055D02*
X15156741Y-13312008D01*
X15156741Y-13312008D02*
X15175789Y-13283436D01*
X15175789Y-13283436D02*
X15185313Y-13273912D01*
X15347218Y-13302484D02*
X15309122Y-13302484D01*
X15309122Y-13302484D02*
X15290075Y-13312008D01*
X15290075Y-13312008D02*
X15280551Y-13321531D01*
X15280551Y-13321531D02*
X15261503Y-13350103D01*
X15261503Y-13350103D02*
X15251979Y-13388198D01*
X15251979Y-13388198D02*
X15251979Y-13464388D01*
X15251979Y-13464388D02*
X15261503Y-13483436D01*
X15261503Y-13483436D02*
X15271027Y-13492960D01*
X15271027Y-13492960D02*
X15290075Y-13502484D01*
X15290075Y-13502484D02*
X15328170Y-13502484D01*
X15328170Y-13502484D02*
X15347218Y-13492960D01*
X15347218Y-13492960D02*
X15356741Y-13483436D01*
X15356741Y-13483436D02*
X15366265Y-13464388D01*
X15366265Y-13464388D02*
X15366265Y-13416769D01*
X15366265Y-13416769D02*
X15356741Y-13397722D01*
X15356741Y-13397722D02*
X15347218Y-13388198D01*
X15347218Y-13388198D02*
X15328170Y-13378674D01*
X15328170Y-13378674D02*
X15290075Y-13378674D01*
X15290075Y-13378674D02*
X15271027Y-13388198D01*
X15271027Y-13388198D02*
X15261503Y-13397722D01*
X15261503Y-13397722D02*
X15251979Y-13416769D01*
X15480551Y-13388198D02*
X15461503Y-13378674D01*
X15461503Y-13378674D02*
X15451979Y-13369150D01*
X15451979Y-13369150D02*
X15442456Y-13350103D01*
X15442456Y-13350103D02*
X15442456Y-13340579D01*
X15442456Y-13340579D02*
X15451979Y-13321531D01*
X15451979Y-13321531D02*
X15461503Y-13312008D01*
X15461503Y-13312008D02*
X15480551Y-13302484D01*
X15480551Y-13302484D02*
X15518646Y-13302484D01*
X15518646Y-13302484D02*
X15537694Y-13312008D01*
X15537694Y-13312008D02*
X15547218Y-13321531D01*
X15547218Y-13321531D02*
X15556741Y-13340579D01*
X15556741Y-13340579D02*
X15556741Y-13350103D01*
X15556741Y-13350103D02*
X15547218Y-13369150D01*
X15547218Y-13369150D02*
X15537694Y-13378674D01*
X15537694Y-13378674D02*
X15518646Y-13388198D01*
X15518646Y-13388198D02*
X15480551Y-13388198D01*
X15480551Y-13388198D02*
X15461503Y-13397722D01*
X15461503Y-13397722D02*
X15451979Y-13407246D01*
X15451979Y-13407246D02*
X15442456Y-13426293D01*
X15442456Y-13426293D02*
X15442456Y-13464388D01*
X15442456Y-13464388D02*
X15451979Y-13483436D01*
X15451979Y-13483436D02*
X15461503Y-13492960D01*
X15461503Y-13492960D02*
X15480551Y-13502484D01*
X15480551Y-13502484D02*
X15518646Y-13502484D01*
X15518646Y-13502484D02*
X15537694Y-13492960D01*
X15537694Y-13492960D02*
X15547218Y-13483436D01*
X15547218Y-13483436D02*
X15556741Y-13464388D01*
X15556741Y-13464388D02*
X15556741Y-13426293D01*
X15556741Y-13426293D02*
X15547218Y-13407246D01*
X15547218Y-13407246D02*
X15537694Y-13397722D01*
X15537694Y-13397722D02*
X15518646Y-13388198D01*
X15794837Y-13502484D02*
X15794837Y-13302484D01*
X15880551Y-13502484D02*
X15880551Y-13397722D01*
X15880551Y-13397722D02*
X15871027Y-13378674D01*
X15871027Y-13378674D02*
X15851980Y-13369150D01*
X15851980Y-13369150D02*
X15823408Y-13369150D01*
X15823408Y-13369150D02*
X15804360Y-13378674D01*
X15804360Y-13378674D02*
X15794837Y-13388198D01*
X16004360Y-13502484D02*
X15985313Y-13492960D01*
X15985313Y-13492960D02*
X15975789Y-13483436D01*
X15975789Y-13483436D02*
X15966265Y-13464388D01*
X15966265Y-13464388D02*
X15966265Y-13407246D01*
X15966265Y-13407246D02*
X15975789Y-13388198D01*
X15975789Y-13388198D02*
X15985313Y-13378674D01*
X15985313Y-13378674D02*
X16004360Y-13369150D01*
X16004360Y-13369150D02*
X16032932Y-13369150D01*
X16032932Y-13369150D02*
X16051980Y-13378674D01*
X16051980Y-13378674D02*
X16061503Y-13388198D01*
X16061503Y-13388198D02*
X16071027Y-13407246D01*
X16071027Y-13407246D02*
X16071027Y-13464388D01*
X16071027Y-13464388D02*
X16061503Y-13483436D01*
X16061503Y-13483436D02*
X16051980Y-13492960D01*
X16051980Y-13492960D02*
X16032932Y-13502484D01*
X16032932Y-13502484D02*
X16004360Y-13502484D01*
X16185313Y-13502484D02*
X16166265Y-13492960D01*
X16166265Y-13492960D02*
X16156741Y-13473912D01*
X16156741Y-13473912D02*
X16156741Y-13302484D01*
X16337694Y-13492960D02*
X16318646Y-13502484D01*
X16318646Y-13502484D02*
X16280551Y-13502484D01*
X16280551Y-13502484D02*
X16261503Y-13492960D01*
X16261503Y-13492960D02*
X16251980Y-13473912D01*
X16251980Y-13473912D02*
X16251980Y-13397722D01*
X16251980Y-13397722D02*
X16261503Y-13378674D01*
X16261503Y-13378674D02*
X16280551Y-13369150D01*
X16280551Y-13369150D02*
X16318646Y-13369150D01*
X16318646Y-13369150D02*
X16337694Y-13378674D01*
X16337694Y-13378674D02*
X16347218Y-13397722D01*
X16347218Y-13397722D02*
X16347218Y-13416769D01*
X16347218Y-13416769D02*
X16251980Y-13435817D01*
X16423408Y-13492960D02*
X16442456Y-13502484D01*
X16442456Y-13502484D02*
X16480551Y-13502484D01*
X16480551Y-13502484D02*
X16499599Y-13492960D01*
X16499599Y-13492960D02*
X16509122Y-13473912D01*
X16509122Y-13473912D02*
X16509122Y-13464388D01*
X16509122Y-13464388D02*
X16499599Y-13445341D01*
X16499599Y-13445341D02*
X16480551Y-13435817D01*
X16480551Y-13435817D02*
X16451980Y-13435817D01*
X16451980Y-13435817D02*
X16432932Y-13426293D01*
X16432932Y-13426293D02*
X16423408Y-13407246D01*
X16423408Y-13407246D02*
X16423408Y-13397722D01*
X16423408Y-13397722D02*
X16432932Y-13378674D01*
X16432932Y-13378674D02*
X16451980Y-13369150D01*
X16451980Y-13369150D02*
X16480551Y-13369150D01*
X16480551Y-13369150D02*
X16499599Y-13378674D01*
X16575789Y-13578674D02*
X16585313Y-13569150D01*
X16585313Y-13569150D02*
X16604361Y-13540579D01*
X16604361Y-13540579D02*
X16613884Y-13521531D01*
X16613884Y-13521531D02*
X16623408Y-13492960D01*
X16623408Y-13492960D02*
X16632932Y-13445341D01*
X16632932Y-13445341D02*
X16632932Y-13407246D01*
X16632932Y-13407246D02*
X16623408Y-13359627D01*
X16623408Y-13359627D02*
X16613884Y-13331055D01*
X16613884Y-13331055D02*
X16604361Y-13312008D01*
X16604361Y-13312008D02*
X16585313Y-13283436D01*
X16585313Y-13283436D02*
X16575789Y-13273912D01*
D11*
X11610250Y-13675000D02*
G75*
G02*
X11580250Y-13675000I-15000J0D01*
G01*
X11580250Y-13675000D02*
G75*
G02*
X11610250Y-13675000I15000J0D01*
G01*
D10*
X11909122Y-13566484D02*
X11928170Y-13566484D01*
X11928170Y-13566484D02*
X11947217Y-13576008D01*
X11947217Y-13576008D02*
X11956741Y-13585531D01*
X11956741Y-13585531D02*
X11966265Y-13604579D01*
X11966265Y-13604579D02*
X11975789Y-13642674D01*
X11975789Y-13642674D02*
X11975789Y-13690293D01*
X11975789Y-13690293D02*
X11966265Y-13728388D01*
X11966265Y-13728388D02*
X11956741Y-13747436D01*
X11956741Y-13747436D02*
X11947217Y-13756960D01*
X11947217Y-13756960D02*
X11928170Y-13766484D01*
X11928170Y-13766484D02*
X11909122Y-13766484D01*
X11909122Y-13766484D02*
X11890074Y-13756960D01*
X11890074Y-13756960D02*
X11880551Y-13747436D01*
X11880551Y-13747436D02*
X11871027Y-13728388D01*
X11871027Y-13728388D02*
X11861503Y-13690293D01*
X11861503Y-13690293D02*
X11861503Y-13642674D01*
X11861503Y-13642674D02*
X11871027Y-13604579D01*
X11871027Y-13604579D02*
X11880551Y-13585531D01*
X11880551Y-13585531D02*
X11890074Y-13576008D01*
X11890074Y-13576008D02*
X11909122Y-13566484D01*
X12061503Y-13747436D02*
X12071027Y-13756960D01*
X12071027Y-13756960D02*
X12061503Y-13766484D01*
X12061503Y-13766484D02*
X12051979Y-13756960D01*
X12051979Y-13756960D02*
X12061503Y-13747436D01*
X12061503Y-13747436D02*
X12061503Y-13766484D01*
X12137693Y-13566484D02*
X12261503Y-13566484D01*
X12261503Y-13566484D02*
X12194836Y-13642674D01*
X12194836Y-13642674D02*
X12223408Y-13642674D01*
X12223408Y-13642674D02*
X12242455Y-13652198D01*
X12242455Y-13652198D02*
X12251979Y-13661722D01*
X12251979Y-13661722D02*
X12261503Y-13680769D01*
X12261503Y-13680769D02*
X12261503Y-13728388D01*
X12261503Y-13728388D02*
X12251979Y-13747436D01*
X12251979Y-13747436D02*
X12242455Y-13756960D01*
X12242455Y-13756960D02*
X12223408Y-13766484D01*
X12223408Y-13766484D02*
X12166265Y-13766484D01*
X12166265Y-13766484D02*
X12147217Y-13756960D01*
X12147217Y-13756960D02*
X12137693Y-13747436D01*
X12385312Y-13566484D02*
X12404360Y-13566484D01*
X12404360Y-13566484D02*
X12423408Y-13576008D01*
X12423408Y-13576008D02*
X12432932Y-13585531D01*
X12432932Y-13585531D02*
X12442455Y-13604579D01*
X12442455Y-13604579D02*
X12451979Y-13642674D01*
X12451979Y-13642674D02*
X12451979Y-13690293D01*
X12451979Y-13690293D02*
X12442455Y-13728388D01*
X12442455Y-13728388D02*
X12432932Y-13747436D01*
X12432932Y-13747436D02*
X12423408Y-13756960D01*
X12423408Y-13756960D02*
X12404360Y-13766484D01*
X12404360Y-13766484D02*
X12385312Y-13766484D01*
X12385312Y-13766484D02*
X12366265Y-13756960D01*
X12366265Y-13756960D02*
X12356741Y-13747436D01*
X12356741Y-13747436D02*
X12347217Y-13728388D01*
X12347217Y-13728388D02*
X12337693Y-13690293D01*
X12337693Y-13690293D02*
X12337693Y-13642674D01*
X12337693Y-13642674D02*
X12347217Y-13604579D01*
X12347217Y-13604579D02*
X12356741Y-13585531D01*
X12356741Y-13585531D02*
X12366265Y-13576008D01*
X12366265Y-13576008D02*
X12385312Y-13566484D01*
X12575789Y-13566484D02*
X12594836Y-13566484D01*
X12594836Y-13566484D02*
X12613884Y-13576008D01*
X12613884Y-13576008D02*
X12623408Y-13585531D01*
X12623408Y-13585531D02*
X12632932Y-13604579D01*
X12632932Y-13604579D02*
X12642455Y-13642674D01*
X12642455Y-13642674D02*
X12642455Y-13690293D01*
X12642455Y-13690293D02*
X12632932Y-13728388D01*
X12632932Y-13728388D02*
X12623408Y-13747436D01*
X12623408Y-13747436D02*
X12613884Y-13756960D01*
X12613884Y-13756960D02*
X12594836Y-13766484D01*
X12594836Y-13766484D02*
X12575789Y-13766484D01*
X12575789Y-13766484D02*
X12556741Y-13756960D01*
X12556741Y-13756960D02*
X12547217Y-13747436D01*
X12547217Y-13747436D02*
X12537693Y-13728388D01*
X12537693Y-13728388D02*
X12528170Y-13690293D01*
X12528170Y-13690293D02*
X12528170Y-13642674D01*
X12528170Y-13642674D02*
X12537693Y-13604579D01*
X12537693Y-13604579D02*
X12547217Y-13585531D01*
X12547217Y-13585531D02*
X12556741Y-13576008D01*
X12556741Y-13576008D02*
X12575789Y-13566484D01*
X12728170Y-13766484D02*
X12728170Y-13633150D01*
X12728170Y-13652198D02*
X12737693Y-13642674D01*
X12737693Y-13642674D02*
X12756741Y-13633150D01*
X12756741Y-13633150D02*
X12785313Y-13633150D01*
X12785313Y-13633150D02*
X12804360Y-13642674D01*
X12804360Y-13642674D02*
X12813884Y-13661722D01*
X12813884Y-13661722D02*
X12813884Y-13766484D01*
X12813884Y-13661722D02*
X12823408Y-13642674D01*
X12823408Y-13642674D02*
X12842455Y-13633150D01*
X12842455Y-13633150D02*
X12871027Y-13633150D01*
X12871027Y-13633150D02*
X12890074Y-13642674D01*
X12890074Y-13642674D02*
X12899598Y-13661722D01*
X12899598Y-13661722D02*
X12899598Y-13766484D01*
X12994836Y-13766484D02*
X12994836Y-13633150D01*
X12994836Y-13652198D02*
X13004360Y-13642674D01*
X13004360Y-13642674D02*
X13023408Y-13633150D01*
X13023408Y-13633150D02*
X13051979Y-13633150D01*
X13051979Y-13633150D02*
X13071027Y-13642674D01*
X13071027Y-13642674D02*
X13080551Y-13661722D01*
X13080551Y-13661722D02*
X13080551Y-13766484D01*
X13080551Y-13661722D02*
X13090074Y-13642674D01*
X13090074Y-13642674D02*
X13109122Y-13633150D01*
X13109122Y-13633150D02*
X13137693Y-13633150D01*
X13137693Y-13633150D02*
X13156741Y-13642674D01*
X13156741Y-13642674D02*
X13166265Y-13661722D01*
X13166265Y-13661722D02*
X13166265Y-13766484D01*
X13556741Y-13556960D02*
X13385313Y-13814103D01*
X13813884Y-13566484D02*
X13832932Y-13566484D01*
X13832932Y-13566484D02*
X13851979Y-13576008D01*
X13851979Y-13576008D02*
X13861503Y-13585531D01*
X13861503Y-13585531D02*
X13871027Y-13604579D01*
X13871027Y-13604579D02*
X13880551Y-13642674D01*
X13880551Y-13642674D02*
X13880551Y-13690293D01*
X13880551Y-13690293D02*
X13871027Y-13728388D01*
X13871027Y-13728388D02*
X13861503Y-13747436D01*
X13861503Y-13747436D02*
X13851979Y-13756960D01*
X13851979Y-13756960D02*
X13832932Y-13766484D01*
X13832932Y-13766484D02*
X13813884Y-13766484D01*
X13813884Y-13766484D02*
X13794836Y-13756960D01*
X13794836Y-13756960D02*
X13785313Y-13747436D01*
X13785313Y-13747436D02*
X13775789Y-13728388D01*
X13775789Y-13728388D02*
X13766265Y-13690293D01*
X13766265Y-13690293D02*
X13766265Y-13642674D01*
X13766265Y-13642674D02*
X13775789Y-13604579D01*
X13775789Y-13604579D02*
X13785313Y-13585531D01*
X13785313Y-13585531D02*
X13794836Y-13576008D01*
X13794836Y-13576008D02*
X13813884Y-13566484D01*
X13966265Y-13747436D02*
X13975789Y-13756960D01*
X13975789Y-13756960D02*
X13966265Y-13766484D01*
X13966265Y-13766484D02*
X13956741Y-13756960D01*
X13956741Y-13756960D02*
X13966265Y-13747436D01*
X13966265Y-13747436D02*
X13966265Y-13766484D01*
X14099598Y-13566484D02*
X14118646Y-13566484D01*
X14118646Y-13566484D02*
X14137694Y-13576008D01*
X14137694Y-13576008D02*
X14147217Y-13585531D01*
X14147217Y-13585531D02*
X14156741Y-13604579D01*
X14156741Y-13604579D02*
X14166265Y-13642674D01*
X14166265Y-13642674D02*
X14166265Y-13690293D01*
X14166265Y-13690293D02*
X14156741Y-13728388D01*
X14156741Y-13728388D02*
X14147217Y-13747436D01*
X14147217Y-13747436D02*
X14137694Y-13756960D01*
X14137694Y-13756960D02*
X14118646Y-13766484D01*
X14118646Y-13766484D02*
X14099598Y-13766484D01*
X14099598Y-13766484D02*
X14080551Y-13756960D01*
X14080551Y-13756960D02*
X14071027Y-13747436D01*
X14071027Y-13747436D02*
X14061503Y-13728388D01*
X14061503Y-13728388D02*
X14051979Y-13690293D01*
X14051979Y-13690293D02*
X14051979Y-13642674D01*
X14051979Y-13642674D02*
X14061503Y-13604579D01*
X14061503Y-13604579D02*
X14071027Y-13585531D01*
X14071027Y-13585531D02*
X14080551Y-13576008D01*
X14080551Y-13576008D02*
X14099598Y-13566484D01*
X14356741Y-13766484D02*
X14242456Y-13766484D01*
X14299598Y-13766484D02*
X14299598Y-13566484D01*
X14299598Y-13566484D02*
X14280551Y-13595055D01*
X14280551Y-13595055D02*
X14261503Y-13614103D01*
X14261503Y-13614103D02*
X14242456Y-13623627D01*
X14547217Y-13766484D02*
X14432932Y-13766484D01*
X14490075Y-13766484D02*
X14490075Y-13566484D01*
X14490075Y-13566484D02*
X14471027Y-13595055D01*
X14471027Y-13595055D02*
X14451979Y-13614103D01*
X14451979Y-13614103D02*
X14432932Y-13623627D01*
X14661503Y-13652198D02*
X14642456Y-13642674D01*
X14642456Y-13642674D02*
X14632932Y-13633150D01*
X14632932Y-13633150D02*
X14623408Y-13614103D01*
X14623408Y-13614103D02*
X14623408Y-13604579D01*
X14623408Y-13604579D02*
X14632932Y-13585531D01*
X14632932Y-13585531D02*
X14642456Y-13576008D01*
X14642456Y-13576008D02*
X14661503Y-13566484D01*
X14661503Y-13566484D02*
X14699598Y-13566484D01*
X14699598Y-13566484D02*
X14718646Y-13576008D01*
X14718646Y-13576008D02*
X14728170Y-13585531D01*
X14728170Y-13585531D02*
X14737694Y-13604579D01*
X14737694Y-13604579D02*
X14737694Y-13614103D01*
X14737694Y-13614103D02*
X14728170Y-13633150D01*
X14728170Y-13633150D02*
X14718646Y-13642674D01*
X14718646Y-13642674D02*
X14699598Y-13652198D01*
X14699598Y-13652198D02*
X14661503Y-13652198D01*
X14661503Y-13652198D02*
X14642456Y-13661722D01*
X14642456Y-13661722D02*
X14632932Y-13671246D01*
X14632932Y-13671246D02*
X14623408Y-13690293D01*
X14623408Y-13690293D02*
X14623408Y-13728388D01*
X14623408Y-13728388D02*
X14632932Y-13747436D01*
X14632932Y-13747436D02*
X14642456Y-13756960D01*
X14642456Y-13756960D02*
X14661503Y-13766484D01*
X14661503Y-13766484D02*
X14699598Y-13766484D01*
X14699598Y-13766484D02*
X14718646Y-13756960D01*
X14718646Y-13756960D02*
X14728170Y-13747436D01*
X14728170Y-13747436D02*
X14737694Y-13728388D01*
X14737694Y-13728388D02*
X14737694Y-13690293D01*
X14737694Y-13690293D02*
X14728170Y-13671246D01*
X14728170Y-13671246D02*
X14718646Y-13661722D01*
X14718646Y-13661722D02*
X14699598Y-13652198D01*
X14813884Y-13566484D02*
X14813884Y-13604579D01*
X14890075Y-13566484D02*
X14890075Y-13604579D01*
X15185313Y-13842674D02*
X15175789Y-13833150D01*
X15175789Y-13833150D02*
X15156741Y-13804579D01*
X15156741Y-13804579D02*
X15147218Y-13785531D01*
X15147218Y-13785531D02*
X15137694Y-13756960D01*
X15137694Y-13756960D02*
X15128170Y-13709341D01*
X15128170Y-13709341D02*
X15128170Y-13671246D01*
X15128170Y-13671246D02*
X15137694Y-13623627D01*
X15137694Y-13623627D02*
X15147218Y-13595055D01*
X15147218Y-13595055D02*
X15156741Y-13576008D01*
X15156741Y-13576008D02*
X15175789Y-13547436D01*
X15175789Y-13547436D02*
X15185313Y-13537912D01*
X15366265Y-13766484D02*
X15251979Y-13766484D01*
X15309122Y-13766484D02*
X15309122Y-13566484D01*
X15309122Y-13566484D02*
X15290075Y-13595055D01*
X15290075Y-13595055D02*
X15271027Y-13614103D01*
X15271027Y-13614103D02*
X15251979Y-13623627D01*
X15556741Y-13766484D02*
X15442456Y-13766484D01*
X15499598Y-13766484D02*
X15499598Y-13566484D01*
X15499598Y-13566484D02*
X15480551Y-13595055D01*
X15480551Y-13595055D02*
X15461503Y-13614103D01*
X15461503Y-13614103D02*
X15442456Y-13623627D01*
X15794837Y-13766484D02*
X15794837Y-13566484D01*
X15880551Y-13766484D02*
X15880551Y-13661722D01*
X15880551Y-13661722D02*
X15871027Y-13642674D01*
X15871027Y-13642674D02*
X15851980Y-13633150D01*
X15851980Y-13633150D02*
X15823408Y-13633150D01*
X15823408Y-13633150D02*
X15804360Y-13642674D01*
X15804360Y-13642674D02*
X15794837Y-13652198D01*
X16004360Y-13766484D02*
X15985313Y-13756960D01*
X15985313Y-13756960D02*
X15975789Y-13747436D01*
X15975789Y-13747436D02*
X15966265Y-13728388D01*
X15966265Y-13728388D02*
X15966265Y-13671246D01*
X15966265Y-13671246D02*
X15975789Y-13652198D01*
X15975789Y-13652198D02*
X15985313Y-13642674D01*
X15985313Y-13642674D02*
X16004360Y-13633150D01*
X16004360Y-13633150D02*
X16032932Y-13633150D01*
X16032932Y-13633150D02*
X16051980Y-13642674D01*
X16051980Y-13642674D02*
X16061503Y-13652198D01*
X16061503Y-13652198D02*
X16071027Y-13671246D01*
X16071027Y-13671246D02*
X16071027Y-13728388D01*
X16071027Y-13728388D02*
X16061503Y-13747436D01*
X16061503Y-13747436D02*
X16051980Y-13756960D01*
X16051980Y-13756960D02*
X16032932Y-13766484D01*
X16032932Y-13766484D02*
X16004360Y-13766484D01*
X16185313Y-13766484D02*
X16166265Y-13756960D01*
X16166265Y-13756960D02*
X16156741Y-13737912D01*
X16156741Y-13737912D02*
X16156741Y-13566484D01*
X16337694Y-13756960D02*
X16318646Y-13766484D01*
X16318646Y-13766484D02*
X16280551Y-13766484D01*
X16280551Y-13766484D02*
X16261503Y-13756960D01*
X16261503Y-13756960D02*
X16251980Y-13737912D01*
X16251980Y-13737912D02*
X16251980Y-13661722D01*
X16251980Y-13661722D02*
X16261503Y-13642674D01*
X16261503Y-13642674D02*
X16280551Y-13633150D01*
X16280551Y-13633150D02*
X16318646Y-13633150D01*
X16318646Y-13633150D02*
X16337694Y-13642674D01*
X16337694Y-13642674D02*
X16347218Y-13661722D01*
X16347218Y-13661722D02*
X16347218Y-13680769D01*
X16347218Y-13680769D02*
X16251980Y-13699817D01*
X16423408Y-13756960D02*
X16442456Y-13766484D01*
X16442456Y-13766484D02*
X16480551Y-13766484D01*
X16480551Y-13766484D02*
X16499599Y-13756960D01*
X16499599Y-13756960D02*
X16509122Y-13737912D01*
X16509122Y-13737912D02*
X16509122Y-13728388D01*
X16509122Y-13728388D02*
X16499599Y-13709341D01*
X16499599Y-13709341D02*
X16480551Y-13699817D01*
X16480551Y-13699817D02*
X16451980Y-13699817D01*
X16451980Y-13699817D02*
X16432932Y-13690293D01*
X16432932Y-13690293D02*
X16423408Y-13671246D01*
X16423408Y-13671246D02*
X16423408Y-13661722D01*
X16423408Y-13661722D02*
X16432932Y-13642674D01*
X16432932Y-13642674D02*
X16451980Y-13633150D01*
X16451980Y-13633150D02*
X16480551Y-13633150D01*
X16480551Y-13633150D02*
X16499599Y-13642674D01*
X16575789Y-13842674D02*
X16585313Y-13833150D01*
X16585313Y-13833150D02*
X16604361Y-13804579D01*
X16604361Y-13804579D02*
X16613884Y-13785531D01*
X16613884Y-13785531D02*
X16623408Y-13756960D01*
X16623408Y-13756960D02*
X16632932Y-13709341D01*
X16632932Y-13709341D02*
X16632932Y-13671246D01*
X16632932Y-13671246D02*
X16623408Y-13623627D01*
X16623408Y-13623627D02*
X16613884Y-13595055D01*
X16613884Y-13595055D02*
X16604361Y-13576008D01*
X16604361Y-13576008D02*
X16585313Y-13547436D01*
X16585313Y-13547436D02*
X16575789Y-13537912D01*
D11*
X11590250Y-13919000D02*
X11590250Y-13959000D01*
X11570250Y-13939000D02*
X11610250Y-13939000D01*
D10*
X11909122Y-13830484D02*
X11928170Y-13830484D01*
X11928170Y-13830484D02*
X11947217Y-13840008D01*
X11947217Y-13840008D02*
X11956741Y-13849531D01*
X11956741Y-13849531D02*
X11966265Y-13868579D01*
X11966265Y-13868579D02*
X11975789Y-13906674D01*
X11975789Y-13906674D02*
X11975789Y-13954293D01*
X11975789Y-13954293D02*
X11966265Y-13992388D01*
X11966265Y-13992388D02*
X11956741Y-14011436D01*
X11956741Y-14011436D02*
X11947217Y-14020960D01*
X11947217Y-14020960D02*
X11928170Y-14030484D01*
X11928170Y-14030484D02*
X11909122Y-14030484D01*
X11909122Y-14030484D02*
X11890074Y-14020960D01*
X11890074Y-14020960D02*
X11880551Y-14011436D01*
X11880551Y-14011436D02*
X11871027Y-13992388D01*
X11871027Y-13992388D02*
X11861503Y-13954293D01*
X11861503Y-13954293D02*
X11861503Y-13906674D01*
X11861503Y-13906674D02*
X11871027Y-13868579D01*
X11871027Y-13868579D02*
X11880551Y-13849531D01*
X11880551Y-13849531D02*
X11890074Y-13840008D01*
X11890074Y-13840008D02*
X11909122Y-13830484D01*
X12061503Y-14011436D02*
X12071027Y-14020960D01*
X12071027Y-14020960D02*
X12061503Y-14030484D01*
X12061503Y-14030484D02*
X12051979Y-14020960D01*
X12051979Y-14020960D02*
X12061503Y-14011436D01*
X12061503Y-14011436D02*
X12061503Y-14030484D01*
X12242455Y-13897150D02*
X12242455Y-14030484D01*
X12194836Y-13820960D02*
X12147217Y-13963817D01*
X12147217Y-13963817D02*
X12271027Y-13963817D01*
X12385312Y-13830484D02*
X12404360Y-13830484D01*
X12404360Y-13830484D02*
X12423408Y-13840008D01*
X12423408Y-13840008D02*
X12432932Y-13849531D01*
X12432932Y-13849531D02*
X12442455Y-13868579D01*
X12442455Y-13868579D02*
X12451979Y-13906674D01*
X12451979Y-13906674D02*
X12451979Y-13954293D01*
X12451979Y-13954293D02*
X12442455Y-13992388D01*
X12442455Y-13992388D02*
X12432932Y-14011436D01*
X12432932Y-14011436D02*
X12423408Y-14020960D01*
X12423408Y-14020960D02*
X12404360Y-14030484D01*
X12404360Y-14030484D02*
X12385312Y-14030484D01*
X12385312Y-14030484D02*
X12366265Y-14020960D01*
X12366265Y-14020960D02*
X12356741Y-14011436D01*
X12356741Y-14011436D02*
X12347217Y-13992388D01*
X12347217Y-13992388D02*
X12337693Y-13954293D01*
X12337693Y-13954293D02*
X12337693Y-13906674D01*
X12337693Y-13906674D02*
X12347217Y-13868579D01*
X12347217Y-13868579D02*
X12356741Y-13849531D01*
X12356741Y-13849531D02*
X12366265Y-13840008D01*
X12366265Y-13840008D02*
X12385312Y-13830484D01*
X12575789Y-13830484D02*
X12594836Y-13830484D01*
X12594836Y-13830484D02*
X12613884Y-13840008D01*
X12613884Y-13840008D02*
X12623408Y-13849531D01*
X12623408Y-13849531D02*
X12632932Y-13868579D01*
X12632932Y-13868579D02*
X12642455Y-13906674D01*
X12642455Y-13906674D02*
X12642455Y-13954293D01*
X12642455Y-13954293D02*
X12632932Y-13992388D01*
X12632932Y-13992388D02*
X12623408Y-14011436D01*
X12623408Y-14011436D02*
X12613884Y-14020960D01*
X12613884Y-14020960D02*
X12594836Y-14030484D01*
X12594836Y-14030484D02*
X12575789Y-14030484D01*
X12575789Y-14030484D02*
X12556741Y-14020960D01*
X12556741Y-14020960D02*
X12547217Y-14011436D01*
X12547217Y-14011436D02*
X12537693Y-13992388D01*
X12537693Y-13992388D02*
X12528170Y-13954293D01*
X12528170Y-13954293D02*
X12528170Y-13906674D01*
X12528170Y-13906674D02*
X12537693Y-13868579D01*
X12537693Y-13868579D02*
X12547217Y-13849531D01*
X12547217Y-13849531D02*
X12556741Y-13840008D01*
X12556741Y-13840008D02*
X12575789Y-13830484D01*
X12728170Y-14030484D02*
X12728170Y-13897150D01*
X12728170Y-13916198D02*
X12737693Y-13906674D01*
X12737693Y-13906674D02*
X12756741Y-13897150D01*
X12756741Y-13897150D02*
X12785313Y-13897150D01*
X12785313Y-13897150D02*
X12804360Y-13906674D01*
X12804360Y-13906674D02*
X12813884Y-13925722D01*
X12813884Y-13925722D02*
X12813884Y-14030484D01*
X12813884Y-13925722D02*
X12823408Y-13906674D01*
X12823408Y-13906674D02*
X12842455Y-13897150D01*
X12842455Y-13897150D02*
X12871027Y-13897150D01*
X12871027Y-13897150D02*
X12890074Y-13906674D01*
X12890074Y-13906674D02*
X12899598Y-13925722D01*
X12899598Y-13925722D02*
X12899598Y-14030484D01*
X12994836Y-14030484D02*
X12994836Y-13897150D01*
X12994836Y-13916198D02*
X13004360Y-13906674D01*
X13004360Y-13906674D02*
X13023408Y-13897150D01*
X13023408Y-13897150D02*
X13051979Y-13897150D01*
X13051979Y-13897150D02*
X13071027Y-13906674D01*
X13071027Y-13906674D02*
X13080551Y-13925722D01*
X13080551Y-13925722D02*
X13080551Y-14030484D01*
X13080551Y-13925722D02*
X13090074Y-13906674D01*
X13090074Y-13906674D02*
X13109122Y-13897150D01*
X13109122Y-13897150D02*
X13137693Y-13897150D01*
X13137693Y-13897150D02*
X13156741Y-13906674D01*
X13156741Y-13906674D02*
X13166265Y-13925722D01*
X13166265Y-13925722D02*
X13166265Y-14030484D01*
X13556741Y-13820960D02*
X13385313Y-14078103D01*
X13813884Y-13830484D02*
X13832932Y-13830484D01*
X13832932Y-13830484D02*
X13851979Y-13840008D01*
X13851979Y-13840008D02*
X13861503Y-13849531D01*
X13861503Y-13849531D02*
X13871027Y-13868579D01*
X13871027Y-13868579D02*
X13880551Y-13906674D01*
X13880551Y-13906674D02*
X13880551Y-13954293D01*
X13880551Y-13954293D02*
X13871027Y-13992388D01*
X13871027Y-13992388D02*
X13861503Y-14011436D01*
X13861503Y-14011436D02*
X13851979Y-14020960D01*
X13851979Y-14020960D02*
X13832932Y-14030484D01*
X13832932Y-14030484D02*
X13813884Y-14030484D01*
X13813884Y-14030484D02*
X13794836Y-14020960D01*
X13794836Y-14020960D02*
X13785313Y-14011436D01*
X13785313Y-14011436D02*
X13775789Y-13992388D01*
X13775789Y-13992388D02*
X13766265Y-13954293D01*
X13766265Y-13954293D02*
X13766265Y-13906674D01*
X13766265Y-13906674D02*
X13775789Y-13868579D01*
X13775789Y-13868579D02*
X13785313Y-13849531D01*
X13785313Y-13849531D02*
X13794836Y-13840008D01*
X13794836Y-13840008D02*
X13813884Y-13830484D01*
X13966265Y-14011436D02*
X13975789Y-14020960D01*
X13975789Y-14020960D02*
X13966265Y-14030484D01*
X13966265Y-14030484D02*
X13956741Y-14020960D01*
X13956741Y-14020960D02*
X13966265Y-14011436D01*
X13966265Y-14011436D02*
X13966265Y-14030484D01*
X14099598Y-13830484D02*
X14118646Y-13830484D01*
X14118646Y-13830484D02*
X14137694Y-13840008D01*
X14137694Y-13840008D02*
X14147217Y-13849531D01*
X14147217Y-13849531D02*
X14156741Y-13868579D01*
X14156741Y-13868579D02*
X14166265Y-13906674D01*
X14166265Y-13906674D02*
X14166265Y-13954293D01*
X14166265Y-13954293D02*
X14156741Y-13992388D01*
X14156741Y-13992388D02*
X14147217Y-14011436D01*
X14147217Y-14011436D02*
X14137694Y-14020960D01*
X14137694Y-14020960D02*
X14118646Y-14030484D01*
X14118646Y-14030484D02*
X14099598Y-14030484D01*
X14099598Y-14030484D02*
X14080551Y-14020960D01*
X14080551Y-14020960D02*
X14071027Y-14011436D01*
X14071027Y-14011436D02*
X14061503Y-13992388D01*
X14061503Y-13992388D02*
X14051979Y-13954293D01*
X14051979Y-13954293D02*
X14051979Y-13906674D01*
X14051979Y-13906674D02*
X14061503Y-13868579D01*
X14061503Y-13868579D02*
X14071027Y-13849531D01*
X14071027Y-13849531D02*
X14080551Y-13840008D01*
X14080551Y-13840008D02*
X14099598Y-13830484D01*
X14356741Y-14030484D02*
X14242456Y-14030484D01*
X14299598Y-14030484D02*
X14299598Y-13830484D01*
X14299598Y-13830484D02*
X14280551Y-13859055D01*
X14280551Y-13859055D02*
X14261503Y-13878103D01*
X14261503Y-13878103D02*
X14242456Y-13887627D01*
X14537694Y-13830484D02*
X14442456Y-13830484D01*
X14442456Y-13830484D02*
X14432932Y-13925722D01*
X14432932Y-13925722D02*
X14442456Y-13916198D01*
X14442456Y-13916198D02*
X14461503Y-13906674D01*
X14461503Y-13906674D02*
X14509122Y-13906674D01*
X14509122Y-13906674D02*
X14528170Y-13916198D01*
X14528170Y-13916198D02*
X14537694Y-13925722D01*
X14537694Y-13925722D02*
X14547217Y-13944769D01*
X14547217Y-13944769D02*
X14547217Y-13992388D01*
X14547217Y-13992388D02*
X14537694Y-14011436D01*
X14537694Y-14011436D02*
X14528170Y-14020960D01*
X14528170Y-14020960D02*
X14509122Y-14030484D01*
X14509122Y-14030484D02*
X14461503Y-14030484D01*
X14461503Y-14030484D02*
X14442456Y-14020960D01*
X14442456Y-14020960D02*
X14432932Y-14011436D01*
X14613884Y-13830484D02*
X14747217Y-13830484D01*
X14747217Y-13830484D02*
X14661503Y-14030484D01*
X14813884Y-13830484D02*
X14813884Y-13868579D01*
X14890075Y-13830484D02*
X14890075Y-13868579D01*
X15185313Y-14106674D02*
X15175789Y-14097150D01*
X15175789Y-14097150D02*
X15156741Y-14068579D01*
X15156741Y-14068579D02*
X15147218Y-14049531D01*
X15147218Y-14049531D02*
X15137694Y-14020960D01*
X15137694Y-14020960D02*
X15128170Y-13973341D01*
X15128170Y-13973341D02*
X15128170Y-13935246D01*
X15128170Y-13935246D02*
X15137694Y-13887627D01*
X15137694Y-13887627D02*
X15147218Y-13859055D01*
X15147218Y-13859055D02*
X15156741Y-13840008D01*
X15156741Y-13840008D02*
X15175789Y-13811436D01*
X15175789Y-13811436D02*
X15185313Y-13801912D01*
X15242456Y-13830484D02*
X15366265Y-13830484D01*
X15366265Y-13830484D02*
X15299598Y-13906674D01*
X15299598Y-13906674D02*
X15328170Y-13906674D01*
X15328170Y-13906674D02*
X15347218Y-13916198D01*
X15347218Y-13916198D02*
X15356741Y-13925722D01*
X15356741Y-13925722D02*
X15366265Y-13944769D01*
X15366265Y-13944769D02*
X15366265Y-13992388D01*
X15366265Y-13992388D02*
X15356741Y-14011436D01*
X15356741Y-14011436D02*
X15347218Y-14020960D01*
X15347218Y-14020960D02*
X15328170Y-14030484D01*
X15328170Y-14030484D02*
X15271027Y-14030484D01*
X15271027Y-14030484D02*
X15251979Y-14020960D01*
X15251979Y-14020960D02*
X15242456Y-14011436D01*
X15442456Y-13849531D02*
X15451979Y-13840008D01*
X15451979Y-13840008D02*
X15471027Y-13830484D01*
X15471027Y-13830484D02*
X15518646Y-13830484D01*
X15518646Y-13830484D02*
X15537694Y-13840008D01*
X15537694Y-13840008D02*
X15547218Y-13849531D01*
X15547218Y-13849531D02*
X15556741Y-13868579D01*
X15556741Y-13868579D02*
X15556741Y-13887627D01*
X15556741Y-13887627D02*
X15547218Y-13916198D01*
X15547218Y-13916198D02*
X15432932Y-14030484D01*
X15432932Y-14030484D02*
X15556741Y-14030484D01*
X15794837Y-14030484D02*
X15794837Y-13830484D01*
X15880551Y-14030484D02*
X15880551Y-13925722D01*
X15880551Y-13925722D02*
X15871027Y-13906674D01*
X15871027Y-13906674D02*
X15851980Y-13897150D01*
X15851980Y-13897150D02*
X15823408Y-13897150D01*
X15823408Y-13897150D02*
X15804360Y-13906674D01*
X15804360Y-13906674D02*
X15794837Y-13916198D01*
X16004360Y-14030484D02*
X15985313Y-14020960D01*
X15985313Y-14020960D02*
X15975789Y-14011436D01*
X15975789Y-14011436D02*
X15966265Y-13992388D01*
X15966265Y-13992388D02*
X15966265Y-13935246D01*
X15966265Y-13935246D02*
X15975789Y-13916198D01*
X15975789Y-13916198D02*
X15985313Y-13906674D01*
X15985313Y-13906674D02*
X16004360Y-13897150D01*
X16004360Y-13897150D02*
X16032932Y-13897150D01*
X16032932Y-13897150D02*
X16051980Y-13906674D01*
X16051980Y-13906674D02*
X16061503Y-13916198D01*
X16061503Y-13916198D02*
X16071027Y-13935246D01*
X16071027Y-13935246D02*
X16071027Y-13992388D01*
X16071027Y-13992388D02*
X16061503Y-14011436D01*
X16061503Y-14011436D02*
X16051980Y-14020960D01*
X16051980Y-14020960D02*
X16032932Y-14030484D01*
X16032932Y-14030484D02*
X16004360Y-14030484D01*
X16185313Y-14030484D02*
X16166265Y-14020960D01*
X16166265Y-14020960D02*
X16156741Y-14001912D01*
X16156741Y-14001912D02*
X16156741Y-13830484D01*
X16337694Y-14020960D02*
X16318646Y-14030484D01*
X16318646Y-14030484D02*
X16280551Y-14030484D01*
X16280551Y-14030484D02*
X16261503Y-14020960D01*
X16261503Y-14020960D02*
X16251980Y-14001912D01*
X16251980Y-14001912D02*
X16251980Y-13925722D01*
X16251980Y-13925722D02*
X16261503Y-13906674D01*
X16261503Y-13906674D02*
X16280551Y-13897150D01*
X16280551Y-13897150D02*
X16318646Y-13897150D01*
X16318646Y-13897150D02*
X16337694Y-13906674D01*
X16337694Y-13906674D02*
X16347218Y-13925722D01*
X16347218Y-13925722D02*
X16347218Y-13944769D01*
X16347218Y-13944769D02*
X16251980Y-13963817D01*
X16423408Y-14020960D02*
X16442456Y-14030484D01*
X16442456Y-14030484D02*
X16480551Y-14030484D01*
X16480551Y-14030484D02*
X16499599Y-14020960D01*
X16499599Y-14020960D02*
X16509122Y-14001912D01*
X16509122Y-14001912D02*
X16509122Y-13992388D01*
X16509122Y-13992388D02*
X16499599Y-13973341D01*
X16499599Y-13973341D02*
X16480551Y-13963817D01*
X16480551Y-13963817D02*
X16451980Y-13963817D01*
X16451980Y-13963817D02*
X16432932Y-13954293D01*
X16432932Y-13954293D02*
X16423408Y-13935246D01*
X16423408Y-13935246D02*
X16423408Y-13925722D01*
X16423408Y-13925722D02*
X16432932Y-13906674D01*
X16432932Y-13906674D02*
X16451980Y-13897150D01*
X16451980Y-13897150D02*
X16480551Y-13897150D01*
X16480551Y-13897150D02*
X16499599Y-13906674D01*
X16575789Y-14106674D02*
X16585313Y-14097150D01*
X16585313Y-14097150D02*
X16604361Y-14068579D01*
X16604361Y-14068579D02*
X16613884Y-14049531D01*
X16613884Y-14049531D02*
X16623408Y-14020960D01*
X16623408Y-14020960D02*
X16632932Y-13973341D01*
X16632932Y-13973341D02*
X16632932Y-13935246D01*
X16632932Y-13935246D02*
X16623408Y-13887627D01*
X16623408Y-13887627D02*
X16613884Y-13859055D01*
X16613884Y-13859055D02*
X16604361Y-13840008D01*
X16604361Y-13840008D02*
X16585313Y-13811436D01*
X16585313Y-13811436D02*
X16575789Y-13801912D01*
D11*
X11602928Y-14220678D02*
X11602928Y-14185322D01*
X11567572Y-14185322D01*
X11567572Y-14220678D01*
X11602928Y-14220678D01*
D10*
X11909122Y-14094484D02*
X11928170Y-14094484D01*
X11928170Y-14094484D02*
X11947217Y-14104008D01*
X11947217Y-14104008D02*
X11956741Y-14113531D01*
X11956741Y-14113531D02*
X11966265Y-14132579D01*
X11966265Y-14132579D02*
X11975789Y-14170674D01*
X11975789Y-14170674D02*
X11975789Y-14218293D01*
X11975789Y-14218293D02*
X11966265Y-14256388D01*
X11966265Y-14256388D02*
X11956741Y-14275436D01*
X11956741Y-14275436D02*
X11947217Y-14284960D01*
X11947217Y-14284960D02*
X11928170Y-14294484D01*
X11928170Y-14294484D02*
X11909122Y-14294484D01*
X11909122Y-14294484D02*
X11890074Y-14284960D01*
X11890074Y-14284960D02*
X11880551Y-14275436D01*
X11880551Y-14275436D02*
X11871027Y-14256388D01*
X11871027Y-14256388D02*
X11861503Y-14218293D01*
X11861503Y-14218293D02*
X11861503Y-14170674D01*
X11861503Y-14170674D02*
X11871027Y-14132579D01*
X11871027Y-14132579D02*
X11880551Y-14113531D01*
X11880551Y-14113531D02*
X11890074Y-14104008D01*
X11890074Y-14104008D02*
X11909122Y-14094484D01*
X12061503Y-14275436D02*
X12071027Y-14284960D01*
X12071027Y-14284960D02*
X12061503Y-14294484D01*
X12061503Y-14294484D02*
X12051979Y-14284960D01*
X12051979Y-14284960D02*
X12061503Y-14275436D01*
X12061503Y-14275436D02*
X12061503Y-14294484D01*
X12251979Y-14094484D02*
X12156741Y-14094484D01*
X12156741Y-14094484D02*
X12147217Y-14189722D01*
X12147217Y-14189722D02*
X12156741Y-14180198D01*
X12156741Y-14180198D02*
X12175789Y-14170674D01*
X12175789Y-14170674D02*
X12223408Y-14170674D01*
X12223408Y-14170674D02*
X12242455Y-14180198D01*
X12242455Y-14180198D02*
X12251979Y-14189722D01*
X12251979Y-14189722D02*
X12261503Y-14208769D01*
X12261503Y-14208769D02*
X12261503Y-14256388D01*
X12261503Y-14256388D02*
X12251979Y-14275436D01*
X12251979Y-14275436D02*
X12242455Y-14284960D01*
X12242455Y-14284960D02*
X12223408Y-14294484D01*
X12223408Y-14294484D02*
X12175789Y-14294484D01*
X12175789Y-14294484D02*
X12156741Y-14284960D01*
X12156741Y-14284960D02*
X12147217Y-14275436D01*
X12385312Y-14094484D02*
X12404360Y-14094484D01*
X12404360Y-14094484D02*
X12423408Y-14104008D01*
X12423408Y-14104008D02*
X12432932Y-14113531D01*
X12432932Y-14113531D02*
X12442455Y-14132579D01*
X12442455Y-14132579D02*
X12451979Y-14170674D01*
X12451979Y-14170674D02*
X12451979Y-14218293D01*
X12451979Y-14218293D02*
X12442455Y-14256388D01*
X12442455Y-14256388D02*
X12432932Y-14275436D01*
X12432932Y-14275436D02*
X12423408Y-14284960D01*
X12423408Y-14284960D02*
X12404360Y-14294484D01*
X12404360Y-14294484D02*
X12385312Y-14294484D01*
X12385312Y-14294484D02*
X12366265Y-14284960D01*
X12366265Y-14284960D02*
X12356741Y-14275436D01*
X12356741Y-14275436D02*
X12347217Y-14256388D01*
X12347217Y-14256388D02*
X12337693Y-14218293D01*
X12337693Y-14218293D02*
X12337693Y-14170674D01*
X12337693Y-14170674D02*
X12347217Y-14132579D01*
X12347217Y-14132579D02*
X12356741Y-14113531D01*
X12356741Y-14113531D02*
X12366265Y-14104008D01*
X12366265Y-14104008D02*
X12385312Y-14094484D01*
X12575789Y-14094484D02*
X12594836Y-14094484D01*
X12594836Y-14094484D02*
X12613884Y-14104008D01*
X12613884Y-14104008D02*
X12623408Y-14113531D01*
X12623408Y-14113531D02*
X12632932Y-14132579D01*
X12632932Y-14132579D02*
X12642455Y-14170674D01*
X12642455Y-14170674D02*
X12642455Y-14218293D01*
X12642455Y-14218293D02*
X12632932Y-14256388D01*
X12632932Y-14256388D02*
X12623408Y-14275436D01*
X12623408Y-14275436D02*
X12613884Y-14284960D01*
X12613884Y-14284960D02*
X12594836Y-14294484D01*
X12594836Y-14294484D02*
X12575789Y-14294484D01*
X12575789Y-14294484D02*
X12556741Y-14284960D01*
X12556741Y-14284960D02*
X12547217Y-14275436D01*
X12547217Y-14275436D02*
X12537693Y-14256388D01*
X12537693Y-14256388D02*
X12528170Y-14218293D01*
X12528170Y-14218293D02*
X12528170Y-14170674D01*
X12528170Y-14170674D02*
X12537693Y-14132579D01*
X12537693Y-14132579D02*
X12547217Y-14113531D01*
X12547217Y-14113531D02*
X12556741Y-14104008D01*
X12556741Y-14104008D02*
X12575789Y-14094484D01*
X12728170Y-14294484D02*
X12728170Y-14161150D01*
X12728170Y-14180198D02*
X12737693Y-14170674D01*
X12737693Y-14170674D02*
X12756741Y-14161150D01*
X12756741Y-14161150D02*
X12785313Y-14161150D01*
X12785313Y-14161150D02*
X12804360Y-14170674D01*
X12804360Y-14170674D02*
X12813884Y-14189722D01*
X12813884Y-14189722D02*
X12813884Y-14294484D01*
X12813884Y-14189722D02*
X12823408Y-14170674D01*
X12823408Y-14170674D02*
X12842455Y-14161150D01*
X12842455Y-14161150D02*
X12871027Y-14161150D01*
X12871027Y-14161150D02*
X12890074Y-14170674D01*
X12890074Y-14170674D02*
X12899598Y-14189722D01*
X12899598Y-14189722D02*
X12899598Y-14294484D01*
X12994836Y-14294484D02*
X12994836Y-14161150D01*
X12994836Y-14180198D02*
X13004360Y-14170674D01*
X13004360Y-14170674D02*
X13023408Y-14161150D01*
X13023408Y-14161150D02*
X13051979Y-14161150D01*
X13051979Y-14161150D02*
X13071027Y-14170674D01*
X13071027Y-14170674D02*
X13080551Y-14189722D01*
X13080551Y-14189722D02*
X13080551Y-14294484D01*
X13080551Y-14189722D02*
X13090074Y-14170674D01*
X13090074Y-14170674D02*
X13109122Y-14161150D01*
X13109122Y-14161150D02*
X13137693Y-14161150D01*
X13137693Y-14161150D02*
X13156741Y-14170674D01*
X13156741Y-14170674D02*
X13166265Y-14189722D01*
X13166265Y-14189722D02*
X13166265Y-14294484D01*
X13556741Y-14084960D02*
X13385313Y-14342103D01*
X13813884Y-14094484D02*
X13832932Y-14094484D01*
X13832932Y-14094484D02*
X13851979Y-14104008D01*
X13851979Y-14104008D02*
X13861503Y-14113531D01*
X13861503Y-14113531D02*
X13871027Y-14132579D01*
X13871027Y-14132579D02*
X13880551Y-14170674D01*
X13880551Y-14170674D02*
X13880551Y-14218293D01*
X13880551Y-14218293D02*
X13871027Y-14256388D01*
X13871027Y-14256388D02*
X13861503Y-14275436D01*
X13861503Y-14275436D02*
X13851979Y-14284960D01*
X13851979Y-14284960D02*
X13832932Y-14294484D01*
X13832932Y-14294484D02*
X13813884Y-14294484D01*
X13813884Y-14294484D02*
X13794836Y-14284960D01*
X13794836Y-14284960D02*
X13785313Y-14275436D01*
X13785313Y-14275436D02*
X13775789Y-14256388D01*
X13775789Y-14256388D02*
X13766265Y-14218293D01*
X13766265Y-14218293D02*
X13766265Y-14170674D01*
X13766265Y-14170674D02*
X13775789Y-14132579D01*
X13775789Y-14132579D02*
X13785313Y-14113531D01*
X13785313Y-14113531D02*
X13794836Y-14104008D01*
X13794836Y-14104008D02*
X13813884Y-14094484D01*
X13966265Y-14275436D02*
X13975789Y-14284960D01*
X13975789Y-14284960D02*
X13966265Y-14294484D01*
X13966265Y-14294484D02*
X13956741Y-14284960D01*
X13956741Y-14284960D02*
X13966265Y-14275436D01*
X13966265Y-14275436D02*
X13966265Y-14294484D01*
X14099598Y-14094484D02*
X14118646Y-14094484D01*
X14118646Y-14094484D02*
X14137694Y-14104008D01*
X14137694Y-14104008D02*
X14147217Y-14113531D01*
X14147217Y-14113531D02*
X14156741Y-14132579D01*
X14156741Y-14132579D02*
X14166265Y-14170674D01*
X14166265Y-14170674D02*
X14166265Y-14218293D01*
X14166265Y-14218293D02*
X14156741Y-14256388D01*
X14156741Y-14256388D02*
X14147217Y-14275436D01*
X14147217Y-14275436D02*
X14137694Y-14284960D01*
X14137694Y-14284960D02*
X14118646Y-14294484D01*
X14118646Y-14294484D02*
X14099598Y-14294484D01*
X14099598Y-14294484D02*
X14080551Y-14284960D01*
X14080551Y-14284960D02*
X14071027Y-14275436D01*
X14071027Y-14275436D02*
X14061503Y-14256388D01*
X14061503Y-14256388D02*
X14051979Y-14218293D01*
X14051979Y-14218293D02*
X14051979Y-14170674D01*
X14051979Y-14170674D02*
X14061503Y-14132579D01*
X14061503Y-14132579D02*
X14071027Y-14113531D01*
X14071027Y-14113531D02*
X14080551Y-14104008D01*
X14080551Y-14104008D02*
X14099598Y-14094484D01*
X14356741Y-14294484D02*
X14242456Y-14294484D01*
X14299598Y-14294484D02*
X14299598Y-14094484D01*
X14299598Y-14094484D02*
X14280551Y-14123055D01*
X14280551Y-14123055D02*
X14261503Y-14142103D01*
X14261503Y-14142103D02*
X14242456Y-14151627D01*
X14451979Y-14294484D02*
X14490075Y-14294484D01*
X14490075Y-14294484D02*
X14509122Y-14284960D01*
X14509122Y-14284960D02*
X14518646Y-14275436D01*
X14518646Y-14275436D02*
X14537694Y-14246865D01*
X14537694Y-14246865D02*
X14547217Y-14208769D01*
X14547217Y-14208769D02*
X14547217Y-14132579D01*
X14547217Y-14132579D02*
X14537694Y-14113531D01*
X14537694Y-14113531D02*
X14528170Y-14104008D01*
X14528170Y-14104008D02*
X14509122Y-14094484D01*
X14509122Y-14094484D02*
X14471027Y-14094484D01*
X14471027Y-14094484D02*
X14451979Y-14104008D01*
X14451979Y-14104008D02*
X14442456Y-14113531D01*
X14442456Y-14113531D02*
X14432932Y-14132579D01*
X14432932Y-14132579D02*
X14432932Y-14180198D01*
X14432932Y-14180198D02*
X14442456Y-14199246D01*
X14442456Y-14199246D02*
X14451979Y-14208769D01*
X14451979Y-14208769D02*
X14471027Y-14218293D01*
X14471027Y-14218293D02*
X14509122Y-14218293D01*
X14509122Y-14218293D02*
X14528170Y-14208769D01*
X14528170Y-14208769D02*
X14537694Y-14199246D01*
X14537694Y-14199246D02*
X14547217Y-14180198D01*
X14613884Y-14094484D02*
X14747217Y-14094484D01*
X14747217Y-14094484D02*
X14661503Y-14294484D01*
X14813884Y-14094484D02*
X14813884Y-14132579D01*
X14890075Y-14094484D02*
X14890075Y-14132579D01*
X15185313Y-14370674D02*
X15175789Y-14361150D01*
X15175789Y-14361150D02*
X15156741Y-14332579D01*
X15156741Y-14332579D02*
X15147218Y-14313531D01*
X15147218Y-14313531D02*
X15137694Y-14284960D01*
X15137694Y-14284960D02*
X15128170Y-14237341D01*
X15128170Y-14237341D02*
X15128170Y-14199246D01*
X15128170Y-14199246D02*
X15137694Y-14151627D01*
X15137694Y-14151627D02*
X15147218Y-14123055D01*
X15147218Y-14123055D02*
X15156741Y-14104008D01*
X15156741Y-14104008D02*
X15175789Y-14075436D01*
X15175789Y-14075436D02*
X15185313Y-14065912D01*
X15366265Y-14294484D02*
X15251979Y-14294484D01*
X15309122Y-14294484D02*
X15309122Y-14094484D01*
X15309122Y-14094484D02*
X15290075Y-14123055D01*
X15290075Y-14123055D02*
X15271027Y-14142103D01*
X15271027Y-14142103D02*
X15251979Y-14151627D01*
X15556741Y-14294484D02*
X15442456Y-14294484D01*
X15499598Y-14294484D02*
X15499598Y-14094484D01*
X15499598Y-14094484D02*
X15480551Y-14123055D01*
X15480551Y-14123055D02*
X15461503Y-14142103D01*
X15461503Y-14142103D02*
X15442456Y-14151627D01*
X15747218Y-14294484D02*
X15632932Y-14294484D01*
X15690075Y-14294484D02*
X15690075Y-14094484D01*
X15690075Y-14094484D02*
X15671027Y-14123055D01*
X15671027Y-14123055D02*
X15651979Y-14142103D01*
X15651979Y-14142103D02*
X15632932Y-14151627D01*
X15985313Y-14294484D02*
X15985313Y-14094484D01*
X16071027Y-14294484D02*
X16071027Y-14189722D01*
X16071027Y-14189722D02*
X16061503Y-14170674D01*
X16061503Y-14170674D02*
X16042456Y-14161150D01*
X16042456Y-14161150D02*
X16013884Y-14161150D01*
X16013884Y-14161150D02*
X15994837Y-14170674D01*
X15994837Y-14170674D02*
X15985313Y-14180198D01*
X16194837Y-14294484D02*
X16175789Y-14284960D01*
X16175789Y-14284960D02*
X16166265Y-14275436D01*
X16166265Y-14275436D02*
X16156741Y-14256388D01*
X16156741Y-14256388D02*
X16156741Y-14199246D01*
X16156741Y-14199246D02*
X16166265Y-14180198D01*
X16166265Y-14180198D02*
X16175789Y-14170674D01*
X16175789Y-14170674D02*
X16194837Y-14161150D01*
X16194837Y-14161150D02*
X16223408Y-14161150D01*
X16223408Y-14161150D02*
X16242456Y-14170674D01*
X16242456Y-14170674D02*
X16251980Y-14180198D01*
X16251980Y-14180198D02*
X16261503Y-14199246D01*
X16261503Y-14199246D02*
X16261503Y-14256388D01*
X16261503Y-14256388D02*
X16251980Y-14275436D01*
X16251980Y-14275436D02*
X16242456Y-14284960D01*
X16242456Y-14284960D02*
X16223408Y-14294484D01*
X16223408Y-14294484D02*
X16194837Y-14294484D01*
X16375789Y-14294484D02*
X16356741Y-14284960D01*
X16356741Y-14284960D02*
X16347218Y-14265912D01*
X16347218Y-14265912D02*
X16347218Y-14094484D01*
X16528170Y-14284960D02*
X16509122Y-14294484D01*
X16509122Y-14294484D02*
X16471027Y-14294484D01*
X16471027Y-14294484D02*
X16451980Y-14284960D01*
X16451980Y-14284960D02*
X16442456Y-14265912D01*
X16442456Y-14265912D02*
X16442456Y-14189722D01*
X16442456Y-14189722D02*
X16451980Y-14170674D01*
X16451980Y-14170674D02*
X16471027Y-14161150D01*
X16471027Y-14161150D02*
X16509122Y-14161150D01*
X16509122Y-14161150D02*
X16528170Y-14170674D01*
X16528170Y-14170674D02*
X16537694Y-14189722D01*
X16537694Y-14189722D02*
X16537694Y-14208769D01*
X16537694Y-14208769D02*
X16442456Y-14227817D01*
X16613884Y-14284960D02*
X16632932Y-14294484D01*
X16632932Y-14294484D02*
X16671027Y-14294484D01*
X16671027Y-14294484D02*
X16690075Y-14284960D01*
X16690075Y-14284960D02*
X16699599Y-14265912D01*
X16699599Y-14265912D02*
X16699599Y-14256388D01*
X16699599Y-14256388D02*
X16690075Y-14237341D01*
X16690075Y-14237341D02*
X16671027Y-14227817D01*
X16671027Y-14227817D02*
X16642456Y-14227817D01*
X16642456Y-14227817D02*
X16623408Y-14218293D01*
X16623408Y-14218293D02*
X16613884Y-14199246D01*
X16613884Y-14199246D02*
X16613884Y-14189722D01*
X16613884Y-14189722D02*
X16623408Y-14170674D01*
X16623408Y-14170674D02*
X16642456Y-14161150D01*
X16642456Y-14161150D02*
X16671027Y-14161150D01*
X16671027Y-14161150D02*
X16690075Y-14170674D01*
X16766265Y-14370674D02*
X16775789Y-14361150D01*
X16775789Y-14361150D02*
X16794837Y-14332579D01*
X16794837Y-14332579D02*
X16804361Y-14313531D01*
X16804361Y-14313531D02*
X16813884Y-14284960D01*
X16813884Y-14284960D02*
X16823408Y-14237341D01*
X16823408Y-14237341D02*
X16823408Y-14199246D01*
X16823408Y-14199246D02*
X16813884Y-14151627D01*
X16813884Y-14151627D02*
X16804361Y-14123055D01*
X16804361Y-14123055D02*
X16794837Y-14104008D01*
X16794837Y-14104008D02*
X16775789Y-14075436D01*
X16775789Y-14075436D02*
X16766265Y-14065912D01*
D11*
X11577750Y-14499500D02*
X11610250Y-14467000D01*
X11577750Y-14434500D01*
X11545250Y-14467000D01*
X11577750Y-14499500D01*
D10*
X11909122Y-14358484D02*
X11928170Y-14358484D01*
X11928170Y-14358484D02*
X11947217Y-14368008D01*
X11947217Y-14368008D02*
X11956741Y-14377531D01*
X11956741Y-14377531D02*
X11966265Y-14396579D01*
X11966265Y-14396579D02*
X11975789Y-14434674D01*
X11975789Y-14434674D02*
X11975789Y-14482293D01*
X11975789Y-14482293D02*
X11966265Y-14520388D01*
X11966265Y-14520388D02*
X11956741Y-14539436D01*
X11956741Y-14539436D02*
X11947217Y-14548960D01*
X11947217Y-14548960D02*
X11928170Y-14558484D01*
X11928170Y-14558484D02*
X11909122Y-14558484D01*
X11909122Y-14558484D02*
X11890074Y-14548960D01*
X11890074Y-14548960D02*
X11880551Y-14539436D01*
X11880551Y-14539436D02*
X11871027Y-14520388D01*
X11871027Y-14520388D02*
X11861503Y-14482293D01*
X11861503Y-14482293D02*
X11861503Y-14434674D01*
X11861503Y-14434674D02*
X11871027Y-14396579D01*
X11871027Y-14396579D02*
X11880551Y-14377531D01*
X11880551Y-14377531D02*
X11890074Y-14368008D01*
X11890074Y-14368008D02*
X11909122Y-14358484D01*
X12061503Y-14539436D02*
X12071027Y-14548960D01*
X12071027Y-14548960D02*
X12061503Y-14558484D01*
X12061503Y-14558484D02*
X12051979Y-14548960D01*
X12051979Y-14548960D02*
X12061503Y-14539436D01*
X12061503Y-14539436D02*
X12061503Y-14558484D01*
X12242455Y-14358484D02*
X12204360Y-14358484D01*
X12204360Y-14358484D02*
X12185312Y-14368008D01*
X12185312Y-14368008D02*
X12175789Y-14377531D01*
X12175789Y-14377531D02*
X12156741Y-14406103D01*
X12156741Y-14406103D02*
X12147217Y-14444198D01*
X12147217Y-14444198D02*
X12147217Y-14520388D01*
X12147217Y-14520388D02*
X12156741Y-14539436D01*
X12156741Y-14539436D02*
X12166265Y-14548960D01*
X12166265Y-14548960D02*
X12185312Y-14558484D01*
X12185312Y-14558484D02*
X12223408Y-14558484D01*
X12223408Y-14558484D02*
X12242455Y-14548960D01*
X12242455Y-14548960D02*
X12251979Y-14539436D01*
X12251979Y-14539436D02*
X12261503Y-14520388D01*
X12261503Y-14520388D02*
X12261503Y-14472769D01*
X12261503Y-14472769D02*
X12251979Y-14453722D01*
X12251979Y-14453722D02*
X12242455Y-14444198D01*
X12242455Y-14444198D02*
X12223408Y-14434674D01*
X12223408Y-14434674D02*
X12185312Y-14434674D01*
X12185312Y-14434674D02*
X12166265Y-14444198D01*
X12166265Y-14444198D02*
X12156741Y-14453722D01*
X12156741Y-14453722D02*
X12147217Y-14472769D01*
X12442455Y-14358484D02*
X12347217Y-14358484D01*
X12347217Y-14358484D02*
X12337693Y-14453722D01*
X12337693Y-14453722D02*
X12347217Y-14444198D01*
X12347217Y-14444198D02*
X12366265Y-14434674D01*
X12366265Y-14434674D02*
X12413884Y-14434674D01*
X12413884Y-14434674D02*
X12432932Y-14444198D01*
X12432932Y-14444198D02*
X12442455Y-14453722D01*
X12442455Y-14453722D02*
X12451979Y-14472769D01*
X12451979Y-14472769D02*
X12451979Y-14520388D01*
X12451979Y-14520388D02*
X12442455Y-14539436D01*
X12442455Y-14539436D02*
X12432932Y-14548960D01*
X12432932Y-14548960D02*
X12413884Y-14558484D01*
X12413884Y-14558484D02*
X12366265Y-14558484D01*
X12366265Y-14558484D02*
X12347217Y-14548960D01*
X12347217Y-14548960D02*
X12337693Y-14539436D01*
X12575789Y-14358484D02*
X12594836Y-14358484D01*
X12594836Y-14358484D02*
X12613884Y-14368008D01*
X12613884Y-14368008D02*
X12623408Y-14377531D01*
X12623408Y-14377531D02*
X12632932Y-14396579D01*
X12632932Y-14396579D02*
X12642455Y-14434674D01*
X12642455Y-14434674D02*
X12642455Y-14482293D01*
X12642455Y-14482293D02*
X12632932Y-14520388D01*
X12632932Y-14520388D02*
X12623408Y-14539436D01*
X12623408Y-14539436D02*
X12613884Y-14548960D01*
X12613884Y-14548960D02*
X12594836Y-14558484D01*
X12594836Y-14558484D02*
X12575789Y-14558484D01*
X12575789Y-14558484D02*
X12556741Y-14548960D01*
X12556741Y-14548960D02*
X12547217Y-14539436D01*
X12547217Y-14539436D02*
X12537693Y-14520388D01*
X12537693Y-14520388D02*
X12528170Y-14482293D01*
X12528170Y-14482293D02*
X12528170Y-14434674D01*
X12528170Y-14434674D02*
X12537693Y-14396579D01*
X12537693Y-14396579D02*
X12547217Y-14377531D01*
X12547217Y-14377531D02*
X12556741Y-14368008D01*
X12556741Y-14368008D02*
X12575789Y-14358484D01*
X12728170Y-14558484D02*
X12728170Y-14425150D01*
X12728170Y-14444198D02*
X12737693Y-14434674D01*
X12737693Y-14434674D02*
X12756741Y-14425150D01*
X12756741Y-14425150D02*
X12785313Y-14425150D01*
X12785313Y-14425150D02*
X12804360Y-14434674D01*
X12804360Y-14434674D02*
X12813884Y-14453722D01*
X12813884Y-14453722D02*
X12813884Y-14558484D01*
X12813884Y-14453722D02*
X12823408Y-14434674D01*
X12823408Y-14434674D02*
X12842455Y-14425150D01*
X12842455Y-14425150D02*
X12871027Y-14425150D01*
X12871027Y-14425150D02*
X12890074Y-14434674D01*
X12890074Y-14434674D02*
X12899598Y-14453722D01*
X12899598Y-14453722D02*
X12899598Y-14558484D01*
X12994836Y-14558484D02*
X12994836Y-14425150D01*
X12994836Y-14444198D02*
X13004360Y-14434674D01*
X13004360Y-14434674D02*
X13023408Y-14425150D01*
X13023408Y-14425150D02*
X13051979Y-14425150D01*
X13051979Y-14425150D02*
X13071027Y-14434674D01*
X13071027Y-14434674D02*
X13080551Y-14453722D01*
X13080551Y-14453722D02*
X13080551Y-14558484D01*
X13080551Y-14453722D02*
X13090074Y-14434674D01*
X13090074Y-14434674D02*
X13109122Y-14425150D01*
X13109122Y-14425150D02*
X13137693Y-14425150D01*
X13137693Y-14425150D02*
X13156741Y-14434674D01*
X13156741Y-14434674D02*
X13166265Y-14453722D01*
X13166265Y-14453722D02*
X13166265Y-14558484D01*
X13556741Y-14348960D02*
X13385313Y-14606103D01*
X13813884Y-14358484D02*
X13832932Y-14358484D01*
X13832932Y-14358484D02*
X13851979Y-14368008D01*
X13851979Y-14368008D02*
X13861503Y-14377531D01*
X13861503Y-14377531D02*
X13871027Y-14396579D01*
X13871027Y-14396579D02*
X13880551Y-14434674D01*
X13880551Y-14434674D02*
X13880551Y-14482293D01*
X13880551Y-14482293D02*
X13871027Y-14520388D01*
X13871027Y-14520388D02*
X13861503Y-14539436D01*
X13861503Y-14539436D02*
X13851979Y-14548960D01*
X13851979Y-14548960D02*
X13832932Y-14558484D01*
X13832932Y-14558484D02*
X13813884Y-14558484D01*
X13813884Y-14558484D02*
X13794836Y-14548960D01*
X13794836Y-14548960D02*
X13785313Y-14539436D01*
X13785313Y-14539436D02*
X13775789Y-14520388D01*
X13775789Y-14520388D02*
X13766265Y-14482293D01*
X13766265Y-14482293D02*
X13766265Y-14434674D01*
X13766265Y-14434674D02*
X13775789Y-14396579D01*
X13775789Y-14396579D02*
X13785313Y-14377531D01*
X13785313Y-14377531D02*
X13794836Y-14368008D01*
X13794836Y-14368008D02*
X13813884Y-14358484D01*
X13966265Y-14539436D02*
X13975789Y-14548960D01*
X13975789Y-14548960D02*
X13966265Y-14558484D01*
X13966265Y-14558484D02*
X13956741Y-14548960D01*
X13956741Y-14548960D02*
X13966265Y-14539436D01*
X13966265Y-14539436D02*
X13966265Y-14558484D01*
X14099598Y-14358484D02*
X14118646Y-14358484D01*
X14118646Y-14358484D02*
X14137694Y-14368008D01*
X14137694Y-14368008D02*
X14147217Y-14377531D01*
X14147217Y-14377531D02*
X14156741Y-14396579D01*
X14156741Y-14396579D02*
X14166265Y-14434674D01*
X14166265Y-14434674D02*
X14166265Y-14482293D01*
X14166265Y-14482293D02*
X14156741Y-14520388D01*
X14156741Y-14520388D02*
X14147217Y-14539436D01*
X14147217Y-14539436D02*
X14137694Y-14548960D01*
X14137694Y-14548960D02*
X14118646Y-14558484D01*
X14118646Y-14558484D02*
X14099598Y-14558484D01*
X14099598Y-14558484D02*
X14080551Y-14548960D01*
X14080551Y-14548960D02*
X14071027Y-14539436D01*
X14071027Y-14539436D02*
X14061503Y-14520388D01*
X14061503Y-14520388D02*
X14051979Y-14482293D01*
X14051979Y-14482293D02*
X14051979Y-14434674D01*
X14051979Y-14434674D02*
X14061503Y-14396579D01*
X14061503Y-14396579D02*
X14071027Y-14377531D01*
X14071027Y-14377531D02*
X14080551Y-14368008D01*
X14080551Y-14368008D02*
X14099598Y-14358484D01*
X14242456Y-14377531D02*
X14251979Y-14368008D01*
X14251979Y-14368008D02*
X14271027Y-14358484D01*
X14271027Y-14358484D02*
X14318646Y-14358484D01*
X14318646Y-14358484D02*
X14337694Y-14368008D01*
X14337694Y-14368008D02*
X14347217Y-14377531D01*
X14347217Y-14377531D02*
X14356741Y-14396579D01*
X14356741Y-14396579D02*
X14356741Y-14415627D01*
X14356741Y-14415627D02*
X14347217Y-14444198D01*
X14347217Y-14444198D02*
X14232932Y-14558484D01*
X14232932Y-14558484D02*
X14356741Y-14558484D01*
X14537694Y-14358484D02*
X14442456Y-14358484D01*
X14442456Y-14358484D02*
X14432932Y-14453722D01*
X14432932Y-14453722D02*
X14442456Y-14444198D01*
X14442456Y-14444198D02*
X14461503Y-14434674D01*
X14461503Y-14434674D02*
X14509122Y-14434674D01*
X14509122Y-14434674D02*
X14528170Y-14444198D01*
X14528170Y-14444198D02*
X14537694Y-14453722D01*
X14537694Y-14453722D02*
X14547217Y-14472769D01*
X14547217Y-14472769D02*
X14547217Y-14520388D01*
X14547217Y-14520388D02*
X14537694Y-14539436D01*
X14537694Y-14539436D02*
X14528170Y-14548960D01*
X14528170Y-14548960D02*
X14509122Y-14558484D01*
X14509122Y-14558484D02*
X14461503Y-14558484D01*
X14461503Y-14558484D02*
X14442456Y-14548960D01*
X14442456Y-14548960D02*
X14432932Y-14539436D01*
X14718646Y-14358484D02*
X14680551Y-14358484D01*
X14680551Y-14358484D02*
X14661503Y-14368008D01*
X14661503Y-14368008D02*
X14651979Y-14377531D01*
X14651979Y-14377531D02*
X14632932Y-14406103D01*
X14632932Y-14406103D02*
X14623408Y-14444198D01*
X14623408Y-14444198D02*
X14623408Y-14520388D01*
X14623408Y-14520388D02*
X14632932Y-14539436D01*
X14632932Y-14539436D02*
X14642456Y-14548960D01*
X14642456Y-14548960D02*
X14661503Y-14558484D01*
X14661503Y-14558484D02*
X14699598Y-14558484D01*
X14699598Y-14558484D02*
X14718646Y-14548960D01*
X14718646Y-14548960D02*
X14728170Y-14539436D01*
X14728170Y-14539436D02*
X14737694Y-14520388D01*
X14737694Y-14520388D02*
X14737694Y-14472769D01*
X14737694Y-14472769D02*
X14728170Y-14453722D01*
X14728170Y-14453722D02*
X14718646Y-14444198D01*
X14718646Y-14444198D02*
X14699598Y-14434674D01*
X14699598Y-14434674D02*
X14661503Y-14434674D01*
X14661503Y-14434674D02*
X14642456Y-14444198D01*
X14642456Y-14444198D02*
X14632932Y-14453722D01*
X14632932Y-14453722D02*
X14623408Y-14472769D01*
X14813884Y-14358484D02*
X14813884Y-14396579D01*
X14890075Y-14358484D02*
X14890075Y-14396579D01*
X15185313Y-14634674D02*
X15175789Y-14625150D01*
X15175789Y-14625150D02*
X15156741Y-14596579D01*
X15156741Y-14596579D02*
X15147218Y-14577531D01*
X15147218Y-14577531D02*
X15137694Y-14548960D01*
X15137694Y-14548960D02*
X15128170Y-14501341D01*
X15128170Y-14501341D02*
X15128170Y-14463246D01*
X15128170Y-14463246D02*
X15137694Y-14415627D01*
X15137694Y-14415627D02*
X15147218Y-14387055D01*
X15147218Y-14387055D02*
X15156741Y-14368008D01*
X15156741Y-14368008D02*
X15175789Y-14339436D01*
X15175789Y-14339436D02*
X15185313Y-14329912D01*
X15299598Y-14358484D02*
X15318646Y-14358484D01*
X15318646Y-14358484D02*
X15337694Y-14368008D01*
X15337694Y-14368008D02*
X15347218Y-14377531D01*
X15347218Y-14377531D02*
X15356741Y-14396579D01*
X15356741Y-14396579D02*
X15366265Y-14434674D01*
X15366265Y-14434674D02*
X15366265Y-14482293D01*
X15366265Y-14482293D02*
X15356741Y-14520388D01*
X15356741Y-14520388D02*
X15347218Y-14539436D01*
X15347218Y-14539436D02*
X15337694Y-14548960D01*
X15337694Y-14548960D02*
X15318646Y-14558484D01*
X15318646Y-14558484D02*
X15299598Y-14558484D01*
X15299598Y-14558484D02*
X15280551Y-14548960D01*
X15280551Y-14548960D02*
X15271027Y-14539436D01*
X15271027Y-14539436D02*
X15261503Y-14520388D01*
X15261503Y-14520388D02*
X15251979Y-14482293D01*
X15251979Y-14482293D02*
X15251979Y-14434674D01*
X15251979Y-14434674D02*
X15261503Y-14396579D01*
X15261503Y-14396579D02*
X15271027Y-14377531D01*
X15271027Y-14377531D02*
X15280551Y-14368008D01*
X15280551Y-14368008D02*
X15299598Y-14358484D01*
X15604360Y-14558484D02*
X15604360Y-14358484D01*
X15690075Y-14558484D02*
X15690075Y-14453722D01*
X15690075Y-14453722D02*
X15680551Y-14434674D01*
X15680551Y-14434674D02*
X15661503Y-14425150D01*
X15661503Y-14425150D02*
X15632932Y-14425150D01*
X15632932Y-14425150D02*
X15613884Y-14434674D01*
X15613884Y-14434674D02*
X15604360Y-14444198D01*
X15813884Y-14558484D02*
X15794837Y-14548960D01*
X15794837Y-14548960D02*
X15785313Y-14539436D01*
X15785313Y-14539436D02*
X15775789Y-14520388D01*
X15775789Y-14520388D02*
X15775789Y-14463246D01*
X15775789Y-14463246D02*
X15785313Y-14444198D01*
X15785313Y-14444198D02*
X15794837Y-14434674D01*
X15794837Y-14434674D02*
X15813884Y-14425150D01*
X15813884Y-14425150D02*
X15842456Y-14425150D01*
X15842456Y-14425150D02*
X15861503Y-14434674D01*
X15861503Y-14434674D02*
X15871027Y-14444198D01*
X15871027Y-14444198D02*
X15880551Y-14463246D01*
X15880551Y-14463246D02*
X15880551Y-14520388D01*
X15880551Y-14520388D02*
X15871027Y-14539436D01*
X15871027Y-14539436D02*
X15861503Y-14548960D01*
X15861503Y-14548960D02*
X15842456Y-14558484D01*
X15842456Y-14558484D02*
X15813884Y-14558484D01*
X15994837Y-14558484D02*
X15975789Y-14548960D01*
X15975789Y-14548960D02*
X15966265Y-14529912D01*
X15966265Y-14529912D02*
X15966265Y-14358484D01*
X16147218Y-14548960D02*
X16128170Y-14558484D01*
X16128170Y-14558484D02*
X16090075Y-14558484D01*
X16090075Y-14558484D02*
X16071027Y-14548960D01*
X16071027Y-14548960D02*
X16061503Y-14529912D01*
X16061503Y-14529912D02*
X16061503Y-14453722D01*
X16061503Y-14453722D02*
X16071027Y-14434674D01*
X16071027Y-14434674D02*
X16090075Y-14425150D01*
X16090075Y-14425150D02*
X16128170Y-14425150D01*
X16128170Y-14425150D02*
X16147218Y-14434674D01*
X16147218Y-14434674D02*
X16156741Y-14453722D01*
X16156741Y-14453722D02*
X16156741Y-14472769D01*
X16156741Y-14472769D02*
X16061503Y-14491817D01*
X16232932Y-14548960D02*
X16251980Y-14558484D01*
X16251980Y-14558484D02*
X16290075Y-14558484D01*
X16290075Y-14558484D02*
X16309122Y-14548960D01*
X16309122Y-14548960D02*
X16318646Y-14529912D01*
X16318646Y-14529912D02*
X16318646Y-14520388D01*
X16318646Y-14520388D02*
X16309122Y-14501341D01*
X16309122Y-14501341D02*
X16290075Y-14491817D01*
X16290075Y-14491817D02*
X16261503Y-14491817D01*
X16261503Y-14491817D02*
X16242456Y-14482293D01*
X16242456Y-14482293D02*
X16232932Y-14463246D01*
X16232932Y-14463246D02*
X16232932Y-14453722D01*
X16232932Y-14453722D02*
X16242456Y-14434674D01*
X16242456Y-14434674D02*
X16261503Y-14425150D01*
X16261503Y-14425150D02*
X16290075Y-14425150D01*
X16290075Y-14425150D02*
X16309122Y-14434674D01*
X16556742Y-14482293D02*
X16709123Y-14482293D01*
X16632932Y-14558484D02*
X16632932Y-14406103D01*
X17042456Y-14358484D02*
X17004361Y-14358484D01*
X17004361Y-14358484D02*
X16985313Y-14368008D01*
X16985313Y-14368008D02*
X16975789Y-14377531D01*
X16975789Y-14377531D02*
X16956742Y-14406103D01*
X16956742Y-14406103D02*
X16947218Y-14444198D01*
X16947218Y-14444198D02*
X16947218Y-14520388D01*
X16947218Y-14520388D02*
X16956742Y-14539436D01*
X16956742Y-14539436D02*
X16966265Y-14548960D01*
X16966265Y-14548960D02*
X16985313Y-14558484D01*
X16985313Y-14558484D02*
X17023408Y-14558484D01*
X17023408Y-14558484D02*
X17042456Y-14548960D01*
X17042456Y-14548960D02*
X17051980Y-14539436D01*
X17051980Y-14539436D02*
X17061504Y-14520388D01*
X17061504Y-14520388D02*
X17061504Y-14472769D01*
X17061504Y-14472769D02*
X17051980Y-14453722D01*
X17051980Y-14453722D02*
X17042456Y-14444198D01*
X17042456Y-14444198D02*
X17023408Y-14434674D01*
X17023408Y-14434674D02*
X16985313Y-14434674D01*
X16985313Y-14434674D02*
X16966265Y-14444198D01*
X16966265Y-14444198D02*
X16956742Y-14453722D01*
X16956742Y-14453722D02*
X16947218Y-14472769D01*
X17290075Y-14548960D02*
X17309123Y-14558484D01*
X17309123Y-14558484D02*
X17347218Y-14558484D01*
X17347218Y-14558484D02*
X17366266Y-14548960D01*
X17366266Y-14548960D02*
X17375789Y-14529912D01*
X17375789Y-14529912D02*
X17375789Y-14520388D01*
X17375789Y-14520388D02*
X17366266Y-14501341D01*
X17366266Y-14501341D02*
X17347218Y-14491817D01*
X17347218Y-14491817D02*
X17318646Y-14491817D01*
X17318646Y-14491817D02*
X17299599Y-14482293D01*
X17299599Y-14482293D02*
X17290075Y-14463246D01*
X17290075Y-14463246D02*
X17290075Y-14453722D01*
X17290075Y-14453722D02*
X17299599Y-14434674D01*
X17299599Y-14434674D02*
X17318646Y-14425150D01*
X17318646Y-14425150D02*
X17347218Y-14425150D01*
X17347218Y-14425150D02*
X17366266Y-14434674D01*
X17490075Y-14558484D02*
X17471027Y-14548960D01*
X17471027Y-14548960D02*
X17461504Y-14529912D01*
X17461504Y-14529912D02*
X17461504Y-14358484D01*
X17594837Y-14558484D02*
X17575789Y-14548960D01*
X17575789Y-14548960D02*
X17566266Y-14539436D01*
X17566266Y-14539436D02*
X17556742Y-14520388D01*
X17556742Y-14520388D02*
X17556742Y-14463246D01*
X17556742Y-14463246D02*
X17566266Y-14444198D01*
X17566266Y-14444198D02*
X17575789Y-14434674D01*
X17575789Y-14434674D02*
X17594837Y-14425150D01*
X17594837Y-14425150D02*
X17623408Y-14425150D01*
X17623408Y-14425150D02*
X17642456Y-14434674D01*
X17642456Y-14434674D02*
X17651980Y-14444198D01*
X17651980Y-14444198D02*
X17661504Y-14463246D01*
X17661504Y-14463246D02*
X17661504Y-14520388D01*
X17661504Y-14520388D02*
X17651980Y-14539436D01*
X17651980Y-14539436D02*
X17642456Y-14548960D01*
X17642456Y-14548960D02*
X17623408Y-14558484D01*
X17623408Y-14558484D02*
X17594837Y-14558484D01*
X17718647Y-14425150D02*
X17794837Y-14425150D01*
X17747218Y-14358484D02*
X17747218Y-14529912D01*
X17747218Y-14529912D02*
X17756742Y-14548960D01*
X17756742Y-14548960D02*
X17775789Y-14558484D01*
X17775789Y-14558484D02*
X17794837Y-14558484D01*
X17851980Y-14548960D02*
X17871027Y-14558484D01*
X17871027Y-14558484D02*
X17909123Y-14558484D01*
X17909123Y-14558484D02*
X17928170Y-14548960D01*
X17928170Y-14548960D02*
X17937694Y-14529912D01*
X17937694Y-14529912D02*
X17937694Y-14520388D01*
X17937694Y-14520388D02*
X17928170Y-14501341D01*
X17928170Y-14501341D02*
X17909123Y-14491817D01*
X17909123Y-14491817D02*
X17880551Y-14491817D01*
X17880551Y-14491817D02*
X17861504Y-14482293D01*
X17861504Y-14482293D02*
X17851980Y-14463246D01*
X17851980Y-14463246D02*
X17851980Y-14453722D01*
X17851980Y-14453722D02*
X17861504Y-14434674D01*
X17861504Y-14434674D02*
X17880551Y-14425150D01*
X17880551Y-14425150D02*
X17909123Y-14425150D01*
X17909123Y-14425150D02*
X17928170Y-14434674D01*
X18004361Y-14634674D02*
X18013885Y-14625150D01*
X18013885Y-14625150D02*
X18032932Y-14596579D01*
X18032932Y-14596579D02*
X18042456Y-14577531D01*
X18042456Y-14577531D02*
X18051980Y-14548960D01*
X18051980Y-14548960D02*
X18061504Y-14501341D01*
X18061504Y-14501341D02*
X18061504Y-14463246D01*
X18061504Y-14463246D02*
X18051980Y-14415627D01*
X18051980Y-14415627D02*
X18042456Y-14387055D01*
X18042456Y-14387055D02*
X18032932Y-14368008D01*
X18032932Y-14368008D02*
X18013885Y-14339436D01*
X18013885Y-14339436D02*
X18004361Y-14329912D01*
D11*
X11544750Y-14698250D02*
X11610250Y-14763750D01*
X11610250Y-14698250D02*
X11544750Y-14763750D01*
X11610250Y-14731000D02*
G75*
G02*
X11544750Y-14731000I-32750J0D01*
G01*
X11544750Y-14731000D02*
G75*
G02*
X11610250Y-14731000I32750J0D01*
G01*
D10*
X11909122Y-14622484D02*
X11928170Y-14622484D01*
X11928170Y-14622484D02*
X11947217Y-14632008D01*
X11947217Y-14632008D02*
X11956741Y-14641531D01*
X11956741Y-14641531D02*
X11966265Y-14660579D01*
X11966265Y-14660579D02*
X11975789Y-14698674D01*
X11975789Y-14698674D02*
X11975789Y-14746293D01*
X11975789Y-14746293D02*
X11966265Y-14784388D01*
X11966265Y-14784388D02*
X11956741Y-14803436D01*
X11956741Y-14803436D02*
X11947217Y-14812960D01*
X11947217Y-14812960D02*
X11928170Y-14822484D01*
X11928170Y-14822484D02*
X11909122Y-14822484D01*
X11909122Y-14822484D02*
X11890074Y-14812960D01*
X11890074Y-14812960D02*
X11880551Y-14803436D01*
X11880551Y-14803436D02*
X11871027Y-14784388D01*
X11871027Y-14784388D02*
X11861503Y-14746293D01*
X11861503Y-14746293D02*
X11861503Y-14698674D01*
X11861503Y-14698674D02*
X11871027Y-14660579D01*
X11871027Y-14660579D02*
X11880551Y-14641531D01*
X11880551Y-14641531D02*
X11890074Y-14632008D01*
X11890074Y-14632008D02*
X11909122Y-14622484D01*
X12061503Y-14803436D02*
X12071027Y-14812960D01*
X12071027Y-14812960D02*
X12061503Y-14822484D01*
X12061503Y-14822484D02*
X12051979Y-14812960D01*
X12051979Y-14812960D02*
X12061503Y-14803436D01*
X12061503Y-14803436D02*
X12061503Y-14822484D01*
X12242455Y-14622484D02*
X12204360Y-14622484D01*
X12204360Y-14622484D02*
X12185312Y-14632008D01*
X12185312Y-14632008D02*
X12175789Y-14641531D01*
X12175789Y-14641531D02*
X12156741Y-14670103D01*
X12156741Y-14670103D02*
X12147217Y-14708198D01*
X12147217Y-14708198D02*
X12147217Y-14784388D01*
X12147217Y-14784388D02*
X12156741Y-14803436D01*
X12156741Y-14803436D02*
X12166265Y-14812960D01*
X12166265Y-14812960D02*
X12185312Y-14822484D01*
X12185312Y-14822484D02*
X12223408Y-14822484D01*
X12223408Y-14822484D02*
X12242455Y-14812960D01*
X12242455Y-14812960D02*
X12251979Y-14803436D01*
X12251979Y-14803436D02*
X12261503Y-14784388D01*
X12261503Y-14784388D02*
X12261503Y-14736769D01*
X12261503Y-14736769D02*
X12251979Y-14717722D01*
X12251979Y-14717722D02*
X12242455Y-14708198D01*
X12242455Y-14708198D02*
X12223408Y-14698674D01*
X12223408Y-14698674D02*
X12185312Y-14698674D01*
X12185312Y-14698674D02*
X12166265Y-14708198D01*
X12166265Y-14708198D02*
X12156741Y-14717722D01*
X12156741Y-14717722D02*
X12147217Y-14736769D01*
X12442455Y-14622484D02*
X12347217Y-14622484D01*
X12347217Y-14622484D02*
X12337693Y-14717722D01*
X12337693Y-14717722D02*
X12347217Y-14708198D01*
X12347217Y-14708198D02*
X12366265Y-14698674D01*
X12366265Y-14698674D02*
X12413884Y-14698674D01*
X12413884Y-14698674D02*
X12432932Y-14708198D01*
X12432932Y-14708198D02*
X12442455Y-14717722D01*
X12442455Y-14717722D02*
X12451979Y-14736769D01*
X12451979Y-14736769D02*
X12451979Y-14784388D01*
X12451979Y-14784388D02*
X12442455Y-14803436D01*
X12442455Y-14803436D02*
X12432932Y-14812960D01*
X12432932Y-14812960D02*
X12413884Y-14822484D01*
X12413884Y-14822484D02*
X12366265Y-14822484D01*
X12366265Y-14822484D02*
X12347217Y-14812960D01*
X12347217Y-14812960D02*
X12337693Y-14803436D01*
X12632932Y-14622484D02*
X12537693Y-14622484D01*
X12537693Y-14622484D02*
X12528170Y-14717722D01*
X12528170Y-14717722D02*
X12537693Y-14708198D01*
X12537693Y-14708198D02*
X12556741Y-14698674D01*
X12556741Y-14698674D02*
X12604360Y-14698674D01*
X12604360Y-14698674D02*
X12623408Y-14708198D01*
X12623408Y-14708198D02*
X12632932Y-14717722D01*
X12632932Y-14717722D02*
X12642455Y-14736769D01*
X12642455Y-14736769D02*
X12642455Y-14784388D01*
X12642455Y-14784388D02*
X12632932Y-14803436D01*
X12632932Y-14803436D02*
X12623408Y-14812960D01*
X12623408Y-14812960D02*
X12604360Y-14822484D01*
X12604360Y-14822484D02*
X12556741Y-14822484D01*
X12556741Y-14822484D02*
X12537693Y-14812960D01*
X12537693Y-14812960D02*
X12528170Y-14803436D01*
X12728170Y-14822484D02*
X12728170Y-14689150D01*
X12728170Y-14708198D02*
X12737693Y-14698674D01*
X12737693Y-14698674D02*
X12756741Y-14689150D01*
X12756741Y-14689150D02*
X12785313Y-14689150D01*
X12785313Y-14689150D02*
X12804360Y-14698674D01*
X12804360Y-14698674D02*
X12813884Y-14717722D01*
X12813884Y-14717722D02*
X12813884Y-14822484D01*
X12813884Y-14717722D02*
X12823408Y-14698674D01*
X12823408Y-14698674D02*
X12842455Y-14689150D01*
X12842455Y-14689150D02*
X12871027Y-14689150D01*
X12871027Y-14689150D02*
X12890074Y-14698674D01*
X12890074Y-14698674D02*
X12899598Y-14717722D01*
X12899598Y-14717722D02*
X12899598Y-14822484D01*
X12994836Y-14822484D02*
X12994836Y-14689150D01*
X12994836Y-14708198D02*
X13004360Y-14698674D01*
X13004360Y-14698674D02*
X13023408Y-14689150D01*
X13023408Y-14689150D02*
X13051979Y-14689150D01*
X13051979Y-14689150D02*
X13071027Y-14698674D01*
X13071027Y-14698674D02*
X13080551Y-14717722D01*
X13080551Y-14717722D02*
X13080551Y-14822484D01*
X13080551Y-14717722D02*
X13090074Y-14698674D01*
X13090074Y-14698674D02*
X13109122Y-14689150D01*
X13109122Y-14689150D02*
X13137693Y-14689150D01*
X13137693Y-14689150D02*
X13156741Y-14698674D01*
X13156741Y-14698674D02*
X13166265Y-14717722D01*
X13166265Y-14717722D02*
X13166265Y-14822484D01*
X13556741Y-14612960D02*
X13385313Y-14870103D01*
X13813884Y-14622484D02*
X13832932Y-14622484D01*
X13832932Y-14622484D02*
X13851979Y-14632008D01*
X13851979Y-14632008D02*
X13861503Y-14641531D01*
X13861503Y-14641531D02*
X13871027Y-14660579D01*
X13871027Y-14660579D02*
X13880551Y-14698674D01*
X13880551Y-14698674D02*
X13880551Y-14746293D01*
X13880551Y-14746293D02*
X13871027Y-14784388D01*
X13871027Y-14784388D02*
X13861503Y-14803436D01*
X13861503Y-14803436D02*
X13851979Y-14812960D01*
X13851979Y-14812960D02*
X13832932Y-14822484D01*
X13832932Y-14822484D02*
X13813884Y-14822484D01*
X13813884Y-14822484D02*
X13794836Y-14812960D01*
X13794836Y-14812960D02*
X13785313Y-14803436D01*
X13785313Y-14803436D02*
X13775789Y-14784388D01*
X13775789Y-14784388D02*
X13766265Y-14746293D01*
X13766265Y-14746293D02*
X13766265Y-14698674D01*
X13766265Y-14698674D02*
X13775789Y-14660579D01*
X13775789Y-14660579D02*
X13785313Y-14641531D01*
X13785313Y-14641531D02*
X13794836Y-14632008D01*
X13794836Y-14632008D02*
X13813884Y-14622484D01*
X13966265Y-14803436D02*
X13975789Y-14812960D01*
X13975789Y-14812960D02*
X13966265Y-14822484D01*
X13966265Y-14822484D02*
X13956741Y-14812960D01*
X13956741Y-14812960D02*
X13966265Y-14803436D01*
X13966265Y-14803436D02*
X13966265Y-14822484D01*
X14099598Y-14622484D02*
X14118646Y-14622484D01*
X14118646Y-14622484D02*
X14137694Y-14632008D01*
X14137694Y-14632008D02*
X14147217Y-14641531D01*
X14147217Y-14641531D02*
X14156741Y-14660579D01*
X14156741Y-14660579D02*
X14166265Y-14698674D01*
X14166265Y-14698674D02*
X14166265Y-14746293D01*
X14166265Y-14746293D02*
X14156741Y-14784388D01*
X14156741Y-14784388D02*
X14147217Y-14803436D01*
X14147217Y-14803436D02*
X14137694Y-14812960D01*
X14137694Y-14812960D02*
X14118646Y-14822484D01*
X14118646Y-14822484D02*
X14099598Y-14822484D01*
X14099598Y-14822484D02*
X14080551Y-14812960D01*
X14080551Y-14812960D02*
X14071027Y-14803436D01*
X14071027Y-14803436D02*
X14061503Y-14784388D01*
X14061503Y-14784388D02*
X14051979Y-14746293D01*
X14051979Y-14746293D02*
X14051979Y-14698674D01*
X14051979Y-14698674D02*
X14061503Y-14660579D01*
X14061503Y-14660579D02*
X14071027Y-14641531D01*
X14071027Y-14641531D02*
X14080551Y-14632008D01*
X14080551Y-14632008D02*
X14099598Y-14622484D01*
X14242456Y-14641531D02*
X14251979Y-14632008D01*
X14251979Y-14632008D02*
X14271027Y-14622484D01*
X14271027Y-14622484D02*
X14318646Y-14622484D01*
X14318646Y-14622484D02*
X14337694Y-14632008D01*
X14337694Y-14632008D02*
X14347217Y-14641531D01*
X14347217Y-14641531D02*
X14356741Y-14660579D01*
X14356741Y-14660579D02*
X14356741Y-14679627D01*
X14356741Y-14679627D02*
X14347217Y-14708198D01*
X14347217Y-14708198D02*
X14232932Y-14822484D01*
X14232932Y-14822484D02*
X14356741Y-14822484D01*
X14537694Y-14622484D02*
X14442456Y-14622484D01*
X14442456Y-14622484D02*
X14432932Y-14717722D01*
X14432932Y-14717722D02*
X14442456Y-14708198D01*
X14442456Y-14708198D02*
X14461503Y-14698674D01*
X14461503Y-14698674D02*
X14509122Y-14698674D01*
X14509122Y-14698674D02*
X14528170Y-14708198D01*
X14528170Y-14708198D02*
X14537694Y-14717722D01*
X14537694Y-14717722D02*
X14547217Y-14736769D01*
X14547217Y-14736769D02*
X14547217Y-14784388D01*
X14547217Y-14784388D02*
X14537694Y-14803436D01*
X14537694Y-14803436D02*
X14528170Y-14812960D01*
X14528170Y-14812960D02*
X14509122Y-14822484D01*
X14509122Y-14822484D02*
X14461503Y-14822484D01*
X14461503Y-14822484D02*
X14442456Y-14812960D01*
X14442456Y-14812960D02*
X14432932Y-14803436D01*
X14661503Y-14708198D02*
X14642456Y-14698674D01*
X14642456Y-14698674D02*
X14632932Y-14689150D01*
X14632932Y-14689150D02*
X14623408Y-14670103D01*
X14623408Y-14670103D02*
X14623408Y-14660579D01*
X14623408Y-14660579D02*
X14632932Y-14641531D01*
X14632932Y-14641531D02*
X14642456Y-14632008D01*
X14642456Y-14632008D02*
X14661503Y-14622484D01*
X14661503Y-14622484D02*
X14699598Y-14622484D01*
X14699598Y-14622484D02*
X14718646Y-14632008D01*
X14718646Y-14632008D02*
X14728170Y-14641531D01*
X14728170Y-14641531D02*
X14737694Y-14660579D01*
X14737694Y-14660579D02*
X14737694Y-14670103D01*
X14737694Y-14670103D02*
X14728170Y-14689150D01*
X14728170Y-14689150D02*
X14718646Y-14698674D01*
X14718646Y-14698674D02*
X14699598Y-14708198D01*
X14699598Y-14708198D02*
X14661503Y-14708198D01*
X14661503Y-14708198D02*
X14642456Y-14717722D01*
X14642456Y-14717722D02*
X14632932Y-14727246D01*
X14632932Y-14727246D02*
X14623408Y-14746293D01*
X14623408Y-14746293D02*
X14623408Y-14784388D01*
X14623408Y-14784388D02*
X14632932Y-14803436D01*
X14632932Y-14803436D02*
X14642456Y-14812960D01*
X14642456Y-14812960D02*
X14661503Y-14822484D01*
X14661503Y-14822484D02*
X14699598Y-14822484D01*
X14699598Y-14822484D02*
X14718646Y-14812960D01*
X14718646Y-14812960D02*
X14728170Y-14803436D01*
X14728170Y-14803436D02*
X14737694Y-14784388D01*
X14737694Y-14784388D02*
X14737694Y-14746293D01*
X14737694Y-14746293D02*
X14728170Y-14727246D01*
X14728170Y-14727246D02*
X14718646Y-14717722D01*
X14718646Y-14717722D02*
X14699598Y-14708198D01*
X14813884Y-14622484D02*
X14813884Y-14660579D01*
X14890075Y-14622484D02*
X14890075Y-14660579D01*
X15185313Y-14898674D02*
X15175789Y-14889150D01*
X15175789Y-14889150D02*
X15156741Y-14860579D01*
X15156741Y-14860579D02*
X15147218Y-14841531D01*
X15147218Y-14841531D02*
X15137694Y-14812960D01*
X15137694Y-14812960D02*
X15128170Y-14765341D01*
X15128170Y-14765341D02*
X15128170Y-14727246D01*
X15128170Y-14727246D02*
X15137694Y-14679627D01*
X15137694Y-14679627D02*
X15147218Y-14651055D01*
X15147218Y-14651055D02*
X15156741Y-14632008D01*
X15156741Y-14632008D02*
X15175789Y-14603436D01*
X15175789Y-14603436D02*
X15185313Y-14593912D01*
X15299598Y-14622484D02*
X15318646Y-14622484D01*
X15318646Y-14622484D02*
X15337694Y-14632008D01*
X15337694Y-14632008D02*
X15347218Y-14641531D01*
X15347218Y-14641531D02*
X15356741Y-14660579D01*
X15356741Y-14660579D02*
X15366265Y-14698674D01*
X15366265Y-14698674D02*
X15366265Y-14746293D01*
X15366265Y-14746293D02*
X15356741Y-14784388D01*
X15356741Y-14784388D02*
X15347218Y-14803436D01*
X15347218Y-14803436D02*
X15337694Y-14812960D01*
X15337694Y-14812960D02*
X15318646Y-14822484D01*
X15318646Y-14822484D02*
X15299598Y-14822484D01*
X15299598Y-14822484D02*
X15280551Y-14812960D01*
X15280551Y-14812960D02*
X15271027Y-14803436D01*
X15271027Y-14803436D02*
X15261503Y-14784388D01*
X15261503Y-14784388D02*
X15251979Y-14746293D01*
X15251979Y-14746293D02*
X15251979Y-14698674D01*
X15251979Y-14698674D02*
X15261503Y-14660579D01*
X15261503Y-14660579D02*
X15271027Y-14641531D01*
X15271027Y-14641531D02*
X15280551Y-14632008D01*
X15280551Y-14632008D02*
X15299598Y-14622484D01*
X15604360Y-14822484D02*
X15604360Y-14622484D01*
X15690075Y-14822484D02*
X15690075Y-14717722D01*
X15690075Y-14717722D02*
X15680551Y-14698674D01*
X15680551Y-14698674D02*
X15661503Y-14689150D01*
X15661503Y-14689150D02*
X15632932Y-14689150D01*
X15632932Y-14689150D02*
X15613884Y-14698674D01*
X15613884Y-14698674D02*
X15604360Y-14708198D01*
X15813884Y-14822484D02*
X15794837Y-14812960D01*
X15794837Y-14812960D02*
X15785313Y-14803436D01*
X15785313Y-14803436D02*
X15775789Y-14784388D01*
X15775789Y-14784388D02*
X15775789Y-14727246D01*
X15775789Y-14727246D02*
X15785313Y-14708198D01*
X15785313Y-14708198D02*
X15794837Y-14698674D01*
X15794837Y-14698674D02*
X15813884Y-14689150D01*
X15813884Y-14689150D02*
X15842456Y-14689150D01*
X15842456Y-14689150D02*
X15861503Y-14698674D01*
X15861503Y-14698674D02*
X15871027Y-14708198D01*
X15871027Y-14708198D02*
X15880551Y-14727246D01*
X15880551Y-14727246D02*
X15880551Y-14784388D01*
X15880551Y-14784388D02*
X15871027Y-14803436D01*
X15871027Y-14803436D02*
X15861503Y-14812960D01*
X15861503Y-14812960D02*
X15842456Y-14822484D01*
X15842456Y-14822484D02*
X15813884Y-14822484D01*
X15994837Y-14822484D02*
X15975789Y-14812960D01*
X15975789Y-14812960D02*
X15966265Y-14793912D01*
X15966265Y-14793912D02*
X15966265Y-14622484D01*
X16147218Y-14812960D02*
X16128170Y-14822484D01*
X16128170Y-14822484D02*
X16090075Y-14822484D01*
X16090075Y-14822484D02*
X16071027Y-14812960D01*
X16071027Y-14812960D02*
X16061503Y-14793912D01*
X16061503Y-14793912D02*
X16061503Y-14717722D01*
X16061503Y-14717722D02*
X16071027Y-14698674D01*
X16071027Y-14698674D02*
X16090075Y-14689150D01*
X16090075Y-14689150D02*
X16128170Y-14689150D01*
X16128170Y-14689150D02*
X16147218Y-14698674D01*
X16147218Y-14698674D02*
X16156741Y-14717722D01*
X16156741Y-14717722D02*
X16156741Y-14736769D01*
X16156741Y-14736769D02*
X16061503Y-14755817D01*
X16232932Y-14812960D02*
X16251980Y-14822484D01*
X16251980Y-14822484D02*
X16290075Y-14822484D01*
X16290075Y-14822484D02*
X16309122Y-14812960D01*
X16309122Y-14812960D02*
X16318646Y-14793912D01*
X16318646Y-14793912D02*
X16318646Y-14784388D01*
X16318646Y-14784388D02*
X16309122Y-14765341D01*
X16309122Y-14765341D02*
X16290075Y-14755817D01*
X16290075Y-14755817D02*
X16261503Y-14755817D01*
X16261503Y-14755817D02*
X16242456Y-14746293D01*
X16242456Y-14746293D02*
X16232932Y-14727246D01*
X16232932Y-14727246D02*
X16232932Y-14717722D01*
X16232932Y-14717722D02*
X16242456Y-14698674D01*
X16242456Y-14698674D02*
X16261503Y-14689150D01*
X16261503Y-14689150D02*
X16290075Y-14689150D01*
X16290075Y-14689150D02*
X16309122Y-14698674D01*
X16556742Y-14746293D02*
X16709123Y-14746293D01*
X16632932Y-14822484D02*
X16632932Y-14670103D01*
X16947218Y-14641531D02*
X16956742Y-14632008D01*
X16956742Y-14632008D02*
X16975789Y-14622484D01*
X16975789Y-14622484D02*
X17023408Y-14622484D01*
X17023408Y-14622484D02*
X17042456Y-14632008D01*
X17042456Y-14632008D02*
X17051980Y-14641531D01*
X17051980Y-14641531D02*
X17061504Y-14660579D01*
X17061504Y-14660579D02*
X17061504Y-14679627D01*
X17061504Y-14679627D02*
X17051980Y-14708198D01*
X17051980Y-14708198D02*
X16937694Y-14822484D01*
X16937694Y-14822484D02*
X17061504Y-14822484D01*
X17290075Y-14812960D02*
X17309123Y-14822484D01*
X17309123Y-14822484D02*
X17347218Y-14822484D01*
X17347218Y-14822484D02*
X17366266Y-14812960D01*
X17366266Y-14812960D02*
X17375789Y-14793912D01*
X17375789Y-14793912D02*
X17375789Y-14784388D01*
X17375789Y-14784388D02*
X17366266Y-14765341D01*
X17366266Y-14765341D02*
X17347218Y-14755817D01*
X17347218Y-14755817D02*
X17318646Y-14755817D01*
X17318646Y-14755817D02*
X17299599Y-14746293D01*
X17299599Y-14746293D02*
X17290075Y-14727246D01*
X17290075Y-14727246D02*
X17290075Y-14717722D01*
X17290075Y-14717722D02*
X17299599Y-14698674D01*
X17299599Y-14698674D02*
X17318646Y-14689150D01*
X17318646Y-14689150D02*
X17347218Y-14689150D01*
X17347218Y-14689150D02*
X17366266Y-14698674D01*
X17490075Y-14822484D02*
X17471027Y-14812960D01*
X17471027Y-14812960D02*
X17461504Y-14793912D01*
X17461504Y-14793912D02*
X17461504Y-14622484D01*
X17594837Y-14822484D02*
X17575789Y-14812960D01*
X17575789Y-14812960D02*
X17566266Y-14803436D01*
X17566266Y-14803436D02*
X17556742Y-14784388D01*
X17556742Y-14784388D02*
X17556742Y-14727246D01*
X17556742Y-14727246D02*
X17566266Y-14708198D01*
X17566266Y-14708198D02*
X17575789Y-14698674D01*
X17575789Y-14698674D02*
X17594837Y-14689150D01*
X17594837Y-14689150D02*
X17623408Y-14689150D01*
X17623408Y-14689150D02*
X17642456Y-14698674D01*
X17642456Y-14698674D02*
X17651980Y-14708198D01*
X17651980Y-14708198D02*
X17661504Y-14727246D01*
X17661504Y-14727246D02*
X17661504Y-14784388D01*
X17661504Y-14784388D02*
X17651980Y-14803436D01*
X17651980Y-14803436D02*
X17642456Y-14812960D01*
X17642456Y-14812960D02*
X17623408Y-14822484D01*
X17623408Y-14822484D02*
X17594837Y-14822484D01*
X17718647Y-14689150D02*
X17794837Y-14689150D01*
X17747218Y-14622484D02*
X17747218Y-14793912D01*
X17747218Y-14793912D02*
X17756742Y-14812960D01*
X17756742Y-14812960D02*
X17775789Y-14822484D01*
X17775789Y-14822484D02*
X17794837Y-14822484D01*
X17851980Y-14812960D02*
X17871027Y-14822484D01*
X17871027Y-14822484D02*
X17909123Y-14822484D01*
X17909123Y-14822484D02*
X17928170Y-14812960D01*
X17928170Y-14812960D02*
X17937694Y-14793912D01*
X17937694Y-14793912D02*
X17937694Y-14784388D01*
X17937694Y-14784388D02*
X17928170Y-14765341D01*
X17928170Y-14765341D02*
X17909123Y-14755817D01*
X17909123Y-14755817D02*
X17880551Y-14755817D01*
X17880551Y-14755817D02*
X17861504Y-14746293D01*
X17861504Y-14746293D02*
X17851980Y-14727246D01*
X17851980Y-14727246D02*
X17851980Y-14717722D01*
X17851980Y-14717722D02*
X17861504Y-14698674D01*
X17861504Y-14698674D02*
X17880551Y-14689150D01*
X17880551Y-14689150D02*
X17909123Y-14689150D01*
X17909123Y-14689150D02*
X17928170Y-14698674D01*
X18004361Y-14898674D02*
X18013885Y-14889150D01*
X18013885Y-14889150D02*
X18032932Y-14860579D01*
X18032932Y-14860579D02*
X18042456Y-14841531D01*
X18042456Y-14841531D02*
X18051980Y-14812960D01*
X18051980Y-14812960D02*
X18061504Y-14765341D01*
X18061504Y-14765341D02*
X18061504Y-14727246D01*
X18061504Y-14727246D02*
X18051980Y-14679627D01*
X18051980Y-14679627D02*
X18042456Y-14651055D01*
X18042456Y-14651055D02*
X18032932Y-14632008D01*
X18032932Y-14632008D02*
X18013885Y-14603436D01*
X18013885Y-14603436D02*
X18004361Y-14593912D01*
D12*
X11480250Y-14930000D02*
X11610250Y-15060000D01*
X11610250Y-14930000D02*
X11480250Y-15060000D01*
X11545250Y-14930000D02*
X11545250Y-15060000D01*
X11480250Y-14995000D02*
X11610250Y-14995000D01*
D10*
X11975789Y-15086484D02*
X11861503Y-15086484D01*
X11918646Y-15086484D02*
X11918646Y-14886484D01*
X11918646Y-14886484D02*
X11899598Y-14915055D01*
X11899598Y-14915055D02*
X11880551Y-14934103D01*
X11880551Y-14934103D02*
X11861503Y-14943627D01*
X12061503Y-15067436D02*
X12071027Y-15076960D01*
X12071027Y-15076960D02*
X12061503Y-15086484D01*
X12061503Y-15086484D02*
X12051979Y-15076960D01*
X12051979Y-15076960D02*
X12061503Y-15067436D01*
X12061503Y-15067436D02*
X12061503Y-15086484D01*
X12137693Y-14886484D02*
X12261503Y-14886484D01*
X12261503Y-14886484D02*
X12194836Y-14962674D01*
X12194836Y-14962674D02*
X12223408Y-14962674D01*
X12223408Y-14962674D02*
X12242455Y-14972198D01*
X12242455Y-14972198D02*
X12251979Y-14981722D01*
X12251979Y-14981722D02*
X12261503Y-15000769D01*
X12261503Y-15000769D02*
X12261503Y-15048388D01*
X12261503Y-15048388D02*
X12251979Y-15067436D01*
X12251979Y-15067436D02*
X12242455Y-15076960D01*
X12242455Y-15076960D02*
X12223408Y-15086484D01*
X12223408Y-15086484D02*
X12166265Y-15086484D01*
X12166265Y-15086484D02*
X12147217Y-15076960D01*
X12147217Y-15076960D02*
X12137693Y-15067436D01*
X12385312Y-14886484D02*
X12404360Y-14886484D01*
X12404360Y-14886484D02*
X12423408Y-14896008D01*
X12423408Y-14896008D02*
X12432932Y-14905531D01*
X12432932Y-14905531D02*
X12442455Y-14924579D01*
X12442455Y-14924579D02*
X12451979Y-14962674D01*
X12451979Y-14962674D02*
X12451979Y-15010293D01*
X12451979Y-15010293D02*
X12442455Y-15048388D01*
X12442455Y-15048388D02*
X12432932Y-15067436D01*
X12432932Y-15067436D02*
X12423408Y-15076960D01*
X12423408Y-15076960D02*
X12404360Y-15086484D01*
X12404360Y-15086484D02*
X12385312Y-15086484D01*
X12385312Y-15086484D02*
X12366265Y-15076960D01*
X12366265Y-15076960D02*
X12356741Y-15067436D01*
X12356741Y-15067436D02*
X12347217Y-15048388D01*
X12347217Y-15048388D02*
X12337693Y-15010293D01*
X12337693Y-15010293D02*
X12337693Y-14962674D01*
X12337693Y-14962674D02*
X12347217Y-14924579D01*
X12347217Y-14924579D02*
X12356741Y-14905531D01*
X12356741Y-14905531D02*
X12366265Y-14896008D01*
X12366265Y-14896008D02*
X12385312Y-14886484D01*
X12575789Y-14886484D02*
X12594836Y-14886484D01*
X12594836Y-14886484D02*
X12613884Y-14896008D01*
X12613884Y-14896008D02*
X12623408Y-14905531D01*
X12623408Y-14905531D02*
X12632932Y-14924579D01*
X12632932Y-14924579D02*
X12642455Y-14962674D01*
X12642455Y-14962674D02*
X12642455Y-15010293D01*
X12642455Y-15010293D02*
X12632932Y-15048388D01*
X12632932Y-15048388D02*
X12623408Y-15067436D01*
X12623408Y-15067436D02*
X12613884Y-15076960D01*
X12613884Y-15076960D02*
X12594836Y-15086484D01*
X12594836Y-15086484D02*
X12575789Y-15086484D01*
X12575789Y-15086484D02*
X12556741Y-15076960D01*
X12556741Y-15076960D02*
X12547217Y-15067436D01*
X12547217Y-15067436D02*
X12537693Y-15048388D01*
X12537693Y-15048388D02*
X12528170Y-15010293D01*
X12528170Y-15010293D02*
X12528170Y-14962674D01*
X12528170Y-14962674D02*
X12537693Y-14924579D01*
X12537693Y-14924579D02*
X12547217Y-14905531D01*
X12547217Y-14905531D02*
X12556741Y-14896008D01*
X12556741Y-14896008D02*
X12575789Y-14886484D01*
X12728170Y-15086484D02*
X12728170Y-14953150D01*
X12728170Y-14972198D02*
X12737693Y-14962674D01*
X12737693Y-14962674D02*
X12756741Y-14953150D01*
X12756741Y-14953150D02*
X12785313Y-14953150D01*
X12785313Y-14953150D02*
X12804360Y-14962674D01*
X12804360Y-14962674D02*
X12813884Y-14981722D01*
X12813884Y-14981722D02*
X12813884Y-15086484D01*
X12813884Y-14981722D02*
X12823408Y-14962674D01*
X12823408Y-14962674D02*
X12842455Y-14953150D01*
X12842455Y-14953150D02*
X12871027Y-14953150D01*
X12871027Y-14953150D02*
X12890074Y-14962674D01*
X12890074Y-14962674D02*
X12899598Y-14981722D01*
X12899598Y-14981722D02*
X12899598Y-15086484D01*
X12994836Y-15086484D02*
X12994836Y-14953150D01*
X12994836Y-14972198D02*
X13004360Y-14962674D01*
X13004360Y-14962674D02*
X13023408Y-14953150D01*
X13023408Y-14953150D02*
X13051979Y-14953150D01*
X13051979Y-14953150D02*
X13071027Y-14962674D01*
X13071027Y-14962674D02*
X13080551Y-14981722D01*
X13080551Y-14981722D02*
X13080551Y-15086484D01*
X13080551Y-14981722D02*
X13090074Y-14962674D01*
X13090074Y-14962674D02*
X13109122Y-14953150D01*
X13109122Y-14953150D02*
X13137693Y-14953150D01*
X13137693Y-14953150D02*
X13156741Y-14962674D01*
X13156741Y-14962674D02*
X13166265Y-14981722D01*
X13166265Y-14981722D02*
X13166265Y-15086484D01*
X13556741Y-14876960D02*
X13385313Y-15134103D01*
X13813884Y-14886484D02*
X13832932Y-14886484D01*
X13832932Y-14886484D02*
X13851979Y-14896008D01*
X13851979Y-14896008D02*
X13861503Y-14905531D01*
X13861503Y-14905531D02*
X13871027Y-14924579D01*
X13871027Y-14924579D02*
X13880551Y-14962674D01*
X13880551Y-14962674D02*
X13880551Y-15010293D01*
X13880551Y-15010293D02*
X13871027Y-15048388D01*
X13871027Y-15048388D02*
X13861503Y-15067436D01*
X13861503Y-15067436D02*
X13851979Y-15076960D01*
X13851979Y-15076960D02*
X13832932Y-15086484D01*
X13832932Y-15086484D02*
X13813884Y-15086484D01*
X13813884Y-15086484D02*
X13794836Y-15076960D01*
X13794836Y-15076960D02*
X13785313Y-15067436D01*
X13785313Y-15067436D02*
X13775789Y-15048388D01*
X13775789Y-15048388D02*
X13766265Y-15010293D01*
X13766265Y-15010293D02*
X13766265Y-14962674D01*
X13766265Y-14962674D02*
X13775789Y-14924579D01*
X13775789Y-14924579D02*
X13785313Y-14905531D01*
X13785313Y-14905531D02*
X13794836Y-14896008D01*
X13794836Y-14896008D02*
X13813884Y-14886484D01*
X13966265Y-15067436D02*
X13975789Y-15076960D01*
X13975789Y-15076960D02*
X13966265Y-15086484D01*
X13966265Y-15086484D02*
X13956741Y-15076960D01*
X13956741Y-15076960D02*
X13966265Y-15067436D01*
X13966265Y-15067436D02*
X13966265Y-15086484D01*
X14099598Y-14886484D02*
X14118646Y-14886484D01*
X14118646Y-14886484D02*
X14137694Y-14896008D01*
X14137694Y-14896008D02*
X14147217Y-14905531D01*
X14147217Y-14905531D02*
X14156741Y-14924579D01*
X14156741Y-14924579D02*
X14166265Y-14962674D01*
X14166265Y-14962674D02*
X14166265Y-15010293D01*
X14166265Y-15010293D02*
X14156741Y-15048388D01*
X14156741Y-15048388D02*
X14147217Y-15067436D01*
X14147217Y-15067436D02*
X14137694Y-15076960D01*
X14137694Y-15076960D02*
X14118646Y-15086484D01*
X14118646Y-15086484D02*
X14099598Y-15086484D01*
X14099598Y-15086484D02*
X14080551Y-15076960D01*
X14080551Y-15076960D02*
X14071027Y-15067436D01*
X14071027Y-15067436D02*
X14061503Y-15048388D01*
X14061503Y-15048388D02*
X14051979Y-15010293D01*
X14051979Y-15010293D02*
X14051979Y-14962674D01*
X14051979Y-14962674D02*
X14061503Y-14924579D01*
X14061503Y-14924579D02*
X14071027Y-14905531D01*
X14071027Y-14905531D02*
X14080551Y-14896008D01*
X14080551Y-14896008D02*
X14099598Y-14886484D01*
X14347217Y-14886484D02*
X14251979Y-14886484D01*
X14251979Y-14886484D02*
X14242456Y-14981722D01*
X14242456Y-14981722D02*
X14251979Y-14972198D01*
X14251979Y-14972198D02*
X14271027Y-14962674D01*
X14271027Y-14962674D02*
X14318646Y-14962674D01*
X14318646Y-14962674D02*
X14337694Y-14972198D01*
X14337694Y-14972198D02*
X14347217Y-14981722D01*
X14347217Y-14981722D02*
X14356741Y-15000769D01*
X14356741Y-15000769D02*
X14356741Y-15048388D01*
X14356741Y-15048388D02*
X14347217Y-15067436D01*
X14347217Y-15067436D02*
X14337694Y-15076960D01*
X14337694Y-15076960D02*
X14318646Y-15086484D01*
X14318646Y-15086484D02*
X14271027Y-15086484D01*
X14271027Y-15086484D02*
X14251979Y-15076960D01*
X14251979Y-15076960D02*
X14242456Y-15067436D01*
X14547217Y-15086484D02*
X14432932Y-15086484D01*
X14490075Y-15086484D02*
X14490075Y-14886484D01*
X14490075Y-14886484D02*
X14471027Y-14915055D01*
X14471027Y-14915055D02*
X14451979Y-14934103D01*
X14451979Y-14934103D02*
X14432932Y-14943627D01*
X14623408Y-14905531D02*
X14632932Y-14896008D01*
X14632932Y-14896008D02*
X14651979Y-14886484D01*
X14651979Y-14886484D02*
X14699598Y-14886484D01*
X14699598Y-14886484D02*
X14718646Y-14896008D01*
X14718646Y-14896008D02*
X14728170Y-14905531D01*
X14728170Y-14905531D02*
X14737694Y-14924579D01*
X14737694Y-14924579D02*
X14737694Y-14943627D01*
X14737694Y-14943627D02*
X14728170Y-14972198D01*
X14728170Y-14972198D02*
X14613884Y-15086484D01*
X14613884Y-15086484D02*
X14737694Y-15086484D01*
X14813884Y-14886484D02*
X14813884Y-14924579D01*
X14890075Y-14886484D02*
X14890075Y-14924579D01*
X15185313Y-15162674D02*
X15175789Y-15153150D01*
X15175789Y-15153150D02*
X15156741Y-15124579D01*
X15156741Y-15124579D02*
X15147218Y-15105531D01*
X15147218Y-15105531D02*
X15137694Y-15076960D01*
X15137694Y-15076960D02*
X15128170Y-15029341D01*
X15128170Y-15029341D02*
X15128170Y-14991246D01*
X15128170Y-14991246D02*
X15137694Y-14943627D01*
X15137694Y-14943627D02*
X15147218Y-14915055D01*
X15147218Y-14915055D02*
X15156741Y-14896008D01*
X15156741Y-14896008D02*
X15175789Y-14867436D01*
X15175789Y-14867436D02*
X15185313Y-14857912D01*
X15366265Y-15086484D02*
X15251979Y-15086484D01*
X15309122Y-15086484D02*
X15309122Y-14886484D01*
X15309122Y-14886484D02*
X15290075Y-14915055D01*
X15290075Y-14915055D02*
X15271027Y-14934103D01*
X15271027Y-14934103D02*
X15251979Y-14943627D01*
X15537694Y-14953150D02*
X15537694Y-15086484D01*
X15490075Y-14876960D02*
X15442456Y-15019817D01*
X15442456Y-15019817D02*
X15566265Y-15019817D01*
X15794837Y-15086484D02*
X15794837Y-14886484D01*
X15880551Y-15086484D02*
X15880551Y-14981722D01*
X15880551Y-14981722D02*
X15871027Y-14962674D01*
X15871027Y-14962674D02*
X15851980Y-14953150D01*
X15851980Y-14953150D02*
X15823408Y-14953150D01*
X15823408Y-14953150D02*
X15804360Y-14962674D01*
X15804360Y-14962674D02*
X15794837Y-14972198D01*
X16004360Y-15086484D02*
X15985313Y-15076960D01*
X15985313Y-15076960D02*
X15975789Y-15067436D01*
X15975789Y-15067436D02*
X15966265Y-15048388D01*
X15966265Y-15048388D02*
X15966265Y-14991246D01*
X15966265Y-14991246D02*
X15975789Y-14972198D01*
X15975789Y-14972198D02*
X15985313Y-14962674D01*
X15985313Y-14962674D02*
X16004360Y-14953150D01*
X16004360Y-14953150D02*
X16032932Y-14953150D01*
X16032932Y-14953150D02*
X16051980Y-14962674D01*
X16051980Y-14962674D02*
X16061503Y-14972198D01*
X16061503Y-14972198D02*
X16071027Y-14991246D01*
X16071027Y-14991246D02*
X16071027Y-15048388D01*
X16071027Y-15048388D02*
X16061503Y-15067436D01*
X16061503Y-15067436D02*
X16051980Y-15076960D01*
X16051980Y-15076960D02*
X16032932Y-15086484D01*
X16032932Y-15086484D02*
X16004360Y-15086484D01*
X16185313Y-15086484D02*
X16166265Y-15076960D01*
X16166265Y-15076960D02*
X16156741Y-15057912D01*
X16156741Y-15057912D02*
X16156741Y-14886484D01*
X16337694Y-15076960D02*
X16318646Y-15086484D01*
X16318646Y-15086484D02*
X16280551Y-15086484D01*
X16280551Y-15086484D02*
X16261503Y-15076960D01*
X16261503Y-15076960D02*
X16251980Y-15057912D01*
X16251980Y-15057912D02*
X16251980Y-14981722D01*
X16251980Y-14981722D02*
X16261503Y-14962674D01*
X16261503Y-14962674D02*
X16280551Y-14953150D01*
X16280551Y-14953150D02*
X16318646Y-14953150D01*
X16318646Y-14953150D02*
X16337694Y-14962674D01*
X16337694Y-14962674D02*
X16347218Y-14981722D01*
X16347218Y-14981722D02*
X16347218Y-15000769D01*
X16347218Y-15000769D02*
X16251980Y-15019817D01*
X16423408Y-15076960D02*
X16442456Y-15086484D01*
X16442456Y-15086484D02*
X16480551Y-15086484D01*
X16480551Y-15086484D02*
X16499599Y-15076960D01*
X16499599Y-15076960D02*
X16509122Y-15057912D01*
X16509122Y-15057912D02*
X16509122Y-15048388D01*
X16509122Y-15048388D02*
X16499599Y-15029341D01*
X16499599Y-15029341D02*
X16480551Y-15019817D01*
X16480551Y-15019817D02*
X16451980Y-15019817D01*
X16451980Y-15019817D02*
X16432932Y-15010293D01*
X16432932Y-15010293D02*
X16423408Y-14991246D01*
X16423408Y-14991246D02*
X16423408Y-14981722D01*
X16423408Y-14981722D02*
X16432932Y-14962674D01*
X16432932Y-14962674D02*
X16451980Y-14953150D01*
X16451980Y-14953150D02*
X16480551Y-14953150D01*
X16480551Y-14953150D02*
X16499599Y-14962674D01*
X16575789Y-15162674D02*
X16585313Y-15153150D01*
X16585313Y-15153150D02*
X16604361Y-15124579D01*
X16604361Y-15124579D02*
X16613884Y-15105531D01*
X16613884Y-15105531D02*
X16623408Y-15076960D01*
X16623408Y-15076960D02*
X16632932Y-15029341D01*
X16632932Y-15029341D02*
X16632932Y-14991246D01*
X16632932Y-14991246D02*
X16623408Y-14943627D01*
X16623408Y-14943627D02*
X16613884Y-14915055D01*
X16613884Y-14915055D02*
X16604361Y-14896008D01*
X16604361Y-14896008D02*
X16585313Y-14867436D01*
X16585313Y-14867436D02*
X16575789Y-14857912D01*
D13*
X11460250Y-15184000D02*
X11610250Y-15334000D01*
X11610250Y-15184000D02*
X11460250Y-15334000D01*
X11588283Y-15312033D02*
X11588283Y-15205966D01*
X11482216Y-15205966D01*
X11482216Y-15312033D01*
X11588283Y-15312033D01*
D10*
X11975789Y-15350484D02*
X11861503Y-15350484D01*
X11918646Y-15350484D02*
X11918646Y-15150484D01*
X11918646Y-15150484D02*
X11899598Y-15179055D01*
X11899598Y-15179055D02*
X11880551Y-15198103D01*
X11880551Y-15198103D02*
X11861503Y-15207627D01*
X12061503Y-15331436D02*
X12071027Y-15340960D01*
X12071027Y-15340960D02*
X12061503Y-15350484D01*
X12061503Y-15350484D02*
X12051979Y-15340960D01*
X12051979Y-15340960D02*
X12061503Y-15331436D01*
X12061503Y-15331436D02*
X12061503Y-15350484D01*
X12251979Y-15150484D02*
X12156741Y-15150484D01*
X12156741Y-15150484D02*
X12147217Y-15245722D01*
X12147217Y-15245722D02*
X12156741Y-15236198D01*
X12156741Y-15236198D02*
X12175789Y-15226674D01*
X12175789Y-15226674D02*
X12223408Y-15226674D01*
X12223408Y-15226674D02*
X12242455Y-15236198D01*
X12242455Y-15236198D02*
X12251979Y-15245722D01*
X12251979Y-15245722D02*
X12261503Y-15264769D01*
X12261503Y-15264769D02*
X12261503Y-15312388D01*
X12261503Y-15312388D02*
X12251979Y-15331436D01*
X12251979Y-15331436D02*
X12242455Y-15340960D01*
X12242455Y-15340960D02*
X12223408Y-15350484D01*
X12223408Y-15350484D02*
X12175789Y-15350484D01*
X12175789Y-15350484D02*
X12156741Y-15340960D01*
X12156741Y-15340960D02*
X12147217Y-15331436D01*
X12385312Y-15150484D02*
X12404360Y-15150484D01*
X12404360Y-15150484D02*
X12423408Y-15160008D01*
X12423408Y-15160008D02*
X12432932Y-15169531D01*
X12432932Y-15169531D02*
X12442455Y-15188579D01*
X12442455Y-15188579D02*
X12451979Y-15226674D01*
X12451979Y-15226674D02*
X12451979Y-15274293D01*
X12451979Y-15274293D02*
X12442455Y-15312388D01*
X12442455Y-15312388D02*
X12432932Y-15331436D01*
X12432932Y-15331436D02*
X12423408Y-15340960D01*
X12423408Y-15340960D02*
X12404360Y-15350484D01*
X12404360Y-15350484D02*
X12385312Y-15350484D01*
X12385312Y-15350484D02*
X12366265Y-15340960D01*
X12366265Y-15340960D02*
X12356741Y-15331436D01*
X12356741Y-15331436D02*
X12347217Y-15312388D01*
X12347217Y-15312388D02*
X12337693Y-15274293D01*
X12337693Y-15274293D02*
X12337693Y-15226674D01*
X12337693Y-15226674D02*
X12347217Y-15188579D01*
X12347217Y-15188579D02*
X12356741Y-15169531D01*
X12356741Y-15169531D02*
X12366265Y-15160008D01*
X12366265Y-15160008D02*
X12385312Y-15150484D01*
X12575789Y-15150484D02*
X12594836Y-15150484D01*
X12594836Y-15150484D02*
X12613884Y-15160008D01*
X12613884Y-15160008D02*
X12623408Y-15169531D01*
X12623408Y-15169531D02*
X12632932Y-15188579D01*
X12632932Y-15188579D02*
X12642455Y-15226674D01*
X12642455Y-15226674D02*
X12642455Y-15274293D01*
X12642455Y-15274293D02*
X12632932Y-15312388D01*
X12632932Y-15312388D02*
X12623408Y-15331436D01*
X12623408Y-15331436D02*
X12613884Y-15340960D01*
X12613884Y-15340960D02*
X12594836Y-15350484D01*
X12594836Y-15350484D02*
X12575789Y-15350484D01*
X12575789Y-15350484D02*
X12556741Y-15340960D01*
X12556741Y-15340960D02*
X12547217Y-15331436D01*
X12547217Y-15331436D02*
X12537693Y-15312388D01*
X12537693Y-15312388D02*
X12528170Y-15274293D01*
X12528170Y-15274293D02*
X12528170Y-15226674D01*
X12528170Y-15226674D02*
X12537693Y-15188579D01*
X12537693Y-15188579D02*
X12547217Y-15169531D01*
X12547217Y-15169531D02*
X12556741Y-15160008D01*
X12556741Y-15160008D02*
X12575789Y-15150484D01*
X12728170Y-15350484D02*
X12728170Y-15217150D01*
X12728170Y-15236198D02*
X12737693Y-15226674D01*
X12737693Y-15226674D02*
X12756741Y-15217150D01*
X12756741Y-15217150D02*
X12785313Y-15217150D01*
X12785313Y-15217150D02*
X12804360Y-15226674D01*
X12804360Y-15226674D02*
X12813884Y-15245722D01*
X12813884Y-15245722D02*
X12813884Y-15350484D01*
X12813884Y-15245722D02*
X12823408Y-15226674D01*
X12823408Y-15226674D02*
X12842455Y-15217150D01*
X12842455Y-15217150D02*
X12871027Y-15217150D01*
X12871027Y-15217150D02*
X12890074Y-15226674D01*
X12890074Y-15226674D02*
X12899598Y-15245722D01*
X12899598Y-15245722D02*
X12899598Y-15350484D01*
X12994836Y-15350484D02*
X12994836Y-15217150D01*
X12994836Y-15236198D02*
X13004360Y-15226674D01*
X13004360Y-15226674D02*
X13023408Y-15217150D01*
X13023408Y-15217150D02*
X13051979Y-15217150D01*
X13051979Y-15217150D02*
X13071027Y-15226674D01*
X13071027Y-15226674D02*
X13080551Y-15245722D01*
X13080551Y-15245722D02*
X13080551Y-15350484D01*
X13080551Y-15245722D02*
X13090074Y-15226674D01*
X13090074Y-15226674D02*
X13109122Y-15217150D01*
X13109122Y-15217150D02*
X13137693Y-15217150D01*
X13137693Y-15217150D02*
X13156741Y-15226674D01*
X13156741Y-15226674D02*
X13166265Y-15245722D01*
X13166265Y-15245722D02*
X13166265Y-15350484D01*
X13556741Y-15140960D02*
X13385313Y-15398103D01*
X13813884Y-15150484D02*
X13832932Y-15150484D01*
X13832932Y-15150484D02*
X13851979Y-15160008D01*
X13851979Y-15160008D02*
X13861503Y-15169531D01*
X13861503Y-15169531D02*
X13871027Y-15188579D01*
X13871027Y-15188579D02*
X13880551Y-15226674D01*
X13880551Y-15226674D02*
X13880551Y-15274293D01*
X13880551Y-15274293D02*
X13871027Y-15312388D01*
X13871027Y-15312388D02*
X13861503Y-15331436D01*
X13861503Y-15331436D02*
X13851979Y-15340960D01*
X13851979Y-15340960D02*
X13832932Y-15350484D01*
X13832932Y-15350484D02*
X13813884Y-15350484D01*
X13813884Y-15350484D02*
X13794836Y-15340960D01*
X13794836Y-15340960D02*
X13785313Y-15331436D01*
X13785313Y-15331436D02*
X13775789Y-15312388D01*
X13775789Y-15312388D02*
X13766265Y-15274293D01*
X13766265Y-15274293D02*
X13766265Y-15226674D01*
X13766265Y-15226674D02*
X13775789Y-15188579D01*
X13775789Y-15188579D02*
X13785313Y-15169531D01*
X13785313Y-15169531D02*
X13794836Y-15160008D01*
X13794836Y-15160008D02*
X13813884Y-15150484D01*
X13966265Y-15331436D02*
X13975789Y-15340960D01*
X13975789Y-15340960D02*
X13966265Y-15350484D01*
X13966265Y-15350484D02*
X13956741Y-15340960D01*
X13956741Y-15340960D02*
X13966265Y-15331436D01*
X13966265Y-15331436D02*
X13966265Y-15350484D01*
X14099598Y-15150484D02*
X14118646Y-15150484D01*
X14118646Y-15150484D02*
X14137694Y-15160008D01*
X14137694Y-15160008D02*
X14147217Y-15169531D01*
X14147217Y-15169531D02*
X14156741Y-15188579D01*
X14156741Y-15188579D02*
X14166265Y-15226674D01*
X14166265Y-15226674D02*
X14166265Y-15274293D01*
X14166265Y-15274293D02*
X14156741Y-15312388D01*
X14156741Y-15312388D02*
X14147217Y-15331436D01*
X14147217Y-15331436D02*
X14137694Y-15340960D01*
X14137694Y-15340960D02*
X14118646Y-15350484D01*
X14118646Y-15350484D02*
X14099598Y-15350484D01*
X14099598Y-15350484D02*
X14080551Y-15340960D01*
X14080551Y-15340960D02*
X14071027Y-15331436D01*
X14071027Y-15331436D02*
X14061503Y-15312388D01*
X14061503Y-15312388D02*
X14051979Y-15274293D01*
X14051979Y-15274293D02*
X14051979Y-15226674D01*
X14051979Y-15226674D02*
X14061503Y-15188579D01*
X14061503Y-15188579D02*
X14071027Y-15169531D01*
X14071027Y-15169531D02*
X14080551Y-15160008D01*
X14080551Y-15160008D02*
X14099598Y-15150484D01*
X14347217Y-15150484D02*
X14251979Y-15150484D01*
X14251979Y-15150484D02*
X14242456Y-15245722D01*
X14242456Y-15245722D02*
X14251979Y-15236198D01*
X14251979Y-15236198D02*
X14271027Y-15226674D01*
X14271027Y-15226674D02*
X14318646Y-15226674D01*
X14318646Y-15226674D02*
X14337694Y-15236198D01*
X14337694Y-15236198D02*
X14347217Y-15245722D01*
X14347217Y-15245722D02*
X14356741Y-15264769D01*
X14356741Y-15264769D02*
X14356741Y-15312388D01*
X14356741Y-15312388D02*
X14347217Y-15331436D01*
X14347217Y-15331436D02*
X14337694Y-15340960D01*
X14337694Y-15340960D02*
X14318646Y-15350484D01*
X14318646Y-15350484D02*
X14271027Y-15350484D01*
X14271027Y-15350484D02*
X14251979Y-15340960D01*
X14251979Y-15340960D02*
X14242456Y-15331436D01*
X14451979Y-15350484D02*
X14490075Y-15350484D01*
X14490075Y-15350484D02*
X14509122Y-15340960D01*
X14509122Y-15340960D02*
X14518646Y-15331436D01*
X14518646Y-15331436D02*
X14537694Y-15302865D01*
X14537694Y-15302865D02*
X14547217Y-15264769D01*
X14547217Y-15264769D02*
X14547217Y-15188579D01*
X14547217Y-15188579D02*
X14537694Y-15169531D01*
X14537694Y-15169531D02*
X14528170Y-15160008D01*
X14528170Y-15160008D02*
X14509122Y-15150484D01*
X14509122Y-15150484D02*
X14471027Y-15150484D01*
X14471027Y-15150484D02*
X14451979Y-15160008D01*
X14451979Y-15160008D02*
X14442456Y-15169531D01*
X14442456Y-15169531D02*
X14432932Y-15188579D01*
X14432932Y-15188579D02*
X14432932Y-15236198D01*
X14432932Y-15236198D02*
X14442456Y-15255246D01*
X14442456Y-15255246D02*
X14451979Y-15264769D01*
X14451979Y-15264769D02*
X14471027Y-15274293D01*
X14471027Y-15274293D02*
X14509122Y-15274293D01*
X14509122Y-15274293D02*
X14528170Y-15264769D01*
X14528170Y-15264769D02*
X14537694Y-15255246D01*
X14537694Y-15255246D02*
X14547217Y-15236198D01*
X14737694Y-15350484D02*
X14623408Y-15350484D01*
X14680551Y-15350484D02*
X14680551Y-15150484D01*
X14680551Y-15150484D02*
X14661503Y-15179055D01*
X14661503Y-15179055D02*
X14642456Y-15198103D01*
X14642456Y-15198103D02*
X14623408Y-15207627D01*
X14813884Y-15150484D02*
X14813884Y-15188579D01*
X14890075Y-15150484D02*
X14890075Y-15188579D01*
X15185313Y-15426674D02*
X15175789Y-15417150D01*
X15175789Y-15417150D02*
X15156741Y-15388579D01*
X15156741Y-15388579D02*
X15147218Y-15369531D01*
X15147218Y-15369531D02*
X15137694Y-15340960D01*
X15137694Y-15340960D02*
X15128170Y-15293341D01*
X15128170Y-15293341D02*
X15128170Y-15255246D01*
X15128170Y-15255246D02*
X15137694Y-15207627D01*
X15137694Y-15207627D02*
X15147218Y-15179055D01*
X15147218Y-15179055D02*
X15156741Y-15160008D01*
X15156741Y-15160008D02*
X15175789Y-15131436D01*
X15175789Y-15131436D02*
X15185313Y-15121912D01*
X15251979Y-15169531D02*
X15261503Y-15160008D01*
X15261503Y-15160008D02*
X15280551Y-15150484D01*
X15280551Y-15150484D02*
X15328170Y-15150484D01*
X15328170Y-15150484D02*
X15347218Y-15160008D01*
X15347218Y-15160008D02*
X15356741Y-15169531D01*
X15356741Y-15169531D02*
X15366265Y-15188579D01*
X15366265Y-15188579D02*
X15366265Y-15207627D01*
X15366265Y-15207627D02*
X15356741Y-15236198D01*
X15356741Y-15236198D02*
X15242456Y-15350484D01*
X15242456Y-15350484D02*
X15366265Y-15350484D01*
X15604360Y-15350484D02*
X15604360Y-15150484D01*
X15690075Y-15350484D02*
X15690075Y-15245722D01*
X15690075Y-15245722D02*
X15680551Y-15226674D01*
X15680551Y-15226674D02*
X15661503Y-15217150D01*
X15661503Y-15217150D02*
X15632932Y-15217150D01*
X15632932Y-15217150D02*
X15613884Y-15226674D01*
X15613884Y-15226674D02*
X15604360Y-15236198D01*
X15813884Y-15350484D02*
X15794837Y-15340960D01*
X15794837Y-15340960D02*
X15785313Y-15331436D01*
X15785313Y-15331436D02*
X15775789Y-15312388D01*
X15775789Y-15312388D02*
X15775789Y-15255246D01*
X15775789Y-15255246D02*
X15785313Y-15236198D01*
X15785313Y-15236198D02*
X15794837Y-15226674D01*
X15794837Y-15226674D02*
X15813884Y-15217150D01*
X15813884Y-15217150D02*
X15842456Y-15217150D01*
X15842456Y-15217150D02*
X15861503Y-15226674D01*
X15861503Y-15226674D02*
X15871027Y-15236198D01*
X15871027Y-15236198D02*
X15880551Y-15255246D01*
X15880551Y-15255246D02*
X15880551Y-15312388D01*
X15880551Y-15312388D02*
X15871027Y-15331436D01*
X15871027Y-15331436D02*
X15861503Y-15340960D01*
X15861503Y-15340960D02*
X15842456Y-15350484D01*
X15842456Y-15350484D02*
X15813884Y-15350484D01*
X15994837Y-15350484D02*
X15975789Y-15340960D01*
X15975789Y-15340960D02*
X15966265Y-15321912D01*
X15966265Y-15321912D02*
X15966265Y-15150484D01*
X16147218Y-15340960D02*
X16128170Y-15350484D01*
X16128170Y-15350484D02*
X16090075Y-15350484D01*
X16090075Y-15350484D02*
X16071027Y-15340960D01*
X16071027Y-15340960D02*
X16061503Y-15321912D01*
X16061503Y-15321912D02*
X16061503Y-15245722D01*
X16061503Y-15245722D02*
X16071027Y-15226674D01*
X16071027Y-15226674D02*
X16090075Y-15217150D01*
X16090075Y-15217150D02*
X16128170Y-15217150D01*
X16128170Y-15217150D02*
X16147218Y-15226674D01*
X16147218Y-15226674D02*
X16156741Y-15245722D01*
X16156741Y-15245722D02*
X16156741Y-15264769D01*
X16156741Y-15264769D02*
X16061503Y-15283817D01*
X16232932Y-15340960D02*
X16251980Y-15350484D01*
X16251980Y-15350484D02*
X16290075Y-15350484D01*
X16290075Y-15350484D02*
X16309122Y-15340960D01*
X16309122Y-15340960D02*
X16318646Y-15321912D01*
X16318646Y-15321912D02*
X16318646Y-15312388D01*
X16318646Y-15312388D02*
X16309122Y-15293341D01*
X16309122Y-15293341D02*
X16290075Y-15283817D01*
X16290075Y-15283817D02*
X16261503Y-15283817D01*
X16261503Y-15283817D02*
X16242456Y-15274293D01*
X16242456Y-15274293D02*
X16232932Y-15255246D01*
X16232932Y-15255246D02*
X16232932Y-15245722D01*
X16232932Y-15245722D02*
X16242456Y-15226674D01*
X16242456Y-15226674D02*
X16261503Y-15217150D01*
X16261503Y-15217150D02*
X16290075Y-15217150D01*
X16290075Y-15217150D02*
X16309122Y-15226674D01*
X16385313Y-15426674D02*
X16394837Y-15417150D01*
X16394837Y-15417150D02*
X16413884Y-15388579D01*
X16413884Y-15388579D02*
X16423408Y-15369531D01*
X16423408Y-15369531D02*
X16432932Y-15340960D01*
X16432932Y-15340960D02*
X16442456Y-15293341D01*
X16442456Y-15293341D02*
X16442456Y-15255246D01*
X16442456Y-15255246D02*
X16432932Y-15207627D01*
X16432932Y-15207627D02*
X16423408Y-15179055D01*
X16423408Y-15179055D02*
X16413884Y-15160008D01*
X16413884Y-15160008D02*
X16394837Y-15131436D01*
X16394837Y-15131436D02*
X16385313Y-15121912D01*
X11410250Y-15429000D02*
X11610250Y-15629000D01*
X11610250Y-15429000D02*
X11410250Y-15629000D01*
X11510250Y-15629000D02*
X11610250Y-15529000D01*
X11510250Y-15429000D01*
X11410250Y-15529000D01*
X11510250Y-15629000D01*
X11861503Y-15439531D02*
X11871027Y-15430008D01*
X11871027Y-15430008D02*
X11890074Y-15420484D01*
X11890074Y-15420484D02*
X11937693Y-15420484D01*
X11937693Y-15420484D02*
X11956741Y-15430008D01*
X11956741Y-15430008D02*
X11966265Y-15439531D01*
X11966265Y-15439531D02*
X11975789Y-15458579D01*
X11975789Y-15458579D02*
X11975789Y-15477627D01*
X11975789Y-15477627D02*
X11966265Y-15506198D01*
X11966265Y-15506198D02*
X11851979Y-15620484D01*
X11851979Y-15620484D02*
X11975789Y-15620484D01*
X12061503Y-15601436D02*
X12071027Y-15610960D01*
X12071027Y-15610960D02*
X12061503Y-15620484D01*
X12061503Y-15620484D02*
X12051979Y-15610960D01*
X12051979Y-15610960D02*
X12061503Y-15601436D01*
X12061503Y-15601436D02*
X12061503Y-15620484D01*
X12147217Y-15439531D02*
X12156741Y-15430008D01*
X12156741Y-15430008D02*
X12175789Y-15420484D01*
X12175789Y-15420484D02*
X12223408Y-15420484D01*
X12223408Y-15420484D02*
X12242455Y-15430008D01*
X12242455Y-15430008D02*
X12251979Y-15439531D01*
X12251979Y-15439531D02*
X12261503Y-15458579D01*
X12261503Y-15458579D02*
X12261503Y-15477627D01*
X12261503Y-15477627D02*
X12251979Y-15506198D01*
X12251979Y-15506198D02*
X12137693Y-15620484D01*
X12137693Y-15620484D02*
X12261503Y-15620484D01*
X12385312Y-15420484D02*
X12404360Y-15420484D01*
X12404360Y-15420484D02*
X12423408Y-15430008D01*
X12423408Y-15430008D02*
X12432932Y-15439531D01*
X12432932Y-15439531D02*
X12442455Y-15458579D01*
X12442455Y-15458579D02*
X12451979Y-15496674D01*
X12451979Y-15496674D02*
X12451979Y-15544293D01*
X12451979Y-15544293D02*
X12442455Y-15582388D01*
X12442455Y-15582388D02*
X12432932Y-15601436D01*
X12432932Y-15601436D02*
X12423408Y-15610960D01*
X12423408Y-15610960D02*
X12404360Y-15620484D01*
X12404360Y-15620484D02*
X12385312Y-15620484D01*
X12385312Y-15620484D02*
X12366265Y-15610960D01*
X12366265Y-15610960D02*
X12356741Y-15601436D01*
X12356741Y-15601436D02*
X12347217Y-15582388D01*
X12347217Y-15582388D02*
X12337693Y-15544293D01*
X12337693Y-15544293D02*
X12337693Y-15496674D01*
X12337693Y-15496674D02*
X12347217Y-15458579D01*
X12347217Y-15458579D02*
X12356741Y-15439531D01*
X12356741Y-15439531D02*
X12366265Y-15430008D01*
X12366265Y-15430008D02*
X12385312Y-15420484D01*
X12575789Y-15420484D02*
X12594836Y-15420484D01*
X12594836Y-15420484D02*
X12613884Y-15430008D01*
X12613884Y-15430008D02*
X12623408Y-15439531D01*
X12623408Y-15439531D02*
X12632932Y-15458579D01*
X12632932Y-15458579D02*
X12642455Y-15496674D01*
X12642455Y-15496674D02*
X12642455Y-15544293D01*
X12642455Y-15544293D02*
X12632932Y-15582388D01*
X12632932Y-15582388D02*
X12623408Y-15601436D01*
X12623408Y-15601436D02*
X12613884Y-15610960D01*
X12613884Y-15610960D02*
X12594836Y-15620484D01*
X12594836Y-15620484D02*
X12575789Y-15620484D01*
X12575789Y-15620484D02*
X12556741Y-15610960D01*
X12556741Y-15610960D02*
X12547217Y-15601436D01*
X12547217Y-15601436D02*
X12537693Y-15582388D01*
X12537693Y-15582388D02*
X12528170Y-15544293D01*
X12528170Y-15544293D02*
X12528170Y-15496674D01*
X12528170Y-15496674D02*
X12537693Y-15458579D01*
X12537693Y-15458579D02*
X12547217Y-15439531D01*
X12547217Y-15439531D02*
X12556741Y-15430008D01*
X12556741Y-15430008D02*
X12575789Y-15420484D01*
X12728170Y-15620484D02*
X12728170Y-15487150D01*
X12728170Y-15506198D02*
X12737693Y-15496674D01*
X12737693Y-15496674D02*
X12756741Y-15487150D01*
X12756741Y-15487150D02*
X12785313Y-15487150D01*
X12785313Y-15487150D02*
X12804360Y-15496674D01*
X12804360Y-15496674D02*
X12813884Y-15515722D01*
X12813884Y-15515722D02*
X12813884Y-15620484D01*
X12813884Y-15515722D02*
X12823408Y-15496674D01*
X12823408Y-15496674D02*
X12842455Y-15487150D01*
X12842455Y-15487150D02*
X12871027Y-15487150D01*
X12871027Y-15487150D02*
X12890074Y-15496674D01*
X12890074Y-15496674D02*
X12899598Y-15515722D01*
X12899598Y-15515722D02*
X12899598Y-15620484D01*
X12994836Y-15620484D02*
X12994836Y-15487150D01*
X12994836Y-15506198D02*
X13004360Y-15496674D01*
X13004360Y-15496674D02*
X13023408Y-15487150D01*
X13023408Y-15487150D02*
X13051979Y-15487150D01*
X13051979Y-15487150D02*
X13071027Y-15496674D01*
X13071027Y-15496674D02*
X13080551Y-15515722D01*
X13080551Y-15515722D02*
X13080551Y-15620484D01*
X13080551Y-15515722D02*
X13090074Y-15496674D01*
X13090074Y-15496674D02*
X13109122Y-15487150D01*
X13109122Y-15487150D02*
X13137693Y-15487150D01*
X13137693Y-15487150D02*
X13156741Y-15496674D01*
X13156741Y-15496674D02*
X13166265Y-15515722D01*
X13166265Y-15515722D02*
X13166265Y-15620484D01*
X13556741Y-15410960D02*
X13385313Y-15668103D01*
X13813884Y-15420484D02*
X13832932Y-15420484D01*
X13832932Y-15420484D02*
X13851979Y-15430008D01*
X13851979Y-15430008D02*
X13861503Y-15439531D01*
X13861503Y-15439531D02*
X13871027Y-15458579D01*
X13871027Y-15458579D02*
X13880551Y-15496674D01*
X13880551Y-15496674D02*
X13880551Y-15544293D01*
X13880551Y-15544293D02*
X13871027Y-15582388D01*
X13871027Y-15582388D02*
X13861503Y-15601436D01*
X13861503Y-15601436D02*
X13851979Y-15610960D01*
X13851979Y-15610960D02*
X13832932Y-15620484D01*
X13832932Y-15620484D02*
X13813884Y-15620484D01*
X13813884Y-15620484D02*
X13794836Y-15610960D01*
X13794836Y-15610960D02*
X13785313Y-15601436D01*
X13785313Y-15601436D02*
X13775789Y-15582388D01*
X13775789Y-15582388D02*
X13766265Y-15544293D01*
X13766265Y-15544293D02*
X13766265Y-15496674D01*
X13766265Y-15496674D02*
X13775789Y-15458579D01*
X13775789Y-15458579D02*
X13785313Y-15439531D01*
X13785313Y-15439531D02*
X13794836Y-15430008D01*
X13794836Y-15430008D02*
X13813884Y-15420484D01*
X13966265Y-15601436D02*
X13975789Y-15610960D01*
X13975789Y-15610960D02*
X13966265Y-15620484D01*
X13966265Y-15620484D02*
X13956741Y-15610960D01*
X13956741Y-15610960D02*
X13966265Y-15601436D01*
X13966265Y-15601436D02*
X13966265Y-15620484D01*
X14099598Y-15420484D02*
X14118646Y-15420484D01*
X14118646Y-15420484D02*
X14137694Y-15430008D01*
X14137694Y-15430008D02*
X14147217Y-15439531D01*
X14147217Y-15439531D02*
X14156741Y-15458579D01*
X14156741Y-15458579D02*
X14166265Y-15496674D01*
X14166265Y-15496674D02*
X14166265Y-15544293D01*
X14166265Y-15544293D02*
X14156741Y-15582388D01*
X14156741Y-15582388D02*
X14147217Y-15601436D01*
X14147217Y-15601436D02*
X14137694Y-15610960D01*
X14137694Y-15610960D02*
X14118646Y-15620484D01*
X14118646Y-15620484D02*
X14099598Y-15620484D01*
X14099598Y-15620484D02*
X14080551Y-15610960D01*
X14080551Y-15610960D02*
X14071027Y-15601436D01*
X14071027Y-15601436D02*
X14061503Y-15582388D01*
X14061503Y-15582388D02*
X14051979Y-15544293D01*
X14051979Y-15544293D02*
X14051979Y-15496674D01*
X14051979Y-15496674D02*
X14061503Y-15458579D01*
X14061503Y-15458579D02*
X14071027Y-15439531D01*
X14071027Y-15439531D02*
X14080551Y-15430008D01*
X14080551Y-15430008D02*
X14099598Y-15420484D01*
X14280551Y-15506198D02*
X14261503Y-15496674D01*
X14261503Y-15496674D02*
X14251979Y-15487150D01*
X14251979Y-15487150D02*
X14242456Y-15468103D01*
X14242456Y-15468103D02*
X14242456Y-15458579D01*
X14242456Y-15458579D02*
X14251979Y-15439531D01*
X14251979Y-15439531D02*
X14261503Y-15430008D01*
X14261503Y-15430008D02*
X14280551Y-15420484D01*
X14280551Y-15420484D02*
X14318646Y-15420484D01*
X14318646Y-15420484D02*
X14337694Y-15430008D01*
X14337694Y-15430008D02*
X14347217Y-15439531D01*
X14347217Y-15439531D02*
X14356741Y-15458579D01*
X14356741Y-15458579D02*
X14356741Y-15468103D01*
X14356741Y-15468103D02*
X14347217Y-15487150D01*
X14347217Y-15487150D02*
X14337694Y-15496674D01*
X14337694Y-15496674D02*
X14318646Y-15506198D01*
X14318646Y-15506198D02*
X14280551Y-15506198D01*
X14280551Y-15506198D02*
X14261503Y-15515722D01*
X14261503Y-15515722D02*
X14251979Y-15525246D01*
X14251979Y-15525246D02*
X14242456Y-15544293D01*
X14242456Y-15544293D02*
X14242456Y-15582388D01*
X14242456Y-15582388D02*
X14251979Y-15601436D01*
X14251979Y-15601436D02*
X14261503Y-15610960D01*
X14261503Y-15610960D02*
X14280551Y-15620484D01*
X14280551Y-15620484D02*
X14318646Y-15620484D01*
X14318646Y-15620484D02*
X14337694Y-15610960D01*
X14337694Y-15610960D02*
X14347217Y-15601436D01*
X14347217Y-15601436D02*
X14356741Y-15582388D01*
X14356741Y-15582388D02*
X14356741Y-15544293D01*
X14356741Y-15544293D02*
X14347217Y-15525246D01*
X14347217Y-15525246D02*
X14337694Y-15515722D01*
X14337694Y-15515722D02*
X14318646Y-15506198D01*
X14528170Y-15420484D02*
X14490075Y-15420484D01*
X14490075Y-15420484D02*
X14471027Y-15430008D01*
X14471027Y-15430008D02*
X14461503Y-15439531D01*
X14461503Y-15439531D02*
X14442456Y-15468103D01*
X14442456Y-15468103D02*
X14432932Y-15506198D01*
X14432932Y-15506198D02*
X14432932Y-15582388D01*
X14432932Y-15582388D02*
X14442456Y-15601436D01*
X14442456Y-15601436D02*
X14451979Y-15610960D01*
X14451979Y-15610960D02*
X14471027Y-15620484D01*
X14471027Y-15620484D02*
X14509122Y-15620484D01*
X14509122Y-15620484D02*
X14528170Y-15610960D01*
X14528170Y-15610960D02*
X14537694Y-15601436D01*
X14537694Y-15601436D02*
X14547217Y-15582388D01*
X14547217Y-15582388D02*
X14547217Y-15534769D01*
X14547217Y-15534769D02*
X14537694Y-15515722D01*
X14537694Y-15515722D02*
X14528170Y-15506198D01*
X14528170Y-15506198D02*
X14509122Y-15496674D01*
X14509122Y-15496674D02*
X14471027Y-15496674D01*
X14471027Y-15496674D02*
X14451979Y-15506198D01*
X14451979Y-15506198D02*
X14442456Y-15515722D01*
X14442456Y-15515722D02*
X14432932Y-15534769D01*
X14718646Y-15420484D02*
X14680551Y-15420484D01*
X14680551Y-15420484D02*
X14661503Y-15430008D01*
X14661503Y-15430008D02*
X14651979Y-15439531D01*
X14651979Y-15439531D02*
X14632932Y-15468103D01*
X14632932Y-15468103D02*
X14623408Y-15506198D01*
X14623408Y-15506198D02*
X14623408Y-15582388D01*
X14623408Y-15582388D02*
X14632932Y-15601436D01*
X14632932Y-15601436D02*
X14642456Y-15610960D01*
X14642456Y-15610960D02*
X14661503Y-15620484D01*
X14661503Y-15620484D02*
X14699598Y-15620484D01*
X14699598Y-15620484D02*
X14718646Y-15610960D01*
X14718646Y-15610960D02*
X14728170Y-15601436D01*
X14728170Y-15601436D02*
X14737694Y-15582388D01*
X14737694Y-15582388D02*
X14737694Y-15534769D01*
X14737694Y-15534769D02*
X14728170Y-15515722D01*
X14728170Y-15515722D02*
X14718646Y-15506198D01*
X14718646Y-15506198D02*
X14699598Y-15496674D01*
X14699598Y-15496674D02*
X14661503Y-15496674D01*
X14661503Y-15496674D02*
X14642456Y-15506198D01*
X14642456Y-15506198D02*
X14632932Y-15515722D01*
X14632932Y-15515722D02*
X14623408Y-15534769D01*
X14813884Y-15420484D02*
X14813884Y-15458579D01*
X14890075Y-15420484D02*
X14890075Y-15458579D01*
X15185313Y-15696674D02*
X15175789Y-15687150D01*
X15175789Y-15687150D02*
X15156741Y-15658579D01*
X15156741Y-15658579D02*
X15147218Y-15639531D01*
X15147218Y-15639531D02*
X15137694Y-15610960D01*
X15137694Y-15610960D02*
X15128170Y-15563341D01*
X15128170Y-15563341D02*
X15128170Y-15525246D01*
X15128170Y-15525246D02*
X15137694Y-15477627D01*
X15137694Y-15477627D02*
X15147218Y-15449055D01*
X15147218Y-15449055D02*
X15156741Y-15430008D01*
X15156741Y-15430008D02*
X15175789Y-15401436D01*
X15175789Y-15401436D02*
X15185313Y-15391912D01*
X15347218Y-15487150D02*
X15347218Y-15620484D01*
X15299598Y-15410960D02*
X15251979Y-15553817D01*
X15251979Y-15553817D02*
X15375789Y-15553817D01*
X15604360Y-15620484D02*
X15604360Y-15420484D01*
X15690075Y-15620484D02*
X15690075Y-15515722D01*
X15690075Y-15515722D02*
X15680551Y-15496674D01*
X15680551Y-15496674D02*
X15661503Y-15487150D01*
X15661503Y-15487150D02*
X15632932Y-15487150D01*
X15632932Y-15487150D02*
X15613884Y-15496674D01*
X15613884Y-15496674D02*
X15604360Y-15506198D01*
X15813884Y-15620484D02*
X15794837Y-15610960D01*
X15794837Y-15610960D02*
X15785313Y-15601436D01*
X15785313Y-15601436D02*
X15775789Y-15582388D01*
X15775789Y-15582388D02*
X15775789Y-15525246D01*
X15775789Y-15525246D02*
X15785313Y-15506198D01*
X15785313Y-15506198D02*
X15794837Y-15496674D01*
X15794837Y-15496674D02*
X15813884Y-15487150D01*
X15813884Y-15487150D02*
X15842456Y-15487150D01*
X15842456Y-15487150D02*
X15861503Y-15496674D01*
X15861503Y-15496674D02*
X15871027Y-15506198D01*
X15871027Y-15506198D02*
X15880551Y-15525246D01*
X15880551Y-15525246D02*
X15880551Y-15582388D01*
X15880551Y-15582388D02*
X15871027Y-15601436D01*
X15871027Y-15601436D02*
X15861503Y-15610960D01*
X15861503Y-15610960D02*
X15842456Y-15620484D01*
X15842456Y-15620484D02*
X15813884Y-15620484D01*
X15994837Y-15620484D02*
X15975789Y-15610960D01*
X15975789Y-15610960D02*
X15966265Y-15591912D01*
X15966265Y-15591912D02*
X15966265Y-15420484D01*
X16147218Y-15610960D02*
X16128170Y-15620484D01*
X16128170Y-15620484D02*
X16090075Y-15620484D01*
X16090075Y-15620484D02*
X16071027Y-15610960D01*
X16071027Y-15610960D02*
X16061503Y-15591912D01*
X16061503Y-15591912D02*
X16061503Y-15515722D01*
X16061503Y-15515722D02*
X16071027Y-15496674D01*
X16071027Y-15496674D02*
X16090075Y-15487150D01*
X16090075Y-15487150D02*
X16128170Y-15487150D01*
X16128170Y-15487150D02*
X16147218Y-15496674D01*
X16147218Y-15496674D02*
X16156741Y-15515722D01*
X16156741Y-15515722D02*
X16156741Y-15534769D01*
X16156741Y-15534769D02*
X16061503Y-15553817D01*
X16232932Y-15610960D02*
X16251980Y-15620484D01*
X16251980Y-15620484D02*
X16290075Y-15620484D01*
X16290075Y-15620484D02*
X16309122Y-15610960D01*
X16309122Y-15610960D02*
X16318646Y-15591912D01*
X16318646Y-15591912D02*
X16318646Y-15582388D01*
X16318646Y-15582388D02*
X16309122Y-15563341D01*
X16309122Y-15563341D02*
X16290075Y-15553817D01*
X16290075Y-15553817D02*
X16261503Y-15553817D01*
X16261503Y-15553817D02*
X16242456Y-15544293D01*
X16242456Y-15544293D02*
X16232932Y-15525246D01*
X16232932Y-15525246D02*
X16232932Y-15515722D01*
X16232932Y-15515722D02*
X16242456Y-15496674D01*
X16242456Y-15496674D02*
X16261503Y-15487150D01*
X16261503Y-15487150D02*
X16290075Y-15487150D01*
X16290075Y-15487150D02*
X16309122Y-15496674D01*
X16385313Y-15696674D02*
X16394837Y-15687150D01*
X16394837Y-15687150D02*
X16413884Y-15658579D01*
X16413884Y-15658579D02*
X16423408Y-15639531D01*
X16423408Y-15639531D02*
X16432932Y-15610960D01*
X16432932Y-15610960D02*
X16442456Y-15563341D01*
X16442456Y-15563341D02*
X16442456Y-15525246D01*
X16442456Y-15525246D02*
X16432932Y-15477627D01*
X16432932Y-15477627D02*
X16423408Y-15449055D01*
X16423408Y-15449055D02*
X16413884Y-15430008D01*
X16413884Y-15430008D02*
X16394837Y-15401436D01*
X16394837Y-15401436D02*
X16385313Y-15391912D01*
X11510250Y-15749000D02*
X11510250Y-15949000D01*
X11410250Y-15849000D02*
X11610250Y-15849000D01*
X11610250Y-15849000D02*
G75*
G02*
X11410250Y-15849000I-100000J0D01*
G01*
X11410250Y-15849000D02*
G75*
G02*
X11610250Y-15849000I100000J0D01*
G01*
X11861503Y-15759531D02*
X11871027Y-15750008D01*
X11871027Y-15750008D02*
X11890074Y-15740484D01*
X11890074Y-15740484D02*
X11937693Y-15740484D01*
X11937693Y-15740484D02*
X11956741Y-15750008D01*
X11956741Y-15750008D02*
X11966265Y-15759531D01*
X11966265Y-15759531D02*
X11975789Y-15778579D01*
X11975789Y-15778579D02*
X11975789Y-15797627D01*
X11975789Y-15797627D02*
X11966265Y-15826198D01*
X11966265Y-15826198D02*
X11851979Y-15940484D01*
X11851979Y-15940484D02*
X11975789Y-15940484D01*
X12061503Y-15921436D02*
X12071027Y-15930960D01*
X12071027Y-15930960D02*
X12061503Y-15940484D01*
X12061503Y-15940484D02*
X12051979Y-15930960D01*
X12051979Y-15930960D02*
X12061503Y-15921436D01*
X12061503Y-15921436D02*
X12061503Y-15940484D01*
X12137693Y-15740484D02*
X12271027Y-15740484D01*
X12271027Y-15740484D02*
X12185312Y-15940484D01*
X12385312Y-15740484D02*
X12404360Y-15740484D01*
X12404360Y-15740484D02*
X12423408Y-15750008D01*
X12423408Y-15750008D02*
X12432932Y-15759531D01*
X12432932Y-15759531D02*
X12442455Y-15778579D01*
X12442455Y-15778579D02*
X12451979Y-15816674D01*
X12451979Y-15816674D02*
X12451979Y-15864293D01*
X12451979Y-15864293D02*
X12442455Y-15902388D01*
X12442455Y-15902388D02*
X12432932Y-15921436D01*
X12432932Y-15921436D02*
X12423408Y-15930960D01*
X12423408Y-15930960D02*
X12404360Y-15940484D01*
X12404360Y-15940484D02*
X12385312Y-15940484D01*
X12385312Y-15940484D02*
X12366265Y-15930960D01*
X12366265Y-15930960D02*
X12356741Y-15921436D01*
X12356741Y-15921436D02*
X12347217Y-15902388D01*
X12347217Y-15902388D02*
X12337693Y-15864293D01*
X12337693Y-15864293D02*
X12337693Y-15816674D01*
X12337693Y-15816674D02*
X12347217Y-15778579D01*
X12347217Y-15778579D02*
X12356741Y-15759531D01*
X12356741Y-15759531D02*
X12366265Y-15750008D01*
X12366265Y-15750008D02*
X12385312Y-15740484D01*
X12575789Y-15740484D02*
X12594836Y-15740484D01*
X12594836Y-15740484D02*
X12613884Y-15750008D01*
X12613884Y-15750008D02*
X12623408Y-15759531D01*
X12623408Y-15759531D02*
X12632932Y-15778579D01*
X12632932Y-15778579D02*
X12642455Y-15816674D01*
X12642455Y-15816674D02*
X12642455Y-15864293D01*
X12642455Y-15864293D02*
X12632932Y-15902388D01*
X12632932Y-15902388D02*
X12623408Y-15921436D01*
X12623408Y-15921436D02*
X12613884Y-15930960D01*
X12613884Y-15930960D02*
X12594836Y-15940484D01*
X12594836Y-15940484D02*
X12575789Y-15940484D01*
X12575789Y-15940484D02*
X12556741Y-15930960D01*
X12556741Y-15930960D02*
X12547217Y-15921436D01*
X12547217Y-15921436D02*
X12537693Y-15902388D01*
X12537693Y-15902388D02*
X12528170Y-15864293D01*
X12528170Y-15864293D02*
X12528170Y-15816674D01*
X12528170Y-15816674D02*
X12537693Y-15778579D01*
X12537693Y-15778579D02*
X12547217Y-15759531D01*
X12547217Y-15759531D02*
X12556741Y-15750008D01*
X12556741Y-15750008D02*
X12575789Y-15740484D01*
X12728170Y-15940484D02*
X12728170Y-15807150D01*
X12728170Y-15826198D02*
X12737693Y-15816674D01*
X12737693Y-15816674D02*
X12756741Y-15807150D01*
X12756741Y-15807150D02*
X12785313Y-15807150D01*
X12785313Y-15807150D02*
X12804360Y-15816674D01*
X12804360Y-15816674D02*
X12813884Y-15835722D01*
X12813884Y-15835722D02*
X12813884Y-15940484D01*
X12813884Y-15835722D02*
X12823408Y-15816674D01*
X12823408Y-15816674D02*
X12842455Y-15807150D01*
X12842455Y-15807150D02*
X12871027Y-15807150D01*
X12871027Y-15807150D02*
X12890074Y-15816674D01*
X12890074Y-15816674D02*
X12899598Y-15835722D01*
X12899598Y-15835722D02*
X12899598Y-15940484D01*
X12994836Y-15940484D02*
X12994836Y-15807150D01*
X12994836Y-15826198D02*
X13004360Y-15816674D01*
X13004360Y-15816674D02*
X13023408Y-15807150D01*
X13023408Y-15807150D02*
X13051979Y-15807150D01*
X13051979Y-15807150D02*
X13071027Y-15816674D01*
X13071027Y-15816674D02*
X13080551Y-15835722D01*
X13080551Y-15835722D02*
X13080551Y-15940484D01*
X13080551Y-15835722D02*
X13090074Y-15816674D01*
X13090074Y-15816674D02*
X13109122Y-15807150D01*
X13109122Y-15807150D02*
X13137693Y-15807150D01*
X13137693Y-15807150D02*
X13156741Y-15816674D01*
X13156741Y-15816674D02*
X13166265Y-15835722D01*
X13166265Y-15835722D02*
X13166265Y-15940484D01*
X13556741Y-15730960D02*
X13385313Y-15988103D01*
X13813884Y-15740484D02*
X13832932Y-15740484D01*
X13832932Y-15740484D02*
X13851979Y-15750008D01*
X13851979Y-15750008D02*
X13861503Y-15759531D01*
X13861503Y-15759531D02*
X13871027Y-15778579D01*
X13871027Y-15778579D02*
X13880551Y-15816674D01*
X13880551Y-15816674D02*
X13880551Y-15864293D01*
X13880551Y-15864293D02*
X13871027Y-15902388D01*
X13871027Y-15902388D02*
X13861503Y-15921436D01*
X13861503Y-15921436D02*
X13851979Y-15930960D01*
X13851979Y-15930960D02*
X13832932Y-15940484D01*
X13832932Y-15940484D02*
X13813884Y-15940484D01*
X13813884Y-15940484D02*
X13794836Y-15930960D01*
X13794836Y-15930960D02*
X13785313Y-15921436D01*
X13785313Y-15921436D02*
X13775789Y-15902388D01*
X13775789Y-15902388D02*
X13766265Y-15864293D01*
X13766265Y-15864293D02*
X13766265Y-15816674D01*
X13766265Y-15816674D02*
X13775789Y-15778579D01*
X13775789Y-15778579D02*
X13785313Y-15759531D01*
X13785313Y-15759531D02*
X13794836Y-15750008D01*
X13794836Y-15750008D02*
X13813884Y-15740484D01*
X13966265Y-15921436D02*
X13975789Y-15930960D01*
X13975789Y-15930960D02*
X13966265Y-15940484D01*
X13966265Y-15940484D02*
X13956741Y-15930960D01*
X13956741Y-15930960D02*
X13966265Y-15921436D01*
X13966265Y-15921436D02*
X13966265Y-15940484D01*
X14166265Y-15940484D02*
X14051979Y-15940484D01*
X14109122Y-15940484D02*
X14109122Y-15740484D01*
X14109122Y-15740484D02*
X14090075Y-15769055D01*
X14090075Y-15769055D02*
X14071027Y-15788103D01*
X14071027Y-15788103D02*
X14051979Y-15797627D01*
X14290075Y-15740484D02*
X14309122Y-15740484D01*
X14309122Y-15740484D02*
X14328170Y-15750008D01*
X14328170Y-15750008D02*
X14337694Y-15759531D01*
X14337694Y-15759531D02*
X14347217Y-15778579D01*
X14347217Y-15778579D02*
X14356741Y-15816674D01*
X14356741Y-15816674D02*
X14356741Y-15864293D01*
X14356741Y-15864293D02*
X14347217Y-15902388D01*
X14347217Y-15902388D02*
X14337694Y-15921436D01*
X14337694Y-15921436D02*
X14328170Y-15930960D01*
X14328170Y-15930960D02*
X14309122Y-15940484D01*
X14309122Y-15940484D02*
X14290075Y-15940484D01*
X14290075Y-15940484D02*
X14271027Y-15930960D01*
X14271027Y-15930960D02*
X14261503Y-15921436D01*
X14261503Y-15921436D02*
X14251979Y-15902388D01*
X14251979Y-15902388D02*
X14242456Y-15864293D01*
X14242456Y-15864293D02*
X14242456Y-15816674D01*
X14242456Y-15816674D02*
X14251979Y-15778579D01*
X14251979Y-15778579D02*
X14261503Y-15759531D01*
X14261503Y-15759531D02*
X14271027Y-15750008D01*
X14271027Y-15750008D02*
X14290075Y-15740484D01*
X14528170Y-15740484D02*
X14490075Y-15740484D01*
X14490075Y-15740484D02*
X14471027Y-15750008D01*
X14471027Y-15750008D02*
X14461503Y-15759531D01*
X14461503Y-15759531D02*
X14442456Y-15788103D01*
X14442456Y-15788103D02*
X14432932Y-15826198D01*
X14432932Y-15826198D02*
X14432932Y-15902388D01*
X14432932Y-15902388D02*
X14442456Y-15921436D01*
X14442456Y-15921436D02*
X14451979Y-15930960D01*
X14451979Y-15930960D02*
X14471027Y-15940484D01*
X14471027Y-15940484D02*
X14509122Y-15940484D01*
X14509122Y-15940484D02*
X14528170Y-15930960D01*
X14528170Y-15930960D02*
X14537694Y-15921436D01*
X14537694Y-15921436D02*
X14547217Y-15902388D01*
X14547217Y-15902388D02*
X14547217Y-15854769D01*
X14547217Y-15854769D02*
X14537694Y-15835722D01*
X14537694Y-15835722D02*
X14528170Y-15826198D01*
X14528170Y-15826198D02*
X14509122Y-15816674D01*
X14509122Y-15816674D02*
X14471027Y-15816674D01*
X14471027Y-15816674D02*
X14451979Y-15826198D01*
X14451979Y-15826198D02*
X14442456Y-15835722D01*
X14442456Y-15835722D02*
X14432932Y-15854769D01*
X14613884Y-15740484D02*
X14737694Y-15740484D01*
X14737694Y-15740484D02*
X14671027Y-15816674D01*
X14671027Y-15816674D02*
X14699598Y-15816674D01*
X14699598Y-15816674D02*
X14718646Y-15826198D01*
X14718646Y-15826198D02*
X14728170Y-15835722D01*
X14728170Y-15835722D02*
X14737694Y-15854769D01*
X14737694Y-15854769D02*
X14737694Y-15902388D01*
X14737694Y-15902388D02*
X14728170Y-15921436D01*
X14728170Y-15921436D02*
X14718646Y-15930960D01*
X14718646Y-15930960D02*
X14699598Y-15940484D01*
X14699598Y-15940484D02*
X14642456Y-15940484D01*
X14642456Y-15940484D02*
X14623408Y-15930960D01*
X14623408Y-15930960D02*
X14613884Y-15921436D01*
X14813884Y-15740484D02*
X14813884Y-15778579D01*
X14890075Y-15740484D02*
X14890075Y-15778579D01*
X15185313Y-16016674D02*
X15175789Y-16007150D01*
X15175789Y-16007150D02*
X15156741Y-15978579D01*
X15156741Y-15978579D02*
X15147218Y-15959531D01*
X15147218Y-15959531D02*
X15137694Y-15930960D01*
X15137694Y-15930960D02*
X15128170Y-15883341D01*
X15128170Y-15883341D02*
X15128170Y-15845246D01*
X15128170Y-15845246D02*
X15137694Y-15797627D01*
X15137694Y-15797627D02*
X15147218Y-15769055D01*
X15147218Y-15769055D02*
X15156741Y-15750008D01*
X15156741Y-15750008D02*
X15175789Y-15721436D01*
X15175789Y-15721436D02*
X15185313Y-15711912D01*
X15347218Y-15807150D02*
X15347218Y-15940484D01*
X15299598Y-15730960D02*
X15251979Y-15873817D01*
X15251979Y-15873817D02*
X15375789Y-15873817D01*
X15604360Y-15940484D02*
X15604360Y-15740484D01*
X15690075Y-15940484D02*
X15690075Y-15835722D01*
X15690075Y-15835722D02*
X15680551Y-15816674D01*
X15680551Y-15816674D02*
X15661503Y-15807150D01*
X15661503Y-15807150D02*
X15632932Y-15807150D01*
X15632932Y-15807150D02*
X15613884Y-15816674D01*
X15613884Y-15816674D02*
X15604360Y-15826198D01*
X15813884Y-15940484D02*
X15794837Y-15930960D01*
X15794837Y-15930960D02*
X15785313Y-15921436D01*
X15785313Y-15921436D02*
X15775789Y-15902388D01*
X15775789Y-15902388D02*
X15775789Y-15845246D01*
X15775789Y-15845246D02*
X15785313Y-15826198D01*
X15785313Y-15826198D02*
X15794837Y-15816674D01*
X15794837Y-15816674D02*
X15813884Y-15807150D01*
X15813884Y-15807150D02*
X15842456Y-15807150D01*
X15842456Y-15807150D02*
X15861503Y-15816674D01*
X15861503Y-15816674D02*
X15871027Y-15826198D01*
X15871027Y-15826198D02*
X15880551Y-15845246D01*
X15880551Y-15845246D02*
X15880551Y-15902388D01*
X15880551Y-15902388D02*
X15871027Y-15921436D01*
X15871027Y-15921436D02*
X15861503Y-15930960D01*
X15861503Y-15930960D02*
X15842456Y-15940484D01*
X15842456Y-15940484D02*
X15813884Y-15940484D01*
X15994837Y-15940484D02*
X15975789Y-15930960D01*
X15975789Y-15930960D02*
X15966265Y-15911912D01*
X15966265Y-15911912D02*
X15966265Y-15740484D01*
X16147218Y-15930960D02*
X16128170Y-15940484D01*
X16128170Y-15940484D02*
X16090075Y-15940484D01*
X16090075Y-15940484D02*
X16071027Y-15930960D01*
X16071027Y-15930960D02*
X16061503Y-15911912D01*
X16061503Y-15911912D02*
X16061503Y-15835722D01*
X16061503Y-15835722D02*
X16071027Y-15816674D01*
X16071027Y-15816674D02*
X16090075Y-15807150D01*
X16090075Y-15807150D02*
X16128170Y-15807150D01*
X16128170Y-15807150D02*
X16147218Y-15816674D01*
X16147218Y-15816674D02*
X16156741Y-15835722D01*
X16156741Y-15835722D02*
X16156741Y-15854769D01*
X16156741Y-15854769D02*
X16061503Y-15873817D01*
X16232932Y-15930960D02*
X16251980Y-15940484D01*
X16251980Y-15940484D02*
X16290075Y-15940484D01*
X16290075Y-15940484D02*
X16309122Y-15930960D01*
X16309122Y-15930960D02*
X16318646Y-15911912D01*
X16318646Y-15911912D02*
X16318646Y-15902388D01*
X16318646Y-15902388D02*
X16309122Y-15883341D01*
X16309122Y-15883341D02*
X16290075Y-15873817D01*
X16290075Y-15873817D02*
X16261503Y-15873817D01*
X16261503Y-15873817D02*
X16242456Y-15864293D01*
X16242456Y-15864293D02*
X16232932Y-15845246D01*
X16232932Y-15845246D02*
X16232932Y-15835722D01*
X16232932Y-15835722D02*
X16242456Y-15816674D01*
X16242456Y-15816674D02*
X16261503Y-15807150D01*
X16261503Y-15807150D02*
X16290075Y-15807150D01*
X16290075Y-15807150D02*
X16309122Y-15816674D01*
X16385313Y-16016674D02*
X16394837Y-16007150D01*
X16394837Y-16007150D02*
X16413884Y-15978579D01*
X16413884Y-15978579D02*
X16423408Y-15959531D01*
X16423408Y-15959531D02*
X16432932Y-15930960D01*
X16432932Y-15930960D02*
X16442456Y-15883341D01*
X16442456Y-15883341D02*
X16442456Y-15845246D01*
X16442456Y-15845246D02*
X16432932Y-15797627D01*
X16432932Y-15797627D02*
X16423408Y-15769055D01*
X16423408Y-15769055D02*
X16413884Y-15750008D01*
X16413884Y-15750008D02*
X16394837Y-15721436D01*
X16394837Y-15721436D02*
X16385313Y-15711912D01*
M02*
